<?xml version="1.0" encoding="UTF-8" standalone="no"?>
<!DOCTYPE svg PUBLIC "-//W3C//DTD SVG 1.1//EN" "http://www.w3.org/Graphics/SVG/1.1/DTD/svg11.dtd">
<svg width="100%" height="100%" viewBox="0 0 364 235" version="1.1" xmlns="http://www.w3.org/2000/svg" xmlns:xlink="http://www.w3.org/1999/xlink" xml:space="preserve" xmlns:serif="http://www.serif.com/" style="fill-rule:evenodd;clip-rule:evenodd;stroke-linejoin:round;stroke-miterlimit:1.41421;">
    <g transform="matrix(1,0,0,1,-545.599,-204.249)">
        <g transform="matrix(0.30956,0,0,0.461783,376.703,109.93)">
            <rect x="545.599" y="204.249" width="1175.86" height="508.897" style="fill:none;"/>
            <g transform="matrix(6.53296,0,0,4.37943,1133.53,458.697)">
                <g transform="matrix(1,0,0,1,-45.715,-45.715)">
                    <clipPath id="_clip1">
                        <rect x="0" y="0" width="91.43" height="91.43"/>
                    </clipPath>
                    <g clip-path="url(#_clip1)">
                        <g id="Layer_1-2">
                            <path d="M78,0L13.39,0C9.001,0 5.39,3.611 5.39,8L5.39,75.36L2.68,75.36C1.225,75.36 0.022,76.545 0,78L0,80.68C0,80.69 0,80.7 0,80.71C0,86.587 4.833,91.425 10.71,91.43L70,91.43C75.877,91.43 80.715,86.597 80.72,80.72L80.72,21.43L88.72,21.43C90.186,21.425 91.39,20.216 91.39,18.75L91.39,13.39C91.385,6.047 85.343,0.005 78,0ZM10.71,86.08C7.773,86.075 5.36,83.657 5.36,80.72L59.29,80.72C59.286,82.603 59.783,84.453 60.73,86.08L10.71,86.08ZM75.36,18.75L75.36,80.75C75.363,80.827 75.365,80.904 75.365,80.981C75.365,83.922 72.945,86.341 70.005,86.341C67.065,86.341 64.645,83.922 64.645,80.981C64.645,80.904 64.647,80.827 64.65,80.75L64.65,78C64.629,76.556 63.444,75.376 62,75.36L10.71,75.36L10.71,8C10.715,6.532 11.922,5.325 13.39,5.32L75.39,5.32L75.36,18.75ZM86.08,16.07L80.72,16.07L80.72,5.82C83.929,6.942 86.088,9.991 86.08,13.39L86.08,16.07Z" style="fill:rgb(77,233,74);fill-rule:nonzero;"/>
                            <path d="M56.16,10L28.16,10C26.964,10.048 26.004,11.043 26,12.24L26,30.88C25.999,31.583 26.329,32.246 26.89,32.67L36.82,40.2C30.653,42.464 26.53,48.369 26.53,54.938C26.53,63.551 33.617,70.638 42.23,70.638C50.843,70.638 57.93,63.551 57.93,54.938C57.93,48.369 53.807,42.464 47.64,40.2L57.57,32.67C58.131,32.246 58.461,31.583 58.46,30.88L58.46,12.24C58.455,11.009 57.441,9.999 56.21,9.999C56.193,9.999 56.177,10 56.16,10ZM33.05,31.74L30.44,29.74L30.44,14.48L33.05,14.48L33.05,31.74ZM37.54,14.48L46.81,14.48L46.81,35.15L42.18,38.66L37.54,35.15L37.54,14.48ZM53.39,54.94C53.39,61.09 48.33,66.15 42.18,66.15C36.03,66.15 30.97,61.09 30.97,54.94C30.97,48.79 36.03,43.73 42.18,43.73C48.328,43.735 53.385,48.792 53.39,54.94ZM51.31,31.74L51.31,14.48L53.91,14.48L53.91,29.76L51.31,31.74Z" style="fill:rgb(77,233,74);fill-rule:nonzero;"/>
                            <path d="M50.49,52.86C50.245,52.117 49.631,51.552 48.87,51.37L45.76,50.63L44.1,47.9C43.692,47.232 42.963,46.823 42.18,46.823C41.397,46.823 40.668,47.232 40.26,47.9L38.6,50.63L35.49,51.37C34.487,51.616 33.775,52.522 33.775,53.555C33.775,54.084 33.961,54.595 34.3,55L36.39,57.42L36.12,60.6C36.063,61.38 36.411,62.136 37.04,62.6C37.676,63.057 38.507,63.152 39.23,62.85L42.23,61.62L45.17,62.85C45.894,63.146 46.721,63.052 47.36,62.6C47.992,62.138 48.341,61.38 48.28,60.6L48,57.44L50.05,55C50.554,54.41 50.721,53.601 50.49,52.86ZM44,55.22C43.608,55.676 43.413,56.27 43.46,56.87L43.46,57.31L43.06,57.14C42.784,57.025 42.488,56.967 42.19,56.97C41.891,56.966 41.595,57.024 41.32,57.14L40.92,57.31L40.92,56.87C40.968,56.272 40.778,55.678 40.39,55.22L40.1,54.89L40.53,54.79C41.11,54.653 41.613,54.294 41.93,53.79L42.16,53.42L42.38,53.79C42.704,54.292 43.209,54.651 43.79,54.79L44.21,54.89L44,55.22Z" style="fill:rgb(77,233,74);fill-rule:nonzero;"/>
                        </g>
                    </g>
                </g>
            </g>
        </g>
    </g>
</svg>
