<?xml version="1.0" encoding="utf-8"?>
<!-- Generator: Adobe Illustrator 24.1.3, SVG Export Plug-In . SVG Version: 6.00 Build 0)  -->
<svg version="1.1" id="Layer_1" xmlns="http://www.w3.org/2000/svg" xmlns:xlink="http://www.w3.org/1999/xlink" x="0px" y="0px"
	 viewBox="0 0 438.7 131.4" style="enable-background:new 0 0 438.7 131.4;" xml:space="preserve">
<style type="text/css">
	.st0{display:none;fill:#4DE94A;}
	.st1{display:none;fill:#FFFFFF;}
	.st2{clip-path:url(#SVGID_2_);}
	.st3{fill:#4267B2;}
	.st4{fill:#FFFFFF;}
	.st5{clip-path:url(#SVGID_4_);}
	.st6{fill:#FF0000;}
	.st7{fill:#00A3E4;}
	.st8{clip-path:url(#SVGID_6_);}
	.st9{fill:#ECEFF1;}
	.st10{fill:#4CAF50;}
	.st11{fill:#FAFAFA;}
	.st12{clip-path:url(#SVGID_9_);}
	.st13{clip-path:url(#SVGID_10_);}
	.st14{clip-path:url(#SVGID_12_);}
	.st15{clip-path:url(#SVGID_15_);}
	.st16{clip-path:url(#SVGID_16_);}
	.st17{clip-path:url(#SVGID_18_);}
	.st18{clip-path:url(#SVGID_20_);}
	.st19{clip-path:url(#SVGID_22_);}
	.st20{fill:#039BE5;}
	.st21{fill:#5C6BC0;}
	.st22{clip-path:url(#SVGID_24_);}
	.st23{fill:#212121;}
	.st24{fill:#2196F3;}
	.st25{clip-path:url(#SVGID_26_);}
	.st26{fill:#0077B5;}
</style>
<g id="Layer_2_1_">
	<g id="Layer_1-2">
		<rect x="113.4" y="31.2" class="st0" width="209.8" height="44.7"/>
		<path class="st1" d="M138.5,57.6l1.8-1.3c0.3,0.7,0.9,1.1,1.6,1.2c1,0,1.5-0.5,1.5-2v-7.7h2.6v7.8c0,2.3-1.2,4.1-3.8,4.1
			C140.7,59.8,139.2,59,138.5,57.6z"/>
		<path class="st1" d="M148,55c-0.2-2.4,1.6-4.5,4-4.7c2.4-0.2,4.5,1.6,4.7,4c0,0.2,0,0.5,0,0.7c0.2,2.4-1.6,4.5-4,4.7
			c-2.4,0.2-4.5-1.6-4.7-4C148,55.5,148,55.2,148,55z M154,55c0-1.5-0.5-2.5-1.6-2.5s-1.6,1-1.6,2.5s0.5,2.5,1.6,2.5
			S154,56.6,154,55z"/>
		<path class="st1" d="M158.4,47.9c-0.1-0.8,0.5-1.6,1.4-1.7c0.8-0.1,1.6,0.5,1.7,1.4c0.1,0.8-0.5,1.6-1.4,1.7c0,0-0.1,0-0.1,0
			c-0.8,0.1-1.5-0.5-1.5-1.3C158.4,47.9,158.4,47.9,158.4,47.9z M158.6,50.5h2.6v8.9h-2.6V50.5z"/>
		<path class="st1" d="M163.6,50.5h2.2l0.2,1.1h0.1c0.7-0.8,1.8-1.3,2.9-1.3c1.9,0,2.8,1.4,2.8,3.6v5.5H169v-5.2
			c0-1.3-0.3-1.7-1.1-1.7c-0.6,0-1.3,0.4-1.6,0.9v6h-2.6L163.6,50.5z"/>
		<path class="st1" d="M177,55c-0.2-2.4,1.7-4.5,4.1-4.6c2.4-0.2,4.5,1.7,4.6,4.1c0,0.2,0,0.4,0,0.6c0.2,2.4-1.7,4.5-4.1,4.6
			c-2.4,0.2-4.5-1.7-4.6-4.1C177,55.4,177,55.2,177,55z M183,55c0-1.5-0.5-2.5-1.6-2.5s-1.6,1-1.6,2.5s0.6,2.5,1.6,2.5
			S183,56.6,183,55z"/>
		<path class="st1" d="M187.5,56.1v-5.5h2.6v5.2c0,1.3,0.3,1.7,1.1,1.7c0.7,0,1.3-0.4,1.6-1v-5.9h2.6v8.9h-2.2l-0.2-1.2h-0.1
			c-0.7,0.9-1.7,1.4-2.8,1.5C188.3,59.7,187.5,58.3,187.5,56.1z"/>
		<path class="st1" d="M197.8,50.5h2.2l0.2,1.6h0.1c0.5-1,1.4-1.7,2.5-1.8c0.4,0,0.7,0,1.1,0.2l-0.4,2.3c-0.3-0.1-0.7-0.1-1-0.1
			c-1,0.1-1.8,0.7-2,1.7v5.2h-2.6L197.8,50.5z"/>
		<path class="st1" d="M208.3,53.7c0-3.9,2.6-6.2,5.5-6.2c1.3,0,2.6,0.6,3.5,1.5l-1.4,1.7c-0.5-0.6-1.3-0.9-2.1-0.9
			c-1.6,0-2.9,1.4-2.9,3.8s1.1,3.8,2.8,3.8c0.9,0,1.7-0.4,2.3-1.1l1.4,1.7c-0.9,1.1-2.3,1.7-3.8,1.7
			C210.8,59.7,208.3,57.6,208.3,53.7z"/>
		<path class="st1" d="M218.6,55c-0.2-2.4,1.6-4.5,4-4.7c2.4-0.2,4.5,1.6,4.7,4c0,0.2,0,0.5,0,0.7c0.2,2.4-1.6,4.5-4,4.7
			c-2.4,0.2-4.5-1.6-4.7-4C218.6,55.5,218.6,55.2,218.6,55z M224.6,55c0-1.5-0.5-2.5-1.6-2.5s-1.6,1-1.6,2.5s0.5,2.5,1.6,2.5
			S224.6,56.6,224.6,55L224.6,55z"/>
		<path class="st1" d="M229.2,50.5h2.2l0.2,1.2h0.1c0.7-0.8,1.6-1.3,2.7-1.4c1.1-0.1,2.1,0.5,2.5,1.5c0.7-0.9,1.7-1.4,2.8-1.5
			c1.9,0,2.8,1.4,2.8,3.6v5.5h-2.6v-5.2c0-1.3-0.4-1.7-1.1-1.7c-0.6,0.1-1.2,0.4-1.5,0.9v6h-2.6v-5.2c0-1.3-0.4-1.7-1.1-1.7
			c-0.6,0.1-1.1,0.4-1.5,0.9v6h-2.7V50.5z"/>
		<path class="st1" d="M244.7,50.5h2.2l0.2,1.2h0.1c0.7-0.8,1.7-1.3,2.7-1.4c1.1-0.1,2,0.5,2.5,1.5c0.7-0.9,1.7-1.4,2.8-1.5
			c1.9,0,2.8,1.4,2.8,3.6v5.5h-2.6v-5.2c0-1.3-0.4-1.7-1.1-1.7c-0.6,0.1-1.2,0.4-1.5,0.9v6h-2.6v-5.2c0-1.3-0.4-1.7-1.1-1.7
			c-0.6,0.1-1.1,0.4-1.5,0.9v6h-2.6L244.7,50.5z"/>
		<path class="st1" d="M260,56.1v-5.5h2.6v5.2c0,1.3,0.3,1.7,1.1,1.7c0.7,0,1.3-0.4,1.6-1v-5.9h2.7v8.9h-2.2l-0.2-1.2h-0.1
			c-0.6,0.9-1.7,1.4-2.8,1.5C260.9,59.7,260,58.3,260,56.1z"/>
		<path class="st1" d="M270.4,50.5h2.2l0.2,1.1h0.1c0.7-0.8,1.8-1.3,2.9-1.3c1.9,0,2.8,1.4,2.8,3.6v5.5h-2.6v-5.2
			c0-1.3-0.3-1.7-1.1-1.7c-0.6,0-1.3,0.4-1.6,0.9v6h-2.6L270.4,50.5z"/>
		<path class="st1" d="M280.5,47.9c-0.1-0.8,0.5-1.6,1.4-1.7c0.8-0.1,1.6,0.5,1.7,1.4c0.1,0.8-0.5,1.6-1.4,1.7c-0.1,0-0.1,0-0.2,0
			C281.2,49.3,280.6,48.7,280.5,47.9C280.5,47.9,280.5,47.9,280.5,47.9z M280.7,50.5h2.6v8.9h-2.6V50.5z"/>
		<path class="st1" d="M286.1,56.2v-3.6h-1.2v-2l1.4-0.1l0.3-2.4h2.2v2.4h2.1v2.1h-2.1v3.6c0,1,0.5,1.4,1.2,1.4
			c0.3,0,0.6-0.1,0.9-0.2l0.4,1.9c-0.6,0.2-1.3,0.3-2,0.3C287,59.7,286.1,58.3,286.1,56.2z"/>
		<path class="st1" d="M292.4,62.8l0.5-2c0.2,0.1,0.4,0.1,0.6,0.1c0.7,0,1.4-0.5,1.5-1.2l0.1-0.5l-3.5-8.7h2.7l1.3,3.8
			c0.3,0.8,0.5,1.7,0.7,2.5h0.1c0.2-0.8,0.4-1.7,0.6-2.5l1.1-3.8h2.5l-3.1,9c-0.8,2.2-1.8,3.4-3.9,3.4
			C293.2,63,292.8,62.9,292.4,62.8z"/>
		<g>
			<defs>
				<rect id="SVGID_1_" x="345.1" width="19.9" height="19.9"/>
			</defs>
			<clipPath id="SVGID_2_">
				<use xlink:href="#SVGID_1_"  style="overflow:visible;"/>
			</clipPath>
			<g class="st2">
				<path class="st3" d="M363.9,0h-17.7c-0.6,0-1.1,0.5-1.1,1.1c0,0,0,0,0,0v17.6c0,0.6,0.5,1.1,1.1,1.1c0,0,0,0,0,0h17.7
					c0.6,0,1.1-0.5,1.1-1.1c0,0,0,0,0,0l0,0V1.1C365,0.5,364.5,0,363.9,0C363.9,0,363.9,0,363.9,0z"/>
			</g>
		</g>
		<path class="st4" d="M358.8,19.9v-7.7h2.6l0.4-3h-3V7.3c0-0.9,0.2-1.5,1.5-1.5h1.6V3.1C361.1,3,360.3,3,359.6,3
			c-2-0.1-3.7,1.3-3.9,3.3c0,0.2,0,0.4,0,0.7v2.2h-2.6v3h2.6v7.7H358.8z"/>
		<g>
			<defs>
				<rect id="SVGID_3_" x="303.2" y="95.3" width="23.8" height="16.7"/>
			</defs>
			<clipPath id="SVGID_4_">
				<use xlink:href="#SVGID_3_"  style="overflow:visible;"/>
			</clipPath>
			<g class="st5">
				<path class="st6" d="M326.6,97.9c-0.3-1-1.1-1.8-2.1-2.1c-1.9-0.5-9.3-0.5-9.3-0.5s-7.5,0-9.3,0.5c-1,0.3-1.8,1.1-2.1,2.1
					c-0.7,3.8-0.7,7.7,0,11.4c0.3,1,1.1,1.8,2.1,2.1c1.9,0.5,9.3,0.5,9.3,0.5s7.5,0,9.3-0.5c1-0.3,1.8-1.1,2.1-2.1
					c0.3-1.9,0.5-3.8,0.5-5.7C327.1,101.7,326.9,99.8,326.6,97.9z"/>
			</g>
		</g>
		<path class="st4" d="M312.8,107.2l6.2-3.6l-6.2-3.6V107.2z"/>
		<path class="st7" d="M127.7,116.7c-0.8,0.3-1.6,0.6-2.4,0.7c0.9-0.5,1.5-1.3,1.8-2.3c-0.8,0.5-1.7,0.8-2.7,1
			c-1.6-1.7-4.3-1.8-6-0.2c-1.1,1-1.5,2.5-1.2,4c-3.4-0.2-6.5-1.8-8.7-4.4c-0.4,0.6-0.6,1.4-0.6,2.1c0,1.4,0.7,2.7,1.9,3.5
			c-0.7,0-1.3-0.2-1.9-0.5l0,0c0,2,1.4,3.7,3.4,4.1c-0.4,0.1-0.7,0.1-1.1,0.1c-0.3,0-0.5,0-0.8-0.1c0.6,1.7,2.1,2.9,3.9,2.9
			c-1.5,1.2-3.3,1.8-5.2,1.8c-0.3,0-0.7,0-1-0.1c5.6,3.6,13,1.9,16.5-3.6c1.2-1.9,1.9-4.1,1.9-6.4c0-0.2,0-0.4,0-0.5
			C126.5,118.2,127.2,117.5,127.7,116.7L127.7,116.7z"/>
		<g>
			<defs>
				<rect id="SVGID_5_" x="10" y="53.6" width="24.6" height="24.6"/>
			</defs>
			<clipPath id="SVGID_6_">
				<use xlink:href="#SVGID_5_"  style="overflow:visible;"/>
			</clipPath>
			<g class="st8">
				<path class="st9" d="M31,57.1c-2.3-2.3-5.4-3.5-8.7-3.5c-6.7,0-12.2,5.4-12.2,12.2c0,2.1,0.6,4.2,1.6,6.1L10,78.1l6.5-1.7
					c1.8,1,3.8,1.5,5.9,1.5C33.2,77.9,38.6,64.8,31,57.1L31,57.1z"/>
				<path class="st10" d="M22.4,75.8L22.4,75.8c-2,0-3.9-0.6-5.5-1.6l-3.8,1l1-3.7l-0.2-0.4c-3-4.7-1.5-11,3.2-14
					c4.7-3,11-1.5,14,3.2s1.5,11-3.2,14C26.1,75.3,24.3,75.8,22.4,75.8L22.4,75.8z"/>
			</g>
		</g>
		<path class="st11" d="M27.9,68.2L27.9,68.2c-0.3-0.1-1.8-0.8-2.1-0.9c-0.6-0.2-0.4,0-1.6,1.3c-0.2,0.2-0.4,0.2-0.7,0.1
			c-0.9-0.4-1.7-0.9-2.5-1.5c-0.7-0.6-1.2-1.3-1.7-2.1c-0.3-0.5,0.3-0.6,0.9-1.7c0.1-0.2,0.1-0.4,0-0.5c-0.1-0.2-0.7-1.7-0.9-2.3
			s-0.5-0.5-0.7-0.5c-0.5-0.1-1,0-1.4,0.3c-1.7,1.8-1.2,3.7,0.2,5.7c2.8,3.6,4.2,4.3,7,5.2c0.6,0.2,1.3,0.2,1.9,0.1
			c0.8-0.2,1.5-0.7,2-1.5c0.2-0.5,0.3-1,0.2-1.5C28.4,68.4,28.2,68.3,27.9,68.2L27.9,68.2z"/>
		<g>
			<defs>
				<path id="SVGID_7_" d="M85.4,15.2c0-0.9-0.2-1.9-0.5-2.8c-0.3-0.8-0.7-1.4-1.3-2c-0.6-0.6-1.2-1-2-1.3c-0.9-0.3-1.8-0.5-2.8-0.5
					c-1.2-0.1-1.6-0.1-4.7-0.1s-3.5,0-4.7,0.1c-0.9,0-1.9,0.2-2.8,0.5c-0.8,0.3-1.4,0.7-2,1.3c-0.6,0.6-1,1.2-1.3,2
					c-0.3,0.9-0.5,1.8-0.5,2.8c0,1.2-0.1,1.6-0.1,4.7s0,3.5,0.1,4.7c0,0.9,0.2,1.9,0.5,2.8c0.3,0.8,0.7,1.4,1.3,2
					c0.6,0.6,1.2,1,2,1.3c0.9,0.3,1.8,0.5,2.8,0.5c1.2,0.1,1.6,0.1,4.7,0.1s3.5,0,4.7-0.1c0.9,0,1.9-0.2,2.8-0.5
					c1.5-0.6,2.7-1.8,3.3-3.3c0.3-0.9,0.5-1.8,0.5-2.8c0.1-1.2,0.1-1.6,0.1-4.7S85.5,16.4,85.4,15.2L85.4,15.2z M83.4,24.4
					c0,0.7-0.1,1.4-0.4,2.1c-0.4,1-1.2,1.8-2.2,2.2c-0.7,0.2-1.4,0.4-2.1,0.4c-1.2,0-1.6,0.1-4.6,0.1s-3.4,0-4.6-0.1
					c-0.7,0-1.4-0.1-2.1-0.4c-0.5-0.2-0.9-0.5-1.3-0.9c-0.4-0.4-0.7-0.8-0.8-1.3c-0.3-0.7-0.4-1.4-0.4-2.1c-0.1-1.2-0.1-1.6-0.1-4.6
					s0-3.4,0.1-4.6c0-0.7,0.1-1.4,0.4-2.1c0.4-1,1.1-1.8,2.1-2.1c0.7-0.2,1.4-0.4,2.1-0.4c1.2,0,1.6-0.1,4.6-0.1l0,0
					c3,0,3.4,0,4.6,0.1c0.7,0,1.4,0.1,2.1,0.4c0.5,0.2,0.9,0.5,1.3,0.9c0.4,0.4,0.7,0.8,0.9,1.3c0.2,0.7,0.4,1.4,0.4,2.1
					c0,1.2,0.1,1.6,0.1,4.6S83.4,23.2,83.4,24.4L83.4,24.4z"/>
			</defs>
			<defs>
				<rect id="SVGID_8_" x="62.8" y="8.5" width="22.7" height="22.7"/>
			</defs>
			<clipPath id="SVGID_9_">
				<use xlink:href="#SVGID_7_"  style="overflow:visible;"/>
			</clipPath>
			<clipPath id="SVGID_10_" class="st12">
				<use xlink:href="#SVGID_8_"  style="overflow:visible;"/>
			</clipPath>
			<g class="st13">
				<g>
					<defs>
						<rect id="SVGID_11_" x="62.8" y="8.5" width="22.7" height="22.7"/>
					</defs>
					<clipPath id="SVGID_12_">
						<use xlink:href="#SVGID_11_"  style="overflow:visible;"/>
					</clipPath>
					<g class="st14">
						
							<image style="overflow:visible;enable-background:new    ;" width="1073" height="1071" xlink:href="9C6E8AB4D1F193B8.png"  transform="matrix(2.230953e-02 0 0 -2.148370e-02 62.5749 31.2)">
						</image>
					</g>
				</g>
			</g>
		</g>
		<g>
			<defs>
				<path id="SVGID_13_" d="M79.5,18c0-0.5-0.1-0.9-0.2-1.4c-0.1-0.4-0.3-0.7-0.6-1c-0.3-0.3-0.6-0.5-0.9-0.6
					c-0.4-0.2-0.8-0.2-1.3-0.3c-0.6,0-0.7,0-2.2,0s-1.6,0-2.2,0c-0.4,0-0.9,0.1-1.3,0.3c-0.3,0.1-0.7,0.4-0.9,0.6
					c-0.3,0.3-0.5,0.6-0.6,1C69.1,17,69,17.5,69,18c0,0.6,0,0.8,0,2.3c0,1.5,0,1.7,0,2.3c0,0.5,0.1,0.9,0.2,1.4
					c0.1,0.4,0.3,0.7,0.6,1c0.3,0.3,0.6,0.5,0.9,0.7c0.4,0.2,0.8,0.2,1.3,0.3c0.6,0,0.7,0,2.2,0s1.6,0,2.2,0c0.4,0,0.9-0.1,1.3-0.3
					c0.7-0.3,1.3-0.9,1.5-1.6c0.2-0.4,0.2-0.9,0.2-1.4c0-0.6,0-0.8,0-2.3C79.6,18.8,79.6,18.6,79.5,18L79.5,18z M78.6,22.6
					c0,0.4-0.1,0.7-0.2,1c-0.2,0.5-0.5,0.9-1,1.1c-0.3,0.1-0.6,0.2-1,0.2c-0.6,0-0.7,0-2.1,0c-1.4,0-1.6,0-2.1,0
					c-0.3,0-0.7-0.1-1-0.2c-0.2-0.1-0.4-0.2-0.6-0.4c-0.2-0.2-0.3-0.4-0.4-0.6c-0.1-0.3-0.2-0.7-0.2-1c0-0.6,0-0.8,0-2.3
					c0-1.5,0-1.7,0-2.3c0-0.4,0.1-0.7,0.2-1c0.2-0.5,0.5-0.9,1-1.1c0.3-0.1,0.6-0.2,1-0.2c0.6,0,0.7,0,2.1,0l0,0c1.4,0,1.6,0,2.1,0
					c0.3,0,0.7,0.1,1,0.2c0.2,0.1,0.4,0.2,0.6,0.4c0.2,0.2,0.3,0.4,0.4,0.6c0.1,0.3,0.2,0.7,0.2,1c0,0.6,0,0.8,0,2.3
					S78.6,22,78.6,22.6L78.6,22.6z"/>
			</defs>
			<defs>
				<rect id="SVGID_14_" x="63.6" y="8.5" width="22.7" height="22.7"/>
			</defs>
			<clipPath id="SVGID_15_">
				<use xlink:href="#SVGID_13_"  style="overflow:visible;"/>
			</clipPath>
			<clipPath id="SVGID_16_" class="st15">
				<use xlink:href="#SVGID_14_"  style="overflow:visible;"/>
			</clipPath>
			<g class="st16">
				<g>
					<defs>
						<rect id="SVGID_17_" x="69.1" y="14" width="11.7" height="11.7"/>
					</defs>
					<clipPath id="SVGID_18_">
						<use xlink:href="#SVGID_17_"  style="overflow:visible;"/>
					</clipPath>
					<g class="st17">
						
							<image style="overflow:visible;enable-background:new    ;" width="557" height="553" xlink:href="9C6E8AB4D1F193B9.png"  transform="matrix(1.996383e-02 0 0 -1.996383e-02 69.0342 25.73)">
						</image>
					</g>
				</g>
			</g>
		</g>
		<g>
			<defs>
				<path id="SVGID_19_" d="M81.5,13.8c0,0.8-0.6,1.4-1.4,1.4s-1.4-0.6-1.4-1.4s0.6-1.4,1.4-1.4c0,0,0,0,0,0
					C80.9,12.4,81.5,13,81.5,13.8z"/>
			</defs>
			<clipPath id="SVGID_20_">
				<use xlink:href="#SVGID_19_"  style="overflow:visible;"/>
			</clipPath>
			<g class="st18">
				<g>
					<defs>
						<rect id="SVGID_21_" x="78.8" y="12" width="3.1" height="3.2"/>
					</defs>
					<clipPath id="SVGID_22_">
						<use xlink:href="#SVGID_21_"  style="overflow:visible;"/>
					</clipPath>
					<g class="st19">
						
							<image style="overflow:visible;enable-background:new    ;" width="137" height="134" xlink:href="9C6E8AB4D1F193BF.png"  transform="matrix(2.259715e-02 0 0 -2.288431e-02 78.7533 15.2076)">
						</image>
					</g>
				</g>
			</g>
		</g>
		<path class="st20" d="M78.8,75.9c0,6.8-5.5,12.3-12.3,12.3c-6.8,0-12.3-5.5-12.3-12.3c0-6.8,5.5-12.3,12.3-12.3
			S78.8,69.2,78.8,75.9L78.8,75.9z"/>
		<path class="st4" d="M59.9,75.7l11.8-4.6c0.6-0.2,1,0.1,0.8,1l0,0l-2,9.5c-0.2,0.7-0.6,0.8-1.1,0.5l-3.1-2.3l-1.5,1.4
			c-0.2,0.2-0.4,0.3-0.6,0.3l0.2-3.1l5.7-5.1c0.2-0.2-0.1-0.3-0.4-0.1l-7,4.4l-3-0.9C59.1,76.5,59.1,76,59.9,75.7L59.9,75.7z"/>
		<path class="st21" d="M247.2,116.3h14.6l-0.7-2.3l6,5.1v-22c-0.1-1.4-1.3-2.5-2.7-2.5h-17.2c-1.4,0-2.6,1.1-2.6,2.5v16.6
			C244.6,115.2,245.8,116.3,247.2,116.3C247.2,116.3,247.2,116.3,247.2,116.3L247.2,116.3z M258,100.4L258,100.4z M250.2,101.7
			c1-0.8,2.3-1.3,3.6-1.3l0.1,0.1c-1.2,0.2-2.4,0.8-3.3,1.6c3.3-1.6,7.1-1.6,10.4,0.1c-0.9-0.7-2-1.3-3.2-1.6l0.2-0.2
			c1.3,0.1,2.5,0.5,3.6,1.3c1.2,2.2,1.8,4.7,1.9,7.2c-1,1.1-2.5,1.8-4,1.8c0,0-0.5-0.6-0.8-1c0.9-0.2,1.7-0.7,2.3-1.4
			c-3.2,2-6.1,1.7-9.5,0.3c0,0,0,0-0.1,0l0,0c0,0,0,0-0.1,0h-0.1c-0.1-0.1-0.2-0.1-0.3-0.2c0.6,0.7,1.3,1.2,2.2,1.4
			c-0.4,0.5-0.8,1-0.8,1c-1.5,0.1-3-0.6-3.9-1.8C248.4,106.4,249,104,250.2,101.7L250.2,101.7z"/>
		<path class="st21" d="M258.2,107.7c0.8,0,1.4-0.6,1.4-1.4c0-0.8-0.6-1.4-1.4-1.4l0,0c-0.8,0-1.4,0.6-1.4,1.4
			C256.8,107,257.4,107.7,258.2,107.7z"/>
		<path class="st21" d="M253.5,107.7c0.7,0,1.3-0.6,1.3-1.4c0-0.7-0.6-1.3-1.3-1.4c0,0,0,0,0,0l0,0c-0.8,0-1.4,0.6-1.4,1.4
			C252.1,107,252.7,107.7,253.5,107.7z"/>
		<g>
			<defs>
				<rect id="SVGID_23_" x="172.2" y="96.2" width="22.2" height="21.3"/>
			</defs>
			<clipPath id="SVGID_24_">
				<use xlink:href="#SVGID_23_"  style="overflow:visible;"/>
			</clipPath>
			<g class="st22">
				<path class="st23" d="M183.3,96.2c-6-0.1-11,4.7-11.1,10.7c-0.1,4.8,3,9.1,7.6,10.6c0.6,0.1,0.8-0.2,0.8-0.5s0-1,0-1.9
					c-3.1,0.7-3.7-1.5-3.7-1.5c-0.2-0.7-0.7-1.2-1.3-1.6c-1-0.7,0.1-0.7,0.1-0.7c0.7,0.1,1.3,0.5,1.7,1.1c0.7,1.1,2.1,1.5,3.2,0.9
					c0-0.6,0.3-1.1,0.7-1.4c-2.5-0.3-5.1-1.2-5.1-5.4c0-1.1,0.4-2.1,1.1-2.9c-0.3-0.9-0.3-2,0.1-2.9c0,0,0.9-0.3,3.1,1.1
					c1.8-0.5,3.7-0.5,5.5,0c2.1-1.4,3-1.1,3-1.1c0.4,0.9,0.4,1.9,0.1,2.9c0.7,0.8,1.2,1.8,1.1,2.9c0,4.2-2.6,5.1-5.1,5.4
					c0.5,0.5,0.8,1.3,0.8,2c0,1.5,0,2.6,0,3s0.2,0.6,0.8,0.5c5.7-1.8,8.9-7.9,7.2-13.6C192.5,99.2,188.2,96.1,183.3,96.2L183.3,96.2
					z"/>
			</g>
		</g>
		<path class="st24" d="M365,102.8c0,3.2,1.6,6.1,4.1,8v3.9l3.8-2.1c1,0.3,2.1,0.4,3.2,0.4c6.1,0,11.1-4.6,11.1-10.3
			s-5-10.3-11.1-10.3S365,97.2,365,102.8z M374.9,100l2.9,3l5.4-3l-6.1,6.4l-2.8-3l-5.5,3L374.9,100z"/>
		<g>
			<defs>
				<rect id="SVGID_25_" x="369.6" y="42.8" width="22.2" height="18.5"/>
			</defs>
			<clipPath id="SVGID_26_">
				<use xlink:href="#SVGID_25_"  style="overflow:visible;"/>
			</clipPath>
			<g class="st25">
				<path class="st20" d="M378.3,55.1l-0.4,5.2c0.4,0,0.8-0.2,1-0.5l2.5-2.4l5.1,3.7c0.9,0.5,1.6,0.2,1.9-0.9l3.4-15.7l0,0
					c0.3-1.4-0.5-1.9-1.4-1.6l-19.7,7.5c-1.3,0.5-1.3,1.3-0.2,1.6l5,1.6l11.7-7.3c0.5-0.4,1-0.2,0.6,0.2L378.3,55.1z"/>
			</g>
		</g>
		<path class="st26" d="M428.7,42.8L428.7,42.8v-6.5c0-3.2-0.7-5.6-4.4-5.6c-1.4-0.1-2.8,0.7-3.5,1.9h-0.1V31h-3.5v11.8h3.7V37
			c0-1.5,0.3-3,2.2-3s1.9,1.7,1.9,3.1v5.8H428.7z"/>
		<rect x="411.2" y="31" class="st26" width="3.7" height="11.9"/>
		<path class="st26" d="M413,25c-1.2,0-2.2,1-2.2,2.1s1,2.2,2.1,2.2c1.2,0,2.2-1,2.2-2.1c0,0,0,0,0,0C415.1,26,414.2,25,413,25
			L413,25z"/>
	</g>
</g>
</svg>
