<?xml version="1.0" encoding="UTF-8" standalone="no"?>
<!DOCTYPE svg PUBLIC "-//W3C//DTD SVG 1.1//EN" "http://www.w3.org/Graphics/SVG/1.1/DTD/svg11.dtd">
<svg width="100%" height="100%" viewBox="0 0 364 235" version="1.1" xmlns="http://www.w3.org/2000/svg" xmlns:xlink="http://www.w3.org/1999/xlink" xml:space="preserve" xmlns:serif="http://www.serif.com/" style="fill-rule:evenodd;clip-rule:evenodd;stroke-linejoin:round;stroke-miterlimit:1.41421;">
    <g transform="matrix(1,0,0,1,-545.599,-204.249)">
        <g transform="matrix(0.30956,0,0,0.461783,376.703,109.93)">
            <rect x="545.599" y="204.249" width="1175.86" height="508.897" style="fill:none;"/>
            <g transform="matrix(6.56602,0,0,4.40158,1133.53,458.697)">
                <g transform="matrix(1,0,0,1,-46.06,-46.06)">
                    <clipPath id="_clip1">
                        <rect x="0" y="0" width="92.12" height="92.12"/>
                    </clipPath>
                    <g clip-path="url(#_clip1)">
                        <g id="Layer_1-2">
                            <path d="M84,0L8.1,0C3.656,0 0,3.656 0,8.1L0,12.21C0.008,18.892 2.282,25.377 6.45,30.6C10.065,35.037 14.875,38.347 20.31,40.14L23.18,41.14C26.574,46.635 31.837,50.727 38,52.66L38,56.86C37.995,58.339 36.779,59.555 35.3,59.56C30.86,59.56 27.205,63.21 27.2,67.65L27.2,70.35L24.5,70.35C23.019,70.35 21.8,71.569 21.8,73.05L21.8,86.73L19.1,86.73C19.045,86.727 18.991,86.725 18.936,86.725C17.455,86.725 16.236,87.944 16.236,89.425C16.236,90.906 17.455,92.125 18.936,92.125C18.991,92.125 19.045,92.123 19.1,92.12L73.1,92.12C73.155,92.123 73.209,92.125 73.264,92.125C74.745,92.125 75.964,90.906 75.964,89.425C75.964,87.944 74.745,86.725 73.264,86.725C73.209,86.725 73.155,86.727 73.1,86.73L70.4,86.73L70.4,73.05C70.4,71.569 69.181,70.35 67.7,70.35L65,70.35L65,67.65C64.989,63.212 61.338,59.565 56.9,59.56C55.419,59.56 54.2,58.341 54.2,56.86L54.2,52.66C60.335,50.703 65.568,46.607 68.94,41.12L71.94,40.12C77.345,38.351 82.118,35.042 85.67,30.6C89.838,25.377 92.112,18.892 92.12,12.21L92.12,8.1C92.12,8.1 92.12,8.1 92.12,8.1C92.12,3.656 88.464,0 84.02,0C84.013,0 84.007,0 84,0ZM10.67,27.23C7.269,22.97 5.411,17.681 5.4,12.23L5.4,8.1C5.4,6.619 6.619,5.4 8.1,5.4L16.66,5.4L19.4,30.12C19.563,31.55 19.841,32.964 20.23,34.35C16.504,32.804 13.219,30.357 10.67,27.23ZM27.17,86.73L27.17,75.73L65,75.73L65,86.73L27.17,86.73ZM50.86,48C49.637,48.279 48.761,49.375 48.76,50.63L48.76,56.89C48.765,61.331 52.419,64.985 56.86,64.99C58.337,64.99 59.555,66.203 59.56,67.68L59.56,70.38L32.56,70.38L32.56,67.68C32.571,66.203 33.793,64.994 35.27,65C39.708,64.989 43.355,61.338 43.36,56.9L43.36,50.6C43.346,49.359 42.479,48.28 41.27,48C32.434,45.979 25.795,38.556 24.77,29.55L22.09,5.4L70,5.4L67.36,29.52C66.347,38.538 59.706,45.976 50.86,48ZM86.73,12.21C86.742,21.925 80.853,30.73 71.87,34.43C72.275,33.02 72.559,31.578 72.72,30.12L75.47,5.4L84,5.4C85.481,5.4 86.7,6.619 86.7,8.1L86.73,12.21Z" style="fill:rgb(77,233,74);fill-opacity:0.9;fill-rule:nonzero;"/>
                            <path d="M38.15,34L40.52,30.75C41.792,32.1 43.538,32.906 45.39,33C47.56,33 49,32 49,30.33C49,28.38 47.86,27.18 43,27.18L43,23.53C47,23.53 48.25,22.32 48.25,20.53C48.25,18.97 47.25,18.09 45.51,18.09C43.923,18.166 42.428,18.863 41.35,20.03L38.75,16.89C40.65,15.108 43.146,14.095 45.75,14.05C50.37,14.05 53.42,16.24 53.42,20.15C53.42,22.44 52.1,24.08 49.71,25.08L49.71,25.23C52.28,25.96 54.14,27.77 54.14,30.64C54.14,34.78 50.35,37.12 45.88,37.12C42.969,37.281 40.134,36.136 38.15,34Z" style="fill:rgb(77,233,74);fill-rule:nonzero;"/>
                        </g>
                    </g>
                </g>
            </g>
        </g>
    </g>
</svg>
