<svg xmlns="http://www.w3.org/2000/svg" xmlns:xlink="http://www.w3.org/1999/xlink" width="911.452" height="515.437" viewBox="0 0 911.452 515.437">
  <defs>
    <clipPath id="clip-path">
      <rect id="Rectangle_1" data-name="Rectangle 1" width="911.452" height="515.437" transform="translate(0.906 0.467)" fill="#fff"/>
    </clipPath>
  </defs>
  <g id="Group_1" data-name="Group 1" transform="translate(-0.906 -0.467)" clip-path="url(#clip-path)">
    <path id="Path_1" data-name="Path 1" d="M79.015,233.123H65.483l-2.022-52.192H79.017Z" transform="translate(93.033 268.392)" fill="#ffb8b8"/>
    <path id="Path_2" data-name="Path 2" d="M97.19,217.674l-43.63,0v-.552a16.977,16.977,0,0,1,16.982-16.98H97.191Z" transform="translate(78.309 296.959)" fill="#2f2e41"/>
    <path id="Path_3" data-name="Path 3" d="M100.361,233.123h13.531l2.022-52.192H100.356Z" transform="translate(147.905 268.392)" fill="#ffb8b8"/>
    <path id="Path_4" data-name="Path 4" d="M98.97,200.139h26.65a16.974,16.974,0,0,1,16.98,16.98v.552l-43.63,0Z" transform="translate(145.844 296.959)" fill="#2f2e41"/>
    <path id="Path_5" data-name="Path 5" d="M158.454,313.819a4.99,4.99,0,0,1-4.851-3.888L120.066,163.645a1.609,1.609,0,0,0-1.616-1.3h-.008a1.608,1.608,0,0,0-1.612,1.313l-30.8,145.3a4.988,4.988,0,0,1-4.859,3.935H66.5a4.966,4.966,0,0,1-4.958-5.258L72.47,123.476l4.4-1.3h.082l86.375.756,18.4,183.958a4.958,4.958,0,0,1-4.542,5.432l-18.326,1.48C158.718,313.814,158.586,313.819,158.454,313.819Z" transform="translate(90.167 181.008)" fill="#2f2e41"/>
    <path id="Path_6" data-name="Path 6" d="M102.369,86.82A27.109,27.109,0,1,0,75.261,59.711,27.109,27.109,0,0,0,102.369,86.82Z" transform="translate(110.582 47.793)" fill="#a0616a"/>
    <path id="Path_7" data-name="Path 7" d="M99.467,239.4a46.72,46.72,0,0,1-14.048-1.977A31,31,0,0,1,66.614,221.56a4.969,4.969,0,0,1-.37-3.7c2.99-10.205,17.437-63.245,8.219-105.409a44.685,44.685,0,0,1,6.352-34.341,44.124,44.124,0,0,1,28.616-19.247h0c1.529-.3,3.066-.543,4.569-.729a43.968,43.968,0,0,1,35.6,11.714,45.051,45.051,0,0,1,14.144,35.717L156.664,219.25a4.92,4.92,0,0,1-2.646,4.087C145.858,227.614,121.348,239.4,99.467,239.4Z" transform="translate(96.877 85.271)" fill="#ccc"/>
    <path id="Path_8" data-name="Path 8" d="M79.015,185.717a11.86,11.86,0,0,0,4.24-17.682L92.121,81.35H72.961L65.914,166a11.921,11.921,0,0,0,13.1,19.721Z" transform="translate(90.435 120.292)" fill="#a0616a"/>
    <path id="Path_9" data-name="Path 9" d="M92.842,65.035a15.7,15.7,0,0,1,12.572,16.491l-2.641,37.794a4.415,4.415,0,0,1-5.7,3.914L65.264,113.5a4.415,4.415,0,0,1-2.828-5.806l12.655-32.9a15.7,15.7,0,0,1,17.751-9.758Z" transform="translate(91.071 95.569)" fill="#ccc"/>
    <path id="Path_10" data-name="Path 10" d="M135.371,48.023A33.283,33.283,0,0,0,98.891,27.512l8.547,6.907c-10.619.358-21.8-.4-29.38,7.041,2.414-.067,5.578,5.1,7.991,5.029-4.513.089-8.605,3.26-10.6,7.31A20.823,20.823,0,0,0,74.221,67.04c.891,4.425,7.691,14.792,9.521,18.918-.315-10.784,20.915-36.5,31.281-33.821a28.447,28.447,0,0,0-13.135,9.973,38.526,38.526,0,0,1,22.848-3.739,16.167,16.167,0,0,0,5.447.3,6.65,6.65,0,0,0,3.943-10.627Z" transform="translate(108.203 39.527)" fill="#2f2e41"/>
    <path id="Path_11" data-name="Path 11" d="M422.527,209.021H2.01a1.1,1.1,0,0,1,0-2.209H422.527a1.1,1.1,0,1,1,0,2.209Z" transform="translate(0 306.883)" fill="#3f3d56"/>
    <path id="Path_12" data-name="Path 12" d="M368.211,13.336H361.59v1.1h6.621Z" transform="translate(536.421 19.139)" fill="#e6e6e6"/>
    <path id="Path_13" data-name="Path 13" d="M604.2,14.44H590.819v-1.1H604.2Zm-26.758,0H564.062v-1.1h13.379Zm-26.755,0H537.307v-1.1h13.379Zm-26.758,0H510.549v-1.1h13.379Zm-26.758,0H483.791v-1.1H497.17Zm-26.755,0H457.036v-1.1h13.379Zm-26.758,0H430.279v-1.1h13.379Zm-26.758,0H403.523v-1.1H416.9Zm-26.755,0H376.766v-1.1h13.379Zm-26.758,0H350.008v-1.1h13.379Zm-26.758,0H323.253v-1.1h13.376Zm-26.755,0H296.5v-1.1h13.379Zm-26.758,0H269.738v-1.1h13.379Zm-26.758,0H242.982v-1.1h13.376Zm-26.755,0H216.225v-1.1H229.6Zm-26.758,0H189.467v-1.1h13.379Z" transform="translate(280.434 19.139)" fill="#e6e6e6"/>
    <path id="Path_14" data-name="Path 14" d="M188.049,13.336h-6.624v1.1h6.624Z" transform="translate(268.475 19.139)" fill="#e6e6e6"/>
    <path id="Path_15" data-name="Path 15" d="M280.792,54.605h-6.621v1.1h6.621Z" transform="translate(406.409 80.516)" fill="#e6e6e6"/>
    <path id="Path_16" data-name="Path 16" d="M387.083,55.709H373.9v-1.1h13.18Zm-26.36,0h-13.18v-1.1h13.18Zm-26.36,0H321.187v-1.1h13.177Zm-26.357,0h-13.18v-1.1h13.18Zm-26.36,0h-13.18v-1.1h13.18Zm-26.36,0h-13.18v-1.1h13.18Zm-26.36,0h-13.18v-1.1h13.18Zm-26.36,0h-13.18v-1.1h13.18Z" transform="translate(280.317 80.516)" fill="#e6e6e6"/>
    <path id="Path_17" data-name="Path 17" d="M188.049,54.605h-6.624v1.1h6.624Z" transform="translate(268.475 80.516)" fill="#e6e6e6"/>
    <path id="Path_18" data-name="Path 18" d="M228.873,74.13h-6.621v1.1h6.621Z" transform="translate(329.193 109.554)" fill="#e6e6e6"/>
    <path id="Path_19" data-name="Path 19" d="M257.341,75.234H243.78v-1.1h13.56Zm-27.121,0H216.662v-1.1H230.22Zm-27.118,0h-13.56v-1.1H203.1Z" transform="translate(280.544 109.554)" fill="#e6e6e6"/>
    <path id="Path_20" data-name="Path 20" d="M188.049,74.13h-6.624v1.1h6.624Z" transform="translate(268.475 109.554)" fill="#e6e6e6"/>
    <path id="Path_21" data-name="Path 21" d="M631.4,18.222V207.244a35.912,35.912,0,0,1-35.871,35.871H211.431a35.76,35.76,0,0,1-26.676-11.921v-1.689a34.654,34.654,0,0,0,26.457,12.506l66.432-66.433a9.378,9.378,0,0,1,13.267,0l35.309,35.3,82.768-82.757a9.382,9.382,0,0,1,13.267,0L470.8,176.66,629.2,18.277l1.094-.033.507-.011Z" transform="translate(273.426 26.405)" fill="#f9cc26"/>
    <path id="Path_22" data-name="Path 22" d="M601.169,269.774H217.076A35.913,35.913,0,0,1,181.2,233.9V36.338A35.912,35.912,0,0,1,217.076.467H601.169A35.912,35.912,0,0,1,637.04,36.338V233.9a35.913,35.913,0,0,1-35.871,35.871ZM217.076,1.571a34.808,34.808,0,0,0-34.767,34.767V233.9a34.809,34.809,0,0,0,34.767,34.767H601.169A34.809,34.809,0,0,0,635.936,233.9V36.338A34.808,34.808,0,0,0,601.169,1.571Z" transform="translate(268.147 0)" fill="#3f3d56"/>
    <path id="Path_23" data-name="Path 23" d="M196.249,243.777,195.47,243l66.6-66.6a9.391,9.391,0,0,1,13.267,0L310.646,211.7l82.768-82.767a9.391,9.391,0,0,1,13.267,0l48.551,48.552L614.882,17.839l.781.78L455.232,179.048,405.9,129.716a8.274,8.274,0,0,0-11.7,0l-83.549,83.548-36.087-36.088a8.289,8.289,0,0,0-11.707,0Z" transform="translate(289.362 25.835)" fill="#3f3d56"/>
    <path id="Path_24" data-name="Path 24" d="M229.533,86.7a7.726,7.726,0,1,0-7.725-7.726A7.727,7.727,0,0,0,229.533,86.7Z" transform="translate(328.533 105.264)" fill="#3f3d56"/>
    <path id="Path_25" data-name="Path 25" d="M281.453,67.173a7.726,7.726,0,1,0-7.725-7.726A7.726,7.726,0,0,0,281.453,67.173Z" transform="translate(405.75 76.226)" fill="#3f3d56"/>
    <path id="Path_26" data-name="Path 26" d="M368.874,25.9a7.726,7.726,0,1,0-7.728-7.726A7.726,7.726,0,0,0,368.874,25.9Z" transform="translate(535.761 14.849)" fill="#3f3d56"/>
    <path id="Path_27" data-name="Path 27" d="M94.346,179.478c16.025,0,29.016-18.49,29.016-41.3s-12.991-41.3-29.016-41.3-29.016,18.49-29.016,41.3S78.321,179.478,94.346,179.478Z" transform="translate(95.813 143.396)" fill="#3f3d56"/>
    <path id="Path_28" data-name="Path 28" d="M94.346,179.478c16.025,0,29.016-18.49,29.016-41.3s-12.991-41.3-29.016-41.3-29.016,18.49-29.016,41.3S78.321,179.478,94.346,179.478Z" transform="translate(95.813 143.396)" opacity="0.1"/>
    <path id="Path_29" data-name="Path 29" d="M95.919,179.478c16.025,0,29.017-18.49,29.017-41.3s-12.991-41.3-29.017-41.3S66.9,115.375,66.9,138.183,79.894,179.478,95.919,179.478Z" transform="translate(98.152 143.396)" fill="#3f3d56"/>
    <path id="Path_30" data-name="Path 30" d="M93.45,170.087c13.745,0,24.887-15.859,24.887-35.418s-11.142-35.42-24.887-35.42-24.887,15.858-24.887,35.42S79.706,170.087,93.45,170.087Z" transform="translate(100.622 146.91)" opacity="0.1"/>
    <path id="Path_31" data-name="Path 31" d="M81.8,140.557V136.4a9.647,9.647,0,0,1-5.544-1.811l.87-2.758a8.861,8.861,0,0,0,5.218,1.771,3.989,3.989,0,0,0,3.046-1.067,3.995,3.995,0,0,0,1.266-2.967c0-2.263-1.413-3.664-4.095-4.9-3.7-1.647-5.979-3.539-5.979-7.121a6.475,6.475,0,0,1,5.472-6.628V106.76H84.3v3.992a8.815,8.815,0,0,1,4.711,1.44l-.906,2.719a8.016,8.016,0,0,0-4.566-1.4A3.48,3.48,0,0,0,79.7,117.05c0,2.142,1.341,3.211,4.493,4.693,3.732,1.729,5.617,3.87,5.617,7.534a6.893,6.893,0,0,1-5.726,7v4.281Z" transform="translate(112.059 158.082)" fill="#f9cc26"/>
    <path id="Path_32" data-name="Path 32" d="M92.49,136.624a11.6,11.6,0,0,1,1.8.351l41.55-35.632-2.428-13.074,19.251-6.244,6.549,22.727a8.833,8.833,0,0,1-3.763,9.906l-52.622,33.3A11.588,11.588,0,1,1,92.49,136.624Z" transform="translate(117.114 121.296)" fill="#a0616a"/>
    <path id="Path_33" data-name="Path 33" d="M106.6,65.6a15.7,15.7,0,0,1,18.039,10.227l12.419,35.794a4.415,4.415,0,0,1-3.7,5.837l-33.081,3.541a4.415,4.415,0,0,1-4.882-4.229L94.112,81.542A15.7,15.7,0,0,1,106.6,65.6Z" transform="translate(138.603 96.369)" fill="#ccc"/>
  </g>
</svg>
