<svg xmlns="http://www.w3.org/2000/svg" xmlns:xlink="http://www.w3.org/1999/xlink" width="795.915" height="615.318" viewBox="0 0 795.915 615.318">
  <defs>
    <clipPath id="clip-path">
      <rect id="Rectangle_1" data-name="Rectangle 1" width="795.915" height="615.318" transform="translate(0.857 0.853)" fill="#fff"/>
    </clipPath>
  </defs>
  <g id="Group_1" data-name="Group 1" transform="translate(-0.857 -0.853)" clip-path="url(#clip-path)">
    <path id="Path_1" data-name="Path 1" d="M620.208,295.529l-11.856,53.32L598.73,392.1l-7.673,34.5-9.618,43.257L550.014,611.176,160.595,431.23,131.97,418,95.737,401.257,67.1,388.028l-34.44-15.916,19.525-28.407,16.236-23.622L88.963,290.2l16.232-23.606L287.85.853l193.494,171.56,34.459,30.55,27.474,24.36,34.463,30.55Z" transform="translate(99.256)" fill="#f2f2f2"/>
    <path id="Path_2" data-name="Path 2" d="M76.314,383.877c-26.04-14.518-42.251-34.335-48.183-58.907-4.4-18.243-3.138-38.771,3.762-61.015a163.414,163.414,0,0,1,22.724-45.9c52.736-74.646,57.5-123.286,52.2-150.945-5.8-30.328-24.66-42.923-24.85-43.047l.814-1.252c.195.127,19.548,13.014,25.491,43.958,3.426,17.839,1.814,38.18-4.791,60.457-8.221,27.726-24.252,58.575-47.647,91.69A161.936,161.936,0,0,0,33.319,264.4C22,300.879,20.4,351,77.041,382.57Z" transform="translate(77.106 68.523)" fill="#2f2e41"/>
    <path id="Path_3" data-name="Path 3" d="M66.448,383.877c26.04-14.518,42.251-34.335,48.182-58.907,4.4-18.243,3.139-38.771-3.761-61.015a163.414,163.414,0,0,0-22.725-45.9c-52.736-74.646-57.5-123.286-52.2-150.945,5.8-30.328,24.66-42.923,24.85-43.047l-.814-1.252c-.195.127-19.548,13.014-25.491,43.958-3.426,17.839-1.814,38.18,4.791,60.457C47.5,154.95,63.529,185.8,86.924,218.915A161.935,161.935,0,0,1,109.442,264.4C120.759,300.879,122.36,351,65.721,382.57Z" transform="translate(99.494 68.523)" fill="#2f2e41"/>
    <path id="Path_4" data-name="Path 4" d="M217.083,368.657c-26.04-14.517-42.251-34.335-48.185-58.906-4.405-18.243-3.136-38.771,3.762-61.015a163.309,163.309,0,0,1,22.727-45.9c52.735-74.646,57.494-123.286,52.2-150.945-5.8-30.328-24.659-42.923-24.849-43.047l.816-1.252c.194.127,19.545,13.015,25.487,43.957,3.429,17.839,1.817,38.18-4.788,60.457C236.03,139.732,220,170.581,196.606,203.7a161.851,161.851,0,0,0-22.52,45.482c-11.316,36.483-12.919,86.6,43.722,118.175Z" transform="translate(516.418 21.029)" fill="#2f2e41"/>
    <path id="Path_5" data-name="Path 5" d="M207.216,368.657c26.04-14.517,42.251-34.335,48.181-58.906,4.405-18.243,3.14-38.771-3.762-61.015a163.409,163.409,0,0,0-22.722-45.9c-52.735-74.646-57.5-123.286-52.2-150.945,5.8-30.328,24.659-42.923,24.849-43.047l-.812-1.252c-.194.127-19.549,13.015-25.492,43.957-3.429,17.839-1.813,38.18,4.793,60.457,8.217,27.726,24.251,58.575,47.645,91.69a161.95,161.95,0,0,1,22.516,45.482c11.316,36.483,12.919,86.6-43.722,118.175Z" transform="translate(538.808 21.029)" fill="#2f2e41"/>
    <path id="Path_6" data-name="Path 6" d="M199.946,81.491c-19.565-33.059-58.273-34.6-58.273-34.6s-37.719-4.823-61.915,45.526c-22.553,46.93-53.679,92.241-5.011,103.227l8.791-27.361,5.444,29.4a190.374,190.374,0,0,0,20.823.356c52.119-1.683,101.755.492,100.157-18.21C207.837,154.964,218.771,113.3,199.946,81.491Z" transform="translate(150.164 143.29)" fill="#2f2e41"/>
    <path id="Path_7" data-name="Path 7" d="M66.122,80.95c6.742,14.913,10.993,32.689,13.531,52.434L133.778,130c-12.443-17.633-16.575-37.872-11.84-60.891Z" transform="translate(203.683 213.02)" fill="#ffb8b8"/>
    <path id="Path_8" data-name="Path 8" d="M66.122,80.95c6.742,14.913,10.993,32.689,13.531,52.434L133.778,130c-12.443-17.633-16.575-37.872-11.84-60.891Z" transform="translate(203.683 213.02)" opacity="0.2"/>
    <path id="Path_9" data-name="Path 9" d="M18.679,140.885s-28.013,15-13.8,27.816,32.993-16.957,32.993-16.957Z" transform="translate(0 437.019)" fill="#ffb8b8"/>
    <path id="Path_10" data-name="Path 10" d="M225.2,157.169l-.438,20.5-.934,44.291v.008l-.272,12.828H44.416l7.281-40.43.007-.029,6.519-36.181,2.909-16.207v-.008l147.154-20.3Z" transform="translate(135.942 376.98)" fill="#2f2e41"/>
    <path id="Path_11" data-name="Path 11" d="M214.742,157.17l-.44,20.5c-52.062-1.335-132.759-13.9-166.537-19.516l2.909-16.207,147.153-20.3Z" transform="translate(146.397 376.983)" fill="#3f3d56"/>
    <path id="Path_12" data-name="Path 12" d="M104.508,139.52A42.285,42.285,0,1,0,62.223,97.235,42.285,42.285,0,0,0,104.508,139.52Z" transform="translate(191.514 168.827)" fill="#ffb8b8"/>
    <path id="Path_13" data-name="Path 13" d="M249.744,323.758s5.074,45.667-25.371,42.284L219.3,320.375l-27.062-27.066-76.113-1.69L60.305,344.053s-1.692-54.123,5.074-59.2,21.988-16.912,21.988-16.912v-8.46L41.7,166.455s27.062-55.817,49.051-57.508l28.754-1.692s10.148-5.074,10.148-6.766-1.692-15.223,6.766-11.84c0,0,.761-17.354,9.675-12.06,0,0,28.061,21.988,56.544.964,0,0,13.277-2.436,11.586,4.33s0,11.84,3.383,11.84,18.605,5.074,18.605,8.457c0,.727,1.1,7.73,2.825,18.267v.017c6.275,38.412,20.855,123.793,20.855,123.793S275.115,266.247,249.744,323.758Z" transform="translate(127.464 233.229)" fill="#f9cc26"/>
    <path id="Path_14" data-name="Path 14" d="M179.074,95.584l-11.84,8.457-108.25,138.7L1.476,288.406s32.137-5.073,25.371,21.989l197.9-113.328Z" transform="translate(1.931 295.642)" fill="#f9cc26"/>
    <path id="Path_15" data-name="Path 15" d="M181.073,121.59v.017c-2.249,13.227-75.555,10.47-85.7,10.47s-18.605-1.692-28.754-8.457S61.541,108.4,61.541,108.4s8.641-6.581,8.641-8.273S68.491,84.9,76.948,88.284c0,0,.761-17.354,9.675-12.06,0,0,29.568,23.5,58.051,2.471,0,0,13.277-2.435,11.586,4.33s0,11.84,3.383,11.84,18.606,5.074,18.606,8.457C178.249,104.05,179.348,111.053,181.073,121.59Z" transform="translate(185.427 232.087)" fill="#3f3d56"/>
    <path id="Path_16" data-name="Path 16" d="M110.7,85.433S97.172,56.679,83.64,70.211s15.223,33.828,15.223,33.828Z" transform="translate(247.055 205.155)" fill="#ffb8b8"/>
    <path id="Path_17" data-name="Path 17" d="M108.186,69.521S87.292,95.926,80.825,97.946c0,0,18.9,74.75,42.584,95.048l13.531,69.347s57.508-23.678,43.975-62.583c-.132-.387-.268-.775-.4-1.158a383.6,383.6,0,0,0-46.359-91.386Z" transform="translate(249.57 214.301)" fill="#f9cc26"/>
    <path id="Path_18" data-name="Path 18" d="M84.755,88.526l41.611,114.5-15.222-69.347Z" transform="translate(261.835 273.614)" opacity="0.2"/>
    <path id="Path_19" data-name="Path 19" d="M160.742,69.59,122.5,49.559,69.69,57.753,58.764,106.01l27.2-1.046,7.6-17.729v17.437l12.55-.483,7.284-28.226,4.553,30.047,44.615-.91Z" transform="translate(180.719 152.004)" fill="#2f2e41"/>
    <path id="Path_20" data-name="Path 20" d="M171.177,123.971l21.7,77.4s-4.471,68.555,16.4,55.141c21.35-13.727,13.409-71.534,13.409-71.534l-12.5-69.436Z" transform="translate(531.544 357.921)" fill="#a0616a"/>
    <path id="Path_21" data-name="Path 21" d="M189.957,64.9l17.918,17.917v85.372s10.537,15.809,8.431,20.025-4.216,4.216-2.11,7.378,4.216,5.27,2.11,7.378-2.11,7.378,0,9.484,6.321,5.271,3.161,8.435-7.376,1.051-3.161,12.647,11.592,14.753,9.486,18.972-2.11,14.753-2.11,14.753l-45.321,6.326-9.486-119.1Z" transform="translate(524.36 199.876)" fill="#d0cde1"/>
    <path id="Path_22" data-name="Path 22" d="M222.6,113.749l-52.7,2.11,2.11,22.133,46.376-8.431Z" transform="translate(527.553 352.332)" fill="#3f3d56"/>
    <path id="Path_23" data-name="Path 23" d="M152.31,38.171l-6.326,63.237,64.294,9.486,4.743-36.361,4.743-36.362Z" transform="translate(452.921 116.464)" fill="#a0616a"/>
    <path id="Path_24" data-name="Path 24" d="M152.31,38.088l-6.326,63.238,64.294,9.486,4.743-36.362,4.743-36.362Z" transform="translate(452.921 116.204)" opacity="0.1"/>
    <path id="Path_25" data-name="Path 25" d="M113.63,111.192l35.835,76.941s6.321,35.835,15.808,36.886,18.972-36.886,18.972-36.886L171.6,168.105l-14.757-56.913Z" transform="translate(351.949 344.352)" fill="#a0616a"/>
    <path id="Path_26" data-name="Path 26" d="M326.588,235.447H123.994c1.607-25.393,2.617-41.044,2.617-41.044l2.691-4.236,13.047-20.5,9.313-14.637,3.247-5.11,1.207-1.891,12.758-2.328,131.637-24.02a160.762,160.762,0,0,0,9.2,28.454c.9,2.04,1.863,4.084,2.9,6.1,3.3,6.457,7.348,12.577,12.148,17.085,1.092,1.026,1.883,3.762,2.394,7.966C328.421,191.588,328.059,210.75,326.588,235.447Z" transform="translate(384.293 377.077)" fill="#2f2e41"/>
    <path id="Path_27" data-name="Path 27" d="M194.4,119.786A50.591,50.591,0,1,0,143.81,69.2,50.589,50.589,0,0,0,194.4,119.786Z" transform="translate(446.136 55.401)" fill="#a0616a"/>
    <path id="Path_28" data-name="Path 28" d="M189.538,59.14l-7.376-4.216s-32.674,22.134-43.211,71.67-17.917,62.184-17.917,62.184-10.541,2.108-3.165,9.486,7.38,6.324,1.055,10.54-10.541-4.216-6.326,4.216,9.486,6.324,5.271,11.594-11.592,5.27-7.376,9.486-4.216,13.7,1.055,17.919,7.376,5.266,7.376,12.647a37.229,37.229,0,0,0,2.11,12.647h54.8s-10.537-20.027-7.376-24.243,4.216-8.431,2.106-10.537-8.431,2.106-2.106-3.163,8.431-2.108,6.326-8.432-6.326-3.162-2.11-6.324,7.376-2.108,5.271-5.27-6.326-3.162-2.11-5.27,7.38,0,6.326-5.27-2.11-3.162,0-5.27S206.4,129.755,206.4,127.648,189.538,59.14,189.538,59.14Z" transform="translate(338.225 168.746)" fill="#d0cde1"/>
    <path id="Path_29" data-name="Path 29" d="M176.449,107.867l-66.4,4.216,16.863,15.808,46.376,1.055Z" transform="translate(340.776 333.975)" fill="#3f3d56"/>
    <path id="Path_30" data-name="Path 30" d="M141.143,127.049l-13.7,25.3s41.106,5.266,55.862,10.537S236,175.531,236,175.531l9.486-36.886Z" transform="translate(395.051 393.839)" fill="#3f3d56"/>
    <path id="Path_31" data-name="Path 31" d="M159.923,135.452l11.592,34.78,46.376-9.486-5.271-32.674Z" transform="translate(496.422 397.032)" fill="#3f3d56"/>
    <path id="Path_32" data-name="Path 32" d="M281.866,66.612S278.7,64.5,271.325,68.72s-31.619,6.324-43.211-6.324-20.027-23.187-23.188-21.079-5.271,26.349-5.271,26.349L189.114,76.1,126.93,98.231,132.2,240.517l9.486,32.673s-7.376,25.3,2.106,40.053-5.266,20.023-5.266,20.023-3.165,4.216-1.055,14.757-2.11,49.537-2.11,49.537,89.587,40.051,183.39,5.271l-10.537-40.051-5.271-89.589s5.271-14.756,4.216-21.079,31.619-94.857,31.619-94.857S333.509,112.987,306.1,103.5,274.486,84.53,274.486,84.53,287.132,70.828,281.866,66.612Z" transform="translate(393.456 125.438)" fill="#d0cde1"/>
    <path id="Path_33" data-name="Path 33" d="M146.522,89.645s-5.25-7.88-3.231-16.367a49.524,49.524,0,0,0,1.413-14.75s4.244-13.74,8.489-21.419S155.415,26.2,168.75,23.773s7.879-19.8,43.038-1.01A10.313,10.313,0,0,0,222.5,26.8c7.273-1.414,9.9,8.689,9.9,8.689s4.846-2.829,6.668,1.212,14.786-2.426,14.786,24.852S239.1,113.2,239.1,113.2s1.08-45.885-22.966-50.532-49.908-18.185-56.171-.809S146.522,89.645,146.522,89.645Z" transform="translate(443.074 41.433)" fill="#2f2e41"/>
    <path id="Path_34" data-name="Path 34" d="M169.906,44.68c2.621,0,4.743-2.831,4.743-6.324s-2.122-6.324-4.743-6.324-4.739,2.831-4.739,6.324S167.289,44.68,169.906,44.68Z" transform="translate(512.788 97.307)" fill="#a0616a"/>
  </g>
</svg>
