<svg width="125" height="58" viewBox="0 0 125 58" fill="none" xmlns="http://www.w3.org/2000/svg">
<g opacity="0.3">
<circle cx="3.363" cy="3.85946" r="2.99483" fill="#4F4F4F"/>
<circle cx="3.363" cy="16.4377" r="2.99483" fill="#4F4F4F"/>
<circle cx="3.363" cy="29.0161" r="2.99483" fill="#4F4F4F"/>
<circle cx="3.363" cy="41.5943" r="2.99483" fill="#4F4F4F"/>
<circle cx="3.363" cy="54.1727" r="2.99483" fill="#4F4F4F"/>
<circle cx="16.5404" cy="3.85946" r="2.99483" fill="#4F4F4F"/>
<circle cx="16.5404" cy="16.4377" r="2.99483" fill="#4F4F4F"/>
<circle cx="16.5404" cy="29.0161" r="2.99483" fill="#4F4F4F"/>
<circle cx="16.5404" cy="41.5943" r="2.99483" fill="#4F4F4F"/>
<circle cx="16.5404" cy="54.1727" r="2.99483" fill="#4F4F4F"/>
<circle cx="29.7177" cy="3.85946" r="2.99483" fill="#4F4F4F"/>
<circle cx="29.7177" cy="16.4377" r="2.99483" fill="#4F4F4F"/>
<circle cx="29.7177" cy="29.0161" r="2.99483" fill="#4F4F4F"/>
<circle cx="29.7177" cy="41.5943" r="2.99483" fill="#4F4F4F"/>
<circle cx="29.7177" cy="54.1727" r="2.99483" fill="#4F4F4F"/>
<circle cx="42.8947" cy="3.85946" r="2.99483" fill="#4F4F4F"/>
<circle cx="42.8947" cy="16.4377" r="2.99483" fill="#4F4F4F"/>
<circle cx="42.8947" cy="29.0161" r="2.99483" fill="#4F4F4F"/>
<circle cx="42.8947" cy="41.5943" r="2.99483" fill="#4F4F4F"/>
<circle cx="42.8947" cy="54.1727" r="2.99483" fill="#4F4F4F"/>
<circle cx="56.0721" cy="3.85946" r="2.99483" fill="#4F4F4F"/>
<circle cx="56.0721" cy="16.4377" r="2.99483" fill="#4F4F4F"/>
<circle cx="56.0721" cy="29.0161" r="2.99483" fill="#4F4F4F"/>
<circle cx="56.0721" cy="41.5943" r="2.99483" fill="#4F4F4F"/>
<circle cx="56.0721" cy="54.1727" r="2.99483" fill="#4F4F4F"/>
<circle cx="69.2494" cy="3.85946" r="2.99483" fill="#4F4F4F"/>
<circle cx="69.2494" cy="16.4377" r="2.99483" fill="#4F4F4F"/>
<circle cx="69.2494" cy="29.0161" r="2.99483" fill="#4F4F4F"/>
<circle cx="69.2494" cy="41.5943" r="2.99483" fill="#4F4F4F"/>
<circle cx="69.2494" cy="54.1727" r="2.99483" fill="#4F4F4F"/>
<circle cx="82.4266" cy="3.85946" r="2.99483" fill="#4F4F4F"/>
<circle cx="82.4266" cy="16.4377" r="2.99483" fill="#4F4F4F"/>
<circle cx="82.4266" cy="29.0161" r="2.99483" fill="#4F4F4F"/>
<circle cx="82.4266" cy="41.5943" r="2.99483" fill="#4F4F4F"/>
<circle cx="82.4266" cy="54.1727" r="2.99483" fill="#4F4F4F"/>
<circle cx="95.604" cy="3.85946" r="2.99483" fill="#4F4F4F"/>
<circle cx="95.604" cy="16.4377" r="2.99483" fill="#4F4F4F"/>
<circle cx="95.604" cy="29.0161" r="2.99483" fill="#4F4F4F"/>
<circle cx="95.604" cy="41.5943" r="2.99483" fill="#4F4F4F"/>
<circle cx="95.604" cy="54.1727" r="2.99483" fill="#4F4F4F"/>
<circle cx="108.781" cy="3.85946" r="2.99483" fill="#4F4F4F"/>
<circle cx="108.781" cy="16.4377" r="2.99483" fill="#4F4F4F"/>
<circle cx="108.781" cy="29.0161" r="2.99483" fill="#4F4F4F"/>
<circle cx="108.781" cy="41.5943" r="2.99483" fill="#4F4F4F"/>
<circle cx="108.781" cy="54.1727" r="2.99483" fill="#4F4F4F"/>
<circle cx="121.959" cy="3.85946" r="2.99483" fill="#4F4F4F"/>
<circle cx="121.959" cy="16.4377" r="2.99483" fill="#4F4F4F"/>
<circle cx="121.959" cy="29.0161" r="2.99483" fill="#4F4F4F"/>
<circle cx="121.959" cy="41.5943" r="2.99483" fill="#4F4F4F"/>
<circle cx="121.959" cy="54.1727" r="2.99483" fill="#4F4F4F"/>
</g>
</svg>
