<svg width="956" height="422" viewBox="0 0 956 422" fill="none" xmlns="http://www.w3.org/2000/svg">
<path opacity="0.1" d="M900.034 241.775C867.607 268.243 880.205 306.909 900.81 337.876C907.709 348.244 915.512 359.214 912.601 370.332C909.041 383.929 890.14 393.871 870.296 399.14C834.12 408.745 790.829 406.456 757.589 393.18C728.863 381.707 708.291 363.05 679.075 352.099C630.181 333.773 567.948 340.694 514.856 353.317C477.295 362.248 436.23 373.863 398.906 364.529C372.644 357.962 354.491 341.977 344.6 325.033C339.824 316.853 336.358 307.998 327.239 301.514C321.817 297.659 314.742 294.922 307.494 292.615C241.31 271.547 157.719 282.829 93.4344 259.462C50.0189 243.681 22.2244 213.912 9.91794 182.871C-2.38856 151.83 -0.955123 119.282 2.16944 87.3141C4.38989 64.596 8.37388 40.3421 30.9841 22.8084C54.9025 4.2601 95.9516 -2.63693 133.055 0.888517C170.157 4.41397 203.788 16.9792 233.375 31.7789C270.352 50.2752 304.645 73.3077 350.045 80.8002C380.962 85.9027 413.486 83.1116 445.373 82.1451C498.681 80.5293 552.011 84.1226 605.026 88.0572C655.778 91.824 706.897 95.9697 755.246 106.569C789.461 114.07 816.892 127.686 849.2 137.198C870.26 143.399 893.224 145.111 913.164 153.009C937.726 162.737 960.244 179.658 953.951 199.459C947.967 218.285 917.245 227.727 900.034 241.775Z" fill="#FFD037"/>
<path d="M798.238 158.772C798.238 158.772 773.877 151.247 772.267 172.652C770.658 194.057 778.706 229.312 772.267 240.644C765.829 251.976 742.856 268.348 754.946 269.815C767.036 271.282 773.072 273.381 769.451 280.936C765.829 288.49 746.917 295.625 750.941 301.081C754.965 306.538 756.977 313.253 752.953 319.968C748.929 326.683 734.846 330.88 737.26 335.497C739.674 340.114 748.527 342.632 744.1 347.669C739.674 352.705 726.843 364.161 731.85 364.099" stroke="#535461" stroke-width="3" stroke-miterlimit="10"/>
<path d="M833.824 144.512H782.451C779.569 144.512 777.232 146.949 777.232 149.955V168.968C777.232 171.974 779.569 174.411 782.451 174.411H833.824C836.707 174.411 839.043 171.974 839.043 168.968V149.955C839.043 146.949 836.707 144.512 833.824 144.512Z" fill="#FFD037"/>
<path opacity="0.1" d="M834.116 169.823H782.159V170.383H834.116V169.823Z" fill="black"/>
<path opacity="0.3" d="M834.116 149.184H782.159V169.74H834.116V149.184Z" fill="black"/>
<path opacity="0.1" d="M794.253 167.365C798.21 167.365 801.419 164.019 801.419 159.89C801.419 155.762 798.21 152.416 794.253 152.416C790.295 152.416 787.086 155.762 787.086 159.89C787.086 164.019 790.295 167.365 794.253 167.365Z" fill="black"/>
<path opacity="0.1" d="M822.023 167.365C825.981 167.365 829.189 164.019 829.189 159.89C829.189 155.762 825.981 152.416 822.023 152.416C818.065 152.416 814.856 155.762 814.856 159.89C814.856 164.019 818.065 167.365 822.023 167.365Z" fill="black"/>
<path d="M813.512 174.411H802.762V180.953H813.512V174.411Z" fill="#FFD037"/>
<path d="M830.533 179.083H785.742V216.458H830.533V179.083Z" fill="#FFD037"/>
<path d="M831.429 223.933H784.846V228.605H831.429V223.933Z" fill="#FFD037"/>
<path d="M792.461 239.818V245.424V253.833V258.505V261.308H800.523V258.505V253.833V245.424V239.818V233.277H792.461V239.818Z" fill="#FFD037"/>
<path d="M816.648 233.277V239.818V245.424V253.833V258.505V261.308H824.71V258.505V253.833V245.424V239.818V233.277H816.648Z" fill="#FFD037"/>
<path d="M779.642 187.493V196.135C777.429 196.538 775.367 197.575 773.686 199.13C772.127 200.635 770.915 202.489 770.141 204.552C769.153 207.201 768.564 209.993 768.395 212.83C768.141 216.539 768.307 220.266 768.89 223.934H759.932C759.559 219.471 759.637 214.979 760.167 210.532C760.589 206.857 761.559 203.273 763.042 199.91C765.637 194.233 769.328 191.152 772.571 189.479C774.769 188.308 777.177 187.631 779.642 187.493Z" fill="#FFD037"/>
<path opacity="0.3" d="M800.523 233.277H792.461V239.817H800.523V233.277Z" fill="black"/>
<path opacity="0.3" d="M800.523 245.424H792.461V253.833H800.523V245.424Z" fill="black"/>
<path opacity="0.3" d="M800.523 258.505H792.461V261.308H800.523V258.505Z" fill="black"/>
<path opacity="0.3" d="M824.71 233.277H816.648V239.817H824.71V233.277Z" fill="black"/>
<path opacity="0.3" d="M824.71 245.424H816.648V253.833H824.71V245.424Z" fill="black"/>
<path opacity="0.3" d="M824.71 258.505H816.648V261.308H824.71V258.505Z" fill="black"/>
<path opacity="0.3" d="M779.642 187.493V196.135C777.429 196.538 775.367 197.575 773.686 199.13L772.571 189.479C774.769 188.308 777.177 187.631 779.642 187.493Z" fill="black"/>
<path opacity="0.3" d="M770.141 204.552C769.153 207.201 768.564 209.993 768.395 212.83L760.167 210.532C760.589 206.857 761.559 203.273 763.042 199.91L770.141 204.552Z" fill="black"/>
<path d="M836.634 187.493V196.135C838.847 196.538 840.909 197.575 842.589 199.13C844.148 200.635 845.36 202.489 846.135 204.552C847.123 207.201 847.712 209.993 847.881 212.83C848.134 216.539 847.968 220.266 847.385 223.934H856.343C856.716 219.471 856.638 214.979 856.109 210.532C855.686 206.857 854.716 203.273 853.234 199.91C850.638 194.233 846.947 191.152 843.704 189.479C841.507 188.308 839.098 187.631 836.634 187.493Z" fill="#FFD037"/>
<path opacity="0.3" d="M836.634 187.493V196.135C838.847 196.538 840.909 197.575 842.589 199.13L843.704 189.479C841.507 188.308 839.098 187.631 836.634 187.493Z" fill="black"/>
<path opacity="0.3" d="M846.135 204.552C847.123 207.201 847.712 209.993 847.881 212.83L856.109 210.532C855.686 206.857 854.716 203.273 853.234 199.91L846.135 204.552Z" fill="black"/>
<path opacity="0.1" d="M813.512 174.411H802.762V175.185H813.512V174.411Z" fill="black"/>
<path opacity="0.1" d="M831.329 185.742V201.39C830.793 200.787 830.496 199.995 830.496 199.172V187.958C830.496 187.136 830.793 186.345 831.329 185.742Z" fill="black"/>
<path opacity="0.1" d="M785.901 186.774V198.488C785.848 199.229 785.553 199.928 785.066 200.47V184.792C785.553 185.335 785.848 186.034 785.901 186.774Z" fill="black"/>
<path opacity="0.1" d="M828.294 216.459H787.983V217.012H828.294V216.459Z" fill="black"/>
<path opacity="0.1" d="M806.793 228.606H787.086V229.035H806.793V228.606Z" fill="black"/>
<path opacity="0.1" d="M828.294 228.606H808.586V229.035H828.294V228.606Z" fill="black"/>
<path d="M792.369 116.841H789.284V144.512H792.369V116.841Z" fill="#FFD037"/>
<path d="M827.74 116.841H824.656V144.512H827.74V116.841Z" fill="#FFD037"/>
<path opacity="0.1" d="M790.724 120.702C792.655 120.702 794.22 119.07 794.22 117.056C794.22 115.042 792.655 113.409 790.724 113.409C788.793 113.409 787.228 115.042 787.228 117.056C787.228 119.07 788.793 120.702 790.724 120.702Z" fill="black"/>
<path d="M790.724 120.488C792.655 120.488 794.22 118.855 794.22 116.841C794.22 114.827 792.655 113.195 790.724 113.195C788.793 113.195 787.228 114.827 787.228 116.841C787.228 118.855 788.793 120.488 790.724 120.488Z" fill="#FFD037"/>
<path opacity="0.1" d="M826.301 120.702C828.232 120.702 829.797 119.07 829.797 117.056C829.797 115.042 828.232 113.409 826.301 113.409C824.37 113.409 822.805 115.042 822.805 117.056C822.805 119.07 824.37 120.702 826.301 120.702Z" fill="black"/>
<path d="M826.301 120.488C828.232 120.488 829.797 118.855 829.797 116.841C829.797 114.827 828.232 113.195 826.301 113.195C824.37 113.195 822.805 114.827 822.805 116.841C822.805 118.855 824.37 120.488 826.301 120.488Z" fill="#FFD037"/>
<path opacity="0.5" d="M753.557 277.156C752.182 278.593 751.868 280.566 751.379 282.395C749.984 287.617 746.699 292.435 742.121 295.973C738.768 298.565 734.272 301.435 735.067 305.302C735.257 306.226 735.759 307.088 735.891 308.02C736.462 312.053 730.551 314.179 728.262 317.708C726.558 320.337 727.013 323.595 727.52 326.59C728.14 330.255 728.89 334.166 731.773 336.865C732.551 337.593 733.479 338.225 734.021 339.103C735.238 341.07 734.18 343.649 735.286 345.667C736.76 348.357 741.403 348.474 744.098 346.66C746.792 344.846 748.038 341.863 749.232 339.067C752.459 331.509 756.426 323.927 763.134 318.423C769.565 313.146 778.92 309.053 780.023 301.372C780.496 298.079 779.298 294.47 781.129 291.568C781.994 290.197 783.44 289.181 784.419 287.871C787.337 283.968 785.165 278.321 780.893 275.549C774.442 271.364 759.168 271.297 753.557 277.156Z" fill="#DEE3F3"/>
<path d="M866.616 136.839L838.195 146.101L839.275 149.707L867.696 140.444L866.616 136.839Z" fill="#FFD037"/>
<path d="M879.27 277.165C879.27 277.165 863.688 273.914 859.533 269.58C855.378 265.246 836.68 257.662 834.602 263.079C832.524 268.497 806.555 286.916 824.214 290.167C841.874 293.417 865.766 294.501 870.96 292.334C876.154 290.167 879.27 277.165 879.27 277.165Z" fill="#A8A8A8"/>
<path opacity="0.2" d="M824.214 288.154C841.874 291.405 865.766 292.488 870.96 290.321C874.915 288.671 877.664 280.742 878.751 277.052C879.079 277.125 879.27 277.165 879.27 277.165C879.27 277.165 876.154 290.167 870.96 292.334C865.766 294.501 841.874 293.417 824.214 290.167C819.117 289.229 817.659 287.025 818.208 284.236C818.644 286.056 820.42 287.456 824.214 288.154Z" fill="black"/>
<path d="M913.873 135.47C913.596 134.748 913.153 134.108 912.584 133.606C908.403 129.631 901.64 130.836 896.449 128.408C895.253 127.848 894.026 127.072 892.728 127.285C890.914 127.582 889.228 129.735 887.647 128.78L887.761 129.139C887.723 129.12 887.685 129.101 887.647 129.078C888.035 130.309 888.423 131.541 888.81 132.772C889.257 134.19 889.727 135.65 890.595 136.831C889.312 137.999 888.329 139.484 887.738 141.15C887.146 142.816 886.965 144.61 887.21 146.368C887.455 148.127 888.119 149.793 889.141 151.214C890.162 152.636 891.51 153.767 893.059 154.505C893.114 154.629 893.168 154.753 893.221 154.879C893.271 154.902 893.321 154.922 893.371 154.944C893.715 155.77 893.973 156.633 894.138 157.517C892.793 157.711 890.447 159.263 888.139 161.555L883.525 161.391C880.544 161.287 877.66 160.264 875.236 158.451L861.438 148.105C860.455 148.205 859.528 148.633 858.795 149.323C857.082 147.461 855.628 145.516 855.751 144.377C855.751 144.377 849.335 131.851 847.002 138.114C844.669 144.377 851.377 150.938 851.377 150.938L855.632 156.688C855.464 157.696 855.358 158.714 855.314 159.736C860.564 165.999 878.938 171.665 878.938 171.665L881.803 171.81C881.809 171.865 881.814 171.911 881.819 171.957C881.643 172.741 881.557 173.544 881.562 174.349C881.564 174.465 881.566 174.586 881.568 174.707C881.567 174.787 881.561 174.867 881.562 174.946C881.708 184.937 883.021 215.506 883.021 215.506C883.276 215.387 883.54 215.278 883.808 215.176L883.604 217.891C883.604 217.891 871.355 219.681 862.313 223.26C853.272 226.838 852.981 231.014 852.981 231.014V267.856C850.397 269.238 846.323 271.055 844.231 270.082C841.961 269.027 840.714 269.914 840.489 270.839V270.839C840.443 271.021 840.439 271.212 840.479 271.396L840.481 271.407C840.501 271.489 840.53 271.569 840.568 271.643L840.577 271.661C840.619 271.738 840.671 271.809 840.731 271.872C841.606 272.767 860.564 280.521 864.938 279.328C865.073 279.291 865.206 279.244 865.335 279.189C865.377 279.17 865.414 279.146 865.455 279.126C865.536 279.086 865.618 279.048 865.693 279.001C865.738 278.973 865.779 278.94 865.822 278.91C865.887 278.864 865.954 278.82 866.015 278.769C866.058 278.733 866.096 278.693 866.137 278.655C866.193 278.603 866.25 278.552 866.303 278.495C866.341 278.454 866.375 278.408 866.411 278.364C866.461 278.305 866.511 278.246 866.557 278.183C866.59 278.137 866.62 278.088 866.651 278.04C866.695 277.973 866.74 277.907 866.781 277.836C866.809 277.787 866.834 277.736 866.86 277.685C866.899 277.61 866.939 277.536 866.974 277.458C866.997 277.407 867.018 277.355 867.039 277.303C867.074 277.22 867.109 277.137 867.14 277.051C867.159 277 867.175 276.948 867.192 276.896C867.222 276.805 867.253 276.713 867.28 276.619C867.294 276.57 867.306 276.52 867.319 276.47C867.346 276.369 867.371 276.268 867.394 276.165C867.404 276.119 867.413 276.072 867.423 276.026C867.445 275.916 867.467 275.805 867.486 275.693C867.493 275.651 867.499 275.609 867.505 275.567C867.524 275.447 867.541 275.327 867.556 275.204C867.56 275.169 867.563 275.134 867.567 275.099C867.582 274.968 867.595 274.837 867.605 274.705C867.607 274.677 867.609 274.649 867.611 274.622C867.622 274.48 867.63 274.339 867.636 274.197C867.637 274.178 867.638 274.159 867.639 274.14C867.645 273.988 867.649 273.836 867.651 273.684L867.651 273.655C867.645 271.876 867.456 270.103 867.088 268.365L868.146 236.978C873.875 237.071 879.603 236.851 885.31 236.319L885.937 251.294C885.937 251.294 885.937 261.135 889.145 265.609C891.891 269.437 895.063 286.369 895.921 291.173C894.742 293.518 892.488 296.416 888.562 296.327C888.562 296.327 881.175 295.661 881.592 297.78L881.593 297.784C881.604 297.839 881.62 297.894 881.639 297.946L881.644 297.96C881.667 298.021 881.694 298.08 881.724 298.138L881.731 298.15C881.76 298.204 881.795 298.261 881.833 298.318C881.841 298.33 881.848 298.342 881.856 298.354C881.899 298.416 881.946 298.48 882 298.546L882.014 298.562C882.063 298.622 882.117 298.684 882.176 298.746C882.192 298.764 882.208 298.781 882.225 298.799C882.291 298.868 882.36 298.938 882.437 299.011C886.229 302.59 908.394 303.187 908.394 303.187L908.394 303.173L908.394 303.163L908.394 303.119L908.394 303.106C908.394 303.083 908.393 303.054 908.393 303.023L908.393 303.01C908.38 301.975 908.248 296.54 906.92 292.45H907.228C907.228 292.45 904.02 262.328 901.395 258.75C901.395 258.75 900.697 242.867 902.271 232.913C902.368 232.876 902.466 232.84 902.561 232.803C909.914 229.939 910.436 222.885 909.678 217.702C911.069 218.169 911.894 218.488 911.894 218.488C911.894 218.488 911.869 218.263 911.821 217.864C911.868 217.881 911.894 217.891 911.894 217.891C911.894 217.891 911.754 216.944 911.523 215.466C910.997 211.402 909.978 204.3 908.893 200.947C908.718 200.21 908.55 199.58 908.394 199.103C907.768 197.088 907.338 195.012 907.11 192.908C906.813 190.18 906.662 187.438 906.66 184.693C906.684 181.024 906.953 177.362 907.466 173.733C907.911 170.564 908.312 166.959 908.278 164.442C908.309 163.565 908.25 162.687 908.103 161.823C907.713 159.965 905.994 158.756 904.207 157.987C904.092 157.938 903.974 157.897 903.858 157.851C903.901 157.147 903.958 156.348 904.032 155.507C904.247 155.662 904.489 155.769 904.744 155.823C905 155.877 905.263 155.876 905.519 155.821C906.287 155.645 906.838 154.976 907.329 154.347C909.914 151.036 912.568 147.584 913.561 143.471C913.958 141.633 914.141 139.753 914.108 137.87C914.108 137.767 914.108 137.664 914.108 137.561C914.146 136.855 914.067 136.147 913.873 135.47Z" fill="url(#paint0_linear)"/>
<path d="M890.339 151.612C890.339 151.612 894.255 157.739 893.416 160.657C892.576 163.574 902.647 161.824 902.647 161.824C902.647 161.824 902.927 150.445 904.885 147.819C906.843 145.193 890.339 151.612 890.339 151.612Z" fill="#F7C4A7"/>
<path d="M864.464 155.551C864.464 155.551 856.352 148.548 856.631 145.922C856.631 145.922 850.477 133.668 848.239 139.795C846.001 145.922 852.435 152.341 852.435 152.341L860.268 163.137L864.464 155.551Z" fill="#F7C4A7"/>
<path d="M856.212 265.402C856.212 265.402 848.659 270.362 845.582 268.903C842.505 267.445 841.386 269.779 842.225 270.654C843.064 271.529 861.247 279.115 865.443 277.948C869.639 276.781 867.505 267.224 867.505 267.224L856.212 265.402Z" fill="#535461"/>
<path d="M896.213 286.702C896.213 286.702 894.395 294.725 888.101 294.579C888.101 294.579 878.59 293.704 882.227 297.205C885.863 300.706 907.123 301.29 907.123 301.29C907.123 301.29 907.123 289.327 903.206 286.702C899.29 284.076 896.213 286.702 896.213 286.702Z" fill="#535461"/>
<path d="M884.744 230.098L885.583 250.522C885.583 250.522 885.583 260.15 888.66 264.527C891.737 268.903 895.374 290.786 895.374 290.786H906.004C906.004 290.786 902.927 261.317 900.409 257.816C900.409 257.816 899.29 231.849 903.206 226.013L884.744 230.098Z" fill="#575988"/>
<path opacity="0.1" d="M884.744 230.098L885.583 250.522C885.583 250.522 885.583 260.15 888.66 264.527C891.737 268.903 895.374 290.786 895.374 290.786H906.004C906.004 290.786 902.927 261.317 900.409 257.816C900.409 257.816 899.29 231.849 903.206 226.013L884.744 230.098Z" fill="black"/>
<path d="M906.843 211.716C906.843 211.716 913.277 227.764 901.528 232.432C889.779 237.1 868.52 236.517 868.52 236.517L867.401 270.362C867.401 270.362 854.254 272.113 853.974 267.736V230.681C853.974 230.681 854.254 226.597 862.925 223.095C871.597 219.594 883.346 217.843 883.346 217.843L883.905 210.257L906.843 211.716Z" fill="#575988"/>
<path opacity="0.1" d="M896.534 158.852C898.768 158.595 901.029 158.928 903.107 159.821C904.821 160.574 906.469 161.756 906.843 163.574C907.285 165.728 906.795 170.557 906.232 174.643C905.331 181.049 905.217 187.548 905.891 193.985C906.179 196.665 906.577 199.003 907.123 200.046C908.801 203.255 910.479 218.427 910.479 218.427C910.479 218.427 892.017 211.133 882.786 215.509C882.786 215.509 881.527 185.603 881.387 175.829C881.279 168.26 890.479 159.635 893.556 159.344C895.359 159.173 894.742 159.046 896.534 158.852Z" fill="black"/>
<path d="M896.534 158.269C898.768 158.011 901.029 158.344 903.107 159.238C904.821 159.99 906.469 161.172 906.843 162.991C907.285 165.144 906.795 169.974 906.232 174.059C905.331 180.465 905.217 186.965 905.891 193.401C906.109 195.459 906.521 197.489 907.123 199.462C908.381 203.401 910.479 217.844 910.479 217.844C910.479 217.844 892.017 210.549 882.786 214.926C882.786 214.926 881.527 185.019 881.387 175.245C881.279 167.677 890.479 159.052 893.556 158.76C895.359 158.589 894.742 158.463 896.534 158.269Z" fill="black"/>
<path opacity="0.1" d="M901.528 174.37L881.667 173.203C881.667 173.203 880.403 163.047 883.27 163.151L902.927 163.866C902.927 163.866 907.123 169.118 901.528 174.37Z" fill="black"/>
<path d="M901.528 173.787L878.87 172.619C878.87 172.619 861.247 167.076 856.212 160.949C856.212 160.949 856.491 150.153 862.086 149.57L875.319 159.692C877.632 161.461 880.403 162.463 883.27 162.568L902.927 163.283C902.927 163.283 907.122 168.535 901.528 173.787Z" fill="black"/>
<path opacity="0.1" d="M902.507 152.925C902.839 150.158 904.042 149.24 904.885 148.11C906.843 145.484 890.339 151.903 890.339 151.903C891.19 153.271 891.936 154.706 892.57 156.196C893.888 156.829 895.321 157.157 896.772 157.155C899.206 157.155 900.766 154.423 902.507 152.925Z" fill="black"/>
<path d="M896.772 156.864C902.334 156.864 906.843 152.161 906.843 146.36C906.843 140.559 902.334 135.856 896.772 135.856C891.211 135.856 886.702 140.559 886.702 146.36C886.702 152.161 891.211 156.864 896.772 156.864Z" fill="#F7C4A7"/>
<path opacity="0.1" d="M890.413 138.998C889.341 137.776 888.826 136.146 888.339 134.569L887.224 130.955C888.74 131.89 890.357 129.783 892.096 129.493C893.342 129.285 894.518 130.044 895.665 130.591C900.645 132.967 907.131 131.788 911.141 135.676C911.689 136.171 912.113 136.797 912.378 137.5C912.564 138.167 912.64 138.863 912.602 139.557C912.635 141.398 912.459 143.237 912.078 145.036C911.126 149.06 908.58 152.437 906.101 155.677C905.63 156.292 905.101 156.947 904.364 157.118C902.925 157.453 901.811 155.831 901.254 154.406C900.517 152.52 899.973 150.557 899.631 148.551C899.545 147.693 899.32 146.856 898.967 146.076C898.1 144.473 895.963 142.956 894.664 141.715C893.387 140.495 891.607 140.357 890.413 138.998Z" fill="black"/>
<path d="M890.413 138.706C889.341 137.484 888.826 135.854 888.339 134.278L887.224 130.663C888.74 131.598 890.357 129.492 892.096 129.201C893.342 128.993 894.518 129.752 895.665 130.299C900.645 132.675 907.131 131.496 911.141 135.385C911.689 135.879 912.113 136.505 912.378 137.208C912.564 137.876 912.64 138.571 912.602 139.265C912.635 141.107 912.459 142.946 912.078 144.744C911.126 148.769 908.58 152.145 906.101 155.385C905.63 156 905.101 156.655 904.364 156.826C902.925 157.162 901.811 155.539 901.254 154.115C900.517 152.228 899.973 150.265 899.631 148.259C899.545 147.401 899.32 146.564 898.967 145.784C898.1 144.181 895.963 142.665 894.664 141.423C893.387 140.203 891.607 140.065 890.413 138.706Z" fill="#632652"/>
<path d="M899.43 149.424C899.893 149.424 900.269 148.575 900.269 147.527C900.269 146.48 899.893 145.631 899.43 145.631C898.967 145.631 898.591 146.48 898.591 147.527C898.591 148.575 898.967 149.424 899.43 149.424Z" fill="#F7C4A7"/>
<path opacity="0.1" d="M904.465 198.149C904.465 198.149 903.906 199.9 901.108 199.608C898.311 199.316 890.199 198.733 890.199 199.608" fill="black"/>
<path opacity="0.5" d="M882.227 296.913C881.842 296.604 881.558 296.179 881.413 295.696C881.339 296.075 881.564 296.567 882.227 297.205C885.863 300.706 907.123 301.29 907.123 301.29C907.123 301.29 907.123 301.187 907.119 300.998C906.985 300.994 885.852 300.404 882.227 296.913Z" fill="white"/>
<path opacity="0.5" d="M865.443 277.365C861.247 278.532 843.064 270.946 842.225 270.071C842.113 269.952 842.033 269.805 841.992 269.644C841.944 269.819 841.94 270.004 841.98 270.181C842.021 270.358 842.106 270.521 842.225 270.654C843.064 271.529 861.247 279.115 865.443 277.948C867.602 277.348 868.084 274.525 868.044 271.926C868.003 274.349 867.441 276.809 865.443 277.365Z" fill="white"/>
<path d="M705.872 299.726C704.891 294.034 704.289 288.277 704.07 282.498V282.498C703.878 277.738 702.278 273.157 699.49 269.383C696.702 265.609 692.863 262.828 688.499 261.421C686.91 260.911 685.158 260.434 683.225 260.006C666.273 256.251 661.124 259.53 660.539 259.961C660.045 259.019 659.616 258.042 659.255 257.037C659.227 256.935 659.2 256.831 659.172 256.728C662.527 252.996 664.571 248.189 664.971 243.09C667.798 240.099 669.45 236.491 669.45 232.607C669.45 229.266 668.227 226.13 666.086 223.415V218.143C666.086 215.128 665.517 212.142 664.411 209.357C663.305 206.571 661.683 204.04 659.639 201.908C657.595 199.776 655.168 198.085 652.498 196.931C649.827 195.777 646.965 195.183 644.074 195.183H642.289C639.398 195.183 636.536 195.777 633.865 196.931C631.194 198.085 628.768 199.776 626.723 201.908C624.679 204.04 623.058 206.571 621.952 209.357C620.846 212.142 620.276 215.128 620.276 218.143V223.834C618.347 226.319 617.275 229.409 617.233 232.607C617.233 236.41 618.817 239.947 621.537 242.9C621.909 248.186 624.047 253.168 627.578 256.979C627.697 257.841 627.82 258.769 627.94 259.748L597.611 266.438C597.611 266.438 585.918 266.94 578.39 283.145C572.017 296.865 559.33 332.135 555.587 342.636H555.587L555.587 342.636C554.909 344.539 554.524 345.63 554.524 345.63C554.524 345.63 554.648 345.499 554.886 345.275C554.651 345.939 554.524 346.298 554.524 346.298C554.524 346.298 554.708 346.104 555.058 345.785C554.527 350.179 554.451 357.721 559.97 358.661C564.596 359.449 576.513 359.772 585.518 359.905V359.914H586.143C592.11 359.998 596.65 359.998 596.65 359.998V359.914H693.477V358.879C693.478 357.939 693.296 357.008 692.943 356.144C692.989 356.088 693.034 356.031 693.078 355.975C693.596 356.688 693.941 357.522 694.083 358.405C694.072 358.491 694.057 358.577 694.037 358.661C694.037 358.661 694.057 358.607 694.094 358.507C694.117 358.782 694.098 359.06 694.037 359.329C694.037 359.329 706.46 325.943 706.327 306.008C706.363 303.904 706.211 301.801 705.872 299.726ZM628.437 264.256C628.277 263.304 628.174 262.342 628.129 261.377L628.13 261.35C628.237 262.288 628.341 263.26 628.437 264.256ZM590.804 335.968V343.925L586.022 344.99L590.804 335.968Z" fill="url(#paint1_linear)"/>
<path d="M642.684 198.394H642.684C648.522 198.394 654.121 200.813 658.249 205.119C662.378 209.425 664.697 215.265 664.697 221.354V231.148H620.672V221.354C620.672 215.265 622.991 209.425 627.119 205.119C631.247 200.813 636.846 198.394 642.684 198.394Z" fill="black"/>
<path d="M642.838 252.342C656.695 252.342 667.929 244.291 667.929 234.36C667.929 224.428 656.695 216.377 642.838 216.377C628.98 216.377 617.747 224.428 617.747 234.36C617.747 244.291 628.98 252.342 642.838 252.342Z" fill="black"/>
<path d="M626.752 251.78C626.752 251.78 631.986 280.36 626.752 288.067C621.518 295.774 642.761 298.824 642.761 298.824L664.774 290.475L667.852 269.924C667.852 269.924 654.46 262.056 657.231 246.161L626.752 251.78Z" fill="#F7C4A7"/>
<path d="M691.712 348.116C691.712 348.116 693.098 354.378 685.555 355.502C681.1 356.186 676.57 356.129 672.133 355.335L670.469 339.607H688.018L691.712 348.116Z" fill="#F7C4A7"/>
<path d="M558.503 340.101C558.503 340.101 555.172 354.217 562.715 355.502C570.258 356.786 597.966 356.786 597.966 356.786V340.088L585.423 342.882L573.645 331.097L558.503 340.101Z" fill="#F7C4A7"/>
<path opacity="0.1" d="M628.368 261.013L598.89 267.515C598.89 267.515 587.653 267.997 580.418 283.571C573.183 299.146 557.481 343.621 557.481 343.621C557.481 343.621 570.874 329.491 586.575 344.584L597.043 324.835L594.734 356.144H675.857V341.373C675.857 341.373 692.79 350.846 691.558 356.144C691.558 356.144 706.048 317.204 702.931 299.506C701.989 294.035 701.41 288.503 701.2 282.949V282.949C701.015 278.374 699.478 273.972 696.798 270.345C694.119 266.719 690.43 264.046 686.236 262.693C684.709 262.203 683.025 261.745 681.168 261.334C663.773 257.48 659.309 261.334 659.309 261.334C659.309 261.334 655.939 272.769 655.999 277.952C656.076 284.615 646.917 289.03 646.917 289.03C646.917 289.03 633.371 285.659 632.755 282.929C632.14 280.199 627.291 264.224 628.368 261.013Z" fill="black"/>
<path d="M628.368 260.37L598.89 266.873C598.89 266.873 587.653 267.355 580.418 282.929C573.183 298.503 557.481 342.978 557.481 342.978C557.481 342.978 570.874 328.849 586.575 343.942L597.043 324.193L594.734 355.502H675.857V340.73C675.857 340.73 692.79 350.204 691.558 355.502C691.558 355.502 706.048 316.561 702.931 298.864C701.989 293.393 701.41 287.861 701.2 282.306V282.306C701.015 277.732 699.478 273.329 696.798 269.703C694.119 266.076 690.429 263.403 686.236 262.051C684.709 261.561 683.025 261.103 681.168 260.691C663.773 256.838 659.309 260.691 659.309 260.691C659.309 260.691 655.939 272.127 655.999 277.309C656.076 283.973 646.917 288.388 646.917 288.388C646.917 288.388 633.371 285.016 632.755 282.287C632.14 279.557 627.291 263.581 628.368 260.37Z" fill="#575988"/>
<path opacity="0.1" d="M658.496 259.006C657.258 255.349 656.98 251.412 657.693 247.606L627.214 253.225C627.214 253.225 627.654 255.628 628.151 259.227C630.12 261.359 632.485 263.051 635.102 264.199C637.718 265.348 640.53 265.93 643.369 265.909C646.207 265.888 649.012 265.266 651.613 264.079C654.213 262.892 656.555 261.166 658.496 259.006Z" fill="black"/>
<path d="M663.696 242.629C663.696 248.374 661.525 253.888 657.654 257.975C653.783 262.062 648.523 264.394 643.015 264.463C637.507 264.533 632.195 262.336 628.229 258.348C624.264 254.36 621.966 248.902 621.832 243.158C621.827 242.982 621.826 242.805 621.826 242.629C621.825 238.54 622.925 234.533 625 231.064C627.074 227.596 630.041 224.804 633.562 223.007C634.19 222.687 634.835 222.399 635.497 222.143C638.943 220.822 642.66 220.462 646.28 221.099C646.282 221.101 646.285 221.101 646.288 221.101C650.925 221.924 655.16 224.354 658.311 227.998C661.461 231.641 663.342 236.286 663.65 241.182C663.681 241.66 663.696 242.143 663.696 242.629Z" fill="#F7C4A7"/>
<g opacity="0.1">
<path opacity="0.1" d="M635.468 222.655C635.477 222.648 635.487 222.641 635.497 222.636C634.835 222.891 634.19 223.179 633.562 223.499C630.041 225.297 627.074 228.088 625 231.557C622.925 235.026 621.825 239.033 621.826 243.121C621.826 243.298 621.827 243.475 621.832 243.651C622.483 243.633 623.123 243.473 623.71 243.181C628.815 240.697 631.876 233.094 633.079 227.793C633.51 225.895 633.922 223.756 635.468 222.655Z" fill="black"/>
<path opacity="0.1" d="M651.492 223.268C649.835 222.474 648.086 221.911 646.288 221.594C647.762 221.947 649.079 222.81 650.025 224.042C650.489 224.7 650.873 225.414 651.169 226.17C648.383 224.899 645.366 224.275 642.326 224.341C639.285 224.407 636.295 225.16 633.562 226.55C634.877 229.554 638.951 231.194 641.671 232.29C644.65 233.49 647.663 234.586 650.712 235.58C649.814 234.819 648.917 234.059 648.02 233.3C650.045 233.636 652.072 233.972 654.098 234.308C654.164 233.046 654.021 231.782 653.674 230.571C654.831 231.55 656.383 231.878 657.647 232.709C660.016 234.267 661.001 237.272 662.292 239.864C662.591 240.577 663.058 241.2 663.65 241.675C663.4 237.749 662.139 233.967 659.999 230.727C657.859 227.487 654.92 224.91 651.492 223.268Z" fill="black"/>
</g>
<path d="M635.468 222.162C635.477 222.155 635.487 222.148 635.497 222.143C634.835 222.398 634.19 222.686 633.562 223.006C630.041 224.803 627.074 227.595 625 231.064C622.925 234.533 621.825 238.54 621.826 242.628C621.826 242.805 621.827 242.982 621.832 243.158C622.483 243.14 623.123 242.98 623.71 242.688C628.815 240.204 631.876 232.601 633.079 227.3C633.51 225.402 633.922 223.263 635.468 222.162Z" fill="#632652"/>
<path d="M651.492 222.775C649.835 221.981 648.085 221.418 646.288 221.101C647.762 221.454 649.079 222.317 650.025 223.549C650.488 224.207 650.873 224.921 651.169 225.677C648.383 224.406 645.366 223.782 642.325 223.848C639.285 223.913 636.295 224.667 633.562 226.057C634.876 229.061 638.951 230.7 641.671 231.797C644.65 232.996 647.663 234.093 650.712 235.087C649.814 234.326 648.917 233.566 648.019 232.807C650.045 233.143 652.071 233.479 654.098 233.815C654.164 232.553 654.021 231.289 653.674 230.078C654.831 231.057 656.383 231.385 657.646 232.216C660.015 233.774 661.001 236.779 662.292 239.371C662.591 240.084 663.058 240.707 663.65 241.182C663.4 237.256 662.139 233.474 659.999 230.234C657.859 226.994 654.92 224.417 651.492 222.775Z" fill="#632652"/>
<path opacity="0.1" d="M619.44 239.027C619.44 239.027 640.991 211.09 665.928 239.027L663.773 232.765C663.773 232.765 652.074 214.943 643.762 218.797C635.449 222.65 627.291 225.38 627.291 225.38L619.44 239.027Z" fill="black"/>
<path d="M619.44 238.534C619.44 238.534 640.991 210.597 665.928 238.534L663.773 232.273C663.773 232.273 652.074 214.45 643.762 218.304C635.449 222.157 627.291 224.887 627.291 224.887L619.44 238.534Z" fill="black"/>
<path opacity="0.1" d="M601.738 298.744C601.738 298.744 597.12 311.589 603.585 323.149C610.05 334.71 597.889 339.526 597.889 339.526" fill="black"/>
<path opacity="0.1" d="M676.55 287.184C676.55 287.184 684.554 297.781 679.32 307.254C674.087 316.727 674.395 339.526 674.395 339.526" fill="black"/>
<path d="M594.657 348.999H683.631C685.59 348.999 687.47 349.811 688.855 351.257C690.241 352.702 691.02 354.662 691.02 356.706H587.268C587.268 354.662 588.046 352.702 589.432 351.257C590.818 349.811 592.697 348.999 594.657 348.999H594.657Z" fill="#535461"/>
<path d="M608.041 296.015H670.247C674.409 296.015 678.4 297.739 681.343 300.809C684.286 303.878 685.94 308.042 685.94 312.383V350.765H592.348V312.383C592.348 308.042 594.001 303.878 596.944 300.809C599.887 297.739 603.879 296.015 608.041 296.015Z" fill="#535461"/>
<path d="M639.067 331.579C642.127 331.579 644.608 328.991 644.608 325.798C644.608 322.606 642.127 320.018 639.067 320.018C636.006 320.018 633.525 322.606 633.525 325.798C633.525 328.991 636.006 331.579 639.067 331.579Z" fill="white"/>
<path opacity="0.1" d="M620.672 225.928C620.672 225.928 641.853 203.848 664.697 225.526" stroke="black" stroke-miterlimit="10"/>
<path d="M670.049 224.522H667.922V237.096H670.049V224.522Z" fill="#6A5C99"/>
<path d="M665.086 232.658C667.029 232.658 668.893 233.463 670.267 234.896C671.641 236.33 672.413 238.274 672.413 240.301V240.794C672.413 242.821 671.641 244.765 670.267 246.198C668.893 247.631 667.029 248.437 665.086 248.437V232.658Z" fill="#FFD037"/>
<path d="M665.322 231.918H665.322C664.408 231.918 663.667 232.691 663.667 233.644V247.45C663.667 248.403 664.408 249.176 665.322 249.176C666.236 249.176 666.977 248.403 666.977 247.45V233.644C666.977 232.691 666.236 231.918 665.322 231.918Z" fill="#6A5C99"/>
<path d="M615.102 237.342H617.229V224.768H615.102V237.342Z" fill="#6A5C99"/>
<path d="M620.066 248.683C618.122 248.683 616.259 247.878 614.884 246.445C613.51 245.011 612.738 243.067 612.738 241.04V240.547C612.738 238.52 613.51 236.576 614.884 235.143C616.259 233.71 618.122 232.904 620.066 232.904V248.683Z" fill="#FFD037"/>
<path d="M619.829 249.423H619.829C620.743 249.423 621.484 248.65 621.484 247.697V233.89C621.484 232.937 620.743 232.165 619.829 232.165C618.916 232.165 618.175 232.937 618.175 233.89V247.697C618.175 248.65 618.916 249.423 619.829 249.423Z" fill="#6A5C99"/>
<path d="M667.67 211.082C664.79 204.835 658.516 197.282 644.993 196.68L644.994 196.662L644.832 196.67L644.821 196.67L644.821 196.671L640.03 196.909L640.031 196.933C626.597 197.578 620.353 205.102 617.481 211.329C615.572 215.547 614.559 220.146 614.512 224.811L616.166 224.768L617.82 224.729C617.892 220.571 618.81 216.477 620.514 212.717C624.161 204.904 630.871 200.749 640.457 200.365L640.457 200.362L644.694 200.118L644.694 200.119C654.281 200.502 660.99 204.658 664.638 212.47C666.341 216.23 667.259 220.325 667.332 224.482L668.986 224.522L670.64 224.564C670.592 219.899 669.579 215.301 667.67 211.082Z" fill="#FFD037"/>
<path d="M743.251 356.808H517.602V419.999H743.251V356.808Z" fill="#D6D6E3"/>
<path opacity="0.1" d="M743.251 361.061H517.602V369.264H743.251V361.061Z" fill="black"/>
<path d="M758.385 355.896H502.467V364.099H758.385V355.896Z" fill="#D6D6E3"/>
<path d="M677.707 335.497C677.707 335.497 687.364 353.964 711.507 348.928C735.65 343.891 723.981 395.515 723.981 395.515C723.981 395.515 720.031 420.141 722.811 419.999" stroke="#535461" stroke-width="3" stroke-miterlimit="10"/>
<defs>
<linearGradient id="paint0_linear" x1="877.28" y1="303.187" x2="877.28" y2="127.249" gradientUnits="userSpaceOnUse">
<stop stop-color="#808080" stop-opacity="0.25"/>
<stop offset="0.53514" stop-color="#808080" stop-opacity="0.12"/>
<stop offset="1" stop-color="#808080" stop-opacity="0.1"/>
</linearGradient>
<linearGradient id="paint1_linear" x1="54547.3" y1="114193" x2="54547.3" y2="49471.2" gradientUnits="userSpaceOnUse">
<stop stop-color="#808080" stop-opacity="0.25"/>
<stop offset="0.53514" stop-color="#808080" stop-opacity="0.12"/>
<stop offset="1" stop-color="#808080" stop-opacity="0.1"/>
</linearGradient>
</defs>
</svg>
