<svg width="123" height="85" viewBox="0 0 123 85" fill="none" xmlns="http://www.w3.org/2000/svg">
<g clip-path="url(#clip0)">
<path d="M84.9653 84.5287C101.004 84.5287 114.007 82.715 114.007 80.4777C114.007 78.2403 101.004 76.4266 84.9653 76.4266C68.9262 76.4266 55.924 78.2403 55.924 80.4777C55.924 82.715 68.9262 84.5287 84.9653 84.5287Z" fill="#30374E"/>
<path d="M15.9991 63.0012C15.9991 63.0012 17.419 62.679 18.3494 63.6314C18.3494 63.6314 17.7514 64.1683 16.3444 63.5734L15.9991 63.0012Z" fill="#535461"/>
<path d="M15.8422 62.9872C15.8422 62.9872 15.001 64.1768 15.5345 65.3976C15.5345 65.3976 16.2617 65.0487 16.2412 63.524L15.8422 62.9872Z" fill="#535461"/>
<path d="M14.8955 61.1941C14.8955 61.1941 15.4 60.1043 17.7998 61.4217C17.7998 61.4217 17.5416 62.1497 16.5219 62.1604C15.5022 62.1712 15.1967 61.7299 14.8955 61.1941Z" fill="#535461"/>
<path d="M14.7428 61.1276C14.7428 61.1276 13.5413 61.0717 13.6091 63.8032C13.6091 63.8032 14.376 63.9106 14.8547 63.0108C15.3333 62.111 15.0795 61.6461 14.7428 61.1276Z" fill="#535461"/>
<path d="M13.906 59.0016C13.906 59.0016 14.4438 57.1033 16.9684 58.2629C16.9684 58.2629 16.5274 60.0013 14.1932 59.6201L13.906 59.0016Z" fill="#535461"/>
<path d="M12.9691 56.2809C12.9691 56.2809 14.1072 54.3225 16.4639 55.9115C16.4639 55.9115 15.7981 57.7229 13.2058 56.9369L12.9691 56.2809Z" fill="#535461"/>
<path d="M12.5238 53.6611C12.5238 53.6611 13.8823 51.8412 16.2197 53.4131C16.2197 53.4131 14.9225 55.0172 12.5528 54.1002L12.5238 53.6611Z" fill="#535461"/>
<path d="M12.1216 51.1143C12.1216 51.1143 13.4941 49.2181 15.7347 50.7761C15.7347 50.7761 14.1556 52.4757 12.1495 51.5352L12.1216 51.1143Z" fill="#535461"/>
<path d="M12.1021 48.8316C12.1021 48.8316 13.5165 46.4126 15.614 47.847C15.614 47.847 14.063 49.9482 12.1322 49.2707L12.1021 48.8316Z" fill="#535461"/>
<path d="M12.2924 46.1495C12.2924 46.1495 13.7983 43.7444 15.8517 45.3786C15.8517 45.3786 14.0123 47.4992 12.316 46.5758L12.2924 46.1495Z" fill="#535461"/>
<path d="M12.6829 43.738C12.6829 43.738 14.5115 41.45 16.2917 42.1951C16.2917 42.1951 14.39 44.6217 12.6345 44.3167L12.6829 43.738Z" fill="#535461"/>
<path d="M13.2209 41.4403C13.2209 41.4403 15.3227 38.6487 16.7027 39.4411C16.7027 39.4411 15.1635 41.5981 13.0907 41.9481L13.2209 41.4403Z" fill="#535461"/>
<path d="M14.0406 38.7625C14.0406 38.7625 15.8875 36.4734 17.3751 36.9115C17.3751 36.9115 15.8208 39.2618 13.8147 39.454L14.0406 38.7625Z" fill="#535461"/>
<path d="M14.7773 36.2597C14.7773 36.2597 16.8404 34.0479 17.8224 34.3464C17.8224 34.3464 16.3865 36.7472 14.7117 36.7246L14.7773 36.2597Z" fill="#535461"/>
<path d="M15.5055 33.9448C15.5055 33.9448 17.2362 31.3519 18.2828 31.4753C18.2828 31.4753 17.2814 33.7505 15.5227 34.195L15.5055 33.9448Z" fill="#535461"/>
<path d="M16.2575 30.8408C16.2575 30.8408 17.8053 28.8373 18.711 28.7814C18.711 28.7814 17.559 31.3948 16.2295 31.4657L16.2575 30.8408Z" fill="#535461"/>
<path d="M16.6878 28.7782L18.0409 24.7315C18.0409 24.7315 18.3636 28.2854 16.535 29.5223L16.6878 28.7782Z" fill="#535461"/>
<path d="M17.0524 24.3911C17.0524 24.3911 17.0997 21.0852 16.9093 20.8297C16.9093 20.8297 18.2506 23.486 17.1395 25.8449L17.0524 24.3911Z" fill="#535461"/>
<path d="M13.8372 58.9619C13.8372 58.9619 12.0882 58.0364 11.1729 60.6508C11.1729 60.6508 12.7325 61.5398 14.0771 59.5975L13.8372 58.9619Z" fill="#535461"/>
<path d="M12.9078 56.1789C12.9078 56.1789 10.7867 55.379 9.96594 58.0987C9.96594 58.0987 11.63 59.0811 13.1402 56.836L12.9078 56.1789Z" fill="#535461"/>
<path d="M12.4388 53.8253C12.4388 53.8253 10.848 52.203 8.74292 54.0755C8.74292 54.0755 10.2424 55.4917 12.4679 54.2677L12.4388 53.8253Z" fill="#535461"/>
<path d="M12.071 51.1186C12.071 51.1186 10.4575 49.4211 8.44495 51.2646C8.44495 51.2646 10.237 52.7388 12.1021 51.5384L12.071 51.1186Z" fill="#535461"/>
<path d="M12.1064 48.896C12.1064 48.896 10.8845 46.3761 8.68262 47.643C8.68262 47.643 10.0659 49.8581 12.0429 49.333L12.1064 48.896Z" fill="#535461"/>
<path d="M12.4185 46.1302C12.4185 46.1302 11.1998 43.5641 8.96997 44.9416C8.96997 44.9416 10.5469 47.2619 12.341 46.5446L12.4185 46.1302Z" fill="#535461"/>
<path d="M12.9057 43.7359C12.9057 43.7359 12.299 40.8745 10.3726 40.7435C10.3726 40.7435 10.9835 43.7638 12.6863 44.2738L12.9057 43.7359Z" fill="#535461"/>
<path d="M13.2704 41.4424C13.2704 41.4424 12.8757 37.9733 11.2848 37.9572C11.2848 37.9572 11.5161 40.5953 13.1252 41.946L13.2704 41.4424Z" fill="#535461"/>
<path d="M14.1986 38.6519C14.1986 38.6519 13.5306 35.7894 11.9967 35.5382C11.9967 35.5382 12.3732 38.3298 14.0974 39.3734L14.1986 38.6519Z" fill="#535461"/>
<path d="M14.9579 36.2683C14.9579 36.2683 14.7427 33.2545 13.7854 32.8733C13.7854 32.8733 13.3971 35.6413 14.7158 36.672L14.9579 36.2683Z" fill="#535461"/>
<path d="M15.5743 33.9073C15.5743 33.9073 15.2355 30.8097 14.2502 30.4371C14.2502 30.4371 14.0889 32.9162 15.4442 34.1199L15.5743 33.9073Z" fill="#535461"/>
<path d="M16.4081 31.0792C16.4081 31.0792 16.2317 28.5549 15.5099 28.0073C15.5099 28.0073 15.0173 30.8193 16.0854 31.6106L16.4081 31.0792Z" fill="#535461"/>
<path d="M16.5951 28.659L15.6486 24.4996C15.6486 24.4996 14.9785 28.0041 16.678 29.4149L16.5951 28.659Z" fill="#535461"/>
<path d="M16.4478 24.4716C16.4478 24.4716 14.5514 21.7573 14.5665 21.4417C14.5665 21.4417 14.9473 24.3922 17.1921 25.7246L16.4478 24.4716Z" fill="#535461"/>
<path d="M16.5952 23.6245C16.5952 23.6245 14.7171 19.7173 13.9674 19.4371C13.9674 19.4371 16.3435 20.4496 16.7221 23.4957L16.5952 23.6245Z" fill="#535461"/>
<path d="M16.2229 31.4861L16.1154 31.4592C17.1749 26.9497 17.3244 24.1066 16.5349 23.4538L16.608 23.3657C17.4406 24.0572 17.3093 26.866 16.2229 31.4861Z" fill="#444053"/>
<path d="M13.1811 42.0791L13.0144 42.033C13.1316 41.6185 13.2586 41.1966 13.3941 40.781C14.5773 37.1605 15.5605 33.802 16.1639 31.2316L16.3005 31.1511C15.696 33.7279 14.7397 37.2099 13.5587 40.8337C13.4242 41.2481 13.2973 41.6668 13.1811 42.0791Z" fill="#444053"/>
<path d="M18.2419 66.1728C18.2183 66.1503 15.8518 63.8247 14.034 59.7049C12.9689 57.2935 12.2932 54.7289 12.0322 52.1064C11.7095 48.8284 12.1505 45.1134 13.1079 41.7023L13.2455 41.844C11.0942 49.5005 12.5797 55.8385 14.2384 59.6029C16.0379 63.6829 18.3775 65.986 18.4011 66.0086L18.2419 66.1728Z" fill="#444053"/>
<path d="M20.8472 53.9102C20.8472 53.9102 21.7077 53.7137 22.2692 54.2913C22.2692 54.2913 21.9067 54.6135 21.0569 54.2559L20.8472 53.9102Z" fill="#535461"/>
<path d="M20.7535 53.9027C20.7535 53.9027 20.2458 54.622 20.5685 55.3597C20.5685 55.3597 21.0074 55.1449 20.9988 54.2269L20.7535 53.9027Z" fill="#535461"/>
<path d="M20.1813 52.8172C20.1813 52.8172 20.4857 52.159 21.9346 52.9557C21.9346 52.9557 21.7786 53.3948 21.1623 53.4013C20.5459 53.4077 20.3652 53.1414 20.1813 52.8172Z" fill="#535461"/>
<path d="M20.0888 52.7774C20.0888 52.7774 19.3617 52.7441 19.4025 54.3944C19.4025 54.3944 19.8661 54.4588 20.1555 53.9155C20.4448 53.3723 20.2921 53.0909 20.0888 52.7774Z" fill="#535461"/>
<path d="M19.5801 51.4922C19.5801 51.4922 19.9103 50.3445 21.4334 51.0434C21.4334 51.0434 21.1677 52.0946 19.7565 51.8637L19.5801 51.4922Z" fill="#535461"/>
<path d="M19.0164 49.8473C19.0164 49.8473 19.7037 48.6662 21.1289 49.624C21.1289 49.624 20.7256 50.7192 19.1594 50.2435L19.0164 49.8473Z" fill="#535461"/>
<path d="M18.7463 48.2636C18.7463 48.2636 19.5681 47.1631 20.9805 48.1133C20.9805 48.1133 20.1974 49.0796 18.7646 48.5288L18.7463 48.2636Z" fill="#535461"/>
<path d="M18.5033 46.7239C18.5033 46.7239 19.3337 45.5772 20.6879 46.5199C20.6879 46.5199 19.7338 47.5475 18.5205 46.9784L18.5033 46.7239Z" fill="#535461"/>
<path d="M18.4926 45.3432C18.4926 45.3432 19.3531 43.8819 20.6148 44.7484C20.6148 44.7484 19.6768 46.0185 18.5098 45.6073L18.4926 45.3432Z" fill="#535461"/>
<path d="M18.6045 43.723C18.6045 43.723 19.5177 42.2681 20.7558 43.2527C20.7558 43.2527 19.6436 44.5347 18.6174 43.9764L18.6045 43.723Z" fill="#535461"/>
<path d="M18.8432 42.2649C18.8432 42.2649 19.9479 40.882 21.0246 41.3329C21.0246 41.3329 19.8747 42.7996 18.8163 42.6149L18.8432 42.2649Z" fill="#535461"/>
<path d="M19.1681 40.8755C19.1681 40.8755 20.4385 39.1888 21.2732 39.6666C21.2732 39.6666 20.3427 40.9711 19.0896 41.1826L19.1681 40.8755Z" fill="#535461"/>
<path d="M19.664 39.2585C19.664 39.2585 20.7805 37.8746 21.6819 38.1398C21.6819 38.1398 20.7429 39.5602 19.5306 39.6762L19.664 39.2585Z" fill="#535461"/>
<path d="M20.1093 37.7436C20.1093 37.7436 21.3559 36.4068 21.9497 36.5872C21.9497 36.5872 21.0827 38.0378 20.0695 38.0249L20.1093 37.7436Z" fill="#535461"/>
<path d="M20.5493 36.3445C20.5493 36.3445 21.5959 34.777 22.2284 34.85C22.2284 34.85 21.6239 36.2254 20.5601 36.4949L20.5493 36.3445Z" fill="#535461"/>
<path d="M21.0052 34.4677C21.0052 34.4677 21.9411 33.2566 22.4886 33.2222C22.4886 33.2222 21.7915 34.8027 20.988 34.8424L21.0052 34.4677Z" fill="#535461"/>
<path d="M21.2647 33.2201L22.0811 30.7764C22.0811 30.7764 22.2747 32.9238 21.1678 33.6753L21.2647 33.2201Z" fill="#535461"/>
<path d="M21.4851 30.5681C21.4851 30.5681 21.513 28.5699 21.3979 28.4153C21.3979 28.4153 22.209 30.0205 21.5367 31.4474L21.4851 30.5681Z" fill="#535461"/>
<path d="M19.5402 51.4686C19.5402 51.4686 18.4839 50.9081 17.9268 52.4886C17.9268 52.4886 18.8701 53.0254 19.6833 51.853L19.5402 51.4686Z" fill="#535461"/>
<path d="M18.9799 49.7808C18.9799 49.7808 17.6967 49.2976 17.2008 50.9414C17.2008 50.9414 18.2065 51.5352 19.1198 50.1791L18.9799 49.7808Z" fill="#535461"/>
<path d="M18.6948 48.3624C18.6948 48.3624 17.7343 47.3821 16.4607 48.5127C16.4607 48.5127 17.3675 49.3717 18.7131 48.6287L18.6948 48.3624Z" fill="#535461"/>
<path d="M18.4733 46.7261C18.4733 46.7261 17.4977 45.7007 16.2811 46.8152C16.2811 46.8152 17.3643 47.7053 18.4905 46.9806L18.4733 46.7261Z" fill="#535461"/>
<path d="M18.4947 45.3786C18.4947 45.3786 17.7557 43.855 16.4241 44.6206C16.4241 44.6206 17.2609 45.9595 18.456 45.6427L18.4947 45.3786Z" fill="#535461"/>
<path d="M18.6829 43.709C18.6829 43.709 17.9461 42.1575 16.5951 42.9907C16.5951 42.9907 17.5481 44.394 18.6334 43.957L18.6829 43.709Z" fill="#535461"/>
<path d="M18.9776 42.2649C18.9776 42.2649 18.6108 40.5341 17.4459 40.4557C17.4459 40.4557 17.8149 42.281 18.8443 42.5891L18.9776 42.2649Z" fill="#535461"/>
<path d="M19.198 40.8766C19.198 40.8766 18.9614 38.7797 17.9933 38.7689C17.9933 38.7689 18.1331 40.3645 19.1055 41.1815L19.198 40.8766Z" fill="#535461"/>
<path d="M19.7587 39.1898C19.7587 39.1898 19.3553 37.459 18.4281 37.3066C18.4281 37.3066 18.6561 38.9933 19.6984 39.6247L19.7587 39.1898Z" fill="#535461"/>
<path d="M20.2179 37.7489C20.2179 37.7489 20.0856 35.9237 19.5102 35.696C19.5102 35.696 19.2746 37.3699 20.0717 37.9927L20.2179 37.7489Z" fill="#535461"/>
<path d="M20.5911 36.3209C20.5911 36.3209 20.3868 34.4484 19.7909 34.2229C19.7909 34.2229 19.693 35.7261 20.5126 36.4498L20.5911 36.3209Z" fill="#535461"/>
<path d="M21.0945 34.6116C21.0945 34.6116 20.987 33.0859 20.5567 32.7541C20.5567 32.7541 20.2588 34.4548 20.9041 34.9326L21.0945 34.6116Z" fill="#535461"/>
<path d="M21.2107 33.1482L20.6385 30.6336C20.6385 30.6336 20.233 32.753 21.2602 33.6056L21.2107 33.1482Z" fill="#535461"/>
<path d="M21.1193 30.6175C21.1193 30.6175 19.9737 28.9779 19.9823 28.7857C19.9823 28.7857 20.2115 30.5691 21.5689 31.3744L21.1193 30.6175Z" fill="#535461"/>
<path d="M21.2053 30.1042C21.2053 30.1042 20.0694 27.7421 19.6166 27.5757C19.6166 27.5757 21.0536 28.1877 21.2817 30.0302L21.2053 30.1042Z" fill="#535461"/>
<path d="M20.9827 34.8564L20.9149 34.8403C21.5603 32.1142 21.6464 30.3952 21.1688 30.0012L21.2129 29.9475C21.7195 30.3662 21.6399 32.0648 20.9827 34.8564Z" fill="#444053"/>
<path d="M19.1444 41.2621L19.0433 41.2331C19.1143 40.9829 19.1918 40.7284 19.2735 40.4815C19.9867 38.2922 20.5826 36.2619 20.9472 34.7082L21.0301 34.6588C20.6643 36.2157 20.0867 38.3223 19.3725 40.5137C19.2907 40.7617 19.2144 41.0119 19.1444 41.2621Z" fill="#444053"/>
<path d="M22.2036 55.8278C22.1896 55.8138 20.759 54.4084 19.6597 51.9174C19.0162 50.4596 18.6078 48.9093 18.4496 47.3241C18.2527 45.3421 18.5216 43.0959 19.1014 41.0334L19.1842 41.1193C17.8838 45.7479 18.7819 49.58 19.7844 51.8562C20.873 54.3257 22.2864 55.714 22.3015 55.7279L22.2036 55.8278Z" fill="#444053"/>
<path d="M25.4392 61.1963C25.1631 61.2452 24.8928 61.3222 24.6324 61.4261C18.8304 63.7388 18.9272 78.8779 18.9272 78.8779H17.2191C17.2191 78.8779 16.6812 72.3809 14.3374 63.1117C12.2259 54.7724 20.886 47.2984 22.6446 45.8811C22.8426 45.7233 22.9523 45.6395 22.9523 45.6395C31.6747 48.8391 25.4392 61.1963 25.4392 61.1963Z" fill="#AFC0E0"/>
<path opacity="0.2" d="M23.5868 45.9026C23.3856 45.8102 23.178 45.7222 22.9575 45.6417C22.9575 45.6417 22.85 45.7254 22.6499 45.8832C20.8912 47.3005 12.2312 54.7745 14.3427 63.1139C16.6865 72.3831 17.2189 78.8778 17.2189 78.8778H18.1795C18.1795 78.8778 17.647 72.3809 15.2978 63.1117C13.1949 54.811 21.7711 47.3649 23.5868 45.9026Z" fill="white"/>
<path d="M54.2171 63.1139C51.8679 72.3831 51.3386 78.8779 51.3386 78.8779H49.6273C49.6273 78.8779 49.7349 63.0559 43.5251 61.2897C43.3907 61.2494 43.2538 61.2175 43.1153 61.1941C43.1153 61.1941 36.8766 48.837 45.6022 45.6395C45.6022 45.6395 45.6904 45.705 45.8496 45.8328C47.4663 47.1245 56.3522 54.6779 54.2171 63.1139Z" fill="#AFC0E0"/>
<path opacity="0.1" d="M25.4392 61.1963C25.1631 61.2452 24.8928 61.3222 24.6324 61.426C23.5835 56.3017 22.919 51.1063 22.6447 45.8832C22.8426 45.7254 22.9523 45.6417 22.9523 45.6417C31.6747 48.8391 25.4392 61.1963 25.4392 61.1963Z" fill="black"/>
<path opacity="0.1" d="M45.8527 45.8349C45.497 51.0428 44.7196 56.2134 43.5282 61.2961C43.3937 61.2558 43.2568 61.2239 43.1184 61.2006C43.1184 61.2006 36.8796 48.8434 45.6053 45.646C45.602 45.6417 45.6902 45.7072 45.8527 45.8349Z" fill="black"/>
<path d="M42.6592 63.5391C42.0568 65.9112 41.3509 68.3449 40.5413 70.8402C40.5413 70.8402 36.699 74.8354 27.4184 70.8402C27.4184 70.8402 26.4912 68.2311 25.4714 63.7957C23.2266 54.0433 20.5342 35.4587 26.2706 16.3695C27.9789 10.6309 30.4069 5.13085 33.4968 0C33.4968 0 38.3975 5.61649 41.9945 16.3663C45.5914 27.1161 47.8804 43.0014 42.6592 63.5391Z" fill="#E3E8F4"/>
<path d="M34.2766 39.2145C38.5319 39.2145 41.9815 35.7712 41.9815 31.5237C41.9815 27.2761 38.5319 23.8328 34.2766 23.8328C30.0214 23.8328 26.5718 27.2761 26.5718 31.5237C26.5718 35.7712 30.0214 39.2145 34.2766 39.2145Z" fill="#AFC0E0"/>
<path d="M39.7408 31.528C39.7408 32.5608 39.447 33.5725 38.8935 34.4452C38.3401 35.3179 37.5498 36.0158 36.6145 36.4577C35.6792 36.8997 34.6375 37.0674 33.6105 36.9415C32.5834 36.8156 31.6133 36.4012 30.813 35.7465C30.4223 35.4254 30.0778 35.0522 29.789 34.6374C29.6593 34.4521 29.5414 34.2588 29.4362 34.0587C29.0264 33.2779 28.8126 32.4094 28.8134 31.528C28.8134 31.4839 28.8134 31.441 28.8134 31.398C28.8414 30.2317 29.2429 29.1049 29.9591 28.1828C30.6753 27.2608 31.6685 26.592 32.7932 26.2744C33.2227 26.1562 33.6646 26.0892 34.1098 26.0747H34.2733C34.9911 26.0742 35.7019 26.215 36.3652 26.4888C37.0284 26.7627 37.6311 27.1643 38.1389 27.6707C38.6466 28.1771 39.0494 28.7784 39.3243 29.4402C39.5992 30.1021 39.7407 30.8115 39.7408 31.528Z" fill="#535461"/>
<path d="M41.9934 16.3663C33.2516 20.5441 26.2653 16.3663 26.2653 16.3663C27.9755 10.6286 30.4052 5.12957 33.4968 0C33.4968 0 38.3975 5.61649 41.9934 16.3663Z" fill="#AFC0E0"/>
<path d="M42.6591 63.5391C42.2504 65.1453 41.795 66.7791 41.293 68.4405C41.055 69.2329 40.804 70.0317 40.5401 70.837C40.5401 70.837 36.6979 74.8322 27.4172 70.837C27.4172 70.837 27.116 69.9898 26.6642 68.4405C26.3265 67.2702 25.9059 65.7015 25.467 63.7925C25.467 63.7925 28.922 65.2645 33.8259 65.2645C36.8553 65.2749 39.8571 64.6885 42.6591 63.5391Z" fill="#AFC0E0"/>
<path d="M41.293 68.4405C41.0549 69.2329 40.8039 70.0317 40.54 70.837C40.54 70.837 36.6978 74.8322 27.4171 70.837C27.4171 70.837 27.116 69.9898 26.6642 68.4405C26.6631 68.4405 36.1224 71.1569 41.293 68.4405Z" fill="#E3E8F4"/>
<path opacity="0.2" d="M32.7965 26.2668L32.7847 26.2754L28.8156 31.3905C28.8156 31.4335 28.8156 31.4764 28.8156 31.5204C28.8148 32.4019 29.0286 33.2703 29.4384 34.0511L34.1153 26.0671L32.7965 26.2668Z" fill="white"/>
<path opacity="0.2" d="M34.0637 30.8837L30.8131 35.7422C30.4224 35.4211 30.0779 35.0479 29.7891 34.6331L33.6614 30.4843L34.0637 30.8837Z" fill="white"/>
<path opacity="0.2" d="M29.4944 70.838C29.4944 70.838 28.5672 68.2279 27.5475 63.7935C25.3026 54.0401 22.6102 35.4555 28.3467 16.3663C29.8886 11.2012 32.0123 6.22724 34.6768 1.53967C33.9486 0.520738 33.4936 0.00107002 33.4936 0.00107002C30.4032 5.13043 27.9745 10.6291 26.2653 16.3663C20.5288 35.4555 23.2212 54.0401 25.4661 63.7935C26.4858 68.2279 27.413 70.838 27.413 70.838C31.0799 72.4153 33.897 72.746 35.9644 72.5699C34.1982 72.4357 32.0533 71.9386 29.4944 70.838Z" fill="white"/>
<path d="M100.786 78.2648C100.786 78.2648 105.814 72.0202 105.48 65.7659C105.324 63.144 106.023 60.5422 107.474 58.351C108.173 57.3144 108.965 56.3441 109.841 55.452" stroke="#535461" stroke-width="1.17401" stroke-miterlimit="10"/>
<path d="M109.65 51.5137C109.291 52.3845 109.829 55.5594 109.829 55.5594C109.829 55.5594 112.45 53.6825 112.81 52.8118C112.982 52.3936 112.981 51.9242 112.807 51.5068C112.632 51.0894 112.299 50.7582 111.88 50.586C111.461 50.4139 110.991 50.4149 110.573 50.5889C110.155 50.7629 109.823 51.0955 109.65 51.5137Z" fill="#535461"/>
<path d="M105.049 55.2652C105.222 56.1907 107.402 58.5636 107.402 58.5636C107.402 58.5636 108.586 55.5669 108.408 54.6403C108.325 54.1956 108.068 53.8021 107.695 53.5463C107.321 53.2905 106.861 53.1933 106.415 53.2762C105.97 53.359 105.576 53.6151 105.319 53.9881C105.063 54.3612 104.966 54.8205 105.049 55.2652Z" fill="#535461"/>
<path d="M101.764 63.5563C102.381 64.2681 105.464 65.2183 105.464 65.2183C105.464 65.2183 104.965 62.037 104.348 61.324C104.048 60.9935 103.63 60.7932 103.185 60.7662C102.739 60.7391 102.3 60.8874 101.963 61.1793C101.625 61.4712 101.415 61.8835 101.379 62.3278C101.342 62.7721 101.481 63.2131 101.766 63.5563H101.764Z" fill="#535461"/>
<path d="M100.694 70.3882C101.181 71.1945 104.058 72.6505 104.058 72.6505C104.058 72.6505 104.106 69.4294 103.618 68.6241C103.502 68.4324 103.35 68.2654 103.169 68.1326C102.988 67.9999 102.783 67.9039 102.565 67.8503C102.347 67.7966 102.121 67.7864 101.899 67.82C101.677 67.8537 101.464 67.9306 101.272 68.0464C101.08 68.1623 100.913 68.3147 100.78 68.4951C100.647 68.6755 100.551 68.8802 100.497 69.0977C100.443 69.3151 100.433 69.541 100.467 69.7624C100.501 69.9839 100.578 70.1965 100.694 70.3882Z" fill="#535461"/>
<path d="M110.65 60.0957C109.774 60.4447 106.599 59.8756 106.599 59.8756C106.599 59.8756 108.505 57.2784 109.381 56.9283C109.802 56.7605 110.273 56.7663 110.689 56.9446C111.106 57.1229 111.434 57.4591 111.602 57.8791C111.77 58.2991 111.764 58.7686 111.586 59.1843C111.407 59.6 111.07 59.9279 110.65 60.0957Z" fill="#535461"/>
<path d="M109.297 68.0701C108.357 68.142 105.497 66.6506 105.497 66.6506C105.497 66.6506 108.094 64.7405 109.035 64.6686C109.482 64.6438 109.92 64.7946 110.256 65.0886C110.593 65.3827 110.8 65.7966 110.835 66.2416C110.869 66.6866 110.727 67.1273 110.439 67.4691C110.152 67.8109 109.742 68.0267 109.297 68.0701Z" fill="#535461"/>
<path d="M106.916 75.6396C106.001 75.8694 102.931 74.8816 102.931 74.8816C102.931 74.8816 105.167 72.5613 106.083 72.3326C106.3 72.278 106.526 72.2666 106.748 72.2993C106.97 72.3319 107.183 72.4078 107.376 72.5227C107.568 72.6376 107.736 72.7893 107.87 72.969C108.004 73.1487 108.101 73.3529 108.156 73.57C108.211 73.7872 108.222 74.013 108.189 74.2345C108.157 74.456 108.081 74.6689 107.965 74.8611C107.85 75.0533 107.698 75.2209 107.518 75.3545C107.338 75.4881 107.134 75.585 106.916 75.6396Z" fill="#535461"/>
<path opacity="0.25" d="M109.65 51.5137C109.291 52.3845 109.829 55.5594 109.829 55.5594C109.829 55.5594 112.45 53.6825 112.81 52.8118C112.982 52.3936 112.981 51.9242 112.807 51.5068C112.632 51.0894 112.299 50.7582 111.88 50.586C111.461 50.4139 110.991 50.4149 110.573 50.5889C110.155 50.7629 109.823 51.0955 109.65 51.5137Z" fill="black"/>
<path opacity="0.25" d="M105.049 55.2652C105.222 56.1907 107.402 58.5636 107.402 58.5636C107.402 58.5636 108.586 55.5669 108.408 54.6403C108.325 54.1956 108.068 53.8021 107.695 53.5463C107.321 53.2905 106.861 53.1933 106.415 53.2762C105.97 53.359 105.576 53.6151 105.319 53.9881C105.063 54.3612 104.966 54.8205 105.049 55.2652Z" fill="black"/>
<path opacity="0.25" d="M101.764 63.5563C102.381 64.2681 105.464 65.2183 105.464 65.2183C105.464 65.2183 104.965 62.037 104.348 61.324C104.048 60.9935 103.63 60.7932 103.185 60.7662C102.739 60.7391 102.3 60.8874 101.963 61.1793C101.625 61.4712 101.415 61.8835 101.379 62.3278C101.342 62.7721 101.481 63.2131 101.766 63.5563H101.764Z" fill="black"/>
<path opacity="0.25" d="M100.694 70.3882C101.181 71.1945 104.058 72.6505 104.058 72.6505C104.058 72.6505 104.106 69.4294 103.618 68.6241C103.502 68.4324 103.35 68.2654 103.169 68.1326C102.988 67.9999 102.783 67.9039 102.565 67.8503C102.347 67.7966 102.121 67.7864 101.899 67.82C101.677 67.8537 101.464 67.9306 101.272 68.0464C101.08 68.1623 100.913 68.3147 100.78 68.4951C100.647 68.6755 100.551 68.8802 100.497 69.0977C100.443 69.3151 100.433 69.541 100.467 69.7624C100.501 69.9839 100.578 70.1965 100.694 70.3882Z" fill="black"/>
<path opacity="0.25" d="M110.65 60.0957C109.774 60.4447 106.599 59.8756 106.599 59.8756C106.599 59.8756 108.505 57.2784 109.381 56.9283C109.802 56.7605 110.273 56.7663 110.689 56.9446C111.106 57.1229 111.434 57.4591 111.602 57.8791C111.77 58.2991 111.764 58.7686 111.586 59.1843C111.407 59.6 111.07 59.9279 110.65 60.0957Z" fill="black"/>
<path opacity="0.25" d="M109.297 68.0701C108.357 68.142 105.497 66.6506 105.497 66.6506C105.497 66.6506 108.094 64.7405 109.035 64.6686C109.482 64.6438 109.92 64.7946 110.256 65.0886C110.593 65.3827 110.8 65.7966 110.835 66.2416C110.869 66.6866 110.727 67.1273 110.439 67.4691C110.152 67.8109 109.742 68.0267 109.297 68.0701Z" fill="black"/>
<path opacity="0.25" d="M106.916 75.6396C106.001 75.8694 102.931 74.8816 102.931 74.8816C102.931 74.8816 105.167 72.5613 106.083 72.3326C106.3 72.278 106.526 72.2666 106.748 72.2993C106.97 72.3319 107.183 72.4078 107.376 72.5227C107.568 72.6376 107.736 72.7893 107.87 72.969C108.004 73.1487 108.101 73.3529 108.156 73.57C108.211 73.7872 108.222 74.013 108.189 74.2345C108.157 74.456 108.081 74.6689 107.965 74.8611C107.85 75.0533 107.698 75.2209 107.518 75.3545C107.338 75.4881 107.134 75.585 106.916 75.6396Z" fill="black"/>
<path d="M100.831 78.0039C100.831 78.0039 107.963 74.3275 110.197 68.4759C111.118 66.0151 112.814 63.9191 115.031 62.5029C116.088 61.8383 117.204 61.2719 118.365 60.8108" stroke="#535461" stroke-width="1.17401" stroke-miterlimit="10"/>
<path d="M119.795 57.1313C119.113 57.783 118.316 60.9032 118.316 60.9032C118.316 60.9032 121.474 60.2471 122.156 59.5965C122.484 59.2839 122.674 58.8541 122.685 58.4016C122.695 57.949 122.526 57.5108 122.212 57.1833C121.899 56.8559 121.469 56.666 121.015 56.6554C120.562 56.6448 120.123 56.8144 119.795 57.127V57.1313Z" fill="#535461"/>
<path d="M114.066 58.6999C113.851 59.6169 114.878 62.6726 114.878 62.6726C114.878 62.6726 117.168 60.4103 117.39 59.488C117.493 59.0487 117.417 58.5865 117.179 58.2028C116.941 57.8191 116.561 57.5451 116.121 57.4408C115.682 57.3366 115.218 57.4105 114.833 57.6465C114.448 57.8825 114.172 58.2613 114.066 58.6999Z" fill="#535461"/>
<path d="M107.696 64.951C107.971 65.8518 110.404 67.967 110.404 67.967C110.404 67.967 111.24 64.8533 110.965 63.9567C110.899 63.7425 110.792 63.5432 110.65 63.3702C110.507 63.1973 110.332 63.054 110.134 62.9487C109.936 62.8434 109.719 62.778 109.496 62.7563C109.272 62.7346 109.047 62.7571 108.832 62.8224C108.618 62.8877 108.418 62.9945 108.245 63.1368C108.071 63.2791 107.928 63.4541 107.822 63.6517C107.717 63.8494 107.651 64.0659 107.63 64.2888C107.608 64.5117 107.63 64.7367 107.696 64.951Z" fill="#535461"/>
<path d="M103.944 70.764C104.062 71.6991 106.102 74.1933 106.102 74.1933C106.102 74.1933 107.453 71.2697 107.333 70.3345C107.276 69.8858 107.043 69.4782 106.685 69.2012C106.327 68.9243 105.873 68.8007 105.424 68.8576C104.974 68.9146 104.566 69.1474 104.288 69.5049C104.011 69.8624 103.887 70.3153 103.944 70.764Z" fill="#535461"/>
<path d="M117.225 65.3815C116.282 65.3472 113.611 63.5423 113.611 63.5423C113.611 63.5423 116.408 61.9393 117.351 61.9736C117.575 61.9819 117.796 62.0341 118 62.1274C118.204 62.2206 118.387 62.3531 118.54 62.5171C118.692 62.6812 118.811 62.8736 118.889 63.0835C118.968 63.2934 119.004 63.5166 118.995 63.7404C118.987 63.9641 118.935 64.1841 118.841 64.3877C118.748 64.5912 118.615 64.7745 118.451 64.9269C118.286 65.0793 118.094 65.1978 117.883 65.2759C117.673 65.3539 117.449 65.3898 117.225 65.3815Z" fill="#535461"/>
<path d="M112.75 72.1243C111.861 71.8097 109.853 69.2898 109.853 69.2898C109.853 69.2898 113.003 68.5951 113.892 68.9097C114.103 68.9845 114.298 69.1001 114.464 69.25C114.631 69.3999 114.767 69.5811 114.863 69.7832C114.96 69.9854 115.015 70.2045 115.027 70.4282C115.039 70.6518 115.006 70.8755 114.931 71.0866C114.856 71.2977 114.741 71.492 114.59 71.6583C114.44 71.8247 114.259 71.96 114.056 72.0563C113.854 72.1527 113.634 72.2083 113.41 72.22C113.186 72.2316 112.962 72.1991 112.75 72.1243Z" fill="#535461"/>
<path d="M107.5 78.0823C106.571 77.9223 104.166 75.777 104.166 75.777C104.166 75.777 107.153 74.5616 108.082 74.7216C108.529 74.7985 108.926 75.0492 109.187 75.4187C109.449 75.7882 109.552 76.2462 109.475 76.6918C109.398 77.1375 109.147 77.5343 108.777 77.7951C108.407 78.0558 107.948 78.1591 107.501 78.0823H107.5Z" fill="#535461"/>
<path d="M110.971 74.553L105.444 66.5508C105.444 66.5508 105.336 64.5698 104.979 64.1071C104.622 63.6443 104.902 62.6146 104.902 62.6146C104.902 62.6146 105.289 62.0488 104.953 61.9972C104.618 61.9457 104.902 60.6841 104.902 60.6841L104.876 58.6774C104.876 58.6774 105.185 56.7447 104.927 56.2852C104.852 56.16 104.814 56.0157 104.819 55.8696C104.823 55.7235 104.87 55.5819 104.953 55.4617C104.953 55.4617 105.263 54.3547 104.953 54.0723C104.643 53.7899 104.721 52.0645 104.798 50.7009C104.876 49.3373 104.255 48.5653 104.255 48.3592C104.255 48.153 102.211 46.1463 102.211 45.967C102.211 45.7877 100.921 45.0404 100.145 44.8342C99.3694 44.6281 98.9822 44.4746 99.008 44.3715C99.0338 44.2684 97.7936 43.8572 97.7936 43.8572C97.7936 43.8572 96.7083 43.7799 96.2942 43.2387C95.88 42.6976 94.6172 42.543 94.5807 42.5376C94.5731 42.5022 94.5645 42.4657 94.557 42.4302C94.5495 42.3948 94.5409 42.3529 94.5333 42.3143C94.6312 42.15 94.7216 41.9825 94.8033 41.8096C94.8281 41.757 94.8517 41.7023 94.8743 41.6529C95.3272 41.6325 95.7918 41.5359 96.1468 41.2588C96.3292 41.1066 96.4782 40.9185 96.5846 40.7062C96.691 40.494 96.7525 40.2622 96.7653 40.0252C96.7872 39.5495 96.6829 39.0766 96.463 38.6541C96.2372 38.1902 95.9048 37.7103 96.0188 37.2078C96.0694 36.9931 96.1995 36.7998 96.2662 36.5872C96.392 36.1846 96.2759 35.7422 96.0801 35.3686C95.8843 34.9949 95.6122 34.6664 95.3949 34.3045C95.1174 33.8434 94.9322 33.3329 94.8496 32.8014C94.8055 32.5222 94.7883 32.228 94.6474 31.9821C94.5306 31.7997 94.3762 31.6441 94.1945 31.5258C93.3863 30.9488 92.4103 30.6534 91.4172 30.6851C90.7137 30.7098 90.0124 30.8998 89.3143 30.8129C88.8937 30.7613 88.4925 30.6121 88.0859 30.4908C87.2189 30.2352 86.2197 30.13 85.4646 30.625C84.7094 31.1199 84.4093 32.0938 83.8984 32.855C83.4466 33.5293 82.784 34.0941 82.4398 34.807C82.4398 34.7941 82.4463 34.7802 82.4506 34.7662C82.366 34.9312 82.3013 35.1056 82.258 35.2859C82.1268 35.8463 82.2365 36.4326 82.3731 36.992C82.4431 37.2808 82.5399 37.5943 82.7905 37.7543C83.0411 37.9143 83.3961 37.8789 83.693 37.9315C83.6822 37.9798 83.6693 38.0292 83.6585 38.0786C83.3511 39.5283 83.602 41.0405 84.3613 42.3139C85.1205 43.5873 86.3325 44.5286 87.7557 44.9502C87.7557 45.0028 87.7557 45.0576 87.7557 45.107C87.7551 45.2548 87.7461 45.4025 87.7288 45.5493C87.7288 45.5493 85.1311 45.0125 84.433 45.3775C83.7349 45.7426 82.3656 46.0218 82.1591 46.2258C81.9526 46.4298 81.4363 46.2773 80.9759 47.4873C80.5155 48.6974 80.4596 49.9311 79.8647 50.4937C79.2699 51.0563 78.9612 51.4461 78.9354 51.8584C78.9096 52.2706 79.0128 52.3727 78.7794 52.5026C78.546 52.6325 78.2115 53.1715 78.3147 53.3776C78.3147 53.3776 78.4438 53.8919 78.0308 54.1485C77.6177 54.4052 77.6683 54.9205 77.6683 54.9205C77.6683 54.9205 77.5134 55.4874 77.1519 55.6152C76.7905 55.743 76.5571 56.5933 76.5571 56.5933L75.3814 57.9408L73.0591 55.3747C72.8852 55.1824 72.6419 55.0669 72.3827 55.0536C72.1235 55.0403 71.8696 55.1303 71.6769 55.3038L70.5367 56.3303C70.0966 56.4368 69.6989 56.6733 69.3955 57.0089C69.147 57.2635 68.9469 57.5611 68.8049 57.8871L68.18 58.4476C67.9836 58.6907 67.8636 58.9864 67.835 59.2974C67.8065 59.6084 67.8708 59.9209 68.0197 60.1956L69.5073 61.8373L69.517 61.8512C68.9544 61.9221 68.4575 62.1025 68.0778 62.4364C65.8566 64.3916 65.8297 66.1943 66.1664 67.0157C66.503 67.8371 69.318 71.0045 69.318 71.0045C69.318 71.0045 70.9541 73.1272 73.3162 74.2567L73.2979 74.2749C73.2517 74.3243 73.2054 74.3823 73.1602 74.436L73.1215 74.4854L73.086 74.5348L73.044 74.597C73.0322 74.6132 73.0215 74.6303 73.0107 74.6475C72.9999 74.6647 72.9806 74.6958 72.9666 74.7216L72.9376 74.771C72.9203 74.8032 72.9021 74.8365 72.8849 74.8708L72.8676 74.9041C72.8461 74.9492 72.8246 74.9954 72.8042 75.0437C72.7967 75.0609 72.7902 75.0791 72.7827 75.0963C72.7698 75.1296 72.7558 75.164 72.7429 75.2037C72.73 75.2434 72.7267 75.2477 72.7192 75.2703C72.7117 75.2928 72.6966 75.3368 72.6859 75.3712C72.6751 75.4055 72.6708 75.4195 72.6643 75.4431C72.6579 75.4667 72.6428 75.5183 72.6331 75.5569C72.6235 75.5956 72.6213 75.602 72.6149 75.6267C72.6009 75.6858 72.5869 75.747 72.5751 75.8114C72.5751 75.835 72.5665 75.8597 72.5622 75.8844C72.5536 75.9274 72.546 75.9714 72.5396 76.0165C72.5342 76.0476 72.531 76.0787 72.5267 76.1099C72.5224 76.141 72.5159 76.1947 72.5105 76.2376L72.5008 76.3364C72.5008 76.3837 72.4922 76.4331 72.489 76.4825C72.489 76.5125 72.489 76.5426 72.4836 76.5726C72.4836 76.6542 72.475 76.7358 72.474 76.8217C72.4223 79.8281 72.5987 80.2694 72.5987 80.2694C72.5987 80.2694 72.9634 81.2282 73.9702 81.2969C74.118 81.3077 74.2665 81.2998 74.4123 81.2733C75.7558 81.0414 78.9074 80.5013 80.0185 80.7074C80.6865 80.8309 81.9235 80.6484 82.8045 80.482L83.0357 80.4379L83.1971 80.949L83.708 80.8094L84.1383 81.0596L84.4126 81.2164C84.9224 82.9429 86.9941 82.3545 86.9941 82.3545L87.4803 82.6358L92.467 82.7646C92.467 82.7646 93.5427 83.4089 94.2322 83.6107C94.3141 83.6355 94.3979 83.6538 94.4828 83.6655C94.9451 83.7025 95.4092 83.7111 95.8725 83.6912C96.2544 83.6816 96.5502 83.6655 96.5502 83.6655C96.5502 83.6655 96.4996 82.3137 96.4265 80.8009C98.3325 80.7214 100.022 80.6022 101.045 80.4229C103.709 79.9559 104.82 77.539 105.228 76.2473C105.351 76.7752 105.439 77.3108 105.49 77.8503C105.598 78.3217 105.737 78.7858 105.904 79.2397C106.049 79.6049 106.24 79.9505 106.472 80.2683C108.436 79.5994 107.247 78.5966 106.833 78.1585C106.419 77.7204 107.118 77.3607 107.118 77.3607C107.118 77.3607 107.656 77.0011 107.609 76.6661C107.562 76.3311 107.531 75.9714 109.288 75.9971C111.045 76.0229 110.971 74.553 110.971 74.553ZM83.6865 58.1255C83.7091 58.2726 83.9543 59.8584 84.1759 60.2729C84.2222 60.3609 84.2405 60.6734 84.234 61.12C83.1928 61.0374 82.1085 60.9933 82.1085 60.9933C82.1397 61.0309 82.1592 61.0769 82.1645 61.1254L82.001 61.0889L81.7632 61.0309L83.6811 58.1191L83.6865 58.1255ZM79.8873 64.1597L81.689 64.4453L81.8407 64.4689C81.789 64.7494 81.7578 65.0332 81.7471 65.3182C81.7471 65.345 81.788 65.3772 81.8461 65.4148C81.8209 65.5566 81.809 65.7003 81.8106 65.8443C81.8396 65.9871 82.6819 66.2942 83.6478 66.5497C83.6349 66.6012 83.622 66.6506 83.6091 66.6968C82.7561 66.2491 81.4115 66.0397 81.2566 65.7069C81.1017 65.374 76.5238 63.7742 76.5238 63.7742C76.5238 63.7742 76.357 63.6862 76.0688 63.5466L77.2735 63.7742L77.6048 63.7409C78.3559 63.9285 79.1183 64.0676 79.8873 64.1575V64.1597Z" fill="url(#paint0_linear)"/>
<path d="M105.09 75.6729C105.09 75.6729 104.373 79.9924 100.737 80.6312C97.0998 81.2701 84.9611 81.1423 84.9611 81.1423C84.9611 81.1423 78.0211 80.1459 75.5116 74.2921C73.0021 68.4383 71.3886 66.1116 73.5399 66.0096C75.6912 65.9076 87.2921 69.9211 87.9536 69.9716C88.6151 70.022 105.73 61.076 105.09 75.6729Z" fill="#434175"/>
<path opacity="0.05" d="M105.09 75.6729C105.09 75.6729 104.373 79.9924 100.737 80.6312C97.0998 81.2701 84.9611 81.1423 84.9611 81.1423C84.9611 81.1423 78.0211 80.1459 75.5116 74.2921C73.0021 68.4383 71.3886 66.1116 73.5399 66.0096C75.6912 65.9076 87.2921 69.9211 87.9536 69.9716C88.6151 70.022 105.73 61.076 105.09 75.6729Z" fill="black"/>
<path d="M72.5363 80.4777C72.5363 80.4777 72.8988 81.4311 73.896 81.4988C74.0423 81.509 74.1894 81.5011 74.3337 81.4751C75.6654 81.2454 78.7902 80.7085 79.8905 80.9125C80.5531 81.036 81.7783 80.8535 82.6506 80.6892C83.2315 80.5818 83.6553 80.4744 83.6553 80.4744C83.6553 80.4744 82.6313 77.0751 82.5022 76.9731C82.3731 76.8711 77.8931 74.1869 77.8931 74.1869L74.3434 73.9324H74.3327C74.3327 73.9324 73.6754 73.9764 73.1301 74.6378C72.7547 75.0899 72.4331 75.8329 72.4116 77.0504C72.3621 80.0428 72.5363 80.4777 72.5363 80.4777Z" fill="#565387"/>
<path opacity="0.05" d="M72.5363 80.4777C72.5363 80.4777 72.8988 81.4311 73.8959 81.4987C73.546 81.0499 73.2228 80.581 72.9278 80.0944L72.9461 77.6152C72.788 75.7588 73.6582 74.5702 74.3445 73.9356H74.3337C74.3337 73.9356 72.4642 74.0623 72.4126 77.0494C72.361 80.0364 72.5363 80.4777 72.5363 80.4777Z" fill="black"/>
<path opacity="0.1" d="M87.932 75.0587L91.2353 72.4819L96.4339 67.3689C96.4339 67.3689 95.8724 67.3421 95.0259 67.3056C94.8108 67.4398 94.2246 67.8618 94.203 68.3793C94.1772 69.0042 92.7972 68.4222 92.0808 68.7798C91.3644 69.1373 87.8557 73.62 87.2404 73.591C86.6251 73.562 86.14 73.2796 85.8829 73.7145C85.8829 73.7241 85.8711 73.7327 85.8646 73.7424L87.932 75.0587Z" fill="black"/>
<path opacity="0.1" d="M73.1312 74.64C73.2485 74.6969 73.3668 74.7474 73.4883 74.8032C75.9989 75.8769 79.0968 78.1316 79.328 78.5354C79.4679 78.7845 81.2642 79.8732 82.6507 80.6892C83.2316 80.5818 83.6554 80.4744 83.6554 80.4744C83.6554 80.4744 82.6313 77.0751 82.5023 76.9731C82.3732 76.8711 77.8931 74.1869 77.8931 74.1869L74.3435 73.9324H74.3327C74.3327 73.9324 73.6766 73.9786 73.1312 74.64Z" fill="black"/>
<path d="M66.1654 67.3131C66.4978 68.1313 69.2848 71.2761 69.2848 71.2761C69.2848 71.2761 71.051 73.576 73.5615 74.6497C76.0721 75.7233 79.17 77.9781 79.4002 78.3818C79.5486 78.6449 81.5515 79.8474 82.9584 80.6741L83.2736 80.8577L83.9727 81.2625L84.3428 81.4773C84.3428 81.4773 85.2033 80.7901 86.0541 80.0986C86.9049 79.4072 87.7353 78.7297 87.7493 78.691C87.7741 78.6148 88.1064 77.7451 88.0301 77.6946C87.9903 77.6678 87.8149 77.3135 87.4922 76.9033C87.1479 76.4481 86.7009 76.0803 86.1875 75.8296C85.0043 75.2928 84.4977 74.0709 84.4977 74.0709C84.4977 74.0709 84.3901 73.9893 84.2148 73.882C83.9114 73.6908 83.4242 73.416 83.0638 73.3698C82.4991 73.2989 81.4503 72.149 81.4503 72.149C81.4503 72.149 80.7329 71.6884 80.4511 71.1011C80.1822 70.5406 76.2109 67.8177 75.843 67.5665L85.4711 73.7381L87.7751 75.2166L91.0785 72.6397L96.2781 67.5268C96.2781 67.5268 95.579 67.4924 94.5571 67.4495C92.0304 67.3421 87.5428 67.1692 86.9759 67.297C86.5144 67.4043 86.0384 67.4352 85.5668 67.3883C85.5668 67.3883 84.289 67.4462 83.4435 67.0007C82.5981 66.5551 81.2653 66.3468 81.1115 66.0172C80.9577 65.6875 76.4249 64.1006 76.4249 64.1006C76.4249 64.1006 70.2539 60.8291 68.051 62.7725C65.8481 64.7158 65.8319 66.496 66.1654 67.3131Z" fill="#434175"/>
<path d="M86.0625 48.5514L86.8563 51.1841L87.8803 57.1141L91.6451 57.3696L92.7347 55.5658L93.8265 53.7652C93.8265 53.7652 94.5042 51.3687 94.9915 49.0506C95.4217 46.9999 95.7035 45.0093 95.2346 44.7934C94.8194 44.6012 94.5461 43.9109 94.374 43.1679C94.3515 43.0766 94.331 42.9832 94.3117 42.8898C94.1862 42.2607 94.1028 41.6241 94.0621 40.984C94.0621 40.984 86.1744 40.576 87.2758 43.8217C87.4724 44.3762 87.5728 44.9601 87.5727 45.5482C87.5716 45.695 87.5626 45.8416 87.5458 45.9874C87.4898 46.494 87.329 46.9834 87.0737 47.4247C86.8183 47.8661 86.474 48.2497 86.0625 48.5514Z" fill="#EE8E9E"/>
<path d="M84.4232 48.1165L84.705 52.5895L85.345 56.3979L86.0625 58.162L86.7025 67.8124C86.7025 67.8124 92.8778 68.5253 94.3794 67.7995C94.4876 67.7534 94.5816 67.6793 94.6515 67.5847C96.4651 64.8543 95.8702 56.9348 95.8702 56.9348L96.5619 51.8208L96.1004 49.1666L94.9871 49.0485L94.1266 48.9572C94.1266 48.9572 93.933 49.1956 93.6533 49.5639C92.8939 50.5646 91.502 52.5326 91.5913 53.354C91.7182 54.4792 91.4375 55.6292 91.0019 55.8085C90.5662 55.9878 90.208 56.2938 90.1317 55.9878C90.0553 55.6818 89.9778 55.6045 90.0542 55.1696C90.1306 54.7348 89.7208 53.4055 89.7208 53.4055C89.7208 53.4055 89.0302 51.8465 89.0754 51.1819C89.1206 50.5173 88.999 49.7496 88.7936 49.5714C88.5881 49.3932 88.3074 49.2128 88.5376 48.3903C88.7677 47.5679 87.5275 45.9799 87.5275 45.9799L84.4232 48.1165Z" fill="#E3E8F4"/>
<path opacity="0.1" d="M92.58 59.2883L92.836 66.9319L94.315 67.7501C94.4233 67.704 94.5172 67.6298 94.5872 67.5354C96.4018 64.8007 95.807 56.8822 95.807 56.8822L96.4986 51.7692L96.0372 49.1161L94.9228 48.998C95.353 46.9473 95.6349 44.9566 95.167 44.7408C94.7507 44.5486 94.4775 43.8583 94.3 43.1153L93.504 48.5267C93.504 48.5267 93.5707 49.0141 93.5944 49.5166C93.6126 49.8903 93.6062 50.2682 93.5298 50.469C93.3502 50.9296 93.4782 51.7478 93.4782 51.7478C93.0167 52.5595 92.7865 54.0637 92.6736 55.5164C92.5219 57.448 92.58 59.2883 92.58 59.2883Z" fill="black"/>
<path d="M94.3246 42.9972C94.3246 42.9972 95.6154 43.1571 96.0242 43.694C96.4329 44.2308 97.5096 44.3049 97.5096 44.3049C97.5096 44.3049 98.7391 44.714 98.7133 44.816C98.6875 44.918 99.0715 45.0726 99.8406 45.2766C100.61 45.4806 101.884 46.2225 101.884 46.4018C101.884 46.5811 103.908 48.5739 103.908 48.779C103.908 48.9841 104.523 49.7453 104.445 51.1046C104.368 52.4639 104.292 54.1722 104.599 54.4535C104.907 54.7348 104.599 55.8342 104.599 55.8342C104.518 55.9545 104.473 56.0957 104.47 56.2409C104.467 56.3861 104.506 56.529 104.583 56.6524C104.839 57.113 104.533 59.0306 104.533 59.0306L104.557 61.0245C104.557 61.0245 104.275 62.2764 104.609 62.3279C104.942 62.3795 104.557 62.941 104.557 62.941C104.557 62.941 104.275 63.9642 104.635 64.4238C104.994 64.8833 105.095 66.8525 105.095 66.8525L110.581 74.7978C110.581 74.7978 110.658 76.2548 108.917 76.2291C107.175 76.2033 107.196 76.5619 107.252 76.8937C107.308 77.2254 106.766 77.5841 106.766 77.5841C106.766 77.5841 106.074 77.9416 106.484 78.3764C106.894 78.8113 108.071 79.8077 106.126 80.4723C105.895 80.1566 105.706 79.8132 105.562 79.4501C105.397 78.9992 105.26 78.5384 105.152 78.0704C105.152 78.0704 104.972 76.1271 104.614 75.8715C104.256 75.616 104.307 74.3887 104.307 74.3887C104.307 74.3887 104.819 73.3924 104.102 72.9833C103.386 72.5742 92.9769 66.8278 92.9769 66.8278L92.7209 59.1842C92.7209 59.1842 92.5412 53.5355 93.6169 51.6436C93.6169 51.6436 93.4889 50.8255 93.6685 50.3659C93.8481 49.9064 93.6427 48.4225 93.6427 48.4225L94.3246 42.9972Z" fill="#565387"/>
<path opacity="0.1" d="M87.6126 46.0636C87.6126 46.0636 85.0385 45.5343 84.3469 45.8918C83.6553 46.2494 82.3032 46.536 82.088 46.7358C81.8729 46.9355 81.3706 46.7873 80.9102 47.9888C80.4498 49.1902 80.3971 50.4164 79.8087 50.979C79.2204 51.5416 78.9127 51.9249 78.8869 52.334C78.8611 52.7431 78.9633 52.8451 78.7331 52.9782C78.5029 53.1114 78.1695 53.6428 78.2716 53.8479C78.3738 54.053 83.6079 58.5453 83.6079 58.5453C83.6079 58.5453 83.865 60.2632 84.0952 60.6927C84.3254 61.1222 83.8392 67.1091 83.3272 67.5182C82.8152 67.9273 86.7843 67.8897 86.7843 67.8897C86.7843 67.8897 86.9629 63.9653 87.1167 63.7603C87.2705 63.5552 87.0091 59.3581 87.0091 59.3581C87.0091 59.3581 86.9833 55.7795 87.3168 54.8336C87.6502 53.8876 87.6126 50.7471 87.6126 50.7471C87.6126 50.7471 87.9073 48.8606 88.2655 48.4204C88.6237 47.9802 87.6126 46.0636 87.6126 46.0636Z" fill="black"/>
<path d="M87.5363 45.9874C87.5363 45.9874 84.9612 45.4581 84.2695 45.8156C83.5779 46.1731 82.2258 46.4545 82.0161 46.6595C81.8063 46.8646 81.2997 46.71 80.8328 47.9115C80.366 49.1129 80.3208 50.3402 79.7314 50.9028C79.1419 51.4654 78.8354 51.8487 78.8095 52.2578C78.7837 52.6668 78.887 52.7689 78.6568 52.8966C78.4266 53.0244 78.0932 53.5612 78.1953 53.7652C78.2975 53.9692 83.522 58.4691 83.522 58.4691C83.522 58.4691 83.778 60.187 84.0081 60.6165C84.2383 61.046 83.7521 67.0318 83.2401 67.4409C82.7281 67.85 86.6973 67.8124 86.6973 67.8124C86.6973 67.8124 86.8769 63.888 87.0307 63.684C87.1845 63.48 86.9232 59.2819 86.9232 59.2819C86.9232 59.2819 86.8984 55.7033 87.2308 54.7573C87.5632 53.8114 87.5266 50.6666 87.5266 50.6666C87.5266 50.6666 87.8213 48.7801 88.1784 48.3409C88.5355 47.9018 87.5363 45.9874 87.5363 45.9874Z" fill="#565387"/>
<path opacity="0.1" d="M87.2652 43.8217C87.4618 44.3762 87.5622 44.9601 87.5621 45.5482C88.8214 45.9206 90.1694 45.8611 91.3909 45.3793C92.6124 44.8974 93.637 44.0209 94.301 42.8898C94.1756 42.2607 94.0922 41.6241 94.0515 40.984C94.0515 40.984 86.1648 40.576 87.2652 43.8217Z" fill="black"/>
<path d="M83.3734 39.7825C83.3747 41.282 83.9525 42.7239 84.9876 43.8106C86.0226 44.8974 87.436 45.5463 88.9363 45.6234C90.4365 45.7005 91.9092 45.2 93.0506 44.225C94.192 43.2501 94.9151 41.8752 95.0707 40.3837C95.2263 38.8923 94.8026 37.3981 93.887 36.2093C92.9713 35.0205 91.6336 34.2279 90.1496 33.9947C88.6656 33.7616 87.1486 34.1058 85.9114 34.9564C84.6742 35.8069 83.8112 37.099 83.5003 38.566C83.4156 38.966 83.3731 39.3737 83.3734 39.7825Z" fill="#EE8E9E"/>
<path d="M79.6086 53.3304L78.2006 53.7652C78.2006 53.7652 78.3286 54.2763 77.9188 54.5318C77.509 54.7874 77.5606 55.2995 77.5606 55.2995C77.5606 55.2995 77.4068 55.8611 77.0486 55.9888C76.6904 56.1166 76.4591 56.9552 76.4591 56.9552L75.2813 58.3102C75.2813 58.3102 74.8457 58.6677 74.9231 58.847C75.0006 59.0263 74.4617 59.0768 74.4617 59.0768L74.7435 63.6314L77.1766 64.092L78.6825 63.9385L79.912 63.4779L80.9876 62.8337L81.4781 61.5914L83.6294 58.3198L79.6086 53.3304Z" fill="#565387"/>
<path d="M74.82 59.444C74.82 59.444 71.7006 54.9442 69.3654 57.3729C67.0302 59.8015 70.313 63.7377 71.0811 63.6099C71.8491 63.4822 75.5116 63.2782 75.5116 63.2782L74.82 59.444Z" fill="#EE8E9E"/>
<path d="M71.25 56.3087L68.3602 58.9105C67.8035 59.4118 67.7592 60.2686 68.2614 60.8243L71.4717 64.3769C71.9738 64.9326 72.8322 64.9768 73.3889 64.4756L76.2787 61.8737C76.8354 61.3725 76.8797 60.5157 76.3775 59.96L73.1672 56.4073C72.6651 55.8516 71.8067 55.8075 71.25 56.3087Z" fill="#30374E"/>
<path opacity="0.1" d="M71.25 56.3087L68.3602 58.9105C67.8035 59.4118 67.7592 60.2686 68.2614 60.8243L71.4717 64.3769C71.9738 64.9326 72.8322 64.9768 73.3889 64.4756L76.2787 61.8737C76.8354 61.3725 76.8797 60.5157 76.3775 59.96L73.1672 56.4073C72.6651 55.8516 71.8067 55.8075 71.25 56.3087Z" fill="black"/>
<path d="M71.338 55.9382L68.4482 58.54C67.8915 59.0412 67.8473 59.898 68.3494 60.4537L71.5597 64.0064C72.0618 64.5621 72.9202 64.6063 73.4769 64.105L76.3667 61.5032C76.9235 61.002 76.9677 60.1452 76.4655 59.5895L73.2552 56.0368C72.7531 55.4811 71.8947 55.4369 71.338 55.9382Z" fill="#30374E"/>
<path d="M72.3255 61.6633C73.1316 61.6633 73.7852 61.011 73.7852 60.2063C73.7852 59.4016 73.1316 58.7493 72.3255 58.7493C71.5194 58.7493 70.8658 59.4016 70.8658 60.2063C70.8658 61.011 71.5194 61.6633 72.3255 61.6633Z" fill="#535461"/>
<path opacity="0.1" d="M72.3255 61.6633C73.1316 61.6633 73.7852 61.011 73.7852 60.2063C73.7852 59.4016 73.1316 58.7493 72.3255 58.7493C71.5194 58.7493 70.8658 59.4016 70.8658 60.2063C70.8658 61.011 71.5194 61.6633 72.3255 61.6633Z" fill="black"/>
<path d="M72.4073 61.4786C73.2134 61.4786 73.8669 60.8263 73.8669 60.0216C73.8669 59.217 73.2134 58.5646 72.4073 58.5646C71.6011 58.5646 70.9476 59.217 70.9476 60.0216C70.9476 60.8263 71.6011 61.4786 72.4073 61.4786Z" fill="#535461"/>
<path d="M72.7978 60.3856C72.772 63.7603 79.7637 64.4753 79.7637 64.4753L81.5492 64.7588L82.3495 64.8855L82.683 61.5914C82.683 61.5914 82.3162 61.5366 81.858 61.4303C81.1814 61.2725 80.3047 61.0008 80.1208 60.6197C79.8142 59.9808 72.8225 57.0121 72.7978 60.3856Z" fill="#EE8E9E"/>
<path opacity="0.1" d="M83.5004 38.566C83.6617 38.5779 83.8138 38.6455 83.9306 38.7571C84.1285 38.9665 84.1393 39.338 84.3964 39.4669C84.4925 39.5086 84.5988 39.5209 84.7019 39.5023C85.3827 39.4057 85.7775 38.6433 86.4304 38.4286C86.8026 38.3083 87.2124 38.3867 87.576 38.5263C87.7222 38.572 87.8534 38.6562 87.9557 38.77C88.1708 39.0524 88.0213 39.4679 88.1224 39.8104C88.2633 40.285 88.8313 40.474 89.3228 40.5363C89.8144 40.5985 90.3684 40.6329 90.6965 41.0033C90.9288 41.2664 90.9879 41.6475 90.9406 41.9922C90.9116 42.1125 90.9116 42.238 90.9406 42.3583C91.0762 42.7416 91.7409 42.6804 91.9141 42.3819C92.041 42.1618 92.0023 41.9793 92.3013 41.9181C92.5035 41.8762 92.7413 41.961 92.9284 42.0255C93.4498 42.205 93.9992 42.2894 94.5505 42.2746C94.8991 41.5277 95.0858 40.7159 95.0985 39.8921C95.1112 39.0683 94.9495 38.2511 94.6241 37.4939C94.2987 36.7367 93.8169 36.0566 93.2101 35.498C92.6034 34.9395 91.8853 34.515 91.103 34.2525C90.3206 33.9899 89.4915 33.8951 88.6699 33.9743C87.8483 34.0535 87.0528 34.3049 86.3352 34.712C85.6176 35.1192 84.9942 35.6729 84.5057 36.337C84.0172 37.0011 83.6746 37.7607 83.5004 38.566Z" fill="black"/>
<path d="M90.9373 42.2037C90.9083 42.0834 90.9083 41.9579 90.9373 41.8376C90.9836 41.4908 90.9255 41.1107 90.6932 40.8487C90.3705 40.4783 89.8111 40.4428 89.3196 40.3816C88.828 40.3204 88.26 40.1315 88.1191 39.6569C88.018 39.3144 88.1708 38.8978 87.9524 38.6154C87.8507 38.5016 87.7198 38.4177 87.5738 38.3728C87.2091 38.2321 86.7993 38.158 86.4271 38.274C85.7742 38.4887 85.3795 39.2532 84.6986 39.3477C84.5955 39.3663 84.4892 39.354 84.3931 39.3122C84.136 39.1834 84.1253 38.8119 83.9273 38.6036C83.6165 38.275 83.0259 38.4866 82.6452 38.2428C82.3967 38.0829 82.301 37.7726 82.2321 37.4859C82.0966 36.9297 81.988 36.3467 82.1181 35.7905C82.3408 34.8392 83.1938 34.1875 83.7316 33.3758C84.2382 32.6188 84.5222 31.6579 85.2837 31.1597C86.0453 30.6615 87.023 30.7721 87.8814 31.0265C88.2837 31.1457 88.6817 31.2939 89.098 31.3486C89.7907 31.4335 90.4856 31.2413 91.1826 31.222C92.1671 31.1902 93.1346 31.4834 93.9352 32.0562C94.1155 32.1741 94.2688 32.3289 94.3848 32.5104C94.5235 32.7552 94.5418 33.0472 94.5838 33.3242C94.6651 33.8527 94.8477 34.3605 95.1216 34.8199C95.3367 35.1796 95.6067 35.506 95.8014 35.8775C95.9961 36.249 96.1101 36.6881 95.9853 37.0875C95.9197 37.3023 95.7896 37.488 95.7412 37.7038C95.6271 38.2031 95.9563 38.6798 96.1811 39.1404C96.3988 39.5606 96.502 40.0305 96.4801 40.503C96.4675 40.7382 96.4066 40.9684 96.3012 41.1791C96.1957 41.3899 96.0479 41.5767 95.867 41.728C95.5045 42.0115 95.028 42.106 94.5687 42.121C94.0067 42.1399 93.446 42.0559 92.9144 41.873C92.7261 41.8086 92.4841 41.7237 92.2873 41.7656C91.9882 41.8268 92.027 42.0094 91.9 42.2295C91.7365 42.5301 91.0729 42.587 90.9373 42.2037Z" fill="#434175"/>
<path opacity="0.1" d="M87.7783 75.2123L91.0816 72.6354L96.2813 67.5225C96.2813 67.5225 95.5821 67.4881 94.5602 67.4452C94.3742 67.6341 94.2085 67.8746 94.1978 68.1431C94.1719 68.768 92.7919 68.1871 92.0755 68.5446C91.3591 68.9022 87.8504 73.3838 87.2351 73.3548C86.6198 73.3258 86.1347 73.0434 85.8776 73.4782C85.8722 73.4883 85.866 73.498 85.8593 73.5072C85.7571 73.6237 85.6203 73.7046 85.4689 73.7381L87.7783 75.2123Z" fill="black"/>
<path d="M81.12 75.033L82.7797 80.322L83.04 81.153L83.8306 80.9383L85.5732 80.4605L93.3351 78.3324C93.3351 78.3324 94.7936 78.3131 96.1317 77.5884C97.6108 76.7852 99.2791 76.3815 100.955 76.5383C101.981 76.6338 103.122 76.1925 104.074 74.4467C104.074 74.4467 106.226 68.1119 100.796 66.2866C95.3659 64.4614 95.1077 67.253 95.1077 67.253C95.1077 67.253 95.0798 67.268 95.0346 67.2981C94.8194 67.4323 94.2332 67.8542 94.2117 68.3718C94.1859 68.9967 92.8058 68.4147 92.0894 68.7723C91.3731 69.1298 87.8643 73.6125 87.249 73.5835C86.6338 73.5545 86.1486 73.2721 85.8916 73.707C85.8916 73.7166 85.8797 73.7252 85.8733 73.7349C85.684 73.9958 85.1139 74.057 84.7363 74.0666C84.5309 74.0731 84.3814 74.0666 84.3814 74.0666L84.333 74.0817L83.9307 74.1933L81.12 75.033Z" fill="#434175"/>
<path opacity="0.1" d="M81.5492 64.7588L82.3495 64.8855L82.6829 61.5914C82.6829 61.5914 82.3161 61.5366 81.8579 61.4303C81.9795 61.8867 81.7041 63.6658 81.5492 64.7588Z" fill="black"/>
<path opacity="0.1" d="M102.49 49.3513C102.49 49.3513 104.871 48.6609 104.282 55.4101C103.692 62.1594 99.2888 66.423 99.2888 66.423C99.2888 66.423 94.2182 68.6466 91.9389 68.2891C89.6596 67.9316 87.9955 67.8596 87.9955 67.8596C87.2782 67.4976 86.4931 67.2888 85.6904 67.2465C84.4093 67.195 81.7213 66.4026 81.6697 66.1471C81.618 65.8915 82.3355 62.1336 82.0279 61.8523C82.0279 61.8523 85.613 61.9994 85.9723 62.2582C86.3315 62.5169 86.8425 62.3312 87.2265 62.2582C87.6105 62.1851 88.7894 61.1619 91.1192 62.0574C91.1192 62.0574 91.9131 62.1336 92.2207 61.9296C92.5283 61.7256 93.021 61.8781 93.021 61.8781C93.021 61.8781 93.5039 61.6988 93.5782 61.5914C93.6524 61.484 94.2687 61.5914 94.2687 61.5914C94.3053 61.6092 94.3455 61.6187 94.3862 61.619C94.4269 61.6194 94.4672 61.6107 94.5041 61.5935C94.5411 61.5763 94.5737 61.5511 94.5996 61.5197C94.6254 61.4883 94.644 61.4515 94.6538 61.4121C94.7343 61.2028 94.8561 61.0118 95.012 60.8505C95.012 60.8505 95.7036 56.9648 97.0095 55.5078C97.0095 55.5078 97.3935 55.175 97.2913 54.7659C97.1891 54.3568 99.42 48.532 102.49 49.3513Z" fill="black"/>
<path d="M102.432 48.8316C102.432 48.8316 104.813 48.1412 104.225 54.8905C103.636 61.6397 99.2253 65.9076 99.2253 65.9076C99.2253 65.9076 94.1547 68.1312 91.8754 67.7737C89.5961 67.4162 87.9321 67.3389 87.9321 67.3389C87.2148 66.9767 86.4297 66.7679 85.627 66.7258C84.3469 66.6742 81.6578 65.8819 81.6062 65.6263C81.5546 65.3708 82.272 61.6129 81.9654 61.3315C81.9654 61.3315 85.5506 61.4786 85.9088 61.7374C86.267 61.9962 86.78 61.8104 87.164 61.7374C87.5481 61.6644 88.7259 60.6422 91.0568 61.5366C91.0568 61.5366 91.8506 61.6129 92.1572 61.4088C92.4637 61.2048 92.9585 61.3573 92.9585 61.3573C92.9585 61.3573 93.4383 61.178 93.5147 61.076C93.591 60.974 94.2063 61.076 94.2063 61.076C94.2428 61.0939 94.2827 61.1034 94.3234 61.1038C94.364 61.1042 94.4041 61.0956 94.441 61.0785C94.4778 61.0614 94.5103 61.0363 94.5362 61.005C94.562 60.9738 94.5805 60.9371 94.5903 60.8978C94.6706 60.6881 94.7924 60.4967 94.9485 60.3352C94.9485 60.3352 95.6401 56.4495 96.946 54.9925C96.946 54.9925 97.33 54.6596 97.2278 54.2516C97.1256 53.8436 99.3533 48.0134 102.432 48.8316Z" fill="#565387"/>
<path opacity="0.1" d="M83.9307 74.1933L87.3125 78.2734C87.3254 78.2616 87.334 78.253 87.334 78.2498C87.3598 78.1724 87.6922 77.3038 87.6158 77.2523C87.5395 77.2007 86.95 75.9231 85.7722 75.3862C85.0526 75.0641 84.5814 74.4746 84.3243 74.0709L83.9307 74.1933Z" fill="black"/>
<path opacity="0.1" d="M83.9769 81.2625L84.3469 81.4773C84.3469 81.4773 85.2075 80.7901 86.0583 80.0987C86.9092 79.4072 87.7395 78.7297 87.7535 78.691C87.7783 78.6148 88.1107 77.7451 88.0343 77.6946C87.9945 77.6678 87.8192 77.3135 87.4965 76.9033C85.2032 76.2591 86.6628 77.8514 86.8575 77.9244C86.8575 77.9244 84.0608 77.2802 83.9124 80.3198C83.8921 80.6355 83.9138 80.9525 83.9769 81.2625Z" fill="black"/>
<path d="M86.8048 82.5488L87.292 82.8301L92.24 82.9579C92.24 82.9579 93.3006 83.6021 93.989 83.7975C94.0701 83.8228 94.1533 83.8411 94.2375 83.8523C94.6955 83.8893 95.1553 83.8979 95.6143 83.8781C95.993 83.8684 96.2866 83.8523 96.2866 83.8523C96.2866 83.8523 96.0521 77.6249 95.8757 76.9807C95.7918 76.6671 95.3777 76.7359 94.9689 76.8926C94.6618 77.0169 94.3657 77.1667 94.0837 77.3403C94.0837 77.3403 91.984 77.5433 91.6506 77.7236C91.3171 77.904 90.3706 77.6163 89.7811 77.7236C89.1916 77.831 88.1429 77.0311 88.1429 77.0311C85.2741 76.0863 86.8876 77.8493 87.092 77.9266C87.092 77.9266 84.3018 77.2824 84.1479 80.322C83.9941 83.3616 86.8048 82.5488 86.8048 82.5488Z" fill="#565387"/>
<path d="M93.9503 80.1459C94.0041 81.4343 95.0098 83.0331 95.6089 83.8781C95.9876 83.8684 96.2812 83.8523 96.2812 83.8523C96.2812 83.8523 96.0467 77.6249 95.8703 76.9806C95.7864 76.6671 95.3723 76.7358 94.9636 76.8926C94.472 77.816 93.9073 79.1076 93.9503 80.1459Z" fill="#565387"/>
<path opacity="0.1" d="M93.9503 80.1459C94.0041 81.4343 95.0098 83.0331 95.6089 83.8781C95.9876 83.8684 96.2812 83.8523 96.2812 83.8523C96.2812 83.8523 96.0467 77.6249 95.8703 76.9806C95.7864 76.6671 95.3723 76.7358 94.9636 76.8926C94.472 77.816 93.9073 79.1076 93.9503 80.1459Z" fill="black"/>
<path opacity="0.05" d="M93.1049 80.3166C93.4448 81.5599 93.4415 82.9547 93.9837 83.7975C94.0648 83.8228 94.1479 83.8411 94.2322 83.8523C94.6901 83.8893 95.1499 83.8979 95.609 83.878C95.9876 83.8684 96.2813 83.8523 96.2813 83.8523C96.2813 83.8523 96.0468 77.6249 95.8704 76.9806C95.7865 76.6671 95.3723 76.7358 94.9636 76.8926C94.6565 77.0169 94.3604 77.1667 94.0783 77.3403C94.0783 77.3403 92.6703 78.7254 93.1049 80.3166Z" fill="black"/>
<path opacity="0.1" d="M76.0536 67.705C76.0536 67.705 78.5082 68.5006 80.5885 71.3266L76.0536 67.705Z" fill="black"/>
<g opacity="0.1">
<path opacity="0.1" d="M96.0025 37.0317C95.9985 37.0499 95.9935 37.0678 95.9875 37.0853C95.964 37.1587 95.9356 37.2303 95.9026 37.2999C95.9278 37.2077 95.9613 37.1179 96.0025 37.0317Z" fill="black"/>
<path opacity="0.1" d="M82.1139 35.7916C82.1565 35.6125 82.2204 35.4391 82.3043 35.2752C82.2914 35.3192 82.2774 35.3632 82.2667 35.4083C82.1365 35.9645 82.2451 36.5475 82.3807 37.1037C82.4506 37.3903 82.5452 37.7006 82.7937 37.8606C83.1756 38.1043 83.7618 37.8917 84.0759 38.2203C84.2738 38.4297 84.2846 38.8012 84.5427 38.93C84.6388 38.9718 84.7451 38.9841 84.8482 38.9654C85.528 38.8688 85.9238 38.1065 86.5768 37.8917C86.9489 37.7715 87.3577 37.8499 87.7223 37.9905C87.8683 38.0355 87.9992 38.1194 88.101 38.2332C88.3161 38.5156 88.1666 38.9322 88.2677 39.2736C88.4086 39.7482 88.9765 39.9371 89.4681 39.9983C89.9597 40.0595 90.5136 40.095 90.8417 40.4665C91.074 40.7284 91.1332 41.1107 91.0859 41.4553C91.0574 41.5757 91.0574 41.7011 91.0859 41.8215C91.2214 42.2048 91.8862 42.1436 92.054 41.8451C92.1809 41.625 92.1432 41.4424 92.4423 41.3812C92.6434 41.3394 92.8811 41.4242 93.0683 41.4886C93.5999 41.6715 94.1606 41.7556 94.7226 41.7366C95.1819 41.7205 95.6595 41.6293 96.021 41.3437C96.1861 41.2123 96.3217 41.0476 96.4189 40.8605C96.3347 41.2012 96.1422 41.5056 95.8704 41.7281C95.5089 42.0115 95.0324 42.106 94.5721 42.121C94.0104 42.14 93.45 42.056 92.9188 41.873C92.7305 41.8086 92.4885 41.7238 92.2917 41.7656C91.9926 41.8268 92.0303 42.0094 91.9044 42.2295C91.7302 42.5323 91.0665 42.5892 90.9299 42.2058C90.9014 42.0855 90.9014 41.9601 90.9299 41.8397C90.9772 41.4929 90.9192 41.1128 90.6868 40.8508C90.3577 40.4804 89.8037 40.445 89.3121 40.3838C88.8206 40.3226 88.2526 40.1336 88.1128 39.659C88.0106 39.3165 88.1644 38.8999 87.9461 38.6176C87.8438 38.5039 87.7126 38.4201 87.5664 38.3749C87.2017 38.2343 86.793 38.1602 86.4208 38.2761C85.7668 38.4909 85.372 39.2553 84.6922 39.3498C84.5891 39.3685 84.4828 39.3562 84.3867 39.3144C84.1286 39.1855 84.1178 38.814 83.9199 38.6058C83.6091 38.2772 83.0196 38.4887 82.6388 38.245C82.3893 38.085 82.2946 37.7747 82.2247 37.488C82.0913 36.9308 81.9827 36.3478 82.1139 35.7916Z" fill="black"/>
</g>
<path opacity="0.1" d="M96.3996 56.2508C95.9306 56.8832 95.3949 57.4684 94.9797 58.1373C94.5645 58.8062 94.2709 59.5868 94.358 60.3685C94.7883 59.9282 94.984 59.3205 95.2551 58.7687C95.7133 57.8345 96.3996 57.0421 96.9761 56.1832C97.0837 56.0189 97.7947 55.0719 97.4365 55.0268C97.1418 54.9892 96.5599 56.035 96.3996 56.2508Z" fill="black"/>
</g>
<defs>
<linearGradient id="paint0_linear" x1="88.4903" y1="83.6966" x2="88.4903" y2="30.2749" gradientUnits="userSpaceOnUse">
<stop stop-color="#808080" stop-opacity="0.25"/>
<stop offset="0.54" stop-color="#808080" stop-opacity="0.12"/>
<stop offset="1" stop-color="#808080" stop-opacity="0.1"/>
</linearGradient>
<clipPath id="clip0">
<rect width="122.684" height="84.5287" fill="white"/>
</clipPath>
</defs>
</svg>
