<svg width="172" height="99" viewBox="0 0 172 99" fill="none" xmlns="http://www.w3.org/2000/svg">
<g clip-path="url(#clip0)">
<path opacity="0.1" d="M103.413 70.992C106.723 70.8041 110.829 68.5692 114.022 67.5807C117.801 66.4138 121.595 65.2912 125.404 64.2127C138.663 60.4566 152.065 57.2561 165.609 54.6112C166.873 54.3637 168.138 54.1222 169.406 53.8866C167.431 49.6377 164.371 45.979 160.532 43.2757C160.63 42.3455 160.68 41.411 160.682 40.4757C160.682 25.6947 148.816 13.7121 134.175 13.7121C129.667 13.7073 125.235 14.8657 121.311 17.0741C110.948 10.2874 97.4216 6.17993 82.6227 6.17993C61.5939 6.17993 43.1335 14.474 32.673 26.9634L81.835 35.2321L111.987 40.3013C77.6133 41.3226 43.1335 42.3379 8.85877 39.9405C4.33434 44.2989 1.47069 50.0863 0.757227 56.3137C0.0437617 62.5411 1.52477 68.8219 4.94714 74.0827C4.94714 74.6179 4.9696 75.1487 5.01004 75.675C5.88312 75.924 6.72625 76.1655 7.48251 76.3235C19.6237 78.877 31.8429 81.014 44.1398 82.7345C35.0781 88.2971 24.0426 89.0844 13.5896 91.44C18.6513 95.5997 25.5251 98.1492 33.0998 98.1492H145.884C158.097 98.1492 167.996 89.6852 167.996 79.2428C169.828 76.2341 171.05 72.8964 171.59 69.419C148.992 71.5913 126.112 69.7053 103.413 70.992Z" fill="#535461"/>
<path opacity="0.1" d="M171.744 64.9716C171.756 60.6679 170.729 56.4244 168.748 52.5992C166.767 48.7739 163.891 45.479 160.363 42.9924C160.46 42.0627 160.51 41.1287 160.512 40.1939C160.512 25.4129 148.641 13.4348 134.006 13.4348C129.498 13.43 125.065 14.5878 121.14 16.7953C110.777 10.0057 97.2494 5.89667 82.4505 5.89667C58.3787 5.89667 37.6585 16.773 28.4694 32.3695C27.9588 32.3397 27.4451 32.3233 26.9269 32.3233C12.2898 32.3233 0.420096 44.3059 0.420096 59.0869C0.409836 64.3079 1.925 69.4191 4.781 73.7979C4.781 87.0969 17.389 97.8778 32.9352 97.8778H145.723C157.934 97.8778 167.833 89.4124 167.833 78.9699C170.401 74.7491 171.754 69.9065 171.744 64.9716Z" fill="#535461"/>
<path d="M140.337 48.5743C140.123 48.4107 139.872 48.3012 139.606 48.2553C139.326 48.1912 139.04 48.1509 138.756 48.1062L135.069 47.5769C134.697 47.5081 134.317 47.4881 133.94 47.5173C133.75 47.5327 133.566 47.5855 133.397 47.6725C133.229 47.7596 133.079 47.8791 132.957 48.0242C132.847 48.1592 132.787 48.3275 132.787 48.5013C132.807 48.6762 132.864 48.8448 132.954 48.9963C132.99 49.0671 133.02 49.1403 133.046 49.2154C133.081 49.3841 133.125 49.5508 133.177 49.7149C133.194 49.7504 133.215 49.7836 133.24 49.8133C133.241 49.8217 133.241 49.8302 133.24 49.8387C133.2 50.0444 133.33 50.2591 133.272 50.4574C133.221 50.6274 133.055 50.7302 132.95 50.8719C132.88 50.9723 132.841 51.0911 132.838 51.2133C132.836 51.3355 132.869 51.4558 132.935 51.5592C133.047 51.7321 133.251 51.8499 133.309 52.0482C133.386 52.3091 133.179 52.5611 132.995 52.7624C132.656 53.1329 132.343 53.5259 132.057 53.9387C131.977 54.0402 131.925 54.1611 131.907 54.2891C131.891 54.5485 132.141 54.7766 132.098 55.0345C132.063 55.2373 131.864 55.361 131.692 55.4818C131.055 55.8993 130.545 56.5702 130.494 57.3291C130.33 56.1217 129.828 54.9847 129.044 54.049C128.83 53.7926 128.595 53.5347 128.506 53.2096C128.474 53.0799 128.468 52.9413 128.423 52.816C128.273 52.4209 127.797 52.251 127.588 51.8872C127.439 51.6307 127.439 51.3013 127.253 51.0761C127.067 50.851 126.775 50.8003 126.615 50.5826C126.535 50.4352 126.467 50.2816 126.411 50.1234C126.344 49.9944 126.25 49.8815 126.134 49.7924C126.112 49.7748 126.089 49.7584 126.065 49.7432C126.09 49.7211 126.11 49.694 126.124 49.6637C126.138 49.6334 126.145 49.6005 126.145 49.5673C126.145 49.3929 125.971 49.2781 125.82 49.1916C125.625 49.0813 125.435 48.962 125.249 48.8382C125.452 48.7443 125.627 48.6013 125.76 48.4223C125.926 48.1552 125.995 47.8393 125.955 47.5277C125.944 47.2762 125.85 47.0354 125.687 46.8434C125.592 46.7435 125.474 46.6719 125.375 46.578C125.119 46.329 125.032 45.9608 124.926 45.6208C124.785 45.1735 124.565 44.7039 124.155 44.4669C123.957 44.3521 123.726 44.2984 123.533 44.1776C123.34 44.0568 123.178 43.8287 123.246 43.6096C123.29 43.4605 123.43 43.3576 123.524 43.2309C123.637 43.067 123.68 42.8655 123.644 42.6702C123.609 42.4748 123.497 42.3013 123.334 42.1872C123.223 42.1172 123.087 42.056 123.064 41.9278C122.978 41.9054 122.899 41.8591 122.838 41.7942C122.776 41.7293 122.734 41.6485 122.717 41.561C122.683 41.3857 122.683 41.2056 122.717 41.0303C122.756 40.753 122.794 40.4766 122.832 40.2013C122.898 40.2286 122.969 40.2427 123.04 40.2427C123.112 40.2427 123.183 40.2286 123.249 40.2013C123.378 40.4107 123.529 40.6065 123.698 40.7858C124.154 41.3219 124.509 41.9355 124.746 42.5972C124.831 42.8358 124.918 43.1027 125.14 43.2294C125.216 43.2726 125.303 43.295 125.378 43.3412C125.47 43.4053 125.55 43.4862 125.612 43.5797C125.791 43.8168 125.971 44.0524 126.149 44.2894L126.158 44.3252C126.163 44.3462 126.171 44.3663 126.182 44.3848C126.215 44.422 126.261 44.4454 126.311 44.4504C126.862 44.5772 127.481 44.6935 127.958 44.3938C128.39 44.1254 128.578 43.5947 128.944 43.2398C129.203 42.9879 129.57 42.7925 129.643 42.4377C129.556 42.4108 129.47 42.3795 129.386 42.3438C129.46 42.2692 129.535 42.1828 129.637 42.0844C129.785 41.9401 129.919 41.7818 130.035 41.6117C130.162 41.4019 130.262 41.1776 130.335 40.9438C130.624 40.1248 130.913 39.3053 131.204 38.4853C131.341 38.0976 131.479 37.707 131.653 37.3298C131.833 36.9213 132.045 36.5292 132.241 36.1281C132.748 35.0851 133.138 33.9902 133.406 32.863C133.454 32.7092 133.47 32.5474 133.453 32.3874C133.411 32.1294 133.215 31.9267 133.028 31.7433C132.839 31.5404 132.625 31.3634 132.39 31.217C132.272 31.1439 132.14 31.0949 132.003 31.0729C131.865 31.0509 131.725 31.0563 131.59 31.0888C131.207 31.2006 130.965 31.5912 130.877 31.9833C130.789 32.3754 130.822 32.7795 130.784 33.1761C130.73 33.7501 130.533 34.3047 130.485 34.8802C130.459 35.2127 130.485 35.5496 130.444 35.8821C130.371 36.3172 130.218 36.7355 129.995 37.1166C129.509 38.0255 128.852 38.8325 128.059 39.4931C127.967 39.5692 127.873 39.6422 127.783 39.7242C127.783 39.6601 127.794 39.5945 127.803 39.5304C127.737 39.5473 127.674 39.5697 127.612 39.5975C127.62 39.5222 127.612 39.4462 127.59 39.3738C127.47 39.0175 126.937 38.9266 126.841 38.5643C126.825 38.4747 126.817 38.3839 126.816 38.2929C126.784 37.9754 126.567 37.707 126.492 37.3984C126.423 37.1136 126.476 36.802 126.343 36.5381C126.229 36.3731 126.095 36.2228 125.944 36.0908C125.764 35.8862 125.635 35.6427 125.565 35.3797C125.546 35.3066 125.528 35.2306 125.507 35.1575C125.53 34.9921 125.511 34.8236 125.453 34.667C125.317 34.33 124.965 34.1139 124.837 33.7724C124.739 33.5071 124.782 33.1761 124.595 32.9703C124.495 32.872 124.374 32.7989 124.24 32.7571C123.555 32.4914 122.835 32.3223 122.103 32.2547C121.693 32.2174 121.24 32.1965 120.947 31.9088C120.604 31.5748 120.587 30.974 120.186 30.716C119.833 30.4879 119.332 30.6564 119.058 30.977C119.017 31.0241 118.979 31.0739 118.945 31.126C118.895 30.9262 118.884 30.7186 118.913 30.5148C118.913 30.4641 118.924 30.4119 118.928 30.3657C119.604 30.1457 120.18 29.6933 120.551 29.0894C120.551 29.0894 120.551 29.0894 120.551 29.0984L120.569 29.1446C120.613 29.2534 120.682 29.3578 120.784 29.3697C120.851 29.3689 120.917 29.3453 120.969 29.3026C121.06 29.2401 121.143 29.1682 121.218 29.088C121.256 29.0462 121.292 29.003 121.326 28.9582C121.395 28.8651 121.454 28.7652 121.502 28.6601C121.577 28.5018 121.627 28.3335 121.652 28.1606C121.679 27.9876 121.682 27.8102 121.712 27.6373C121.74 27.5034 121.777 27.3714 121.821 27.2422C121.836 27.1989 121.851 27.1557 121.865 27.1125C121.878 27.0692 121.898 27.0111 121.913 26.9634C122.006 26.6567 122.057 26.3386 122.062 26.0181C122.062 25.9645 122.062 25.9108 122.062 25.8571C122.057 25.648 122.01 25.442 121.923 25.2513C121.837 25.0605 121.713 24.8889 121.559 24.7464C121.302 24.5362 120.96 24.4482 120.772 24.1634C120.649 23.9726 120.622 23.7266 120.55 23.5029C120.472 23.2353 120.321 22.9947 120.113 22.8084C119.905 22.6221 119.648 22.4975 119.373 22.4489C119.041 22.4126 118.708 22.5038 118.441 22.7038L118.42 22.7202C118.272 22.8331 118.146 22.9727 118.049 23.1317C117.851 23.0774 117.67 22.975 117.522 22.8335C117.372 22.6949 117.257 22.5204 117.106 22.3862C116.964 22.2574 116.791 22.1686 116.603 22.1293C116.416 22.09 116.221 22.1015 116.039 22.1626C115.852 22.2372 115.686 22.3549 115.553 22.5059C115.421 22.657 115.326 22.8373 115.277 23.0318C115.195 23.3389 115.21 23.6923 115.037 23.9487C114.904 24.1485 114.685 24.2469 114.533 24.4288C114.438 24.544 114.373 24.6807 114.344 24.8269C114.326 24.9086 114.317 24.9922 114.319 25.0759C114.319 25.1131 114.319 25.1504 114.328 25.1862C114.328 25.1862 114.328 25.1981 114.328 25.2041C114.333 25.2449 114.341 25.2853 114.353 25.3249C114.396 25.476 114.472 25.6156 114.576 25.7334C114.675 25.8461 114.798 25.9349 114.937 25.9928C114.994 26.0148 115.052 26.0332 115.111 26.048L115.289 26.0882L115.352 26.1031C115.137 26.5051 115.017 26.9509 115.003 27.4062C114.988 27.8614 115.079 28.3138 115.268 28.7286C115.268 28.7704 115.258 28.8121 115.253 28.8539C115.229 29.441 115.255 30.029 115.331 30.6117C115.352 30.8428 115.364 31.0977 115.222 31.2811C115.157 31.3532 115.084 31.4178 115.004 31.4734C115.085 31.3691 115.168 31.2662 115.252 31.1633C115.04 30.9516 114.706 30.9248 114.407 30.9456C113.827 30.9887 113.265 31.1599 112.76 31.4466C112.424 31.6389 112.08 31.8939 111.696 31.8491C111.47 31.8238 111.247 31.7001 111.027 31.7597C110.903 31.8101 110.788 31.8784 110.684 31.9625C110.602 32.021 110.503 32.0513 110.402 32.0489C110.167 31.7612 109.803 31.5659 109.522 31.3318C109.201 31.0478 108.908 30.7349 108.646 30.397C108.161 29.814 107.677 29.2296 107.201 28.6407C106.799 28.1457 106.387 27.6104 106.317 26.9768C106.31 26.9139 106.306 26.8507 106.307 26.7875C106.316 26.4864 106.354 26.1869 106.42 25.8929C106.438 25.8219 106.438 25.7477 106.42 25.6767C106.376 25.5276 106.203 25.4725 106.055 25.4397C106.075 25.3249 106.088 25.2071 106.095 25.0953C106.179 23.8131 106.088 22.51 106.361 21.2546C106.464 20.7716 106.633 20.2825 106.982 19.9322C107.529 19.382 108.444 19.2493 108.863 18.5978C109.213 18.0551 109.074 17.2873 108.634 16.8087C108.194 16.3301 107.515 16.1348 106.87 16.1586C106.689 16.1525 106.51 16.2002 106.356 16.2958C106.212 16.4228 106.105 16.5853 106.045 16.7669L105.402 18.322C105.216 18.7268 105.059 19.1444 104.932 19.5714C104.752 20.2244 104.712 20.9132 104.569 21.5722C104.569 22.0791 104.241 22.7113 104.062 23.1779C103.861 23.7027 103.644 24.2216 103.463 24.7568C103.418 24.891 103.261 25.2891 103.163 25.6514C103.126 25.6727 103.092 25.6982 103.061 25.7274C102.983 25.8272 102.912 25.9323 102.849 26.042C102.712 26.2209 102.491 26.3163 102.341 26.4893C102.191 26.6622 102.16 26.9798 102.368 27.0663C102.41 27.0804 102.454 27.0899 102.498 27.0946C102.526 27.0969 102.553 27.1014 102.579 27.108C102.804 27.1706 102.892 27.4524 102.859 27.685C102.826 27.9176 102.709 28.1323 102.69 28.3649C102.65 28.7764 102.892 29.1595 103.126 29.5054C103.368 29.8804 103.635 30.2385 103.926 30.5774C104.137 30.813 104.375 31.0247 104.587 31.2513C105.398 32.0802 106.042 33.0493 106.769 33.9499C107.031 34.2897 107.329 34.6006 107.657 34.8772C107.872 35.0443 108.096 35.1981 108.33 35.3379L109.582 36.1281C109.724 36.2317 109.884 36.3071 110.055 36.3503C110.111 36.3577 110.167 36.3577 110.223 36.3503C110.23 36.3875 110.236 36.4233 110.245 36.4606C110.343 36.8512 110.557 37.206 110.581 37.6041C110.605 38.0022 110.569 38.4092 110.597 38.8118C110.624 39.183 110.706 39.5572 110.727 39.9225C110.769 40.6262 110.596 41.321 110.428 42.0098C110.175 43.0177 110.022 44.0464 109.529 44.9603C109.392 45.2123 109.23 45.4688 109.23 45.7565C109.23 45.7908 109.23 45.8266 109.239 45.8609L109.014 45.9876C108.948 46.0249 108.882 46.0621 108.823 46.1009C108.538 46.2858 108.234 46.49 108.117 46.8091C108.023 47.067 108.066 47.3622 107.952 47.6127C107.947 47.6239 107.941 47.6349 107.934 47.6455C107.815 47.8781 107.577 48.051 107.523 48.306C107.482 48.5013 107.56 48.7085 107.523 48.9024C107.523 48.9024 107.523 48.9024 107.523 48.9098C107.489 49.0072 107.462 49.1068 107.442 49.208C107.44 49.2411 107.443 49.2742 107.451 49.3064C107.479 49.4194 107.542 49.5208 107.63 49.5971C107.684 49.6487 107.743 49.6951 107.806 49.7358C107.87 49.7775 107.935 49.8163 108.003 49.8521L108.042 49.8729C108.099 49.9028 108.156 49.9311 108.215 49.9579L108.253 49.9743C108.321 50.0041 108.39 50.031 108.459 50.0548L108.507 50.0697C108.56 50.0876 108.616 50.104 108.671 50.1175L108.709 50.1294L108.743 50.1368L108.893 50.1682L108.948 50.1786C109.014 50.1895 109.082 50.1985 109.151 50.2054H109.21C109.261 50.2054 109.311 50.2129 109.36 50.2144H109.431C109.483 50.2144 109.534 50.2144 109.58 50.2144H109.634C109.705 50.2144 109.775 50.2039 109.845 50.195H109.868C109.931 50.186 109.994 50.1756 110.057 50.1622L110.104 50.1517C110.163 50.1383 110.221 50.1249 110.28 50.107L110.311 50.0981C110.381 50.0772 110.452 50.0548 110.521 50.028C110.759 49.9305 110.99 49.8164 111.213 49.6866C111.362 49.6046 111.512 49.5211 111.662 49.445C111.773 49.3893 111.887 49.3396 112.003 49.296C112.287 49.1755 112.595 49.1244 112.902 49.1469C113.053 49.1674 113.204 49.1978 113.351 49.2378C113.351 49.2542 113.351 49.2706 113.351 49.287C113.473 50.0027 113.593 50.7183 113.712 51.4339C113.908 51.2934 114.115 51.1693 114.332 51.0627C114.292 51.1708 114.265 51.2835 114.253 51.3982C114.244 51.4869 114.244 51.5763 114.253 51.665C114.266 51.8067 114.296 51.9632 114.211 52.075C114.158 52.1436 114.061 52.1824 114.033 52.2599C114.012 52.3392 114.007 52.4217 114.018 52.5029C114.011 52.5956 113.972 52.683 113.907 52.7492C113.841 52.8155 113.754 52.8561 113.661 52.8637C113.704 52.9837 113.705 53.1146 113.664 53.2353C113.623 53.3559 113.542 53.4593 113.435 53.5287C113.372 53.5587 113.314 53.5968 113.261 53.642C113.21 53.7079 113.176 53.7851 113.161 53.8671C112.963 54.6055 112.556 55.2716 111.988 55.786C111.775 55.9525 111.581 56.1415 111.409 56.3495C111.302 56.5106 111.214 56.6832 111.147 56.8639C110.747 57.836 110.342 58.8086 109.931 59.7816C109.703 60.3258 109.481 60.879 109.41 61.4649C109.23 63.0721 107.792 64.4348 108.062 66.0301C108.116 66.4286 108.278 66.8051 108.529 67.12C108.829 67.4793 109.278 67.685 109.727 67.852C110.882 68.2993 112.099 68.5438 113.312 68.7898L115.217 69.1789C115.591 69.2645 115.97 69.3243 116.352 69.3579C116.812 69.3892 117.284 69.3459 117.732 69.4622C118.009 69.5338 118.274 69.6665 118.56 69.6814C118.805 69.6948 119.108 69.6426 119.253 69.8424C119.398 70.0422 119.286 70.3061 119.424 70.4835C119.645 70.7653 120.186 70.4835 120.427 70.7489C120.493 70.8508 120.543 70.9618 120.577 71.0784C120.614 71.1505 120.664 71.2144 120.727 71.2662C120.741 71.3504 120.747 71.4358 120.745 71.5212C120.713 71.8674 120.641 72.2087 120.529 72.538C120.349 73.1433 120.17 73.7491 119.991 74.3554C119.923 74.5696 119.873 74.789 119.842 75.0114C119.83 75.1195 119.83 75.2284 119.842 75.3365C119.873 75.666 120.063 76.0059 120.379 76.1132C120.624 76.1778 120.885 76.1457 121.107 76.0238C121.321 75.9124 121.522 75.7774 121.706 75.6212C122.038 75.3715 122.329 75.0728 122.57 74.7356C123.319 73.6204 123.076 72.1116 123.602 70.8786C123.951 70.0556 124.631 69.3877 124.857 68.52C124.91 68.3549 124.916 68.1784 124.875 68.0101C124.781 67.7119 124.462 67.5419 124.164 67.4346H124.15C123.905 67.3478 123.655 67.2766 123.401 67.2214C123.338 67.2079 123.274 67.1975 123.21 67.1871C123.067 67.0717 122.954 66.9246 122.879 66.7577C122.867 66.669 122.843 66.5822 122.808 66.4997C122.784 66.4642 122.752 66.4349 122.715 66.4141C122.677 66.3934 122.635 66.3818 122.593 66.3805C122.443 66.3656 122.242 66.4192 122.079 66.4073C121.745 66.3835 121.523 66.0569 121.224 65.9064C120.924 65.7558 120.599 65.7931 120.28 65.8154C120.166 65.8309 120.05 65.8238 119.939 65.7945C119.806 65.7336 119.684 65.6504 119.58 65.5485C119.395 65.4057 119.18 65.3076 118.951 65.2618C118.722 65.216 118.486 65.2238 118.26 65.2846C118.117 65.3423 117.965 65.3765 117.811 65.386C117.519 65.3696 117.312 65.1102 117.097 64.9134C116.507 64.3752 115.666 64.2335 114.951 63.8802C114.841 63.8396 114.75 63.7613 114.693 63.6595C114.611 63.4568 114.796 63.254 114.964 63.1153L116.195 62.097C117.543 60.9818 119.228 60.1424 119.854 58.5069C119.919 58.2876 120.02 58.0806 120.153 57.8941C120.202 57.8372 120.257 57.7871 120.319 57.745C120.592 57.5694 120.922 57.5053 121.24 57.5661C121.629 57.6527 121.997 57.8126 122.325 58.0373C122.861 58.3603 123.382 58.7082 123.889 59.0809C124.392 59.4383 124.87 59.8288 125.32 60.2498C126.106 60.9953 126.76 61.8794 127.493 62.683C128.225 63.4866 129.062 64.2365 130.079 64.6212C131.096 65.0058 132.325 64.9894 133.198 64.3439C134.206 63.5984 134.53 62.2655 134.784 61.043C135.346 60.5032 135.515 59.6817 135.789 58.9557C135.961 58.495 136.181 58.0611 136.367 57.6019C136.589 57.0622 136.763 56.5046 136.936 55.9485C137.133 55.39 137.267 54.8114 137.335 54.2235C137.406 53.2946 137.156 52.3061 137.418 51.4339C137.764 51.3579 138.079 51.1641 138.419 51.0508C138.925 50.8853 139.467 50.9121 140.003 50.9151H140.038C140.222 50.9347 140.408 50.891 140.565 50.7914C140.745 50.6423 140.773 50.3873 140.782 50.1562C140.803 49.5852 140.767 48.9441 140.337 48.5743ZM118.639 23.1421C118.515 23.1726 118.387 23.1817 118.26 23.169L118.639 23.1421Z" fill="url(#paint0_linear)"/>
<path d="M119.229 32.5738C119.048 32.7271 118.835 32.8395 118.606 32.9033L117.544 33.282C116.968 33.4877 116.366 33.695 115.758 33.6204C115.418 33.5787 113.961 33.3655 113.74 33.1016C113.405 32.6931 114.58 32.0922 114.982 31.7478C115.073 31.6827 115.157 31.6088 115.233 31.5272C115.383 31.3453 115.364 31.0903 115.343 30.8607C115.267 30.279 115.241 29.692 115.265 29.1059C115.277 28.9662 115.297 28.8273 115.325 28.6899C115.475 28.0041 116.115 28.2546 116.622 28.4365C117.231 28.6335 117.82 28.8876 118.381 29.1953C118.552 29.2831 118.701 29.4085 118.816 29.5621C119.037 29.8961 118.949 30.3344 118.913 30.7549C118.881 31.0814 118.883 31.3945 119.088 31.6315C119.191 31.7221 119.286 31.822 119.371 31.9297C119.419 32.0382 119.431 32.1591 119.406 32.2748C119.38 32.3906 119.318 32.4953 119.229 32.5738Z" fill="#BE6F72"/>
<path d="M104.562 21.8287C104.712 21.1682 104.745 20.4868 104.924 19.8323C105.051 19.4067 105.208 18.9907 105.395 18.5874L106.055 17.0532C106.116 16.8721 106.223 16.7101 106.367 16.5836C106.521 16.4887 106.699 16.4409 106.88 16.4464C107.526 16.4226 108.204 16.6224 108.644 17.095C109.085 17.5676 109.224 18.3324 108.874 18.8736C108.454 19.5252 107.539 19.6564 106.993 20.205C106.644 20.5554 106.474 21.0429 106.371 21.5245C106.099 22.7769 106.19 24.0755 106.106 25.3547C106.079 25.7528 106.001 26.2075 105.657 26.4133C105.449 26.5148 105.217 26.5596 104.986 26.543L104.003 26.5594C103.839 26.5594 103.241 26.6622 103.132 26.5385C102.94 26.3223 103.377 25.2459 103.457 25.0058C103.634 24.4736 103.851 23.9547 104.056 23.4314C104.234 22.9647 104.562 22.3341 104.562 21.8287Z" fill="#BE6F72"/>
<path d="M124.846 68.6676C124.62 69.5294 123.94 70.2003 123.591 71.0218C123.066 72.2518 123.302 73.7561 122.56 74.8684C122.319 75.2062 122.027 75.5054 121.696 75.7555C121.512 75.9112 121.311 76.0457 121.096 76.1565C120.874 76.2785 120.614 76.3105 120.369 76.246C120.053 76.1386 119.863 75.7987 119.831 75.4707C119.82 75.3632 119.82 75.2547 119.831 75.1472C119.863 74.9252 119.913 74.7063 119.981 74.4927C120.161 73.8893 120.34 73.285 120.518 72.6797C120.63 72.3514 120.703 72.0111 120.734 71.6659C120.754 71.2901 120.514 70.8011 120.616 70.4507C120.662 70.2927 120.836 70.1526 120.915 70.0199C121.028 69.8289 121.115 69.6238 121.173 69.4101C121.296 68.9941 121.38 68.5498 121.637 68.1995C121.805 67.9917 122.002 67.8085 122.221 67.6553C122.383 67.514 122.573 67.4078 122.778 67.3437C122.978 67.3088 123.182 67.3184 123.377 67.372C123.631 67.426 123.881 67.4967 124.126 67.5837H124.14C124.439 67.691 124.757 67.8565 124.851 68.1577C124.897 68.3248 124.895 68.5013 124.846 68.6676Z" fill="#3F3D56"/>
<path d="M140.78 50.3382C140.771 50.5693 140.743 50.8272 140.563 50.9718C140.407 51.0715 140.221 51.1152 140.036 51.0956H139.996C139.461 51.0956 138.917 51.0658 138.411 51.2313C138.026 51.358 137.673 51.5906 137.272 51.6368C136.719 51.6994 136.199 51.3983 135.71 51.1358C135.249 50.8886 134.775 50.6646 134.292 50.4649C133.974 50.3352 133.326 50.2517 133.173 49.9058C133.121 49.7422 133.077 49.576 133.041 49.4079C133.016 49.3327 132.985 49.2595 132.95 49.1887C132.86 49.0376 132.803 48.8695 132.782 48.6952C132.783 48.5214 132.843 48.3531 132.953 48.2181C133.075 48.0741 133.224 47.9556 133.393 47.8694C133.561 47.7832 133.745 47.7309 133.934 47.7157C134.311 47.6865 134.691 47.7065 135.063 47.7753L138.75 48.3031C139.034 48.3433 139.32 48.3836 139.6 48.4522C139.866 48.4981 140.117 48.6076 140.331 48.7712C140.767 49.135 140.803 49.7746 140.78 50.3382Z" fill="#3F3D56"/>
<path d="M137.54 51.2924C137.09 52.2361 137.414 53.3528 137.333 54.3965C137.265 54.983 137.132 55.5601 136.935 56.117C136.761 56.6717 136.587 57.2278 136.366 57.766C136.18 58.2133 135.96 58.6606 135.788 59.1168C135.514 59.8443 135.338 60.6629 134.783 61.2041C134.528 62.4237 134.205 63.7565 133.197 64.496C132.321 65.1401 131.1 65.1625 130.077 64.7734C129.055 64.3842 128.223 63.6388 127.491 62.8351C126.759 62.0315 126.104 61.1564 125.318 60.4079C124.868 59.9869 124.389 59.5968 123.885 59.2405C123.378 58.8737 122.856 58.5289 122.32 58.2058C121.992 57.9822 121.624 57.8228 121.236 57.7362C120.917 57.6753 120.587 57.7394 120.315 57.9151C120.253 57.9571 120.197 58.0073 120.149 58.0642C120.015 58.2499 119.914 58.4565 119.849 58.6755C119.22 60.3065 117.532 61.1444 116.184 62.2567L114.953 63.272C114.786 63.4106 114.6 63.6134 114.682 63.8147C114.739 63.9165 114.83 63.9948 114.94 64.0353C115.656 64.3872 116.496 64.5288 117.086 65.0656C117.302 65.2624 117.508 65.5218 117.8 65.5367C117.955 65.5277 118.106 65.494 118.25 65.4368C118.475 65.3761 118.711 65.3682 118.94 65.4138C119.169 65.4593 119.384 65.557 119.569 65.6992C119.674 65.801 119.795 65.8842 119.928 65.9452C120.04 65.9745 120.156 65.9816 120.27 65.9661C120.589 65.9437 120.927 65.9154 121.213 66.057C121.499 66.1987 121.734 66.5326 122.068 66.5565C122.232 66.5684 122.426 66.5147 122.582 66.5297C122.625 66.531 122.667 66.5425 122.704 66.5633C122.742 66.584 122.774 66.6134 122.798 66.6489C122.833 66.7309 122.856 66.8171 122.868 66.9054C122.929 67.1156 123.136 67.2438 123.271 67.4168C123.478 67.6821 123.508 68.043 123.487 68.3784C123.419 69.4273 122.949 70.4103 122.175 71.1247C121.955 71.3485 121.674 71.5039 121.368 71.572C121.214 71.604 121.054 71.5871 120.91 71.5237C120.767 71.4603 120.647 71.3536 120.568 71.2186C120.534 71.1025 120.484 70.992 120.418 70.8906C120.177 70.6267 119.636 70.907 119.415 70.6252C119.277 70.4493 119.376 70.1675 119.244 69.9856C119.112 69.8037 118.795 69.8365 118.551 69.8261C118.265 69.8112 118 69.677 117.722 69.6069C117.273 69.4906 116.803 69.5339 116.343 69.5026C115.961 69.469 115.582 69.4092 115.208 69.3237L113.303 68.936C112.09 68.69 110.873 68.441 109.718 68.0012C109.276 67.8342 108.831 67.6285 108.52 67.2707C108.269 66.9562 108.107 66.5803 108.053 66.1823C107.782 64.5915 109.219 63.2317 109.401 61.629C109.465 61.0445 109.7 60.4929 109.922 59.9502C110.328 58.9801 110.733 58.0095 111.138 57.0384C111.203 56.8576 111.288 56.6846 111.392 56.5226C111.565 56.315 111.759 56.1265 111.972 55.9605C112.539 55.4478 112.946 54.7832 113.144 54.0461C113.159 53.9641 113.194 53.8869 113.245 53.821C113.298 53.7768 113.356 53.7392 113.418 53.7092C113.525 53.6399 113.606 53.5367 113.647 53.4164C113.688 53.2961 113.687 53.1655 113.645 53.0457C113.738 53.0381 113.825 52.9974 113.89 52.9312C113.956 52.865 113.995 52.7776 114.001 52.6849C113.99 52.6042 113.995 52.5222 114.016 52.4434C114.052 52.3659 114.142 52.3271 114.194 52.2585C114.28 52.1467 114.25 51.9901 114.236 51.85C114.227 51.7613 114.227 51.6719 114.236 51.5831C114.269 51.2674 114.411 50.9728 114.637 50.7497C114.995 50.3993 115.505 50.4903 115.999 50.4068C116.492 50.3009 116.973 50.1476 117.436 49.9491C118.736 49.4393 120.104 49.1243 121.496 49.0143C122.896 48.9047 124.301 49.1275 125.597 49.6643C125.785 49.7403 125.963 49.8406 126.125 49.9625C126.241 50.051 126.335 50.1634 126.402 50.292C126.458 50.4498 126.526 50.6029 126.606 50.7497C126.766 50.9674 127.069 51.0374 127.244 51.2432C127.419 51.4489 127.434 51.7963 127.579 52.0513C127.788 52.4151 128.27 52.5835 128.414 52.9786C128.458 53.1039 128.464 53.241 128.497 53.3707C128.578 53.6958 128.821 53.9522 129.035 54.2086C129.82 55.1435 130.323 56.2808 130.485 57.4887C130.533 56.7328 131.043 56.0634 131.683 55.6459C131.855 55.5341 132.054 55.4103 132.089 55.2076C132.132 54.9511 131.882 54.723 131.898 54.4621C131.917 54.3347 131.968 54.2144 132.048 54.1132C132.334 53.7014 132.647 53.3094 132.986 52.9399C133.17 52.7386 133.376 52.4926 133.3 52.2272C133.242 52.0289 133.038 51.9126 132.926 51.7397C132.86 51.6366 132.827 51.5165 132.829 51.3945C132.832 51.2725 132.871 51.154 132.941 51.0538C133.046 50.9122 133.212 50.8093 133.263 50.6409C133.321 50.4426 133.191 50.2279 133.231 50.0236C133.286 49.86 133.395 49.7197 133.54 49.6255C133.738 49.4454 133.964 49.2975 134.209 49.1872C134.604 49.0381 135.045 49.0933 135.464 49.1514C136.165 49.2483 136.951 49.3974 137.347 49.9819C137.6 50.3471 137.728 50.9018 137.54 51.2924Z" fill="#65617D"/>
<path opacity="0.1" d="M140.78 50.3382C140.771 50.5693 140.743 50.8272 140.563 50.9718C140.407 51.0715 140.221 51.1152 140.036 51.0956H139.996C140.057 50.7855 140.436 50.6081 140.502 50.2935C140.513 50.1968 140.504 50.0989 140.476 50.0058C140.448 49.9127 140.4 49.8264 140.337 49.7523C140.017 49.3214 139.502 49.0828 138.989 48.9084C137.542 48.4145 135.992 48.299 134.488 48.5729C134.079 48.6393 133.68 48.7612 133.305 48.9352C133.18 49.0128 133.06 49.0975 132.945 49.1887C132.855 49.0376 132.798 48.8695 132.777 48.6952C132.778 48.5214 132.838 48.3531 132.948 48.2181C133.07 48.0741 133.22 47.9556 133.388 47.8694C133.557 47.7832 133.74 47.7309 133.929 47.7157C134.306 47.6865 134.686 47.7065 135.058 47.7753L138.745 48.3031C139.03 48.3433 139.316 48.3836 139.596 48.4522C139.862 48.4981 140.113 48.6076 140.327 48.7712C140.767 49.135 140.803 49.7746 140.78 50.3382Z" fill="black"/>
<path opacity="0.1" d="M124.846 68.6676C124.62 69.5294 123.94 70.2003 123.591 71.0218C123.066 72.2518 123.302 73.7561 122.56 74.8684C122.319 75.2062 122.027 75.5053 121.696 75.7555C121.512 75.9112 121.311 76.0457 121.096 76.1565C120.874 76.2785 120.614 76.3105 120.369 76.246C120.053 76.1386 119.863 75.7987 119.831 75.4707C119.82 75.3632 119.82 75.2547 119.831 75.1472L119.84 75.171C119.97 75.4841 120.183 75.8121 120.518 75.8673C120.644 75.8763 120.771 75.8594 120.89 75.8176C121.009 75.7758 121.118 75.71 121.21 75.6243C121.705 75.2292 121.992 74.6403 122.266 74.0722C122.481 73.6626 122.65 73.2312 122.772 72.7855C122.832 72.5321 122.861 72.2727 122.922 72.0192C123.207 70.7877 124.175 69.7828 124.39 68.5349C124.407 68.4491 124.411 68.3611 124.402 68.274C124.373 68.1604 124.33 68.0511 124.273 67.949C124.221 67.8336 124.183 67.7125 124.159 67.5882C124.459 67.6955 124.776 67.861 124.87 68.1622C124.909 68.3297 124.901 68.5045 124.846 68.6676Z" fill="black"/>
<path opacity="0.1" d="M122.585 66.5297C122.446 66.8904 122.213 67.2076 121.91 67.4481C121.483 67.7715 120.984 67.9864 120.456 68.0743C120.209 68.1368 119.951 68.1337 119.707 68.0653C119.374 67.9505 119.135 67.6404 118.795 67.551C118.552 67.4854 118.292 67.5435 118.046 67.5077C117.604 67.4466 117.261 67.1111 116.905 66.8428C115.813 66.0257 114.38 65.7618 113.288 64.9448C113.24 64.9151 113.199 64.8735 113.171 64.8241C113.15 64.7705 113.143 64.7127 113.149 64.6556C113.153 64.16 113.265 63.6712 113.477 63.2228C113.651 62.91 113.857 62.6166 114.094 62.3476C115.072 61.1549 116.054 59.9532 117.225 58.9468C117.716 58.5249 118.253 58.1313 118.873 57.9404C119.217 57.8346 119.897 57.7347 120.316 57.9136C120.254 57.9557 120.198 58.0058 120.15 58.0627C120.017 58.2484 119.915 58.455 119.85 58.674C119.22 60.3065 117.532 61.1445 116.184 62.2567L114.953 63.272C114.786 63.4107 114.6 63.6134 114.682 63.8147C114.739 63.9165 114.83 63.9948 114.94 64.0354C115.656 64.3872 116.496 64.5289 117.086 65.0656C117.302 65.2624 117.508 65.5218 117.8 65.5367C117.955 65.5277 118.106 65.494 118.25 65.4368C118.475 65.3761 118.711 65.3682 118.94 65.4138C119.169 65.4593 119.384 65.557 119.569 65.6992C119.674 65.801 119.795 65.8843 119.928 65.9452C120.04 65.9745 120.156 65.9816 120.27 65.9661C120.589 65.9437 120.927 65.9154 121.213 66.0571C121.499 66.1987 121.734 66.5327 122.068 66.5565C122.235 66.5684 122.429 66.5118 122.585 66.5297Z" fill="black"/>
<path d="M108.812 46.2948C108.528 46.4767 108.225 46.6824 108.108 46.9985C108.012 47.2564 108.057 47.5516 107.942 47.8021C107.827 48.0526 107.568 48.227 107.511 48.4954C107.47 48.6907 107.55 48.8964 107.511 49.0918C107.477 49.1933 107.449 49.2969 107.428 49.4019C107.413 49.624 107.605 49.8044 107.792 49.9282C108.191 50.1862 108.645 50.3477 109.117 50.3994C109.59 50.4512 110.068 50.3919 110.513 50.2264C110.913 50.0773 111.274 49.8342 111.657 49.6434C112.031 49.4291 112.459 49.3256 112.89 49.3452C113.137 49.3721 113.374 49.4615 113.621 49.4943C113.743 49.5183 113.869 49.5124 113.988 49.4771C114.107 49.4418 114.216 49.3781 114.305 49.2915C114.381 49.1867 114.433 49.0658 114.455 48.9382C114.663 48.1197 114.569 47.252 114.371 46.429C114.173 45.606 113.874 44.8143 113.663 43.9958C113.513 43.389 113.398 42.7673 113.147 42.1932C112.897 41.6192 112.477 41.0855 111.888 40.8663C111.842 40.8436 111.789 40.8368 111.738 40.8469C111.701 40.8627 111.667 40.8872 111.641 40.9185C111.175 41.4097 110.825 41.9972 110.614 42.639C110.379 43.3532 110.314 44.1106 110.098 44.8277C110.006 45.1259 109.886 45.5255 109.649 45.7536C109.413 45.9817 109.08 46.1233 108.812 46.2948Z" fill="#3F3D56"/>
<path opacity="0.1" d="M114.459 48.9337C114.434 49.0617 114.38 49.1825 114.302 49.287C114.213 49.3738 114.104 49.4376 113.985 49.4727C113.866 49.5078 113.74 49.5131 113.618 49.4883C113.372 49.4585 113.135 49.3675 112.888 49.3392C112.457 49.3193 112.03 49.4228 111.656 49.6374C111.272 49.8282 110.907 50.0653 110.51 50.2188C109.93 50.438 109.295 50.4739 108.694 50.3217C108.374 50.2417 108.07 50.1087 107.795 49.9281C107.606 49.8059 107.416 49.6299 107.431 49.4018C107.452 49.2973 107.48 49.1943 107.514 49.0932C107.553 48.8979 107.475 48.6921 107.514 48.4968C107.571 48.2285 107.831 48.0496 107.945 47.8021C108.059 47.5546 108.015 47.2579 108.11 46.9999C108.226 46.6824 108.53 46.4781 108.815 46.2947C109.1 46.1113 109.438 45.9712 109.666 45.7491C109.695 45.7145 109.722 45.6776 109.745 45.6387C109.909 45.3867 110.03 45.109 110.101 44.8172C110.322 44.0986 110.381 43.3427 110.615 42.6271C110.827 41.9857 111.178 41.3988 111.644 40.908C111.669 40.876 111.702 40.8513 111.74 40.8365C111.79 40.8262 111.843 40.8325 111.889 40.8543C112.477 41.075 112.897 41.6088 113.149 42.1828C113.401 42.7568 113.507 43.3755 113.664 43.9838C113.874 44.8023 114.175 45.597 114.372 46.4185C114.57 47.24 114.667 48.1137 114.459 48.9337Z" fill="black"/>
<path opacity="0.1" d="M118.913 30.7504C118.209 30.9731 117.447 30.9289 116.773 30.6262C116.1 30.3234 115.563 29.7836 115.265 29.1104C115.277 28.9707 115.297 28.8318 115.325 28.6944C115.475 28.0086 116.116 28.2591 116.622 28.4409C117.231 28.638 117.82 28.8921 118.381 29.1998C118.552 29.2876 118.701 29.413 118.816 29.5666C119.037 29.8961 118.949 30.3344 118.913 30.7504Z" fill="black"/>
<path d="M118.009 30.7414C119.663 30.7414 121.004 29.4064 121.004 27.7596C121.004 26.1127 119.663 24.7777 118.009 24.7777C116.354 24.7777 115.013 26.1127 115.013 27.7596C115.013 29.4064 116.354 30.7414 118.009 30.7414Z" fill="#BE6F72"/>
<path opacity="0.1" d="M126.136 50.043C126.136 50.2905 125.799 50.3695 125.549 50.3561C124.65 50.3039 123.771 50.0579 122.882 50.1325C121.757 50.2339 120.724 50.8526 119.596 50.9093C119.162 50.9316 118.72 50.8675 118.292 50.9465C117.738 51.0494 117.243 51.3849 116.679 51.4326C116.189 51.4743 115.705 51.2909 115.216 51.3103C114.873 51.3306 114.54 51.4253 114.238 51.5876C114.271 51.2719 114.412 50.9773 114.639 50.7542C114.997 50.4038 115.506 50.4948 116 50.4113C116.493 50.3054 116.975 50.1521 117.438 49.9536C118.738 49.4438 120.106 49.1288 121.498 49.0188C122.896 48.908 124.301 49.1293 125.597 49.6643C125.785 49.7403 125.963 49.8406 126.125 49.9625C126.134 49.9885 126.137 50.0158 126.136 50.043Z" fill="black"/>
<path d="M116.623 33.2044L115.41 32.7572L114.898 32.5693C114.69 32.4822 114.47 32.424 114.245 32.3964C113.658 32.3516 113.106 32.7408 112.793 33.2372C112.48 33.7337 112.361 34.3256 112.261 34.9026C112.123 35.6918 112.007 36.484 111.911 37.2791C111.807 37.9972 111.755 38.7216 111.753 39.4469C111.788 41.2927 112.18 43.1131 112.612 44.9097C112.823 45.7063 112.982 46.5155 113.089 47.3325C113.125 47.6694 113.142 48.0078 113.178 48.3463C113.217 48.7265 113.279 49.1022 113.342 49.4794L113.703 51.6219C114.153 51.3043 114.663 51.0255 115.216 51.0091C115.705 50.9912 116.191 51.1731 116.679 51.1313C117.24 51.0851 117.738 50.7497 118.292 50.6468C118.72 50.5678 119.162 50.6304 119.598 50.6095C120.724 50.5529 121.759 49.9326 122.882 49.8327C123.773 49.7522 124.658 50.0027 125.55 50.0549C125.799 50.0698 126.136 49.9908 126.136 49.7418C126.136 49.5688 125.962 49.454 125.811 49.3676C125.098 48.9402 124.42 48.4582 123.782 47.9258C123.192 47.4607 122.593 46.9836 122.187 46.3544C121.209 44.8411 121.544 42.7941 120.71 41.1973C120.032 39.9002 120.71 38.2005 120.71 36.7379C120.71 36.0089 120.71 35.2709 120.538 34.5627C120.43 34.1666 120.296 33.7781 120.137 33.3998L119.554 31.9312C119.542 31.8883 119.518 31.8496 119.485 31.8194C119.446 31.7925 119.4 31.7784 119.352 31.7791C119.002 31.7582 118.657 31.8683 118.385 32.0877C118.111 32.3099 117.935 32.6289 117.666 32.86C117.371 33.115 116.99 33.3386 116.623 33.2044Z" fill="#E3E8F4"/>
<path d="M118.581 32.3576C118.676 31.9491 118.78 31.5242 119.054 31.2052C119.328 30.8861 119.828 30.7176 120.181 30.9457C120.583 31.2052 120.599 31.8045 120.942 32.1385C121.242 32.4247 121.691 32.4471 122.098 32.4844C122.831 32.5507 123.55 32.7194 124.235 32.9853C124.369 33.0266 124.491 33.0992 124.59 33.197C124.777 33.4087 124.74 33.7338 124.833 33.9977C124.96 34.3376 125.312 34.5538 125.448 34.8922C125.598 35.2679 125.448 35.6884 125.323 36.0745C125.096 36.7678 124.954 37.4879 124.734 38.1842C124.514 38.8804 124.201 39.5663 123.686 40.0911C123.458 40.3237 123.12 40.5383 122.82 40.3997L122.705 41.2272C122.671 41.402 122.671 41.5816 122.705 41.7564C122.722 41.8439 122.764 41.9247 122.825 41.9896C122.887 42.0545 122.966 42.1008 123.052 42.1232C123.075 42.2514 123.211 42.3125 123.322 42.3826C123.404 42.4383 123.473 42.5096 123.527 42.5924C123.581 42.6752 123.618 42.7678 123.636 42.8649C123.654 42.962 123.652 43.0616 123.63 43.1579C123.609 43.2543 123.569 43.3455 123.512 43.4263C123.418 43.553 123.278 43.6529 123.233 43.8035C123.166 44.0211 123.326 44.2508 123.521 44.37C123.716 44.4893 123.945 44.5445 124.142 44.6593C124.553 44.8948 124.773 45.3585 124.914 45.8088C125.019 46.1487 125.105 46.517 125.363 46.7645C125.462 46.8584 125.58 46.9299 125.674 47.0283C125.838 47.2204 125.932 47.4612 125.943 47.7127C125.984 48.0243 125.915 48.3405 125.748 48.6072C125.448 49.0336 124.89 49.1604 124.4 49.3527C123.605 49.6777 122.95 50.2592 122.25 50.7542C121.964 50.983 121.628 51.1405 121.269 51.2134C120.783 51.2775 120.306 51.0643 119.818 51.0449C119.525 51.0476 119.235 51.0856 118.952 51.1582L118.053 51.352C118.101 50.6588 117.718 49.964 117.504 49.3035C117.099 48.0601 117.025 46.7302 117.12 45.4271C117.216 44.124 117.483 42.8388 117.746 41.5596C117.931 40.6651 117.913 39.7303 118.196 38.8611C118.461 38.0246 118.84 37.221 118.979 36.3503C119.206 34.9414 118.26 33.7472 118.581 32.3576Z" fill="#3F3D56"/>
<path d="M125.393 35.1143C125.476 35.2658 125.534 35.4294 125.565 35.5989C125.634 35.8615 125.764 36.1045 125.944 36.3086C126.095 36.4409 126.229 36.5911 126.342 36.7559C126.48 37.0153 126.428 37.3313 126.492 37.6146C126.567 37.9232 126.784 38.1916 126.816 38.5092C126.817 38.6002 126.825 38.6909 126.841 38.7805C126.938 39.1413 127.472 39.2278 127.59 39.5886C127.669 39.8227 127.533 40.0776 127.558 40.3236C127.577 40.3997 127.582 40.4785 127.572 40.5562C127.538 40.6441 127.479 40.7199 127.401 40.7739C126.906 41.2453 126.562 41.8532 126.416 42.5198C126.272 43.1827 126.196 43.8587 126.19 44.537L125.604 43.7662C125.542 43.6727 125.463 43.5917 125.371 43.5276C125.296 43.4829 125.209 43.4605 125.132 43.4158C124.911 43.2906 124.824 43.0252 124.739 42.7866C124.501 42.1263 124.146 41.5141 123.69 40.9796C123.452 40.7008 123.175 40.4205 123.123 40.0583C123.107 39.8918 123.116 39.724 123.15 39.5603C123.299 38.5837 123.46 37.5833 123.937 36.7171C124.161 36.3116 124.45 35.9448 124.664 35.5333C124.807 35.2605 125.01 34.5508 125.393 35.1143Z" fill="#3F3D56"/>
<path d="M110.62 36.0521C110.622 36.1776 110.59 36.3014 110.527 36.4099C110.47 36.4759 110.395 36.5249 110.311 36.5512C110.228 36.5775 110.139 36.5802 110.054 36.559C109.883 36.5164 109.722 36.4415 109.58 36.3383C109.163 36.0759 108.746 35.813 108.328 35.5496C108.095 35.4098 107.871 35.2565 107.656 35.0904C107.327 34.8144 107.03 34.504 106.768 34.1646C106.04 33.27 105.396 32.2994 104.586 31.4809C104.366 31.2573 104.137 31.0426 103.924 30.8085C103.633 30.4701 103.366 30.1125 103.124 29.738C102.891 29.3936 102.648 29.0119 102.689 28.6004C102.713 28.3679 102.825 28.1532 102.858 27.9221C102.891 27.691 102.802 27.4092 102.578 27.3466C102.551 27.3399 102.524 27.3354 102.497 27.3332C102.453 27.3285 102.409 27.319 102.367 27.3048C102.158 27.2184 102.19 26.8978 102.34 26.7293C102.489 26.5609 102.711 26.4669 102.847 26.2821C102.911 26.1724 102.982 26.0672 103.06 25.9675C103.16 25.8819 103.28 25.822 103.409 25.793C104.273 25.5396 105.186 25.5053 106.067 25.6931C106.217 25.7259 106.388 25.7856 106.432 25.9302C106.45 26.0006 106.45 26.0744 106.432 26.1449C106.366 26.4389 106.328 26.7384 106.319 27.0394C106.318 27.1022 106.322 27.1649 106.329 27.2273C106.4 27.8595 106.811 28.3947 107.213 28.8882C107.689 29.4756 108.173 30.0586 108.658 30.64C108.92 30.977 109.214 31.2889 109.534 31.5719C109.833 31.8193 110.221 32.0191 110.455 32.3367C110.645 32.5931 110.584 32.9435 110.605 33.2521C110.674 34.184 110.679 35.1195 110.62 36.0521Z" fill="#3F3D56"/>
<path d="M129.639 42.2723C129.787 42.1291 129.92 41.9718 130.037 41.8026C130.163 41.593 130.263 41.3693 130.336 41.1362L131.205 38.6836C131.343 38.296 131.481 37.9069 131.654 37.5297C131.834 37.1226 132.047 36.7305 132.243 36.3369C132.747 35.3011 133.138 34.2138 133.406 33.0941C133.454 32.9403 133.47 32.7786 133.453 32.6185C133.411 32.3606 133.215 32.1593 133.028 31.976C132.839 31.7735 132.625 31.597 132.39 31.4511C132.271 31.378 132.14 31.3291 132.003 31.307C131.865 31.285 131.725 31.2904 131.59 31.3229C131.207 31.4348 130.965 31.8254 130.877 32.2175C130.789 32.6096 130.822 33.0107 130.784 33.4102C130.73 33.9827 130.533 34.5359 130.485 35.1099C130.459 35.4424 130.485 35.7778 130.444 36.1088C130.371 36.5434 130.218 36.9612 129.995 37.3418C129.508 38.2484 128.851 39.0533 128.059 39.7124C127.842 39.8719 127.646 40.0588 127.478 40.2685C127.337 40.4782 127.241 40.7148 127.198 40.9633C127.098 41.3416 127.141 41.7431 127.319 42.0919C127.563 42.5064 128.032 42.6883 128.479 42.7807C129.084 42.9059 129.224 42.7002 129.639 42.2723Z" fill="#BE6F72"/>
<path d="M118.027 23.4389C118.155 23.1977 118.353 22.9997 118.594 22.8695C118.836 22.7393 119.11 22.6827 119.383 22.7069C119.659 22.7554 119.915 22.8797 120.123 23.0658C120.331 23.2518 120.482 23.4921 120.56 23.7595C120.631 23.9816 120.659 24.2276 120.782 24.4185C120.968 24.7062 121.312 24.7897 121.57 24.9984C121.724 25.1407 121.847 25.312 121.934 25.5025C122.02 25.693 122.067 25.8987 122.073 26.1077C122.087 26.5344 122.02 26.96 121.874 27.3615C121.812 27.5329 121.762 27.7082 121.724 27.8863C121.694 28.0593 121.691 28.2352 121.664 28.4082C121.631 28.6324 121.553 28.8478 121.435 29.0416C121.317 29.2355 121.161 29.4038 120.977 29.5368C120.924 29.5794 120.859 29.6031 120.791 29.6039C120.674 29.5905 120.602 29.4548 120.559 29.3326C120.321 28.6482 120.378 27.8118 119.939 27.2661C119.739 27.046 119.498 26.8672 119.229 26.7398C119.119 26.6694 118.996 26.6231 118.867 26.6042C118.677 26.6143 118.494 26.6808 118.343 26.795C118.026 27.0061 117.676 27.1605 117.306 27.2512C117.122 27.2947 116.93 27.2967 116.745 27.2569C116.56 27.2172 116.386 27.1368 116.235 27.0216C116.029 26.8516 115.878 26.5967 115.648 26.464C115.419 26.3313 115.18 26.3388 114.954 26.2478C114.809 26.1868 114.681 26.0938 114.579 25.976C114.476 25.8582 114.402 25.7186 114.362 25.5679C114.322 25.4172 114.317 25.2593 114.347 25.1064C114.377 24.9535 114.442 24.8094 114.537 24.6853C114.687 24.5064 114.909 24.405 115.042 24.2067C115.214 23.9503 115.199 23.5984 115.282 23.2913C115.33 23.097 115.425 22.9171 115.557 22.7664C115.69 22.6158 115.857 22.4988 116.044 22.4251C116.225 22.3637 116.42 22.352 116.607 22.3911C116.795 22.4301 116.969 22.5186 117.11 22.6472C117.26 22.7814 117.38 22.9544 117.526 23.0945C117.671 23.2326 117.849 23.3323 118.042 23.3843C118.236 23.4364 118.44 23.4393 118.635 23.3927" fill="#3F3D56"/>
<path opacity="0.1" d="M120.488 45.3838C120.401 45.4611 120.339 45.5628 120.311 45.6755C120.283 45.7883 120.289 45.9069 120.33 46.016C120.363 46.086 121.908 45.7893 122.071 45.767C122.479 45.7088 123.193 45.7372 123.467 45.3659C123.955 44.7084 122.443 44.8545 122.166 44.8784C121.639 44.9231 120.89 44.9947 120.488 45.3838Z" fill="black"/>
<path d="M106.429 26.1508C106.363 26.4448 106.325 26.7443 106.316 27.0454C105.866 27.1363 105.399 26.9873 104.968 26.8382L103.729 26.4177C103.654 26.3698 103.563 26.3522 103.475 26.3686C103.387 26.3849 103.309 26.4339 103.256 26.5057C103.057 26.7114 102.783 27.1021 102.507 27.3331C102.463 27.3285 102.419 27.319 102.377 27.3048C102.169 27.2183 102.2 26.8978 102.35 26.7293C102.5 26.5609 102.722 26.4669 102.858 26.2821C102.921 26.1724 102.992 26.0672 103.07 25.9675C103.171 25.8819 103.291 25.822 103.419 25.793C104.283 25.5396 105.197 25.5053 106.078 25.6931C106.227 25.7259 106.398 25.7856 106.443 25.9302C106.458 26.0037 106.453 26.0797 106.429 26.1508Z" fill="#3F3D56"/>
<path opacity="0.1" d="M106.429 26.1508C106.363 26.4448 106.325 26.7443 106.316 27.0454C105.866 27.1363 105.399 26.9873 104.968 26.8382L103.729 26.4177C103.654 26.3698 103.563 26.3522 103.475 26.3686C103.387 26.3849 103.309 26.4339 103.256 26.5057C103.057 26.7114 102.783 27.1021 102.507 27.3331C102.463 27.3285 102.419 27.319 102.377 27.3048C102.169 27.2183 102.2 26.8978 102.35 26.7293C102.5 26.5609 102.722 26.4669 102.858 26.2821C102.921 26.1724 102.992 26.0672 103.07 25.9675C103.171 25.8819 103.291 25.822 103.419 25.793C104.283 25.5396 105.197 25.5053 106.078 25.6931C106.227 25.7259 106.398 25.7856 106.443 25.9302C106.458 26.0037 106.453 26.0797 106.429 26.1508Z" fill="black"/>
<path opacity="0.1" d="M117.758 54.4561C117.974 54.5277 118.208 54.632 118.281 54.8467L116.547 54.4084L115.648 54.1803C115.49 54.14 114.921 54.0938 114.816 53.9701C114.666 53.7882 115.198 53.9134 115.293 53.9268C115.584 53.9701 115.874 54.0148 116.164 54.067C116.709 54.1639 117.233 54.3234 117.758 54.4561Z" fill="black"/>
<path opacity="0.1" d="M118.431 55.9843C118.281 55.8844 117.851 55.8964 117.667 55.8531C117.398 55.789 117.132 55.704 116.867 55.622C116.33 55.4476 115.797 55.2493 115.244 55.1211C115.142 55.0987 114.795 55.0927 114.811 54.9645C114.828 54.8363 115.159 54.7916 115.241 54.7856C115.731 54.7498 116.342 54.9779 116.797 55.1405C117.377 55.3474 117.927 55.6312 118.431 55.9843Z" fill="black"/>
<path opacity="0.1" d="M117.332 53.0934C116.782 52.9443 116.283 52.6044 115.717 52.5388C115.57 52.5443 115.425 52.5002 115.306 52.4135C115.239 52.3484 115.193 52.2656 115.172 52.175C115.551 52.1556 115.991 52.3151 116.336 52.4657C116.525 52.5467 116.708 52.6434 116.881 52.7549C117.007 52.831 117.195 53.0501 117.332 53.0934Z" fill="black"/>
<path d="M127.809 39.7436C127.716 40.3635 127.85 40.9959 128.187 41.5252C128.524 42.0544 129.042 42.445 129.645 42.6256C129.571 42.9789 129.204 43.1742 128.945 43.4262C128.58 43.7796 128.391 44.3088 127.96 44.5772C127.479 44.8754 126.861 44.7591 126.312 44.6339C126.263 44.6283 126.217 44.6044 126.184 44.5668C126.172 44.5489 126.164 44.5292 126.16 44.5086C125.978 43.8481 125.86 43.1429 126.046 42.481C126.196 41.9174 126.555 41.4373 126.843 40.9393C127.13 40.4414 127.157 39.9076 127.809 39.7436Z" fill="#3F3D56"/>
<path d="M114.419 31.1947C113.839 31.2367 113.276 31.4074 112.772 31.6942C112.436 31.885 112.092 32.1415 111.708 32.0952C111.482 32.0699 111.259 31.9461 111.039 32.0058C110.915 32.0556 110.799 32.124 110.696 32.2085C110.644 32.2501 110.581 32.2774 110.515 32.2878C110.449 32.2983 110.381 32.2915 110.319 32.2682L110.169 34.3316C110.112 35.1158 110.057 35.9165 110.245 36.6813C110.343 37.0719 110.557 37.4268 110.581 37.8234C110.605 38.2199 110.569 38.627 110.597 39.028C110.624 39.3993 110.707 39.7645 110.727 40.1358C110.769 40.8365 110.596 41.5313 110.428 42.2126C110.175 43.2175 110.022 44.2448 109.529 45.1542C109.392 45.4062 109.23 45.6626 109.23 45.9489C109.23 45.9847 109.23 46.019 109.239 46.0533C109.089 46.1353 108.95 46.2128 108.823 46.2933C108.538 46.4767 108.234 46.6809 108.117 46.9985C108.023 47.2564 108.066 47.5516 107.952 47.8006C107.839 48.0496 107.578 48.227 107.521 48.4954C107.481 48.6907 107.559 48.8965 107.521 49.0918C107.487 49.1928 107.46 49.2959 107.439 49.4004C107.424 49.624 107.614 49.8044 107.803 49.9267C108.078 50.1073 108.382 50.2403 108.701 50.3203L109.595 46.7868C110.41 45.2864 111.089 43.7161 111.622 42.0949C111.774 41.5649 111.97 41.0483 112.207 40.5503C112.377 40.2685 112.527 39.9756 112.656 39.6736C112.793 39.2979 112.806 38.8909 112.872 38.4943C112.95 38.0314 113.068 37.576 113.224 37.1331C113.386 36.6545 113.573 36.1774 113.606 35.6749C113.655 34.9563 113.393 34.1974 113.672 33.5325C113.79 33.2836 113.944 33.0531 114.128 32.8481C114.515 32.377 114.867 31.8835 115.253 31.4124C115.052 31.1992 114.718 31.1768 114.419 31.1947Z" fill="#3F3D56"/>
<g opacity="0.1">
<path opacity="0.1" d="M118.639 22.9484L118.452 22.9618L118.431 22.9767C118.501 22.9738 118.571 22.9644 118.639 22.9484Z" fill="black"/>
<path opacity="0.1" d="M122.066 26.0435C122.034 26.3399 121.97 26.6319 121.874 26.9142C121.812 27.0855 121.762 27.2609 121.724 27.439C121.694 27.6119 121.691 27.7879 121.664 27.9608C121.631 28.1851 121.553 28.4004 121.435 28.5943C121.317 28.7881 121.161 28.9565 120.977 29.0894C120.924 29.1321 120.859 29.1557 120.791 29.1565C120.674 29.1431 120.602 29.0074 120.559 28.8852C120.321 28.2009 120.378 27.3644 119.939 26.8188C119.739 26.5986 119.498 26.4198 119.229 26.2925C119.119 26.222 118.996 26.1758 118.867 26.1568C118.677 26.167 118.494 26.2334 118.343 26.3476C118.027 26.5587 117.676 26.7131 117.306 26.8039C117.122 26.8473 116.93 26.8493 116.745 26.8096C116.56 26.7699 116.386 26.6895 116.236 26.5743C116.029 26.4043 115.878 26.1493 115.648 26.0167C115.419 25.884 115.18 25.8914 114.954 25.8005C114.812 25.7404 114.687 25.6494 114.585 25.5343C114.484 25.4192 114.411 25.2829 114.37 25.1355C114.364 25.1169 114.36 25.098 114.358 25.0789C114.32 25.2453 114.324 25.4183 114.37 25.5828C114.411 25.7302 114.484 25.8665 114.585 25.9816C114.687 26.0967 114.812 26.1877 114.954 26.2477C115.18 26.3387 115.434 26.3402 115.648 26.4639C115.863 26.5877 116.029 26.8516 116.236 27.0215C116.386 27.1367 116.56 27.2171 116.745 27.2569C116.93 27.2966 117.122 27.2946 117.306 27.2511C117.676 27.1604 118.027 27.006 118.343 26.7949C118.494 26.6807 118.677 26.6142 118.867 26.6041C118.996 26.623 119.119 26.6693 119.229 26.7397C119.495 26.8696 119.732 27.0499 119.929 27.2705C120.367 27.8162 120.31 28.6526 120.549 29.3369C120.592 29.4607 120.664 29.5949 120.781 29.6083C120.853 29.6087 120.922 29.5833 120.977 29.5367C121.162 29.4034 121.318 29.2344 121.437 29.0397C121.555 28.8451 121.633 28.6288 121.666 28.4036C121.693 28.2307 121.696 28.0547 121.726 27.8818C121.763 27.7037 121.813 27.5283 121.875 27.357C122.021 26.9555 122.089 26.5299 122.075 26.1031C122.072 26.0852 122.069 26.0644 122.066 26.0435Z" fill="black"/>
</g>
<path d="M112.59 38.0067L112.488 39.3679C112.473 39.5528 112.119 43.954 109.501 49.0977C107.254 53.5094 102.883 59.2554 94.63 62.4847C93.9861 62.7382 93.3177 62.9747 92.6248 63.1944L91.8521 60.7791C93.792 60.1713 95.6608 59.3575 97.426 58.3519C101.633 55.9336 104.903 52.4821 107.184 48.0406C108.394 45.6759 109.257 43.1503 109.745 40.5413H100.355V38.0067H112.59Z" fill="#535461"/>
<path opacity="0.1" d="M93.6194 62.4863C101.871 59.257 106.244 53.5124 108.489 49.1008C111.106 43.9571 111.463 39.5588 111.476 39.371L111.578 38.0098H112.626L112.525 39.371C112.511 39.5559 112.155 43.9571 109.537 49.1008C107.291 53.5124 102.919 59.257 94.6677 62.4863C94.0237 62.7398 93.3548 62.9768 92.6609 63.1975L92.5591 62.8799C92.9205 62.7517 93.2739 62.6205 93.6194 62.4863Z" fill="white"/>
<path d="M77.0981 60.7791L76.3254 63.1944C75.6315 62.9738 74.9626 62.7367 74.3186 62.4832C66.0671 59.2539 61.6942 53.5094 59.4493 49.0977C56.8316 43.954 56.4752 39.5558 56.4617 39.3679L56.3599 38.0067H68.589V40.5413H59.1977C59.6886 43.1506 60.5536 45.6762 61.7661 48.0406C64.0469 52.4821 67.316 55.9336 71.5227 58.3504C73.2881 59.3571 75.1574 60.1714 77.0981 60.7791Z" fill="#535461"/>
<path opacity="0.1" d="M75.328 62.4863C67.0764 59.257 62.7035 53.5124 60.4587 49.1008C57.8409 43.9571 57.4845 39.5588 57.471 39.371L57.3692 38.0098H56.3209L56.4228 39.371C56.4362 39.5559 56.7927 43.9571 59.4104 49.1008C61.6567 53.5124 66.0281 59.257 74.2797 62.4863C74.9236 62.7398 75.5926 62.9768 76.2864 63.1975L76.3883 62.8799C76.0278 62.7517 75.6744 62.6205 75.328 62.4863Z" fill="white"/>
<path d="M98.6017 84.127V97.7944H70.3472V84.127L71.2457 82.9343C80.4018 79.699 82.2573 71.2618 82.6272 67.9237C82.6822 67.4624 82.7137 66.9986 82.7215 66.5341H86.2153C86.2231 66.9986 86.2546 67.4624 86.3097 67.9237C86.6856 71.2618 88.541 79.702 97.6911 82.9343L98.6017 84.127Z" fill="#FBCD4E"/>
<path opacity="0.1" d="M98.6017 84.127H70.3472V85.8416H98.6017V84.127Z" fill="black"/>
<path opacity="0.1" d="M72.7433 82.9343C81.8994 79.699 83.7548 71.2618 84.1247 67.9237C84.1798 67.4624 84.2113 66.9986 84.2191 66.5341H82.7215C82.7137 66.9986 82.6822 67.4624 82.6272 67.9237C82.2513 71.2618 80.3958 79.702 71.2457 82.9343L70.3472 84.127V97.7944H71.8447V84.127L72.7433 82.9343Z" fill="white"/>
<path opacity="0.1" d="M66.0552 38.0067H68.589V40.5413H66.2798C66.189 39.7064 66.1141 38.8615 66.0552 38.0067Z" fill="black"/>
<path opacity="0.1" d="M77.0981 60.7791L76.3254 63.1944C75.6315 62.9737 74.9626 62.7367 74.3187 62.4832C73.2594 61.1953 72.3233 59.8117 71.5227 58.3504C73.2881 59.3571 75.1574 60.1714 77.0981 60.7791Z" fill="black"/>
<path opacity="0.1" d="M91.8507 60.7791C93.7907 60.1713 95.6594 59.3576 97.4246 58.3519C96.6236 59.8134 95.6876 61.1975 94.6287 62.4862C93.9847 62.7397 93.3163 62.9763 92.6234 63.1959L91.8507 60.7791Z" fill="black"/>
<path opacity="0.1" d="M102.892 38.0067C102.833 38.8615 102.758 39.7064 102.668 40.5413H100.36V38.0067H102.892Z" fill="black"/>
<path opacity="0.1" d="M86.3155 67.9237C85.0994 68.1582 83.8492 68.1582 82.6331 67.9237C82.6881 67.4624 82.7196 66.9986 82.7274 66.5341H86.2212C86.229 66.9986 86.2605 67.4624 86.3155 67.9237Z" fill="black"/>
<path d="M66.3546 33.8083C66.419 52.6029 74.5058 67.8014 84.4751 67.8014C94.4444 67.8014 102.53 52.6029 102.596 33.8083H66.3546Z" fill="#FFD037"/>
<path opacity="0.1" d="M69.5744 33.8083H66.3546C66.419 52.6029 74.5059 67.8014 84.4751 67.8014C85.0146 67.8004 85.5531 67.755 86.085 67.6657C76.869 66.133 69.6358 51.5801 69.5744 33.8083Z" fill="white"/>
<path d="M94.0835 89.3587H74.8654V94.2788H94.0835V89.3587Z" fill="#3F3D56"/>
<path opacity="0.1" d="M75.7639 90.0296H94.0835V89.3587H74.8654V94.2788H75.7639V90.0296Z" fill="white"/>
<path d="M56.1054 51.9544C55.7595 51.8396 53.7228 50.2353 53.5686 49.5092C53.4143 48.7832 54.6453 42.0188 54.6453 42.0188C54.6453 42.0188 54.5315 42.0188 54.3458 41.9965V41.8876L54.5989 33.0017C54.5989 33.0017 55.6367 27.038 53.6764 27.3854C51.7161 27.7328 52.9456 33.0017 52.9456 33.0017C52.9456 33.0017 52.7225 35.6764 52.5652 36.4785C52.4155 37.2523 51.7296 40.4042 52.1968 41.3837C52.2139 41.4185 52.2329 41.4523 52.2537 41.4851C52.2537 41.4851 52.3316 44.8471 51.4855 45.3063C50.6783 45.7432 50.3428 47.9423 50.3144 48.1391L50.2709 48.1212C50.0299 47.9711 49.8183 47.7786 49.6465 47.5531C49.6285 47.5308 49.615 47.5069 49.5985 47.4831C50.1495 46.866 50.4465 46.0647 50.4301 45.2392C50.4137 44.4136 50.0852 43.6246 49.5102 43.0297C49.2428 42.7532 48.9291 42.5252 48.5832 42.3558C48.5731 42.0709 48.5054 41.791 48.384 41.5328C47.9947 40.7038 45.8382 39.6199 44.3062 39.5946C43.5993 39.5737 43.0197 39.7735 42.8086 40.3236C42.7008 40.6025 42.7337 40.92 42.6888 41.2093C42.5989 41.8056 42.2141 42.2723 41.7199 42.6435C41.5203 42.4217 41.3046 42.2149 41.0744 42.0248C40.5742 41.6431 39.5769 40.3848 39.5769 40.3848C39.5769 40.3848 36.4634 37.1748 36.2328 36.2952C36.0022 35.4155 32.8917 30.1332 32.1999 31.0531C31.508 31.973 34.5825 35.9821 34.5825 35.9821C34.5825 35.9821 35.1665 37.4387 35.6158 37.9307C36.0651 38.4227 39.5095 43.4024 39.5095 43.4024L39.6742 43.7423C38.9464 44.124 38.2815 44.6101 38.0463 45.3674C37.7019 46.4827 38.4552 47.6038 38.9763 48.6475C39.9917 50.6841 40.1369 53.2813 38.8266 55.142C37.6525 56.785 35.6158 57.5662 33.7094 58.249C34.6301 58.9688 35.7739 59.3468 36.9441 59.318C36.5039 60.5883 34.9434 61.0087 33.6136 61.2443C34.3114 61.9122 35.3103 62.1553 36.2687 62.3029C36.7381 62.3824 37.2138 62.4198 37.6899 62.4147H37.8067L37.9235 62.4058C38.0859 62.395 38.2474 62.3746 38.4073 62.3446C39.0991 62.2045 39.7715 61.8288 40.125 61.2205C40.4245 60.7001 40.5293 59.9904 41.0729 59.7295C41.2145 59.6659 41.367 59.63 41.5222 59.6237H41.5057C41.6075 59.6237 41.7124 59.6237 41.8142 59.6237L44.08 59.646C44.1744 59.646 44.2717 59.646 44.3691 59.646C45.0085 59.6311 45.6914 59.5208 46.0164 58.9945C46.1501 58.7389 46.2204 58.4552 46.2215 58.167C46.2695 57.4529 46.2215 56.7179 46.241 55.9977C46.4342 57.3083 46.6364 59.3508 46.1556 60.1053C45.7651 60.6769 45.2917 61.1879 44.7509 61.6215C44.6149 61.7353 44.4905 61.8621 44.3795 62.0002C44.3062 62.0524 44.2627 62.0807 44.2627 62.0807L44.2163 62.2194C44.0456 62.4771 43.9219 62.7628 43.8509 63.0632C43.8248 63.1404 43.8151 63.2222 43.8224 63.3033C43.8749 63.4091 43.4481 63.846 43.5723 64.0294C42.5061 65.2743 42.3039 67.1603 42.3039 67.1603L40.3571 70.1034C39.3567 72.72 37.8591 72.9883 37.8591 72.9883C37.8591 72.9883 34.3414 70.6386 34.2455 70.5238C34.1497 70.409 32.8049 69.835 32.8049 69.835C32.6463 69.5582 32.4043 69.3381 32.113 69.2059C31.6517 69.015 31.6128 68.3113 31.6128 68.3113C31.5559 66.6489 30.575 66.5222 30.575 66.5222C29.7843 66.4551 29.1808 66.5953 28.7165 66.8517L28.5758 66.8621C27.8959 66.9173 27.0782 66.9784 26.1797 67.0381C23.6802 67.2021 23.0857 68.8137 23.0857 68.8137C23.0857 68.8137 22.7787 69.1581 23.1815 69.5309C23.5844 69.9036 26.1632 69.5309 26.2725 69.5219C26.076 69.5431 25.8772 69.5295 25.6855 69.4817C26.0913 69.4668 26.6499 69.4519 27.1261 69.4519H27.2414C27.2114 69.7032 27.1969 69.9561 27.198 70.2093C27.198 70.6863 28.5233 70.992 28.5233 70.992L32.5593 74.5702C32.5593 74.5702 35.0961 75.6988 36.7105 77.3225C38.3249 78.9461 39.7521 77.5446 39.7521 77.5446C41.4608 77.1242 46.3773 71.2067 46.3818 71.2007C46.3818 71.3737 46.4851 77.1286 46.6813 78.2841C46.6891 78.3427 46.7037 78.4003 46.7247 78.4556C46.9553 78.952 46.6468 80.3088 46.5136 80.8813C46.4286 81.3604 46.3959 81.8473 46.4162 82.3335C46.4162 82.3335 44.5727 89.3408 44.7255 89.9566C44.8782 90.5723 43.7266 93.4334 43.7266 93.4334V95.8189L43.9273 95.8084C43.9012 95.8469 43.8772 95.8867 43.8554 95.9277L43.8419 95.9531C43.8419 95.9531 45.0714 96.2199 45.8981 96.1439C46.7247 96.0679 48.1444 96.7775 48.1444 96.7775C48.1444 96.7775 48.6251 97.0042 50.1047 97.0996C51.5843 97.195 51.5843 96.4495 51.5843 96.4495C51.4151 95.4342 49.0774 95.0943 49.0055 95.0839C48.8168 94.9661 48.6401 94.8379 48.4948 94.7275L48.4649 94.7037C48.4747 94.6813 48.4832 94.6584 48.4903 94.6351C48.7404 93.6213 47.3567 93.1814 47.3567 93.1814V92.9339C48.2552 92.4747 48.4334 89.3229 48.4334 89.3229C48.4334 89.3229 49.7812 85.4256 49.9699 84.7756C50.1586 84.1255 49.9699 83.152 49.9699 83.152L50.1047 82.3111C50.1047 82.3111 50.3937 81.7386 50.3937 81.6238C50.4312 81.3328 50.5436 81.0565 50.7202 80.8217C50.9314 80.5727 50.4896 79.9808 50.4896 79.9808L50.8745 78.9878V77.898L51.773 73.944C51.773 73.944 52.715 69.3385 52.3885 67.8312C52.062 66.3239 52.7734 65.5576 52.7734 65.5576C52.7093 65.5911 52.6433 65.621 52.5757 65.647C52.6656 65.4401 52.7431 65.228 52.8078 65.0119L54.8295 65.2609V65.2907H55.5588C55.5588 65.2907 55.3282 62.4579 55.3282 61.3159C55.3282 60.1738 56.1054 56.0753 56.1054 56.0753C56.1054 56.0753 56.4514 52.0692 56.1054 51.9544ZM47.1306 48.6475C47.1306 48.7593 47.1201 48.8756 47.1126 48.9949L47.0722 49.056L46.9973 48.9934L46.9059 49.135L46.879 49.1484C46.6813 49.0471 46.5795 48.4671 46.4372 48.5923L46.4177 48.6087C46.3863 48.5729 46.3548 48.5625 46.3219 48.5923L46.2919 48.6177C46.2919 48.5744 46.2919 48.5297 46.2919 48.485C46.5659 48.5552 46.8477 48.5907 47.1306 48.5908C47.1321 48.6102 47.1306 48.6296 47.1306 48.6475ZM53.8546 61.8392H53.898L53.8262 62.027C53.8351 61.9644 53.8441 61.9033 53.8546 61.8392ZM46.4731 95.6489L46.1976 95.5803L46.3473 95.555L46.4866 95.6459L46.5031 95.6579L46.4731 95.6489ZM49.2885 95.2479C49.1972 95.2001 49.1043 95.145 49.0145 95.0883C49.0444 95.1047 49.1627 95.1659 49.2885 95.2479Z" fill="url(#paint1_linear)"/>
<path d="M54.849 59.0228L53.0355 63.7282H53.4757L51.77 65.0819L54.849 65.4636V59.0228Z" fill="#F86D70"/>
<path opacity="0.1" d="M54.849 59.0228L53.0355 63.7282L52.5787 63.6059L51.77 65.0819L54.849 65.4636V59.0228Z" fill="black"/>
<path d="M52.005 62.033H54.8489L55.8927 53.4825H52.005V62.033Z" fill="#F86D70"/>
<path opacity="0.1" d="M52.005 62.033H54.8489L55.8927 53.4825H52.005V62.033Z" fill="black"/>
<path d="M46.4505 55.5072L47.0645 55.4044L48.4752 55.1658C48.4752 55.1658 52.7119 54.2146 53.5864 54.1371C54.1162 54.0674 54.6329 53.9207 55.1199 53.7017C55.3491 53.6033 55.4943 53.5288 55.4943 53.5288L53.9683 50.7542L51.6007 49.0068C51.6007 49.0068 50.1031 48.6892 49.4696 47.8215C49.3283 47.6348 49.2362 47.4158 49.2019 47.1844C49.1677 46.9531 49.1923 46.717 49.2734 46.4976C49.6598 45.3048 46.9657 47.6381 46.9657 47.6381C46.9657 47.6381 46.9912 48.1972 46.9657 48.9099C46.9657 49.05 46.9522 49.1961 46.9417 49.3452C46.9417 49.4436 46.9283 49.542 46.9178 49.6434C46.8519 50.3516 46.7171 51.0807 46.4505 51.516C45.7991 52.5805 46.4505 55.5072 46.4505 55.5072Z" fill="#FBBEBE"/>
<path opacity="0.1" d="M46.9657 48.9695H47.0256C47.1334 48.9695 47.2203 48.7414 47.3251 48.731C48.1682 48.6505 48.938 48.4745 49.4726 47.8797C49.3316 47.6931 49.2398 47.4743 49.2055 47.2433C49.1713 47.0123 49.1956 46.7764 49.2764 46.5572C49.6628 45.3645 46.9687 47.6963 46.9687 47.6963C46.9687 47.6963 46.9971 48.2569 46.9657 48.9695Z" fill="black"/>
<path d="M43.686 45.5881C43.6858 46.0173 43.7706 46.4423 43.9355 46.8389C44.1004 47.2355 44.3422 47.5959 44.6471 47.8994C44.9519 48.2029 45.3139 48.4436 45.7122 48.6078C46.1106 48.772 46.5376 48.8564 46.9687 48.8562C47.0765 48.8562 47.1828 48.8562 47.2892 48.8413C47.9217 48.7795 48.5226 48.5362 49.0189 48.141C49.5153 47.7459 49.8857 47.2157 50.0853 46.615C50.2849 46.0142 50.305 45.3688 50.1432 44.7569C49.9814 44.145 49.6447 43.593 49.1739 43.1679C48.7031 42.7429 48.1185 42.463 47.4911 42.3623C46.8636 42.2616 46.2203 42.3444 45.6392 42.6007C45.0581 42.8569 44.5642 43.2756 44.2175 43.8059C43.8708 44.3362 43.6862 44.9553 43.686 45.5881Z" fill="#FBBEBE"/>
<path d="M42.6782 40.6278C42.5703 40.9051 42.6033 41.2152 42.5598 41.5089C42.3996 42.569 41.3169 43.2041 40.3375 43.6484C39.3581 44.0927 38.2529 44.619 37.9414 45.6433C37.5999 46.751 38.3457 47.8618 38.8639 48.9009C39.8732 50.9256 40.017 53.5079 38.7141 55.3596C37.5565 56.9997 35.5393 57.7779 33.6404 58.4608C34.5543 59.1766 35.6901 59.553 36.8526 59.5253C36.4168 60.7881 34.8669 61.207 33.546 61.4396C34.2394 62.1046 35.2323 62.3461 36.1832 62.4922C36.8766 62.5996 37.5879 62.6696 38.2798 62.531C38.9717 62.3923 39.6276 62.0181 39.984 61.4128C40.2836 60.8954 40.3854 60.1902 40.926 59.9293C41.17 59.8337 41.4329 59.7954 41.6943 59.8175L43.9406 59.8414C44.64 59.8414 45.4681 59.7877 45.829 59.1928C45.9621 58.9387 46.032 58.6564 46.0327 58.3698C46.13 56.9027 45.847 55.3522 46.4535 54.0133C46.6362 53.6093 45.4636 52.9697 45.5864 52.5418C46.0087 51.0702 46.1151 49.9118 46.1106 48.3806C46.1106 47.1953 46.8848 46.174 47.5243 45.1736C48.1637 44.1732 48.6983 42.9104 48.1937 41.8369C47.6246 40.6397 43.3506 38.8998 42.6782 40.6278Z" fill="#3F3D56"/>
<path d="M45.6688 95.2195L46.2409 95.5967L46.3292 95.6549L46.3457 95.6653L47.0241 96.1126L48.6085 96.378L50.0013 96.2825C50.0013 96.2825 50.4026 95.4476 49.7721 95.467C49.5702 95.4567 49.3734 95.4001 49.1971 95.3015L49.1102 95.2583C49.0189 95.2106 48.9275 95.1569 48.8377 95.1002C48.6505 94.9825 48.4738 94.8542 48.3315 94.7454C48.1218 94.5844 47.9825 94.4621 47.9825 94.4621L45.6688 95.2195Z" fill="#FBBEBE"/>
<path opacity="0.1" d="M46.2484 95.5967L46.3368 95.6549L46.3532 95.6653L47.0316 96.1126L48.6161 96.378L50.0088 96.2825C50.0088 96.2825 50.4101 95.4476 49.7797 95.467C49.5777 95.4567 49.3809 95.4001 49.2046 95.3015C49.3154 95.388 49.4083 95.4819 49.4173 95.5609C49.4427 95.7741 48.3869 96.1573 48.3869 96.1573L46.8984 95.7652C46.8984 95.7652 46.6453 95.6936 46.2993 95.6042L46.2664 95.5952L46.2484 95.5967Z" fill="black"/>
<path d="M43.7025 95.9606C43.7025 95.9606 44.923 96.2259 45.7437 96.1499C46.5644 96.0739 47.9781 96.7776 47.9781 96.7776C47.9781 96.7776 48.4558 97.0012 49.9249 97.0967C51.394 97.1921 51.394 96.4496 51.394 96.4496C51.2263 95.4402 48.905 95.1077 48.8332 95.0928C48.8616 95.1077 48.9829 95.1689 49.1057 95.2509C49.2705 95.3582 49.4487 95.4984 49.4621 95.6117C49.4876 95.8234 48.4318 96.2081 48.4318 96.2081L46.9432 95.8174C46.9432 95.8174 46.6902 95.7444 46.3442 95.6549H46.3113C45.7983 95.5158 45.2772 95.4088 44.7508 95.3344C44.1099 95.2658 43.7819 95.8085 43.7145 95.9307C43.7096 95.9403 43.7056 95.9503 43.7025 95.9606Z" fill="#3F3D56"/>
<path d="M24.4648 69.1491L25.1133 69.6441C25.1133 69.6441 25.302 69.6352 25.5835 69.6262H25.6734C26.0762 69.6113 26.6318 69.5964 27.1035 69.5964C27.4085 69.5827 27.714 69.5997 28.0156 69.6471C28.339 69.7604 28.9141 67.8043 28.9141 67.8043L28.2642 67.6552L28.0485 67.6045L27.8988 67.5688L27.3701 67.445L25.7677 67.6269L24.6416 68.3485L24.4648 69.1491Z" fill="#FBBEBE"/>
<path opacity="0.1" d="M24.4648 69.1491L25.1133 69.6441C25.1133 69.6441 25.302 69.6352 25.5835 69.6262C25.4543 69.5766 25.3478 69.4817 25.284 69.3594C24.8647 68.2009 26.9448 67.7059 26.9448 67.7059L27.9137 67.6642L28.1024 67.6552H28.2522L28.0365 67.6045L27.8868 67.5688L27.3581 67.445L25.7557 67.6269L24.6296 68.3485L24.4648 69.1491Z" fill="black"/>
<path d="M23.1858 69.6725C23.5782 70.0333 26.148 69.6725 26.2558 69.6636C26.0608 69.6854 25.8634 69.6718 25.6733 69.6233C25.5791 69.6065 25.4899 69.569 25.4122 69.5136C25.3345 69.4581 25.2702 69.3861 25.224 69.3028C24.8047 68.1428 26.8848 67.6493 26.8848 67.6493L27.8537 67.6076L28.0409 67.5986L30.3966 67.4972L30.5104 66.8517C30.5104 66.8517 29.7451 66.9232 28.5441 67.0187C27.8687 67.0738 27.0465 67.135 26.1585 67.1931C23.677 67.3571 23.087 68.9598 23.087 68.9598C23.087 68.9598 22.7859 69.3028 23.1858 69.6725Z" fill="#3F3D56"/>
<path d="M52.0066 41.6878C52.0225 41.7232 52.0416 41.7571 52.0635 41.7892L52.6356 42.6241L54.1241 42.7732L54.1406 42.1858L54.3907 33.3476C54.3907 33.3476 55.421 27.4197 53.4742 27.7611C51.5274 28.1025 52.7494 33.3476 52.7494 33.3476C52.7494 33.3476 52.5277 36.0074 52.372 36.8065C52.2207 37.5788 51.5423 40.7187 52.0066 41.6878Z" fill="#FBBEBE"/>
<path d="M48.6654 63.6402L49.0892 64.3618L50.0372 65.9765C50.0372 65.9765 51.7564 66.6041 52.1967 66.1256C52.4378 65.8646 52.6983 64.9537 52.881 64.1874C53.0308 63.5671 53.1311 63.0438 53.1311 63.0438L48.6654 63.6402Z" fill="#FBBEBE"/>
<path opacity="0.1" d="M48.6654 63.6402L49.0892 64.3618C49.1158 64.339 49.1399 64.3136 49.1611 64.2858C49.6403 63.6775 51.7504 64.1561 52.881 64.1948C53.0308 63.5746 53.1311 63.0513 53.1311 63.0513L48.6654 63.6402Z" fill="black"/>
<path opacity="0.1" d="M27.1035 69.5935C27.4085 69.5798 27.714 69.5968 28.0155 69.6442C28.339 69.7575 28.9141 67.8014 28.9141 67.8014L28.0485 67.5986L30.4041 67.4972L30.518 66.8517C30.518 66.8517 29.7527 66.9232 28.5517 67.0187C28.3035 67.1609 28.082 67.3451 27.8972 67.5629L27.8613 67.6076C27.3596 68.2203 27.1739 69.0105 27.1035 69.5935Z" fill="black"/>
<path opacity="0.1" d="M45.6688 95.2195L46.3292 95.6549C47.3146 95.4774 48.2147 95.1986 48.321 94.7603C48.3215 94.7534 48.3215 94.7464 48.321 94.7395C48.1113 94.5784 47.9721 94.4562 47.9721 94.4562L45.6688 95.2195Z" fill="black"/>
<path opacity="0.1" d="M43.7161 95.9352C44.5863 95.8921 45.4533 95.7995 46.3128 95.6579C45.7995 95.5177 45.2778 95.4097 44.7509 95.3343C44.1114 95.2658 43.7835 95.8085 43.7161 95.9352Z" fill="black"/>
<path d="M27.1754 70.3464C27.1754 70.822 28.4918 71.1261 28.4918 71.1261L32.5007 74.679C32.5007 74.679 35.0196 75.8002 36.622 77.4148C38.2244 79.0295 39.6381 77.6429 39.6381 77.6429C41.3364 77.2255 46.2274 71.3348 46.2274 71.3348C46.2274 71.3348 46.3412 78.0619 46.5703 78.5554C46.7995 79.0489 46.494 80.3982 46.3607 80.9692C46.2766 81.4454 46.2445 81.9293 46.2648 82.4124C46.2648 82.4124 44.4333 89.3855 44.5861 89.9938C44.7388 90.6021 43.5932 93.4527 43.5932 93.4527V95.8278C43.5932 95.8278 48.0784 95.6563 48.3255 94.6499C48.5726 93.6436 47.2008 93.2052 47.2008 93.2052V92.9577C48.0994 92.5015 48.2686 89.3676 48.2686 89.3676C48.2686 89.3676 49.6059 85.4912 49.7961 84.8456C49.9863 84.2 49.7961 83.2294 49.7961 83.2294L49.9294 82.3945C49.9294 82.3945 50.2154 81.8235 50.2154 81.7102C50.2528 81.4209 50.3647 81.1461 50.5404 80.9126C50.75 80.6651 50.3113 80.0761 50.3113 80.0761L50.6931 79.0877V78.0052L51.5917 74.0722C51.5917 74.0722 52.5276 69.4921 52.2027 67.9907C51.8777 66.4893 52.5846 65.7305 52.5846 65.7305C51.0525 66.5296 50.2798 64.7509 50.0267 63.9861C49.9623 63.7893 49.9309 63.6581 49.9309 63.6581C49.9309 63.6581 47.8268 62.8858 45.868 63.0706C45.4702 63.1027 45.0781 63.1854 44.7014 63.3166C42.5254 64.0964 42.1825 67.3257 42.1825 67.3257L40.2551 70.2524C39.2622 72.8556 37.7737 73.121 37.7737 73.121C37.7737 73.121 34.2814 70.7847 34.1795 70.6699C34.0777 70.5551 32.7478 69.9856 32.7478 69.9856C32.5906 69.71 32.3501 69.4909 32.0605 69.3594C31.6022 69.1685 31.5648 68.4648 31.5648 68.4648C31.5079 66.8114 30.5345 66.6757 30.5345 66.6757C27.156 66.3954 27.1754 69.8722 27.1754 70.3464Z" fill="#3F3D56"/>
<path d="M46.6048 61.0564H48.6654V54.6916H46.6048V61.0564Z" fill="#F86D70"/>
<path opacity="0.1" d="M46.6048 61.0564H48.6654V54.6916H46.6048V61.0564Z" fill="black"/>
<path opacity="0.1" d="M52.005 41.6744C52.0047 41.6789 52.0047 41.6834 52.005 41.6878C52.0209 41.7232 52.04 41.7571 52.0619 41.7892L52.634 42.6241L54.1226 42.7732L54.139 42.1858C53.6748 42.15 52.6175 42.0233 52.005 41.6744Z" fill="black"/>
<path d="M52.0633 41.7892C52.0633 41.7892 52.1397 45.1318 51.2995 45.5881C50.4594 46.0443 50.1329 48.4208 50.1329 48.4208C50.1329 48.4208 52.6788 50.0877 53.2464 50.8212C53.8139 51.5548 55.1168 53.3021 54.8488 53.7196C54.5807 54.137 55.4987 56.038 55.4987 56.038C55.4987 56.038 53.8184 59.4582 54.2003 60.7508C54.5822 62.0434 54.6196 65.4621 54.6196 65.4621H55.346C55.346 65.4621 55.1168 62.6502 55.1168 61.5097C55.1168 60.3691 55.8791 56.3034 55.8791 56.3034C55.8791 56.3034 56.2235 52.3136 55.8791 52.2003C55.5346 52.087 53.5129 50.4902 53.3602 49.7671C53.2074 49.044 54.4294 42.3125 54.4294 42.3125C54.4294 42.3125 52.8645 42.2454 52.0633 41.7892Z" fill="#F86D70"/>
<path opacity="0.1" d="M46.5659 54.1013C46.6356 54.5664 46.8057 55.011 47.0646 55.4043L48.4753 55.1658C48.4753 55.1658 52.7119 54.2146 53.5865 54.137C54.1163 54.0674 54.633 53.9207 55.12 53.7017C54.7843 52.5175 54.1291 51.4475 53.2256 50.608L52.688 50.1115C51.8957 49.3793 50.9775 48.7949 49.9774 48.3865C50.0403 48.4387 54.485 52.2167 53.5116 52.9577C52.5382 53.6987 49.9175 51.8947 49.9175 51.8947L46.9373 49.3452L46.8295 49.2528L46.6573 49.5196C46.7449 49.5555 46.8304 49.5963 46.9134 49.6419C47.929 50.1969 48.6828 51.1296 49.0099 52.2361C49.6224 54.2861 46.5659 54.1013 46.5659 54.1013Z" fill="black"/>
<path d="M45.6494 63.6014C45.6494 63.6014 48.4738 65.1595 49.1597 64.2858C49.3094 64.0934 49.6254 64.01 50.0193 63.9876C49.9549 63.7908 49.9234 63.6596 49.9234 63.6596C49.9234 63.6596 47.8194 62.8873 45.8606 63.0722C45.7318 63.3942 45.6494 63.6014 45.6494 63.6014Z" fill="#444053"/>
<path d="M46.9493 49.2557L50.0373 51.9006C50.0373 51.9006 52.6475 53.7106 53.6314 52.9637C54.6153 52.2167 50.0957 48.391 50.0957 48.391C51.0937 48.8006 52.0109 49.3832 52.8048 50.1115L53.3424 50.608C54.7561 51.9126 55.0751 51.9126 55.123 53.8299C55.135 54.3025 54.9732 54.9809 54.8489 55.1031C54.3907 55.5504 54.0702 58.7991 54.1406 59.1793C54.211 59.5595 53.287 62.841 53.5865 63.7535C53.886 64.6659 49.8426 63.2973 49.1582 64.1724C48.4738 65.0476 45.6494 63.4881 45.6494 63.4881C45.6494 63.4881 47.2144 59.4969 47.5962 59.2315C47.9781 58.9661 48.4364 56.9131 47.5962 55.9634C46.7561 55.0137 46.6812 54.1012 46.6812 54.1012C46.6812 54.1012 49.7363 54.2891 49.1238 52.2391C48.9514 51.6449 48.6525 51.0946 48.2473 50.6259C47.8421 50.1571 47.3401 49.7808 46.7756 49.5226L46.9493 49.2557Z" fill="#E8E8F0"/>
<path opacity="0.1" d="M51.0706 55.9828C51.0706 55.9828 49.886 58.2058 48.354 58.7828C48.3046 58.8006 48.2567 58.817 48.2043 58.832C46.6049 59.3165 51.1904 56.6716 51.0706 55.9828Z" fill="black"/>
<path d="M34.5045 36.316C34.5045 36.316 35.0766 37.7607 35.5348 38.2542C35.9931 38.7477 39.3896 43.6886 39.3896 43.6886L39.6771 44.285L39.9242 44.7934L42.1001 44.5653L42.2499 43.6916L42.166 43.5902C41.9474 43.3293 41.3514 42.6286 40.9515 42.3229C40.4558 41.9443 39.4629 40.6904 39.4629 40.6904C39.4629 40.6904 36.372 37.4968 36.1428 36.6231C35.9137 35.7494 32.8213 30.5103 32.1354 31.4168C31.4495 32.3233 34.5045 36.316 34.5045 36.316Z" fill="#FBBEBE"/>
<g opacity="0.1">
<path opacity="0.1" d="M40.8181 59.8175C40.5569 59.795 40.294 59.8328 40.0499 59.9278C39.5108 60.1888 39.4089 60.894 39.1094 61.4113C38.759 62.0166 38.0911 62.3908 37.4037 62.5295C37.2671 62.5559 37.1291 62.5748 36.9904 62.5861C37.4282 62.6286 37.8698 62.6095 38.3022 62.5295C38.9896 62.3908 39.6575 62.0166 40.0079 61.4113C40.3075 60.894 40.4093 60.1888 40.9484 59.9278C41.09 59.8644 41.2425 59.829 41.3977 59.8235L40.8181 59.8175Z" fill="black"/>
<path opacity="0.1" d="M46.1376 48.3806C46.1376 47.1953 46.9118 46.174 47.5498 45.1736C48.1877 44.1732 48.7239 42.9104 48.2192 41.8369C47.7879 40.92 45.1881 39.69 43.6876 39.933C45.1567 40.1223 46.9672 41.0855 47.3206 41.8369C47.8253 42.9104 47.2892 44.1732 46.6512 45.1736C46.0133 46.174 45.236 47.1953 45.239 48.3806C45.239 49.9103 45.1357 51.0642 44.7134 52.5417C44.5921 52.9667 45.7617 53.6092 45.582 54.0118C44.974 55.3536 45.2585 56.9012 45.1612 58.3683C45.1591 58.6549 45.0888 58.937 44.956 59.1913C44.6565 59.6818 44.0425 59.8085 43.4449 59.8353H43.9676C44.6655 59.8353 45.4936 59.7817 45.8545 59.1868C45.9874 58.9325 46.0577 58.6504 46.0597 58.3638C46.157 56.8967 45.8725 55.3477 46.4805 54.0073C46.6632 53.6048 45.4906 52.9637 45.6119 52.5373C46.0342 51.0702 46.1406 49.9103 46.1376 48.3806Z" fill="black"/>
</g>
<path opacity="0.1" d="M39.677 44.2821L39.9241 44.7905L42.1001 44.5624L42.2498 43.6887L42.166 43.5873C41.9338 43.7007 40.1952 44.5341 39.677 44.2821Z" fill="black"/>
<path opacity="0.1" d="M47.7115 49.9968C47.7115 49.9968 47.1769 49.1618 46.8714 49.3885C46.5659 49.6151 46.4476 48.7041 46.2724 48.8562C46.0971 49.0083 45.5865 49.4317 45.3738 48.8398C45.2076 48.3687 43.3985 45.3883 42.6647 44.1896C42.476 43.8795 42.3577 43.6887 42.3577 43.6887C42.3577 43.6887 40.2971 44.7144 39.8014 44.373V45.0946L40.2207 45.1334L42.4671 49.308C42.4671 49.308 43.1739 50.4276 43.126 50.8183C43.0781 51.2089 44.032 52.919 44.1848 53.0323C44.3375 53.1456 45.9818 55.0465 45.9818 55.0465C45.9818 55.0465 46.822 59.1511 46.0956 60.2916C45.3693 61.4322 44.1114 62.2671 44.1114 62.2671C44.1114 62.2671 43.7325 63.3689 43.7879 63.4837C43.8433 63.5985 43.3476 64.092 43.5767 64.244C43.8059 64.3961 44.1114 65.4592 44.1114 65.4592C44.1114 65.4592 45.1806 63.7491 45.7587 63.4837C46.3368 63.2183 47.0765 59.7206 47.0765 59.7206C47.0765 59.7206 47.2877 57.6601 47.3042 56.3302C47.3206 55.0003 47.2533 49.9968 47.7115 49.9968Z" fill="black"/>
<path d="M47.5963 49.9968C47.5963 49.9968 47.0631 49.1618 46.7576 49.3885C46.4521 49.6151 46.3323 48.7041 46.1586 48.8562C45.9849 49.0083 45.4742 49.4317 45.2601 48.8398C45.0923 48.3687 43.2833 45.3883 42.551 44.1896L42.244 43.6887C42.244 43.6887 40.1833 44.7144 39.6862 44.373V45.0946L40.107 45.1334L42.3533 49.308C42.3533 49.308 43.0617 50.4276 43.0122 50.8183C42.9628 51.2089 43.9108 52.919 44.071 53.0323C44.2313 53.1456 45.8681 55.0465 45.8681 55.0465C45.8681 55.0465 46.7082 59.1511 45.9834 60.2916C45.6005 60.8645 45.1347 61.3779 44.6012 61.8153C44.153 62.1834 43.8375 62.687 43.7026 63.2496C43.6766 63.3263 43.6674 63.4076 43.6757 63.4881C43.7311 63.6015 43.2354 64.0965 43.4645 64.2485C43.6936 64.4006 44.0021 65.4681 44.0021 65.4681C44.0021 65.4681 45.0714 63.758 45.6494 63.4926C46.2275 63.2272 46.9688 59.7295 46.9688 59.7295C46.9688 59.7295 47.1784 57.6691 47.1964 56.3392C47.2144 55.0093 47.147 49.9968 47.5963 49.9968Z" fill="#F86D70"/>
<path opacity="0.1" d="M42.3667 67.2885C42.3667 67.2885 43.9706 67.5867 44.613 68.0474C45.2555 68.5081 42.1705 67.3258 42.1705 67.3258L42.3667 67.2885Z" fill="black"/>
<path opacity="0.1" d="M46.2229 71.3348C46.2229 71.3348 47.8957 72.7229 47.5962 73.9768C47.2967 75.2306 46.5239 78.3854 46.5239 78.3854L46.2229 71.3348Z" fill="black"/>
<path opacity="0.1" d="M31.5934 68.6661C31.5934 68.6661 29.2362 68.9226 29.389 69.2267C29.5417 69.5309 31.5934 68.9464 31.5934 68.9464V68.6661Z" fill="black"/>
<path opacity="0.1" d="M49.6927 80.2089C49.6927 80.2089 49.8425 80.3983 48.9679 80.2089C48.0933 80.0196 48.7388 79.4351 48.7388 79.4351L49.6927 80.2089Z" fill="black"/>
<path opacity="0.1" d="M49.3933 82.8314C49.3933 82.8314 48.1953 83.0207 47.5528 82.8314C46.9104 82.6421 49.3933 82.8314 49.3933 82.8314Z" fill="black"/>
<path opacity="0.1" d="M46.9284 93.0919C46.9284 93.0919 46.7188 92.8638 45.669 93.2813C44.6192 93.6987 44.1999 93.7181 43.8944 93.5795C43.5889 93.4408 46.9284 93.0919 46.9284 93.0919Z" fill="black"/>
<path opacity="0.1" d="M48.0934 68.3426L46.6049 70.4045C46.6049 70.4045 47.4061 68.599 48.0934 68.3426Z" fill="black"/>
<path opacity="0.1" d="M45.2001 49.3884C45.2001 49.3884 45.1357 50.0728 44.1757 50.3396C43.2158 50.6065 43.0331 50.8227 43.0331 50.8227" fill="black"/>
<path opacity="0.1" d="M42.7051 44.4282C42.7051 44.4282 41.4382 45.3227 40.1158 45.1334L42.7051 44.4282Z" fill="black"/>
<path opacity="0.1" d="M43.6696 63.5821C43.6696 63.5821 44.0394 63.8132 44.9275 62.8023L43.6696 63.5821Z" fill="black"/>
<path opacity="0.1" d="M52.8932 52.8638C52.9291 52.679 52.8004 52.5075 52.679 52.3629L52.4305 52.0647C52.3819 52.0037 52.3272 51.9477 52.2672 51.8977C52.1175 51.7829 51.9258 51.7486 51.77 51.6458" fill="black"/>
<path opacity="0.1" d="M133.3 0.888629C133.3 0.888629 120.692 0.13124 122.175 8.9277C122.175 8.9277 121.875 10.4827 123.295 11.1879C123.295 11.1879 123.317 10.5364 124.589 10.7586C125.042 10.8333 125.501 10.8553 125.959 10.8242C126.578 10.7816 127.165 10.5399 127.633 10.1354C127.633 10.1354 131.178 8.67723 132.556 2.91033C132.556 2.91033 133.576 1.65198 133.535 1.32845L131.407 2.23344C131.407 2.23344 132.135 3.76164 131.557 5.03191C131.557 5.03191 131.488 2.28861 131.079 2.34825C130.997 2.36166 129.974 2.87753 129.974 2.87753C129.974 2.87753 131.225 5.53883 130.281 7.47405C130.281 7.47405 130.639 4.19401 129.583 3.06985L128.086 3.94056C128.086 3.94056 129.547 6.68982 128.556 8.93367C128.556 8.93367 128.81 5.49261 127.77 4.15227L126.413 5.20635C126.413 5.20635 127.786 7.91686 126.949 9.77753C126.949 9.77753 126.84 5.77141 126.119 5.46876C126.119 5.46876 124.932 6.5124 124.751 6.93881C124.751 6.93881 125.691 8.90683 125.107 9.94451C125.107 9.94451 124.749 7.27576 124.456 7.26085C124.456 7.26085 123.273 9.02909 123.15 10.2427C123.15 10.2427 123.201 8.44017 124.17 7.09386C124.17 7.09386 123.025 7.28918 122.357 8.02718C122.357 8.02718 122.542 6.77779 124.462 6.66895C124.462 6.66895 125.439 5.32712 125.7 5.24512C125.7 5.24512 123.792 5.08708 122.635 5.59697C122.635 5.59697 123.653 4.41765 126.05 4.95438L127.391 3.86452C127.391 3.86452 124.878 3.5231 123.812 3.9003C123.812 3.9003 125.038 2.85665 127.752 3.61702L129.21 2.74931C129.21 2.74931 127.067 2.2901 125.791 2.45112C125.791 2.45112 127.139 1.72802 129.639 2.51225L130.687 2.04559C130.687 2.04559 129.117 1.73846 128.658 1.68926C128.198 1.64006 128.174 1.51482 128.174 1.51482C129.168 1.34975 130.189 1.46279 131.123 1.84133C131.123 1.84133 133.339 1.02729 133.3 0.888629Z" fill="#535461"/>
<path opacity="0.1" d="M117.75 3.12647C117.75 3.12647 112.059 2.78356 112.725 6.75837C112.725 6.75837 112.592 7.46209 113.23 7.78115C113.23 7.78115 113.24 7.48296 113.815 7.58584C114.02 7.62006 114.227 7.63007 114.434 7.61565C114.713 7.59674 114.979 7.48731 115.19 7.30405C115.19 7.30405 116.793 6.64655 117.416 4.04041C117.416 4.04041 117.875 3.47088 117.857 3.32477L116.896 3.73328C116.896 3.73328 117.225 4.42507 116.966 4.99908C116.966 4.99908 116.935 3.75863 116.751 3.78845C116.713 3.78845 116.25 4.02699 116.25 4.02699C116.25 4.02699 116.817 5.23017 116.39 6.10534C116.39 6.10534 116.551 4.62337 116.074 4.11496L115.397 4.50856C115.397 4.50856 116.059 5.7505 115.609 6.76433C115.609 6.76433 115.725 5.2093 115.255 4.60398L114.642 5.08555C114.642 5.08555 115.262 6.31109 114.885 7.15049C114.885 7.15049 114.835 5.3405 114.509 5.20483C114.509 5.20483 113.973 5.67596 113.89 5.86978C113.89 5.86978 114.316 6.76433 114.052 7.22652C114.052 7.22652 113.89 6.02036 113.753 6.01589C113.753 6.01589 113.219 6.81503 113.162 7.35772C113.189 6.85124 113.348 6.36047 113.624 5.93389C113.315 5.99207 113.03 6.13872 112.805 6.35582C112.805 6.35582 112.888 5.79225 113.755 5.74156C113.755 5.74156 114.205 5.13624 114.316 5.09897C114.316 5.09897 113.453 5.02741 112.93 5.2585C112.93 5.2585 113.39 4.72475 114.474 4.96031L115.073 4.46831C115.073 4.46831 113.938 4.31922 113.456 4.48471C113.456 4.48471 114.01 4.01358 115.237 4.35649L115.896 3.96437C115.896 3.96437 114.928 3.75564 114.35 3.83168C114.35 3.83168 114.96 3.50368 116.089 3.85852L116.56 3.6483C116.56 3.6483 115.851 3.50815 115.642 3.48728C115.434 3.46641 115.424 3.40826 115.424 3.40826C115.873 3.3338 116.335 3.38543 116.757 3.55735C116.757 3.55735 117.767 3.18909 117.75 3.12647Z" fill="#535461"/>
<path d="M137.628 97.8957C140.954 97.8957 143.65 97.4418 143.65 96.8819C143.65 96.322 140.954 95.868 137.628 95.868C134.302 95.868 131.606 96.322 131.606 96.8819C131.606 97.4418 134.302 97.8957 137.628 97.8957Z" fill="#535461"/>
<path d="M140.119 95.224C140.394 95.001 140.594 94.6999 140.692 94.3607C140.767 94.0193 140.62 93.6153 140.291 93.4826C139.922 93.3424 139.529 93.5974 139.231 93.8538C138.933 94.1103 138.59 94.404 138.2 94.3488C138.401 94.1673 138.551 93.9373 138.636 93.681C138.721 93.4248 138.738 93.151 138.685 92.8862C138.668 92.7765 138.622 92.6735 138.551 92.588C138.346 92.3703 137.976 92.4628 137.73 92.6342C136.951 93.1799 136.734 94.234 136.73 95.1807C136.652 94.8393 136.718 94.483 136.716 94.1371C136.715 93.7912 136.617 93.3916 136.319 93.2082C136.136 93.1098 135.929 93.0615 135.72 93.0681C135.371 93.0547 134.98 93.0905 134.742 93.3454C134.443 93.6615 134.522 94.1922 134.78 94.5381C135.037 94.884 135.431 95.1062 135.794 95.3462C136.084 95.5183 136.331 95.7532 136.517 96.0335C136.539 96.0727 136.558 96.1142 136.571 96.1573H138.766C139.257 95.9084 139.712 95.5944 140.119 95.224Z" fill="#535461"/>
</g>
<defs>
<linearGradient id="paint0_linear" x1="121.502" y1="76.1535" x2="121.502" y2="16.1736" gradientUnits="userSpaceOnUse">
<stop stop-color="#808080" stop-opacity="0.25"/>
<stop offset="0.54" stop-color="#808080" stop-opacity="0.12"/>
<stop offset="1" stop-color="#808080" stop-opacity="0.1"/>
</linearGradient>
<linearGradient id="paint1_linear" x1="5968.42" y1="37361.2" x2="13365.1" y2="37361.2" gradientUnits="userSpaceOnUse">
<stop stop-color="#808080" stop-opacity="0.25"/>
<stop offset="0.54" stop-color="#808080" stop-opacity="0.12"/>
<stop offset="1" stop-color="#808080" stop-opacity="0.1"/>
</linearGradient>
<clipPath id="clip0">
<rect width="171.321" height="97.2859" fill="white" transform="translate(0.422974 0.872131)"/>
</clipPath>
</defs>
</svg>
