<svg width="125" height="88" viewBox="0 0 125 88" fill="none" xmlns="http://www.w3.org/2000/svg">
<path d="M58.276 9.04438C59.6548 9.04438 60.7725 7.92667 60.7725 6.5479C60.7725 5.16913 59.6548 4.05142 58.276 4.05142C56.8973 4.05142 55.7795 5.16913 55.7795 6.5479C55.7795 7.92667 56.8973 9.04438 58.276 9.04438Z" fill="#FFD037"/>
<path d="M58.0436 7.61783C57.9881 7.61794 57.934 7.59746 57.8896 7.55949L57.8869 7.55714L57.307 7.05132C57.2801 7.02785 57.2576 6.99857 57.2406 6.96516C57.2237 6.93175 57.2127 6.89486 57.2083 6.85661C57.2038 6.81835 57.2061 6.77947 57.2148 6.7422C57.2235 6.70492 57.2386 6.66997 57.2592 6.63935C57.2798 6.60872 57.3055 6.58302 57.3348 6.56371C57.3641 6.54441 57.3965 6.53187 57.43 6.52681C57.4636 6.52176 57.4977 6.52429 57.5303 6.53426C57.563 6.54423 57.5937 6.56145 57.6206 6.58493L57.9962 6.91335L58.8838 5.59301C58.9043 5.5624 58.93 5.53671 58.9593 5.51741C58.9886 5.49811 59.0209 5.48558 59.0545 5.48053C59.088 5.47548 59.1221 5.478 59.1548 5.48797C59.1874 5.49794 59.2181 5.51515 59.2449 5.53862L59.245 5.53868L59.2395 5.5474L59.2451 5.53868C59.2993 5.58615 59.3347 5.65617 59.3437 5.73339C59.3526 5.81061 59.3343 5.88872 59.2928 5.95057L58.2488 7.50289C58.2246 7.53865 58.1936 7.5676 58.158 7.58747C58.1225 7.60734 58.0834 7.61761 58.0438 7.61748L58.0436 7.61783Z" fill="white"/>
<path d="M58.276 27.5896C59.6548 27.5896 60.7725 26.4719 60.7725 25.0932C60.7725 23.7144 59.6548 22.5967 58.276 22.5967C56.8973 22.5967 55.7795 23.7144 55.7795 25.0932C55.7795 26.4719 56.8973 27.5896 58.276 27.5896Z" fill="#FFD037"/>
<path d="M58.0436 26.1631C57.9881 26.1632 57.934 26.1427 57.8896 26.1047L57.8869 26.1024L57.307 25.5966C57.2801 25.5731 57.2576 25.5438 57.2406 25.5104C57.2237 25.477 57.2127 25.4401 57.2083 25.4018C57.2038 25.3636 57.2061 25.3247 57.2148 25.2874C57.2235 25.2501 57.2386 25.2152 57.2592 25.1846C57.2798 25.154 57.3055 25.1282 57.3348 25.1089C57.3641 25.0896 57.3965 25.0771 57.43 25.072C57.4636 25.067 57.4977 25.0695 57.5303 25.0795C57.563 25.0895 57.5937 25.1067 57.6206 25.1302L57.9962 25.4586L58.8838 24.1382C58.9043 24.1076 58.93 24.0819 58.9593 24.0626C58.9886 24.0433 59.0209 24.0308 59.0545 24.0258C59.088 24.0207 59.1221 24.0232 59.1548 24.0332C59.1874 24.0432 59.2181 24.0604 59.2449 24.0838L59.245 24.0839L59.2395 24.0926L59.2451 24.0839C59.2993 24.1314 59.3347 24.2014 59.3437 24.2786C59.3526 24.3558 59.3343 24.4339 59.2928 24.4958L58.2488 26.0481C58.2246 26.0839 58.1936 26.1128 58.158 26.1327C58.1225 26.1526 58.0834 26.1628 58.0438 26.1627L58.0436 26.1631Z" fill="white"/>
<path d="M50.4298 53.2677C51.8086 53.2677 52.9263 52.15 52.9263 50.7712C52.9263 49.3924 51.8086 48.2747 50.4298 48.2747C49.0511 48.2747 47.9333 49.3924 47.9333 50.7712C47.9333 52.15 49.0511 53.2677 50.4298 53.2677Z" fill="#FFD037"/>
<path d="M50.1975 51.8411C50.142 51.8412 50.088 51.8208 50.0435 51.7828L50.0408 51.7804L49.4609 51.2746C49.434 51.2511 49.4115 51.2219 49.3946 51.1885C49.3776 51.155 49.3666 51.1182 49.3622 51.0799C49.3578 51.0416 49.36 51.0028 49.3687 50.9655C49.3775 50.9282 49.3926 50.8933 49.4132 50.8626C49.4338 50.832 49.4594 50.8063 49.4887 50.787C49.518 50.7677 49.5504 50.7552 49.5839 50.7501C49.6175 50.7451 49.6516 50.7476 49.6843 50.7576C49.717 50.7675 49.7476 50.7847 49.7745 50.8082L50.1501 51.1367L51.0377 49.8163C51.0583 49.7857 51.0839 49.76 51.1132 49.7407C51.1425 49.7214 51.1749 49.7089 51.2084 49.7038C51.2419 49.6988 51.276 49.7013 51.3087 49.7113C51.3414 49.7212 51.372 49.7384 51.3988 49.7619L51.3989 49.762L51.3934 49.7707L51.3991 49.762C51.4532 49.8094 51.4887 49.8795 51.4976 49.9567C51.5065 50.0339 51.4882 50.112 51.4467 50.1739L50.4027 51.7262C50.3786 51.762 50.3475 51.7909 50.312 51.8108C50.2764 51.8306 50.2373 51.8409 50.1977 51.8408L50.1975 51.8411Z" fill="white"/>
<path d="M49.6513 54.2241C49.6609 53.9955 49.6168 53.7676 49.5221 53.5567C49.4274 53.3457 49.2844 53.1568 49.1032 53.0031C48.922 52.8494 48.707 52.7348 48.4734 52.6673C48.2397 52.5998 47.9931 52.5811 47.7509 52.6124L45.0517 47.657L43.5265 50.1704L46.3235 54.4908C46.4068 54.8681 46.635 55.2037 46.965 55.434C47.295 55.6643 47.7038 55.7734 48.114 55.7405C48.5242 55.7077 48.9073 55.5351 49.1906 55.2556C49.4739 54.9761 49.6379 54.6091 49.6513 54.2241L49.6513 54.2241Z" fill="#FFB7B7"/>
<path d="M37.0671 85.4276L39.1854 85.4275L40.1931 77.7822L37.0668 77.7823L37.0671 85.4276Z" fill="#FFB7B7"/>
<path d="M36.5269 87.3489L43.3572 87.3487V87.2679C43.3571 86.6081 43.077 85.9754 42.5785 85.5089C42.0799 85.0424 41.4037 84.7803 40.6986 84.7803H40.6985L36.5268 84.7804L36.5269 87.3489Z" fill="#2F2E41"/>
<path d="M25.5839 85.4276L27.7022 85.4275L28.71 77.7822L25.5836 77.7823L25.5839 85.4276Z" fill="#FFB7B7"/>
<path d="M25.0436 87.3489L31.8739 87.3487V87.2679C31.8739 86.6081 31.5937 85.9754 31.0952 85.5089C30.5966 85.0424 29.9204 84.7803 29.2154 84.7803H29.2152L25.0435 84.7804L25.0436 87.3489Z" fill="#2F2E41"/>
<path d="M46.3977 49.9113L47.3224 51.3535C47.3224 51.3535 45.7812 51.3535 45.4729 53.5167L44.2399 52.0746L46.3977 49.9113Z" fill="#E5E5E5"/>
<path d="M30.2146 46.8828C30.2146 46.8828 27.7487 52.9399 27.2863 56.6895C26.8239 60.4391 26.0533 70.39 26.0533 70.39L24.5121 83.2252L28.8275 83.8021L30.677 70.8227L34.8383 57.9874L35.763 70.8227L36.5336 82.5041L40.5408 82.6484L40.8491 70.5342L42.5444 55.1031L41.6197 47.7481L30.2146 46.8828Z" fill="#2F2E41"/>
<path d="M37.1504 28.5836C35.0224 28.5836 33.2973 26.9694 33.2973 24.9782C33.2973 22.987 35.0224 21.3728 37.1504 21.3728C39.2783 21.3728 41.0034 22.987 41.0034 24.9782C41.0034 26.9694 39.2783 28.5836 37.1504 28.5836Z" fill="#FFB7B7"/>
<path d="M33.2201 28.4954L31.6788 29.5047L29.6752 48.3971L42.1592 48.6855L40.4638 35.5619L38.9226 31.8123L37.8101 30.436L33.2201 28.4954Z" fill="#E5E5E5"/>
<path d="M32.9119 42.0516L32.4403 29.0061C32.4403 29.0061 31.5248 29.0722 31.2165 29.5048C30.9083 29.9375 25.8222 30.8028 25.8222 30.8028L26.747 44.2149C26.747 44.2149 22.8939 54.8868 24.281 55.4637C25.6681 56.0406 28.1341 55.8963 28.1341 55.8963L32.9119 42.0516Z" fill="#2F2E41"/>
<path d="M40.3869 40.3931L38.7519 31.601L42.3905 33.9034L41.4658 40.2489L42.2364 44.5754C42.2364 44.5754 45.1647 56.5453 44.24 56.978C43.3152 57.4106 42.2364 56.978 42.2364 56.978L40.3869 44.8638V40.3931Z" fill="#2F2E41"/>
<path d="M41.3116 33.6151L42.3905 33.9035L42.8528 39.6722L43.6235 44.7197L47.3224 50.921C47.3224 50.921 45.4729 49.7673 44.7023 53.0842L40.6287 46.4478L41.3116 33.6151Z" fill="#2F2E41"/>
<path d="M33.9246 21.5432L33.198 21.271C33.198 21.271 34.7172 19.706 36.8309 19.8421L36.2364 19.2296C36.2364 19.2296 37.6896 18.6853 39.0106 20.1142C39.7051 20.8654 40.5086 21.7484 41.0095 22.743H41.7876L41.4628 23.4122L42.5995 24.0813L41.4328 23.9611C41.5023 24.3275 41.513 24.7016 41.4645 25.0709C41.4144 25.4404 41.2129 25.7772 40.9025 26.0103C40.9025 26.0103 40.0014 24.2651 40.0014 23.9929V24.6733C40.0014 24.6733 39.2748 24.0609 39.2748 23.6526L38.8785 24.129L38.6804 23.3804L36.2364 24.129L36.6327 23.5165L35.1135 23.7207L35.708 22.9722L33.3558 26.063C33.3558 26.063 32.009 22.5639 33.9246 21.5432Z" fill="#2F2E41"/>
<path d="M32.9281 53.0414C32.8901 52.8154 32.7995 52.5999 32.6629 52.4102C32.5262 52.2205 32.3467 52.0611 32.1371 51.9433C31.9275 51.8254 31.6928 51.752 31.4496 51.7283C31.2064 51.7045 30.9606 51.7309 30.7295 51.8056L27.0535 47.4348L26.0788 50.1774L29.7189 53.9075C29.8789 54.2625 30.1724 54.5503 30.5439 54.7163C30.9154 54.8823 31.3391 54.915 31.7346 54.8083C32.1302 54.7015 32.4702 54.4627 32.6902 54.137C32.9101 53.8114 32.9948 53.4216 32.9281 53.0414V53.0414Z" fill="#FFB7B7"/>
<path d="M26.6699 51.4978L28.057 53.0842L29.9065 50.0557L29.136 48.7578L26.6699 51.4978Z" fill="#E5E5E5"/>
<path d="M26.9782 31.3075L25.7452 30.7306C25.7452 30.7306 24.8204 31.8843 24.6663 32.8939C24.5122 33.9034 23.7416 35.2013 23.7416 35.9224C23.7416 36.6435 21.5839 43.4216 21.5839 43.4216L26.5158 52.7957C26.5158 52.7957 27.5947 49.3345 29.9065 49.046L26.0534 43.9985L28.2111 40.3931L26.9782 31.3075Z" fill="#2F2E41"/>
<path d="M0.299427 87.4378H59.6044C59.6456 87.4378 59.6852 87.4225 59.7144 87.3952C59.7436 87.3679 59.76 87.3308 59.76 87.2922C59.76 87.2536 59.7436 87.2165 59.7144 87.1892C59.6852 87.1619 59.6456 87.1465 59.6044 87.1465H0.299427C0.258144 87.1465 0.218552 87.1619 0.189362 87.1892C0.160172 87.2165 0.143768 87.2536 0.143768 87.2922C0.143768 87.3308 0.160172 87.3679 0.189362 87.3952C0.218552 87.4225 0.258144 87.4378 0.299427 87.4378Z" fill="#CBCBCB"/>
<path d="M68.1531 31.363H124.968V19.1283H68.1531V31.363Z" fill="white"/>
<path d="M116.768 23.1736C116.915 23.1739 117.055 23.2286 117.159 23.3257C117.262 23.4228 117.321 23.5544 117.321 23.6916C117.321 23.8289 117.262 23.9605 117.159 24.0576C117.055 24.1547 116.915 24.2094 116.768 24.2096H76.3504C76.2037 24.2094 76.0631 24.1547 75.9595 24.0576C75.8559 23.9605 75.7977 23.8289 75.7977 23.6916C75.7977 23.5544 75.8559 23.4228 75.9595 23.3257C76.0631 23.2286 76.2037 23.1739 76.3504 23.1736H116.768Z" fill="#FFD037"/>
<path d="M101.856 26.2817C101.929 26.2815 102.001 26.2948 102.068 26.3207C102.135 26.3466 102.196 26.3846 102.248 26.4326C102.299 26.4806 102.34 26.5376 102.368 26.6004C102.396 26.6632 102.41 26.7306 102.411 26.7986C102.411 26.8666 102.397 26.934 102.369 26.9969C102.341 27.0598 102.301 27.117 102.249 27.1652C102.198 27.2134 102.137 27.2516 102.07 27.2778C102.003 27.304 101.931 27.3175 101.858 27.3177H76.3059C76.2331 27.3178 76.161 27.3045 76.0937 27.2785C76.0265 27.2525 75.9653 27.2144 75.9138 27.1663C75.8623 27.1181 75.8214 27.061 75.7936 26.9981C75.7657 26.9352 75.7513 26.8678 75.7513 26.7997C75.7513 26.7316 75.7657 26.6641 75.7936 26.6012C75.8214 26.5383 75.8623 26.4812 75.9138 26.4331C75.9653 26.385 76.0265 26.3468 76.0937 26.3209C76.161 26.2949 76.2331 26.2816 76.3059 26.2817H101.856Z" fill="#FFD037"/>
<path d="M68.1531 31.363H124.968V19.1283H68.1531V31.363ZM124.034 30.4891H69.087V20.0022H124.034V30.4891Z" fill="#E5E5E5"/>
<path d="M68.1531 50.0063H124.968V37.7716H68.1531V50.0063Z" fill="white"/>
<path d="M116.768 41.817C116.915 41.8172 117.055 41.8719 117.159 41.969C117.262 42.0661 117.321 42.1977 117.321 42.3349C117.321 42.4722 117.262 42.6038 117.159 42.7009C117.055 42.798 116.915 42.8527 116.768 42.8529H76.3504C76.2037 42.8527 76.0631 42.798 75.9595 42.7009C75.8559 42.6038 75.7977 42.4722 75.7977 42.3349C75.7977 42.1977 75.8559 42.0661 75.9595 41.969C76.0631 41.8719 76.2037 41.8172 76.3504 41.817H116.768Z" fill="#E6E6E6"/>
<path d="M116.768 44.925C116.841 44.9248 116.913 44.9381 116.98 44.964C117.047 44.9899 117.108 45.0279 117.16 45.0759C117.211 45.1239 117.252 45.1809 117.28 45.2437C117.308 45.3065 117.322 45.3739 117.323 45.4419C117.323 45.5099 117.309 45.5773 117.281 45.6402C117.253 45.7031 117.213 45.7603 117.161 45.8085C117.11 45.8567 117.049 45.8949 116.982 45.9211C116.915 45.9473 116.843 45.9608 116.77 45.961H91.2178C91.1451 45.9611 91.073 45.9478 91.0057 45.9218C90.9384 45.8958 90.8773 45.8577 90.8258 45.8096C90.7743 45.7614 90.7334 45.7043 90.7056 45.6414C90.6777 45.5785 90.6633 45.5111 90.6633 45.443C90.6633 45.3749 90.6777 45.3074 90.7056 45.2445C90.7334 45.1816 90.7743 45.1245 90.8258 45.0764C90.8773 45.0283 90.9384 44.9901 91.0057 44.9642C91.073 44.9382 91.1451 44.9249 91.2178 44.925H116.768Z" fill="#E6E6E6"/>
<path d="M68.1531 50.0063H124.968V37.7716H68.1531V50.0063ZM124.034 49.1324H69.087V38.6455H124.034V49.1324Z" fill="#E5E5E5"/>
<path d="M67.6862 12.7197H124.501V0.485016H67.6862V12.7197Z" fill="white"/>
<path d="M116.301 4.5303C116.448 4.53053 116.588 4.58521 116.692 4.68233C116.796 4.77945 116.854 4.91107 116.854 5.0483C116.854 5.18553 116.796 5.31715 116.692 5.41427C116.588 5.51138 116.448 5.56606 116.301 5.56629H75.8836C75.7369 5.56606 75.5963 5.51138 75.4927 5.41427C75.3891 5.31715 75.3309 5.18553 75.3309 5.0483C75.3309 4.91107 75.3891 4.77945 75.4927 4.68233C75.5963 4.58521 75.7369 4.53053 75.8836 4.5303H116.301Z" fill="#FFD037"/>
<path d="M101.856 7.63837C102.003 7.63808 102.144 7.69237 102.248 7.78931C102.352 7.88625 102.41 8.01789 102.411 8.15527C102.411 8.29265 102.353 8.42452 102.249 8.52186C102.146 8.61921 102.005 8.67406 101.858 8.67435H76.3058C76.2331 8.67447 76.161 8.66115 76.0937 8.63517C76.0264 8.60919 75.9653 8.57105 75.9138 8.52294C75.8623 8.47483 75.8214 8.41769 75.7936 8.35479C75.7657 8.29189 75.7513 8.22446 75.7513 8.15636C75.7513 8.08826 75.7657 8.02083 75.7936 7.95793C75.8214 7.89503 75.8623 7.83789 75.9138 7.78978C75.9653 7.74167 76.0264 7.70353 76.0937 7.67755C76.161 7.65157 76.2331 7.63825 76.3058 7.63837H101.856Z" fill="#FFD037"/>
<path d="M67.6862 12.7197H124.501V0.485016H67.6862V12.7197ZM123.567 11.8458H68.6201V1.35892H123.567V11.8458Z" fill="#E5E5E5"/>
<path d="M9.89929 87.5051V76.9688C9.89929 76.9688 5.51103 84.4386 9.89929 87.5051Z" fill="#F1F1F1"/>
<path d="M9.62813 87.5034L17.923 80.3779C17.923 80.3779 9.07468 82.4047 9.62813 87.5034Z" fill="#F1F1F1"/>
</svg>
