<svg width="120" height="78" viewBox="0 0 120 78" fill="none" xmlns="http://www.w3.org/2000/svg">
<g clip-path="url(#clip0)">
<path d="M119.518 0.964207H0.45105V77.2199H119.518V0.964207Z" fill="#E6E6E6"/>
<path d="M116.114 10.5281H3.85608V72.7081H116.114V10.5281Z" fill="white"/>
<path d="M119.467 0.896223H0.39978V5.95462H119.467V0.896223Z" fill="#535461"/>
<path d="M4.15946 4.41985C4.67724 4.41985 5.09699 4.0001 5.09699 3.48231C5.09699 2.96453 4.67724 2.54478 4.15946 2.54478C3.64167 2.54478 3.22192 2.96453 3.22192 3.48231C3.22192 4.0001 3.64167 4.41985 4.15946 4.41985Z" fill="white"/>
<path d="M7.71805 4.41985C8.23584 4.41985 8.65559 4.0001 8.65559 3.48231C8.65559 2.96453 8.23584 2.54478 7.71805 2.54478C7.20027 2.54478 6.78052 2.96453 6.78052 3.48231C6.78052 4.0001 7.20027 4.41985 7.71805 4.41985Z" fill="white"/>
<path d="M11.2768 4.41985C11.7946 4.41985 12.2143 4.0001 12.2143 3.48231C12.2143 2.96453 11.7946 2.54478 11.2768 2.54478C10.759 2.54478 10.3392 2.96453 10.3392 3.48231C10.3392 4.0001 10.759 4.41985 11.2768 4.41985Z" fill="white"/>
<path d="M39.6239 15.6423H17.668V39.4625H39.6239V15.6423Z" fill="#E6E6E6"/>
<path d="M70.9624 15.6423H49.0065V39.4625H70.9624V15.6423Z" fill="#E6E6E6"/>
<path d="M102.301 15.6423H80.345V39.4625H102.301V15.6423Z" fill="#E6E6E6"/>
<path d="M39.6239 43.7741H17.668V67.5943H39.6239V43.7741Z" fill="#E6E6E6"/>
<path d="M70.9624 43.7741H49.0065V67.5943H70.9624V43.7741Z" fill="#E6E6E6"/>
<path d="M102.301 43.7741H80.345V67.5943H102.301V43.7741Z" fill="#E6E6E6"/>
<path d="M26.1964 30.0457C28.2461 30.0457 29.9078 28.384 29.9078 26.3343C29.9078 24.2845 28.2461 22.6229 26.1964 22.6229C24.1466 22.6229 22.485 24.2845 22.485 26.3343C22.485 28.384 24.1466 30.0457 26.1964 30.0457Z" fill="#FFB9B9"/>
<path d="M24.7466 29.1758C24.7466 29.1758 25.2105 31.3795 25.2105 31.6114C25.2105 31.8434 27.4142 32.8872 27.4142 32.8872L29.3858 32.5393L30.0817 30.4516C30.0817 30.4516 28.9219 28.7119 28.9219 28.016L24.7466 29.1758Z" fill="#FFB9B9"/>
<path d="M22.9778 23.3441C22.9778 23.3441 24.1562 20.791 26.4147 21.3802C28.6732 21.9694 29.9498 22.8531 30.048 23.7369C30.1462 24.6207 29.9989 25.9463 29.9989 25.9463C29.9989 25.9463 29.7534 24.1297 28.1823 24.5225C26.6111 24.9152 24.1562 24.6207 24.1562 24.6207L23.7634 28.1557C23.7634 28.1557 23.3215 27.5175 22.8306 27.9102C22.3396 28.303 21.4067 24.1297 22.9778 23.3441Z" fill="#2F2E41"/>
<path d="M37.9681 38.5705L37.0411 34.3944C36.5761 33.0024 35.4173 31.8436 35.4173 31.8436L29.6977 29.8321H29.6962C29.6851 30.3377 29.5146 30.8269 29.2092 31.2299C28.9038 31.633 28.4789 31.9294 27.9952 32.0768C26.2548 32.6555 25.0567 30.7052 25.0567 30.7052L20.2218 34.3944C20.2218 34.3944 18.7146 35.6713 18.8312 38.1069L18.6709 39.4625H38.4142L37.9681 38.5705Z" fill="#535461"/>
<path d="M57.4511 31.8952C60.2332 31.8952 62.4886 29.501 62.4886 26.5477C62.4886 23.5943 60.2332 21.2002 57.4511 21.2002C54.6689 21.2002 52.4136 23.5943 52.4136 26.5477C52.4136 29.501 54.6689 31.8952 57.4511 31.8952Z" fill="#2F2E41"/>
<path d="M61.9207 34.6399C63.3843 34.6399 64.5708 33.4535 64.5708 31.9898C64.5708 30.5262 63.3843 29.3398 61.9207 29.3398C60.4571 29.3398 59.2706 30.5262 59.2706 31.9898C59.2706 33.4535 60.4571 34.6399 61.9207 34.6399Z" fill="#2F2E41"/>
<path d="M60.0752 28.4407L61.4949 32.1318L57.8984 33.6462L57.5825 32.9304L56.4785 30.4283L60.0752 28.4407Z" fill="#9F616A"/>
<path d="M57.2358 30.8541C58.9869 30.8541 60.4065 29.4345 60.4065 27.6834C60.4065 25.9323 58.9869 24.5128 57.2358 24.5128C55.4847 24.5128 54.0652 25.9323 54.0652 27.6834C54.0652 29.4345 55.4847 30.8541 57.2358 30.8541Z" fill="#9F616A"/>
<path d="M54.6442 27.3357C56.6371 26.0059 57.2328 25.688 59.5171 26.2017L59.6541 22.8692L53.7512 24.1075L54.6442 27.3357Z" fill="#2F2E41"/>
<path d="M67.4569 34.8754L67.3694 34.8856C67.3673 34.8825 67.3649 34.8795 67.3622 34.8769C67.0153 34.53 65.3594 33.8988 64.1248 33.4616H64.1234C63.3392 33.1831 62.7255 32.9835 62.7255 32.9835L61.2329 31.4486C60.8569 31.8713 60.0625 32.1978 59.3074 32.4281C58.7294 32.6031 58.1414 32.7433 57.5466 32.8479H57.5452L57.2362 33.8347C57.2362 33.8347 53.7336 36.4861 53.4508 36.7689H53.4493V36.7718C53.4268 36.804 53.4174 36.8436 53.4231 36.8825V36.8898C53.2464 37.7361 53.1556 38.598 53.152 39.4625H68.4043V38.5675C68.4043 37.3373 67.4569 34.8754 67.4569 34.8754Z" fill="#575A89"/>
<path d="M95.504 39.4625H87.9624L87.547 35.3652L87.5222 35.1159L87.4712 34.6218L87.2627 32.5564L87.0018 34.7748L86.4508 39.4625H85.0807L85.1317 38.0034L85.1827 36.524L85.2046 35.9278L85.4859 27.8177C85.4643 26.5325 85.871 25.2767 86.6418 24.248C87.0697 23.6909 87.6219 23.2414 88.2543 22.9355C88.8867 22.6295 89.5819 22.4755 90.2843 22.4858C91.001 22.4835 91.7085 22.6471 92.3514 22.964C92.9942 23.2809 93.5549 23.7423 93.9896 24.3122C94.7862 25.3511 95.2126 26.6266 95.2008 27.9358L95.3306 32.845L95.504 39.4625Z" fill="#2F2E41"/>
<path d="M90.2845 30.7199C92.1166 30.7199 93.6017 29.2347 93.6017 27.4027C93.6017 25.5706 92.1166 24.0855 90.2845 24.0855C88.4525 24.0855 86.9673 25.5706 86.9673 27.4027C86.9673 29.2347 88.4525 30.7199 90.2845 30.7199Z" fill="#FBBEBE"/>
<path d="M88.6259 29.7721C88.6259 29.7721 89.5737 32.9709 88.6259 33.9186C87.6781 34.8664 87.4412 35.2218 87.4412 35.2218L90.166 38.8945L94.9049 33.0893C94.9049 33.0893 91.5877 32.1416 92.417 29.5352L88.6259 29.7721Z" fill="#FBBEBE"/>
<path d="M98.8594 39.4625H96.0608L96.0142 38.9829L95.9719 38.5398L97.2604 38.378L98.8143 38.1842L98.8317 38.6812L98.8594 39.4625Z" fill="#FBBEBE"/>
<path d="M99.0515 38.6575C99.0515 38.6575 98.5776 35.6957 98.2222 34.511C97.8668 33.3263 97.5113 33.3263 97.5113 33.3263H97.5113L97.5113 33.326C97.093 32.9077 96.0872 32.8333 95.3307 32.845C94.8002 32.8508 94.392 32.8975 94.392 32.8975L90.1664 37.3548L88.0383 34.5256V34.5241C87.8467 34.539 87.6569 34.5717 87.4713 34.6218C87.3117 34.6625 87.1549 34.7136 87.002 34.7749C86.3429 35.0565 85.7355 35.4462 85.2047 35.9278H85.2033C84.8972 36.2033 84.7164 36.4059 84.7164 36.4059C84.2477 37.3803 83.8946 38.4061 83.6641 39.4625H97.2052L97.2358 38.8532V38.8521L99.0515 38.6575Z" fill="#535461"/>
<path d="M87.5003 26.8696C89.6428 25.7145 90.5229 25.7634 93.187 26.8696L93.8978 25.1377C93.8974 24.8116 93.7677 24.499 93.5372 24.2684C93.3066 24.0378 92.9939 23.9081 92.6678 23.9077H87.901C87.5749 23.9081 87.2622 24.0378 87.0317 24.2684C86.8011 24.499 86.6714 24.8116 86.671 25.1377L87.5003 26.8696Z" fill="#2F2E41"/>
<path d="M28.3557 49.5396C28.1792 49.5251 28.0024 49.5645 27.8489 49.6528C27.7032 49.777 27.5862 49.9314 27.506 50.1053C27.1352 50.7566 26.633 51.3237 26.0315 51.7708C25.5934 52.0918 25.0364 52.492 25.1113 53.0838C25.1509 53.2792 25.2231 53.4666 25.3249 53.638C25.7291 54.4539 26.832 55.0845 26.7235 56.0155C27.1251 55.3432 26.588 55.0108 26.9896 54.3385C27.1808 54.0184 27.513 53.657 27.8017 53.8581C27.8984 53.9254 27.9619 54.0461 28.0625 54.1052C28.3027 54.2461 28.5583 53.9767 28.7709 53.7858C29.504 53.1277 30.5466 53.3001 31.4589 53.5052C31.8897 53.602 32.3627 53.729 32.6173 54.1406C32.9521 54.6819 32.2993 55.2664 32.1344 55.8783C32.1209 55.9305 32.1203 55.9851 32.1325 56.0375C32.1448 56.09 32.1695 56.1387 32.2047 56.1795C32.2399 56.2202 32.2844 56.2519 32.3344 56.2717C32.3845 56.2915 32.4386 56.2989 32.4922 56.2933C32.7659 56.2663 33.0902 56.2442 33.1064 56.124C33.4509 56.1363 33.8729 56.0973 34.0204 55.7386C34.0655 55.5968 34.0894 55.449 34.0912 55.3001C34.1453 54.6977 34.401 54.1481 34.5704 53.5747C34.7398 53.0013 34.8134 52.3294 34.5276 51.821C34.4256 51.6519 34.2994 51.4986 34.1531 51.3659C32.531 49.7961 30.3982 49.5372 28.3557 49.5396Z" fill="#2F2E41"/>
<path d="M27.0763 57.1914C27.0763 57.1914 27.4291 60.1313 26.1356 60.3664C24.8421 60.6016 27.3115 64.5998 27.3115 64.5998L33.1912 65.3054L31.7801 60.6016C31.7801 60.6016 30.8393 60.2489 31.4273 57.897C32.0153 55.5451 27.0763 57.1914 27.0763 57.1914Z" fill="#9F616A"/>
<path d="M29.7221 59.1317C31.6705 59.1317 33.25 57.5523 33.25 55.6039C33.25 53.6555 31.6705 52.0761 29.7221 52.0761C27.7738 52.0761 26.1943 53.6555 26.1943 55.6039C26.1943 57.5523 27.7738 59.1317 29.7221 59.1317Z" fill="#9F616A"/>
<path d="M23.6499 67.5943C24.2738 65.1411 25.1352 61.8367 25.1352 61.8367C25.1352 61.8367 25.4705 61.9052 25.9981 61.9825C26.7689 62.0973 27.5456 62.1678 28.3244 62.1938C29.3214 62.2215 30.3709 62.1559 31.1828 61.8746C31.4889 61.7764 31.7748 61.6238 32.0268 61.4242C32.1329 61.3388 32.2279 61.2404 32.3095 61.1313C33.7205 59.2495 34.3079 66.4224 34.3079 66.4224L34.4172 67.5943L23.6499 67.5943Z" fill="#535461"/>
<path d="M34.9215 75.1737C34.8749 75.1737 34.8283 75.1751 34.7817 75.178L34.8487 75.0528C34.872 75.0921 34.8953 75.1329 34.9215 75.1737Z" fill="#FFB8B8"/>
<path d="M28.5275 50.4626C28.3853 50.452 28.2428 50.4797 28.1149 50.5426C27.9992 50.6271 27.9039 50.7364 27.8358 50.8624C27.5222 51.3342 27.1133 51.7352 26.6355 52.0396C26.2788 52.2665 25.8254 52.5494 25.8864 52.9676C25.9195 53.1079 25.9785 53.2407 26.0603 53.3594C26.3904 53.9419 26.5219 54.6161 26.4347 55.2799L27.4154 53.8545C27.571 53.6282 27.8415 53.3728 28.0765 53.5149C28.1552 53.5625 28.2069 53.6478 28.2888 53.6895C28.4844 53.7892 28.6924 53.5987 28.8655 53.4638C29.4623 52.9986 30.311 53.1205 31.0537 53.2654C31.4043 53.3339 31.7894 53.4236 31.9966 53.7146C32.3411 54.1981 31.9814 54.8967 32.1824 55.4553C32.2387 55.4159 32.2865 55.3656 32.323 55.3074C32.3594 55.2492 32.3839 55.1843 32.3948 55.1164C32.6751 55.1251 33.0187 55.0975 33.1388 54.8441C33.1753 54.7447 33.1948 54.6399 33.1964 54.5341C33.2405 54.1083 33.4486 53.7198 33.5865 53.3146C33.7244 52.9093 33.7843 52.4344 33.5517 52.0751C33.4665 51.9534 33.3638 51.845 33.2468 51.7534C31.9263 50.6439 30.1902 50.4609 28.5275 50.4626Z" fill="#2F2E41"/>
<path d="M28.1934 61.9533C27.3888 61.0336 26.9107 59.6926 26.8888 59.6328V59.6314C26.8888 59.6314 25.6061 58.8967 25.2534 59.6022C24.9006 60.3077 21.6079 62.0714 21.2552 62.0714C21.2524 62.0727 21.2494 62.0736 21.2464 62.0743C21.1065 62.121 19.3545 62.7579 18.9041 65.1295C18.7817 65.9455 18.7165 66.7691 18.7087 67.5943H28.2983C28.3974 66.555 28.4718 65.5828 28.5009 64.7432C28.5432 63.5727 28.5024 62.6632 28.3246 62.1938C28.2961 62.1062 28.2516 62.0247 28.1934 61.9533Z" fill="#2F2E41"/>
<path d="M36.4391 62.6151C36.4333 62.5874 36.4289 62.5641 36.4245 62.5422C36.4089 62.4797 36.3822 62.4205 36.3458 62.3673C36.345 62.366 36.3445 62.3645 36.3444 62.3629C35.6651 61.3105 31.2967 59.8617 31.2967 59.8617L31.1334 60.4258C31.1334 60.4258 31.1538 60.9826 31.183 61.8746C31.2121 62.7098 31.2471 63.838 31.2806 65.077C31.304 65.886 31.3244 66.743 31.3433 67.5943H37.8778C37.5116 65.9039 37.0309 64.2403 36.4391 62.6151Z" fill="#2F2E41"/>
<path d="M97.5768 67.5943L98.0767 65.1513L98.5417 64.9546L98.5446 64.956C98.5869 64.972 99.0927 65.1863 99.0927 65.9982C99.0927 66.1615 99.0679 66.7489 99.0271 67.5943H97.5768Z" fill="#575A89"/>
<path d="M92.3255 59.0614C94.5679 59.0614 96.3858 57.2435 96.3858 55.0011C96.3858 52.7587 94.5679 50.9409 92.3255 50.9409C90.0831 50.9409 88.2653 52.7587 88.2653 55.0011C88.2653 57.2435 90.0831 59.0614 92.3255 59.0614Z" fill="#FFB8B8"/>
<path d="M94.8632 57.3696L94.5247 64.3058L89.2803 61.2607L89.9569 57.3696H94.8632Z" fill="#FFB8B8"/>
<path d="M96.3859 64.6441L96.042 67.5943H93.2885L90.3004 61.8528L89.4579 60.2363L89.0542 59.9724L89.5221 59.866L89.8909 60.1328L94.0173 63.1223L94.6791 61.1356L94.6966 61.0846L94.8627 60.5846L96.3859 64.6441Z" fill="#535461"/>
<path d="M89.8724 51.0255C89.8724 51.0255 90.3799 48.4878 93.2559 48.9953L92.9175 49.1645C92.9175 49.1645 95.6244 48.8262 95.286 50.3488C95.286 50.3488 97.4853 51.7022 96.9778 53.2248C96.6793 54.1072 96.453 55.0125 96.3011 55.9316L95.7935 55.4241C95.7935 55.4241 95.286 52.0405 92.2408 52.3789C89.9569 52.6326 89.0265 53.7111 88.7886 54.4883C88.679 54.8537 88.5392 55.2094 88.3706 55.5516L88.1806 55.5932C88.1806 55.5932 87.1655 51.8713 89.8724 51.0255Z" fill="#2F2E41"/>
<path d="M98.5447 64.956L98.5418 64.9546L96.386 62.9518V61.5991L94.7214 60.2873L94.6966 61.0846L94.5246 66.5054L91.7566 62.6982L89.8909 60.1328L89.5556 59.6736L89.6373 59.2437L88.6038 60.4141L84.8636 63.22L84.5429 63.4605C84.1751 63.8286 83.8359 64.2243 83.5284 64.6441C83.4279 64.7942 82.9702 65.9894 82.374 67.5943H99.0272C99.068 66.7489 99.0927 66.1614 99.0927 65.9982C99.0927 65.1863 98.587 64.972 98.5447 64.956Z" fill="#2F2E41"/>
<path d="M59.6503 50.5412C56.899 50.5412 54.6686 53.0165 54.6686 56.0698V59.9492H55.8617L56.5524 58.5119L56.3797 59.9492H64.0486L64.6766 58.6425L64.5196 59.9492H65.383V56.9032C65.383 53.3896 62.8164 50.5412 59.6503 50.5412Z" fill="#2F2E41"/>
<path d="M55.6299 67.5943H52.3896L52.359 64.9516C52.3575 64.9239 52.3575 64.8977 52.3575 64.87L53.0062 64.1397L53.0178 64.1266L55.4943 65.695L55.6299 67.5943Z" fill="#D0CDE1"/>
<path d="M59.2096 59.4072C61.1683 59.4072 62.7561 57.8193 62.7561 55.8606C62.7561 53.902 61.1683 52.3141 59.2096 52.3141C57.2509 52.3141 55.6631 53.902 55.6631 55.8606C55.6631 57.8193 57.2509 59.4072 59.2096 59.4072Z" fill="#FBBEBE"/>
<path d="M57.1761 57.9885C57.1761 57.9885 58.2165 63.3792 57.7436 63.9467C57.2707 64.5141 62.756 62.9064 62.756 62.9064C62.756 62.9064 60.9591 59.218 61.9048 57.1374L57.1761 57.9885Z" fill="#FBBEBE"/>
<path d="M66.7981 61.6341H66.7967C66.7131 61.4574 66.5687 61.3167 66.39 61.2377C65.6947 60.9447 65.0956 60.7202 64.603 60.5497C63.7316 60.2506 62.7809 60.2801 61.9297 60.6327C61.8466 60.6663 61.765 60.7027 61.6848 60.7435C61.6848 60.7435 58.2172 61.4038 57.8047 61.3207C57.7741 61.3149 57.742 61.3105 57.7114 61.3076C57.6491 61.2987 57.5863 61.2933 57.5234 61.2916C56.7165 61.2541 55.9162 61.4527 55.2204 61.863C54.082 62.5233 52.3941 63.6937 52.3591 64.8336L52.327 64.87L52.3591 67.5943H67.5794C67.61 64.9837 67.6275 63.0218 67.6275 62.8891C67.6275 62.4766 66.7981 61.6341 66.7981 61.6341Z" fill="#535461"/>
<path d="M61.0666 52.0642C60.8269 51.7422 60.5162 51.4799 60.1587 51.2974C59.8012 51.115 59.4064 51.0174 59.0051 51.0122H58.9073C57.0215 51.0122 55.4928 52.7186 55.4928 54.8235V54.8236H56.1247L56.2267 54.0468L56.3763 54.8236H60.124L60.4379 54.1664L60.3594 54.8236H61.0967C61.4407 56.5321 60.9464 58.2407 59.6138 59.9492H60.8697L61.4976 58.6349L61.3406 59.9492H63.7347L64.2057 56.9264C64.2057 54.6626 62.8903 52.7429 61.0666 52.0642Z" fill="#2F2E41"/>
<path d="M61.7548 52.3825C62.7853 52.3825 63.6207 51.5471 63.6207 50.5166C63.6207 49.4861 62.7853 48.6507 61.7548 48.6507C60.7243 48.6507 59.8889 49.4861 59.8889 50.5166C59.8889 51.5471 60.7243 52.3825 61.7548 52.3825Z" fill="#2F2E41"/>
</g>
<defs>
<clipPath id="clip0">
<rect width="119.118" height="76.3232" fill="white" transform="translate(0.39978 0.896223)"/>
</clipPath>
</defs>
</svg>
