<svg width="148" height="113" viewBox="0 0 148 113" fill="none" xmlns="http://www.w3.org/2000/svg">
<g clip-path="url(#clip0)">
<path d="M13.6256 112.686L13.6187 112.73C13.6105 112.687 13.6026 112.642 13.5951 112.599C13.5815 112.528 13.5696 112.457 13.5585 112.385C13.1151 109.596 13.3591 106.741 14.2693 104.067C14.4442 103.545 14.6435 103.033 14.867 102.53C15.7221 100.583 16.9341 98.8128 18.4407 97.3113C18.9299 96.811 19.488 96.383 20.0982 96.0403C20.1878 95.9929 20.2779 95.948 20.37 95.9065C20.9343 95.6329 21.5696 95.5409 22.1885 95.6432C22.4133 95.6854 22.6311 95.7585 22.8359 95.8604C22.9077 95.8953 22.9768 95.9336 23.0447 95.9745C23.4583 96.2455 23.8115 96.599 24.0821 97.0128C24.3527 97.4266 24.5349 97.8918 24.6173 98.3792C24.7349 99.1063 24.708 99.8494 24.5382 100.566C24.5236 100.635 24.508 100.703 24.4912 100.771C24.3709 101.248 24.2196 101.718 24.0385 102.176C22.2253 106.838 18.3287 110.975 13.6256 112.686Z" fill="#F2F2F2"/>
<path d="M22.8238 95.8753C21.409 97.9071 20.0725 99.9905 18.8143 102.125C17.5577 104.258 16.3832 106.437 15.2909 108.661C14.6799 109.906 14.0955 111.163 13.5379 112.432C13.4762 112.573 13.6845 112.695 13.747 112.553C14.7428 110.286 15.8235 108.06 16.989 105.873C18.1539 103.689 19.4005 101.55 20.7289 99.4583C21.4722 98.2879 22.2402 97.1337 23.0329 95.9957C23.1215 95.8685 22.9121 95.7485 22.8238 95.8753Z" fill="white"/>
<path d="M24.3378 100.578C23.2746 101.959 21.7097 102.866 19.9822 103.101C19.5003 103.167 19.0124 103.176 18.5283 103.13C18.3734 103.115 18.3723 103.356 18.5258 103.371C20.3276 103.522 22.1164 102.958 23.5039 101.799C23.893 101.474 24.2431 101.105 24.5468 100.699C24.6399 100.575 24.4302 100.455 24.3378 100.578Z" fill="white"/>
<path d="M15.2571 108.069C15.0099 107.717 14.8046 107.337 14.6451 106.938C14.2809 106.028 14.1517 105.04 14.2692 104.067C14.4441 103.545 14.6434 103.033 14.867 102.53C14.8805 102.55 14.8887 102.572 14.8906 102.596C14.8926 102.62 14.8883 102.644 14.8781 102.666C14.7207 103.043 14.6075 103.437 14.5409 103.84C14.3016 105.278 14.6338 106.753 15.4666 107.949C15.4772 107.962 15.4842 107.978 15.487 107.994C15.4898 108.011 15.4883 108.028 15.4827 108.044C15.4733 108.065 15.4587 108.083 15.4402 108.096C15.4216 108.11 15.3999 108.118 15.3771 108.121C15.3543 108.123 15.3312 108.12 15.3102 108.111C15.2891 108.102 15.2708 108.087 15.2571 108.069Z" fill="white"/>
<path d="M20.1342 95.8876C19.8432 97.0464 19.9299 98.2678 20.3816 99.3739C20.3976 99.4015 20.4238 99.4218 20.4547 99.4302C20.4855 99.4386 20.5184 99.4345 20.5462 99.4188C20.5734 99.4024 20.5932 99.3762 20.6016 99.3456C20.6099 99.3149 20.6062 99.2823 20.5911 99.2543C20.1681 98.2048 20.0897 97.0481 20.367 95.9511C20.3742 95.9207 20.3693 95.8886 20.3533 95.8617C20.3373 95.8348 20.3115 95.8152 20.2813 95.807C20.2511 95.7987 20.2189 95.8025 20.1914 95.8176C20.164 95.8326 20.1435 95.8577 20.1342 95.8876H20.1342Z" fill="white"/>
<path d="M13.5959 106.863L13.6105 106.906C13.5831 106.871 13.5554 106.835 13.5284 106.8C13.4833 106.743 13.4399 106.686 13.3968 106.628C11.7076 104.364 10.5965 101.722 10.1597 98.9314C10.072 98.388 10.0103 97.8418 9.97458 97.2928C9.82671 95.1716 10.0774 93.0415 10.7137 91.0125C10.9143 90.3424 11.2096 89.7043 11.5907 89.1175C11.648 89.0339 11.7069 88.9523 11.7691 88.8729C12.1417 88.3686 12.6616 87.9922 13.2571 87.7955C13.4758 87.7285 13.7028 87.6921 13.9314 87.6873C14.0112 87.6848 14.0903 87.6867 14.1693 87.6914C14.6616 87.7394 15.1387 87.8885 15.5707 88.1293C16.0027 88.3701 16.3803 88.6975 16.6798 89.0909C17.1218 89.6802 17.4434 90.3507 17.6263 91.0642C17.6452 91.1316 17.663 91.1993 17.6797 91.2672C17.7952 91.7461 17.8794 92.232 17.932 92.7217C18.4934 97.6923 16.9655 103.164 13.5959 106.863Z" fill="#F2F2F2"/>
<path d="M13.9276 87.7061C13.6191 90.1622 13.404 92.6276 13.2821 95.1022C13.1607 97.5745 13.1334 100.049 13.1999 102.526C13.2373 103.912 13.3041 105.296 13.4005 106.679C13.4111 106.832 13.6524 106.844 13.6416 106.689C13.4699 104.219 13.392 101.746 13.4077 99.2684C13.4238 96.7931 13.5339 94.3208 13.7379 91.8516C13.8521 90.4701 13.9957 89.0915 14.1687 87.7157C14.1881 87.5618 13.9469 87.5528 13.9276 87.7061V87.7061Z" fill="white"/>
<path d="M17.4544 91.1681C17.1547 92.8844 16.1902 94.4136 14.7699 95.424C14.3736 95.7059 13.9461 95.9409 13.4957 96.1245C13.3517 96.1834 13.4629 96.3976 13.6056 96.3391C15.2716 95.6369 16.5931 94.3062 17.2833 92.6361C17.4768 92.1676 17.6152 91.6781 17.6955 91.1776C17.7204 91.0249 17.4791 91.0164 17.4544 91.1681V91.1681Z" fill="white"/>
<path d="M12.8947 102.017C12.5123 101.82 12.154 101.579 11.8272 101.3C11.0815 100.662 10.5081 99.848 10.1597 98.9314C10.072 98.388 10.0103 97.8417 9.97461 97.2927C9.99579 97.3039 10.0137 97.3205 10.0265 97.3407C10.0393 97.361 10.0467 97.3842 10.0478 97.4082C10.0837 97.8153 10.1667 98.2168 10.2951 98.6049C10.7515 99.9892 11.731 101.141 13.0247 101.814C13.0401 101.82 13.0535 101.831 13.0637 101.844C13.0739 101.857 13.0804 101.873 13.0828 101.89C13.0843 101.913 13.0797 101.936 13.0696 101.956C13.0595 101.977 13.0442 101.994 13.0252 102.007C13.0062 102.02 12.9841 102.028 12.9612 102.029C12.9384 102.031 12.9154 102.027 12.8947 102.017Z" fill="white"/>
<path d="M11.5516 88.9655C11.8325 90.1268 12.477 91.1681 13.3911 91.938C13.4181 91.955 13.4508 91.9608 13.482 91.9539C13.5132 91.947 13.5404 91.9282 13.5577 91.9014C13.5742 91.8742 13.5796 91.8418 13.5728 91.8108C13.5659 91.7798 13.5474 91.7526 13.5211 91.7349C12.6587 91.0018 12.0515 90.0139 11.7872 88.9137C11.7794 88.8834 11.7602 88.8573 11.7335 88.8409C11.7069 88.8245 11.6749 88.8191 11.6443 88.8258C11.6137 88.8325 11.587 88.8508 11.5697 88.8769C11.5524 88.903 11.5459 88.9348 11.5516 88.9655L11.5516 88.9655Z" fill="white"/>
<path d="M13.7003 112.715L13.7357 112.744C13.6939 112.729 13.6512 112.714 13.6094 112.699C13.5411 112.675 13.4735 112.65 13.4059 112.625C10.7624 111.626 8.40251 109.998 6.5307 107.882C6.16398 107.471 5.81763 107.044 5.49166 106.601C4.22397 104.893 3.28727 102.964 2.72995 100.911C2.53786 100.239 2.44281 99.5422 2.44769 98.8427C2.45091 98.7415 2.45652 98.641 2.46618 98.5405C2.50833 97.9151 2.74351 97.3181 3.13932 96.8319C3.28751 96.6577 3.45909 96.5049 3.64919 96.3778C3.71512 96.3328 3.78269 96.2918 3.85185 96.2532C4.29254 96.0287 4.77486 95.8975 5.26862 95.868C5.76237 95.8384 6.25692 95.911 6.7213 96.0812C7.41136 96.3398 8.0437 96.7317 8.58224 97.2345C8.63451 97.2811 8.68599 97.3286 8.73669 97.3768C9.09203 97.7181 9.42487 98.0822 9.73309 98.4666C12.8848 102.353 14.5463 107.786 13.7003 112.715Z" fill="#F2F2F2"/>
<path d="M3.65622 96.3957C4.71989 98.6312 5.86718 100.824 7.09808 102.975C8.3282 105.123 9.63869 107.223 11.0295 109.274C11.8078 110.422 12.6102 111.552 13.4368 112.666C13.5282 112.789 13.7378 112.669 13.6451 112.544C12.1697 110.556 10.7711 108.514 9.44912 106.418C8.12877 104.323 6.88918 102.181 5.73036 99.9907C5.0821 98.7652 4.46016 97.5263 3.86454 96.274C3.7979 96.134 3.58982 96.2562 3.65622 96.3957Z" fill="white"/>
<path d="M8.49346 97.4146C9.16593 99.022 9.1773 100.83 8.5251 102.445C8.34314 102.896 8.10954 103.324 7.82896 103.721C7.73942 103.849 7.94851 103.969 8.03729 103.843C9.06252 102.355 9.4589 100.522 9.14039 98.7436C9.05099 98.2447 8.9038 97.7578 8.70179 97.2929C8.64044 97.1508 8.43253 97.2734 8.49346 97.4146Z" fill="white"/>
<path d="M10.498 109.01C10.0696 109.05 9.63804 109.04 9.21199 108.98C8.24027 108.844 7.31825 108.467 6.53074 107.882C6.16401 107.471 5.81767 107.044 5.4917 106.601C5.5156 106.599 5.53959 106.603 5.56131 106.613C5.58302 106.624 5.60172 106.639 5.61555 106.659C5.8652 106.982 6.15153 107.276 6.46882 107.534C7.59941 108.455 9.04521 108.898 10.498 108.768C10.5145 108.766 10.5315 108.767 10.5473 108.773C10.563 108.779 10.5771 108.789 10.588 108.801C10.6016 108.82 10.6101 108.842 10.6127 108.864C10.6152 108.887 10.6118 108.91 10.6027 108.931C10.5936 108.952 10.5791 108.971 10.5608 108.984C10.5424 108.998 10.5207 109.007 10.498 109.01Z" fill="white"/>
<path d="M2.33273 98.7357C3.19526 99.563 4.29945 100.094 5.48461 100.25C5.54975 100.259 5.60463 100.189 5.60525 100.13C5.60449 100.098 5.59154 100.068 5.56908 100.045C5.54662 100.023 5.51637 100.01 5.48461 100.009C4.3629 99.8556 3.31895 99.35 2.50333 98.5652C2.3915 98.4575 2.22068 98.6277 2.33272 98.7357H2.33273Z" fill="white"/>
<path d="M30.1678 80.9152C30.4035 80.7538 30.6008 80.5427 30.7459 80.2969C30.8911 80.051 30.9805 79.7763 31.008 79.4922C31.0354 79.208 31.0001 78.9213 30.9047 78.6522C30.8093 78.3832 30.656 78.1383 30.4556 77.9348L31.2135 61.0269L27.3547 61.4597L27.5789 77.9981C27.2592 78.3572 27.0824 78.821 27.082 79.3016C27.0817 79.7822 27.2577 80.2463 27.5768 80.6059C27.896 80.9654 28.336 81.1955 28.8135 81.2526C29.2911 81.3096 29.7729 81.1895 30.1678 80.9152Z" fill="#FFB8B8"/>
<path d="M37.2075 109.537L39.4038 109.922L41.5745 101.64L38.6968 101.071L37.2075 109.537Z" fill="#FFB8B8"/>
<path d="M43.2806 112.705L36.3782 111.492L36.8471 108.827L41.0826 109.571C41.4329 109.633 41.7675 109.762 42.0675 109.953C42.3675 110.144 42.627 110.392 42.8311 110.683C43.0352 110.974 43.1799 111.302 43.2571 111.649C43.3342 111.996 43.3422 112.355 43.2806 112.705Z" fill="#2F2E41"/>
<path d="M31.1793 110.635L33.4093 110.635L34.47 102.04L31.179 102.04L31.1793 110.635Z" fill="#FFB8B8"/>
<path d="M37.7098 112.704L30.7016 112.705L30.7015 109.999L35.002 109.999C35.7201 109.999 36.4089 110.284 36.9167 110.791C37.4245 111.298 37.7098 111.987 37.7098 112.704L37.7098 112.704Z" fill="#2F2E41"/>
<path d="M40.6651 108.282C40.6303 108.282 40.5955 108.28 40.561 108.275L37.9363 108.06C37.8168 108.046 37.7014 108.007 37.5972 107.947C37.4929 107.887 37.4019 107.807 37.3297 107.711C37.2576 107.614 37.2057 107.505 37.1773 107.388C37.149 107.271 37.1447 107.149 37.1647 107.031L39.5883 93.456L37.9506 84.8266C37.9373 84.7565 37.899 84.6936 37.8429 84.6494C37.7868 84.6053 37.7166 84.583 37.6452 84.5865C37.5739 84.5901 37.5063 84.6192 37.4548 84.6687C37.4033 84.7182 37.3715 84.7846 37.3651 84.8557L35.3179 107.873C35.2954 108.104 35.184 108.317 35.0072 108.468C34.8304 108.618 34.6021 108.694 34.3703 108.679L31.8976 108.587C31.6809 108.572 31.4773 108.478 31.3253 108.323C31.1733 108.168 31.0833 107.962 31.0725 107.746L30.9062 80.1587L43.7259 78.5573L44.6214 92.3793L44.6179 92.394L41.5275 107.604C41.4804 107.797 41.3698 107.969 41.2135 108.091C41.0571 108.214 40.864 108.281 40.6651 108.282Z" fill="#2F2E41"/>
<path d="M35.1331 50.0703C37.6004 50.0703 39.6005 48.0715 39.6005 45.6058C39.6005 43.1401 37.6004 41.1413 35.1331 41.1413C32.6659 41.1413 30.6658 43.1401 30.6658 45.6058C30.6658 48.0715 32.6659 50.0703 35.1331 50.0703Z" fill="#FFB8B8"/>
<path d="M39.3421 82.175C38.6434 82.1791 37.9582 81.9832 37.3674 81.6104C35.2034 80.2588 32.7455 80.796 31.473 81.2365C31.3467 81.2807 31.2121 81.2958 31.0791 81.2807C30.9462 81.2655 30.8184 81.2206 30.7053 81.1491C30.5935 81.079 30.4991 80.9845 30.429 80.8727C30.3589 80.7609 30.3151 80.6347 30.3007 80.5035L27.9867 59.8497C27.5989 56.3892 29.6847 53.1357 32.9463 52.1136C33.0689 52.0751 33.1935 52.0387 33.3201 52.0043C34.3351 51.7293 35.3981 51.6799 36.4342 51.8596C37.4703 52.0393 38.4544 52.4438 39.3173 53.0445C40.1963 53.6518 40.9313 54.4443 41.4708 55.3661C42.0102 56.2879 42.341 57.3167 42.4397 58.38L44.3878 79.1723C44.4011 79.3069 44.3829 79.4428 44.3347 79.5692C44.2865 79.6956 44.2096 79.809 44.1101 79.9007C43.4272 80.532 41.4451 82.1748 39.3421 82.175Z" fill="#535461"/>
<path d="M32.2957 64.2788L27.0749 63.7051C26.9264 63.6888 26.7831 63.6406 26.6549 63.564C26.5266 63.4873 26.4164 63.384 26.3317 63.2609C26.247 63.1378 26.1899 62.998 26.1642 62.8509C26.1385 62.7038 26.1448 62.5528 26.1827 62.4084L27.5116 57.3467C27.5995 56.5877 27.985 55.8944 28.5835 55.419C29.1821 54.9435 29.9448 54.7247 30.7046 54.8104C31.4644 54.8961 32.1591 55.2795 32.6365 55.8763C33.1139 56.4732 33.335 57.2349 33.2513 57.9944L33.4486 63.2067C33.4542 63.356 33.4275 63.5047 33.3704 63.6427C33.3134 63.7807 33.2272 63.9048 33.1178 64.0065C33.0084 64.1083 32.8783 64.1853 32.7364 64.2322C32.5946 64.2792 32.4443 64.2951 32.2957 64.2788Z" fill="#535461"/>
<path d="M44.367 80.1912C44.5814 80.0026 44.7519 79.7693 44.8663 79.5078C44.9808 79.2462 45.0364 78.9628 45.0294 78.6774C45.0224 78.392 44.9528 78.1116 44.8256 77.856C44.6984 77.6004 44.5167 77.3757 44.2932 77.1979L43.0067 60.3219L39.2256 61.1725L41.4451 77.6072C41.1711 78.0021 41.0515 78.4838 41.1091 78.961C41.1667 79.4382 41.3974 79.8777 41.7576 80.1962C42.1177 80.5147 42.5823 80.6901 43.0632 80.6892C43.5442 80.6883 44.0081 80.5111 44.367 80.1913V80.1912Z" fill="#FFB8B8"/>
<path d="M37.7761 63.2179C37.6666 63.1162 37.5804 62.9921 37.5233 62.8541C37.4663 62.7161 37.4397 62.5673 37.4453 62.4181L37.6426 57.2058C37.5589 56.4462 37.78 55.6846 38.2574 55.0877C38.7348 54.4908 39.4295 54.1075 40.1893 54.0218C40.9491 53.936 41.7118 54.1549 42.3104 54.6303C42.9089 55.1058 43.2944 55.799 43.3823 56.5581L44.7112 61.6197C44.7491 61.7642 44.7554 61.9151 44.7297 62.0622C44.704 62.2094 44.6468 62.3492 44.5622 62.4723C44.4775 62.5953 44.3673 62.6987 44.239 62.7754C44.1108 62.852 43.9675 62.9001 43.8189 62.9165L38.5982 63.4901C38.4496 63.5065 38.2993 63.4907 38.1574 63.4437C38.0155 63.3967 37.8854 63.3197 37.7761 63.2179Z" fill="#535461"/>
<path d="M34.8672 50.2385C34.7877 50.2384 34.7086 50.2292 34.6313 50.211L34.6086 50.2055C30.6809 49.605 29.8129 47.3314 29.6223 46.3819C29.4251 45.3989 29.6497 44.45 30.1571 44.0815C29.8804 43.2085 29.9249 42.4344 30.2894 41.7799C30.9251 40.6383 32.3049 40.2523 32.4899 40.2051C33.5918 39.3927 34.9102 39.935 35.1501 40.045C37.2815 39.2569 38.0962 39.9129 38.2435 40.0593C39.1963 40.2304 39.777 40.5982 39.9699 41.1528C40.332 42.1945 39.1868 43.4904 39.1378 43.545L39.1124 43.5733L37.4063 43.6546C37.2444 43.6623 37.0859 43.7039 36.9412 43.7768C36.7964 43.8496 36.6686 43.9521 36.566 44.0775C36.4635 44.2029 36.3884 44.3485 36.3457 44.5047C36.3031 44.661 36.2938 44.8245 36.3184 44.9846C36.3646 45.1911 36.4229 45.3948 36.4931 45.5945C36.7845 46.5045 37.0028 47.2819 36.7212 47.5775C36.6574 47.6347 36.5788 47.6728 36.4943 47.6874C36.4099 47.702 36.323 47.6926 36.2437 47.6602C35.977 47.589 35.7958 47.6039 35.7056 47.7046C35.5655 47.8609 35.6082 48.2563 35.826 48.8181C35.8943 48.9957 35.9127 49.1887 35.8792 49.376C35.8457 49.5634 35.7615 49.738 35.6358 49.8809C35.5411 49.9925 35.4234 50.0823 35.2907 50.144C35.158 50.2057 35.0135 50.238 34.8672 50.2385Z" fill="#2F2E41"/>
<path d="M87.6258 64.5106H65.6175C64.7977 64.5097 64.0117 64.1838 63.4321 63.6045C62.8524 63.0252 62.5263 62.2397 62.5254 61.4205V28.3687C62.5263 27.5495 62.8524 26.764 63.4321 26.1847C64.0117 25.6054 64.7977 25.2795 65.6175 25.2786H87.6258C88.4456 25.2795 89.2316 25.6054 89.8112 26.1847C90.3909 26.764 90.717 27.5495 90.7179 28.3687V61.4205C90.717 62.2397 90.3909 63.0252 89.8112 63.6045C89.2316 64.1838 88.4456 64.5097 87.6258 64.5106ZM65.6175 25.6422C64.8941 25.643 64.2006 25.9305 63.6892 26.4417C63.1777 26.9528 62.89 27.6459 62.8892 28.3687V61.4205C62.89 62.1433 63.1777 62.8364 63.6892 63.3475C64.2006 63.8587 64.8941 64.1462 65.6175 64.147H87.6258C88.3492 64.1462 89.0427 63.8587 89.5541 63.3475C90.0656 62.8364 90.3533 62.1433 90.3541 61.4205V28.3687C90.3533 27.6459 90.0656 26.9528 89.5541 26.4417C89.0427 25.9305 88.3492 25.643 87.6258 25.6422H65.6175Z" fill="#3F3D56"/>
<path d="M84.261 41.1684H68.9824C68.5725 41.1679 68.1796 41.005 67.8897 40.7153C67.5999 40.4257 67.4369 40.033 67.4364 39.6233V32.3525C67.4369 31.9429 67.5999 31.5501 67.8897 31.2605C68.1796 30.9708 68.5725 30.8079 68.9824 30.8074H84.261C84.6709 30.8079 85.0638 30.9708 85.3537 31.2605C85.6435 31.5501 85.8065 31.9429 85.807 32.3525V39.6233C85.8065 40.033 85.6435 40.4257 85.3537 40.7153C85.0638 41.005 84.6709 41.1679 84.261 41.1684Z" fill="#F2C034"/>
<path d="M83.1696 47.9848H70.0738C69.6878 47.9848 69.3177 47.8316 69.0448 47.5589C68.772 47.2862 68.6187 46.9163 68.6187 46.5306C68.6187 46.1449 68.772 45.7751 69.0448 45.5024C69.3177 45.2297 69.6878 45.0764 70.0738 45.0764H83.1696C83.5556 45.0764 83.9257 45.2297 84.1985 45.5024C84.4714 45.7751 84.6247 46.1449 84.6247 46.5306C84.6247 46.9163 84.4714 47.2862 84.1985 47.5589C83.9257 47.8316 83.5556 47.9848 83.1696 47.9848Z" fill="#CCCCCC"/>
<path d="M83.1696 53.4379H70.0738C69.6878 53.4379 69.3177 53.2847 69.0448 53.012C68.772 52.7393 68.6187 52.3694 68.6187 51.9837C68.6187 51.5981 68.772 51.2282 69.0448 50.9555C69.3177 50.6828 69.6878 50.5296 70.0738 50.5296H83.1696C83.5556 50.5296 83.9257 50.6828 84.1985 50.9555C84.4714 51.2282 84.6247 51.5981 84.6247 51.9837C84.6247 52.3694 84.4714 52.7393 84.1985 53.012C83.9257 53.2847 83.5556 53.4379 83.1696 53.4379Z" fill="#CCCCCC"/>
<path d="M83.1696 58.8911H70.0738C69.6878 58.8911 69.3177 58.7379 69.0448 58.4651C68.772 58.1924 68.6187 57.8226 68.6187 57.4369C68.6187 57.0512 68.772 56.6814 69.0448 56.4086C69.3177 56.1359 69.6878 55.9827 70.0738 55.9827H83.1696C83.5556 55.9827 83.9257 56.1359 84.1985 56.4086C84.4714 56.6814 84.6247 57.0512 84.6247 57.4369C84.6247 57.8226 84.4714 58.1924 84.1985 58.4651C83.9257 58.7379 83.5556 58.8911 83.1696 58.8911Z" fill="#CCCCCC"/>
<path d="M141.283 83.0513H119.274C118.454 83.0504 117.668 82.7245 117.089 82.1452C116.509 81.5659 116.183 80.7804 116.182 79.9612V46.9094C116.183 46.0902 116.509 45.3047 117.089 44.7254C117.668 44.1461 118.454 43.8203 119.274 43.8193H141.283C142.102 43.8203 142.888 44.1461 143.468 44.7254C144.048 45.3047 144.374 46.0902 144.375 46.9094V79.9612C144.374 80.7804 144.048 81.5659 143.468 82.1452C142.888 82.7245 142.102 83.0504 141.283 83.0513ZM119.274 44.1829C118.551 44.1837 117.857 44.4712 117.346 44.9824C116.834 45.4935 116.547 46.1866 116.546 46.9094V79.9612C116.547 80.6841 116.834 81.3771 117.346 81.8882C117.857 82.3994 118.551 82.6869 119.274 82.6877H141.283C142.006 82.6869 142.699 82.3994 143.211 81.8882C143.722 81.3771 144.01 80.6841 144.011 79.9612V46.9094C144.01 46.1866 143.722 45.4935 143.211 44.9824C142.699 44.4712 142.006 44.1837 141.283 44.1829H119.274Z" fill="#3F3D56"/>
<path d="M136.826 51.9838H123.73C123.345 51.9838 122.974 51.8306 122.702 51.5579C122.429 51.2851 122.275 50.9153 122.275 50.5296C122.275 50.1439 122.429 49.7741 122.702 49.5014C122.974 49.2286 123.345 49.0754 123.73 49.0754H136.826C137.212 49.0754 137.582 49.2286 137.855 49.5014C138.128 49.7741 138.281 50.1439 138.281 50.5296C138.281 50.9153 138.128 51.2851 137.855 51.5579C137.582 51.8306 137.212 51.9838 136.826 51.9838Z" fill="#CCCCCC"/>
<path d="M136.826 57.4369H123.73C123.345 57.4369 122.974 57.2837 122.702 57.011C122.429 56.7382 122.275 56.3684 122.275 55.9827C122.275 55.597 122.429 55.2272 122.702 54.9544C122.974 54.6817 123.345 54.5285 123.73 54.5285H136.826C137.212 54.5285 137.582 54.6817 137.855 54.9544C138.128 55.2272 138.281 55.597 138.281 55.9827C138.281 56.3684 138.128 56.7382 137.855 57.011C137.582 57.2837 137.212 57.4369 136.826 57.4369Z" fill="#CCCCCC"/>
<path d="M137.918 71.3423H122.639C122.229 71.3418 121.836 71.1789 121.547 70.8892C121.257 70.5996 121.094 70.2069 121.093 69.7972V62.5264C121.094 62.1168 121.257 61.724 121.547 61.4344C121.836 61.1447 122.229 60.9818 122.639 60.9813H137.918C138.328 60.9818 138.721 61.1447 139.01 61.4344C139.3 61.724 139.463 62.1168 139.464 62.5264V69.7972C139.463 70.2069 139.3 70.5996 139.01 70.8892C138.721 71.1789 138.328 71.3418 137.918 71.3423Z" fill="#E6E6E6"/>
<path d="M136.826 77.7952H123.73C123.345 77.7952 122.974 77.642 122.702 77.3693C122.429 77.0966 122.275 76.7267 122.275 76.3411C122.275 75.9554 122.429 75.5855 122.702 75.3128C122.974 75.0401 123.345 74.8869 123.73 74.8869H136.826C137.212 74.8869 137.582 75.0401 137.855 75.3128C138.128 75.5855 138.281 75.9554 138.281 76.3411C138.281 76.7267 138.128 77.0966 137.855 77.3693C137.582 77.642 137.212 77.7952 136.826 77.7952Z" fill="#CCCCCC"/>
<path d="M127.823 30.5194H105.815C104.995 30.5185 104.209 30.1926 103.629 29.6133C103.05 29.034 102.723 28.2485 102.723 27.4293V6.91976C102.723 6.1005 103.05 5.31505 103.629 4.73574C104.209 4.15643 104.995 3.83057 105.815 3.82965H127.823C128.643 3.83057 129.429 4.15643 130.008 4.73574C130.588 5.31505 130.914 6.1005 130.915 6.91976V27.4293C130.914 28.2485 130.588 29.034 130.008 29.6133C129.429 30.1926 128.643 30.5185 127.823 30.5194ZM105.815 4.19319C105.091 4.19401 104.398 4.48154 103.886 4.99269C103.375 5.50384 103.087 6.19688 103.086 6.91976V27.4293C103.087 28.1522 103.375 28.8452 103.886 29.3564C104.398 29.8675 105.091 30.155 105.815 30.1559H127.823C128.546 30.155 129.24 29.8675 129.751 29.3564C130.263 28.8452 130.55 28.1522 130.551 27.4293V6.91976C130.55 6.19688 130.263 5.50384 129.751 4.99269C129.24 4.48154 128.546 4.19401 127.823 4.19319H105.815Z" fill="#3F3D56"/>
<path d="M123.367 24.0819H110.271C109.885 24.0819 109.515 23.9287 109.242 23.6559C108.969 23.3832 108.816 23.0134 108.816 22.6277C108.816 22.242 108.969 21.8722 109.242 21.5994C109.515 21.3267 109.885 21.1735 110.271 21.1735H123.367C123.753 21.1735 124.123 21.3267 124.396 21.5994C124.668 21.8722 124.822 22.242 124.822 22.6277C124.822 23.0134 124.668 23.3832 124.396 23.6559C124.123 23.9287 123.753 24.0819 123.367 24.0819Z" fill="#CCCCCC"/>
<path d="M123.367 18.6287H110.271C109.885 18.6287 109.515 18.4755 109.242 18.2028C108.969 17.9301 108.816 17.5602 108.816 17.1746C108.816 16.7889 108.969 16.419 109.242 16.1463C109.515 15.8736 109.885 15.7204 110.271 15.7204H123.367C123.753 15.7204 124.123 15.8736 124.396 16.1463C124.668 16.419 124.822 16.7889 124.822 17.1746C124.822 17.5602 124.668 17.9301 124.396 18.2028C124.123 18.4755 123.753 18.6287 123.367 18.6287Z" fill="#CCCCCC"/>
<path d="M123.367 13.1756H110.271C109.885 13.1756 109.515 13.0224 109.242 12.7497C108.969 12.477 108.816 12.1071 108.816 11.7214C108.816 11.3357 108.969 10.9659 109.242 10.6932C109.515 10.4205 109.885 10.2672 110.271 10.2672H123.367C123.753 10.2672 124.123 10.4205 124.396 10.6932C124.668 10.9659 124.822 11.3357 124.822 11.7214C124.822 12.1071 124.668 12.477 124.396 12.7497C124.123 13.0224 123.753 13.1756 123.367 13.1756Z" fill="#CCCCCC"/>
<path d="M88.8991 30.3376C91.2095 30.3376 93.0825 28.4659 93.0825 26.1569C93.0825 23.8479 91.2095 21.9762 88.8991 21.9762C86.5887 21.9762 84.7157 23.8479 84.7157 26.1569C84.7157 28.4659 86.5887 30.3376 88.8991 30.3376Z" fill="#F2C034"/>
<path d="M88.4843 27.7517C88.3902 27.7519 88.2986 27.7215 88.2233 27.6651L88.2186 27.6616L87.2355 26.9093C87.1897 26.8746 87.1513 26.8311 87.1224 26.7814C87.0935 26.7318 87.0746 26.6769 87.067 26.62C87.0593 26.563 87.063 26.5051 87.0778 26.4496C87.0926 26.3941 87.1182 26.342 87.1532 26.2964C87.1881 26.2508 87.2318 26.2126 87.2816 26.1839C87.3314 26.1551 87.3863 26.1365 87.4433 26.1291C87.5003 26.1216 87.5583 26.1255 87.6138 26.1405C87.6693 26.1555 87.7213 26.1813 87.7668 26.2164L88.4036 26.7043L89.9084 24.743C89.9433 24.6976 89.9868 24.6594 90.0365 24.6307C90.0862 24.602 90.141 24.5834 90.1979 24.5759C90.2547 24.5684 90.3125 24.5722 90.3679 24.587C90.4233 24.6018 90.4753 24.6274 90.5208 24.6623L90.5114 24.675L90.521 24.6624C90.6129 24.733 90.6729 24.837 90.6881 24.9517C90.7032 25.0665 90.6722 25.1825 90.6019 25.2744L88.8318 27.5814C88.7909 27.6345 88.7382 27.6776 88.678 27.7071C88.6177 27.7367 88.5515 27.7519 88.4843 27.7517Z" fill="white"/>
<path d="M143.465 49.0601C145.776 49.0601 147.649 47.1883 147.649 44.8793C147.649 42.5704 145.776 40.6986 143.465 40.6986C141.155 40.6986 139.282 42.5704 139.282 44.8793C139.282 47.1883 141.155 49.0601 143.465 49.0601Z" fill="#3F3D56"/>
<path d="M143.051 46.4742C142.956 46.4744 142.865 46.444 142.79 46.3875L142.785 46.384L141.802 45.6318C141.756 45.597 141.718 45.5536 141.689 45.5039C141.66 45.4542 141.641 45.3994 141.633 45.3424C141.626 45.2855 141.629 45.2276 141.644 45.1721C141.659 45.1166 141.685 45.0645 141.719 45.0189C141.754 44.9733 141.798 44.935 141.848 44.9063C141.898 44.8776 141.953 44.859 142.01 44.8516C142.067 44.8441 142.125 44.848 142.18 44.863C142.236 44.8779 142.288 44.9037 142.333 44.9388L142.97 45.4268L144.475 43.4655C144.51 43.42 144.553 43.3819 144.603 43.3532C144.652 43.3245 144.707 43.3059 144.764 43.2984C144.821 43.2909 144.879 43.2946 144.934 43.3095C144.99 43.3243 145.042 43.3498 145.087 43.3847L145.078 43.3974L145.087 43.3849C145.179 43.4554 145.239 43.5595 145.254 43.6742C145.27 43.7889 145.239 43.905 145.168 43.9969L143.398 46.3039C143.357 46.357 143.305 46.4 143.244 46.4296C143.184 46.4591 143.118 46.4744 143.051 46.4742Z" fill="white"/>
<path d="M130.187 8.52511C132.498 8.52511 134.371 6.65333 134.371 4.34437C134.371 2.03542 132.498 0.163635 130.187 0.163635C127.877 0.163635 126.004 2.03542 126.004 4.34437C126.004 6.65333 127.877 8.52511 130.187 8.52511Z" fill="#3F3D56"/>
<path d="M129.773 5.93921C129.679 5.93939 129.587 5.90897 129.512 5.85255L129.507 5.84905L128.524 5.09681C128.478 5.06203 128.44 5.01857 128.411 4.96891C128.382 4.91925 128.363 4.86438 128.355 4.80743C128.348 4.75049 128.351 4.6926 128.366 4.63708C128.381 4.58156 128.407 4.52951 128.442 4.4839C128.477 4.4383 128.52 4.40004 128.57 4.37132C128.62 4.3426 128.675 4.32399 128.732 4.31655C128.789 4.30911 128.847 4.31299 128.902 4.32797C128.958 4.34295 129.01 4.36873 129.055 4.40383L129.692 4.89181L131.197 2.93052C131.232 2.88503 131.275 2.84685 131.325 2.81817C131.375 2.78949 131.429 2.77087 131.486 2.76337C131.543 2.75587 131.601 2.75963 131.656 2.77445C131.712 2.78927 131.764 2.81485 131.809 2.84973L131.8 2.86242L131.81 2.84991C131.901 2.92043 131.961 3.02448 131.977 3.13921C131.992 3.25394 131.961 3.36999 131.89 3.46191L130.12 5.76886C130.079 5.82202 130.027 5.86504 129.966 5.89458C129.906 5.92413 129.84 5.9394 129.773 5.93921Z" fill="white"/>
<path d="M69.4807 112.862H0.181643C0.133404 112.862 0.0871398 112.843 0.0530293 112.808C0.0189188 112.774 -0.000244141 112.728 -0.000244141 112.68C-0.000244141 112.632 0.0189188 112.586 0.0530293 112.551C0.0871398 112.517 0.133404 112.498 0.181643 112.498H69.4807C69.5289 112.498 69.5752 112.517 69.6093 112.551C69.6434 112.586 69.6626 112.632 69.6626 112.68C69.6626 112.728 69.6434 112.774 69.6093 112.808C69.5752 112.843 69.5289 112.862 69.4807 112.862Z" fill="#3F3D56"/>
</g>
<defs>
<clipPath id="clip0">
<rect width="147.649" height="112.698" fill="white" transform="translate(0 0.163696)"/>
</clipPath>
</defs>
</svg>
