<svg width="123" height="89" viewBox="0 0 123 89" fill="none" xmlns="http://www.w3.org/2000/svg">
<g clip-path="url(#clip0)">
<path d="M107.185 77.0344C106.191 77.1198 105.191 77.1065 104.2 76.9945C93.3041 75.7898 78.4667 76.1325 66.3716 83.6266C49.6443 93.989 23.4295 85.1179 11.8656 80.2917C3.02996 76.6055 -1.55702 67.577 1.19818 59.1024C1.23697 58.9828 1.27684 58.8632 1.31887 58.7436C3.05259 53.7073 6.47477 49.7657 10.7126 47.6764C14.4064 45.8554 19.7993 42.0529 22.1989 34.7462C23.1902 31.7292 24.5501 28.891 26.3161 26.417C31.0453 19.7914 40.9455 9.92462 57.9724 9.98603C60.9577 10.0005 63.9207 10.502 66.7444 11.4708C72.9649 13.5903 78.5831 17.8993 82.8673 23.873C85.6009 27.6831 89.6976 31.2249 95.5626 31.5137C103.702 31.9167 111.47 35.7063 117.297 42.4505C117.465 42.6444 117.631 42.8394 117.797 43.0366C128.172 55.3968 120.966 75.8297 107.185 77.0344Z" fill="#484848"/>
<g opacity="0.7">
<path opacity="0.7" d="M30.2996 75.8222C31.1208 75.8222 31.7866 75.1564 31.7866 74.3352C31.7866 73.514 31.1208 72.8482 30.2996 72.8482C29.4784 72.8482 28.8126 73.514 28.8126 74.3352C28.8126 75.1564 29.4784 75.8222 30.2996 75.8222Z" fill="url(#paint0_linear)"/>
</g>
<path opacity="0.2" d="M30.2996 75.7554C31.0839 75.7554 31.7197 75.1195 31.7197 74.3352C31.7197 73.5509 31.0839 72.915 30.2996 72.915C29.5152 72.915 28.8794 73.5509 28.8794 74.3352C28.8794 75.1195 29.5152 75.7554 30.2996 75.7554Z" fill="black"/>
<path d="M22.2883 45.8813C22.5918 45.8813 22.8378 45.6352 22.8378 45.3317C22.8378 45.0282 22.5918 44.7822 22.2883 44.7822C21.9848 44.7822 21.7388 45.0282 21.7388 45.3317C21.7388 45.6352 21.9848 45.8813 22.2883 45.8813Z" fill="white"/>
<path d="M61.5097 77.7757C61.8132 77.7757 62.0593 77.5296 62.0593 77.2261C62.0593 76.9226 61.8132 76.6766 61.5097 76.6766C61.2062 76.6766 60.9602 76.9226 60.9602 77.2261C60.9602 77.5296 61.2062 77.7757 61.5097 77.7757Z" fill="white"/>
<path d="M38.3429 80.3342C38.5124 80.3342 38.6497 80.1968 38.6497 80.0274C38.6497 79.8579 38.5124 79.7206 38.3429 79.7206C38.1735 79.7206 38.0361 79.8579 38.0361 80.0274C38.0361 80.1968 38.1735 80.3342 38.3429 80.3342Z" fill="white"/>
<path d="M106.334 65.4645C106.503 65.4645 106.641 65.3271 106.641 65.1577C106.641 64.9882 106.503 64.8509 106.334 64.8509C106.165 64.8509 106.027 64.9882 106.027 65.1577C106.027 65.3271 106.165 65.4645 106.334 65.4645Z" fill="white"/>
<path d="M88.7707 37.8801C88.9401 37.8801 89.0774 37.7428 89.0774 37.5733C89.0774 37.4039 88.9401 37.2665 88.7707 37.2665C88.6012 37.2665 88.4639 37.4039 88.4639 37.5733C88.4639 37.7428 88.6012 37.8801 88.7707 37.8801Z" fill="white"/>
<path d="M113.661 51.349C113.831 51.349 113.968 51.2117 113.968 51.0422C113.968 50.8728 113.831 50.7355 113.661 50.7355C113.492 50.7355 113.354 50.8728 113.354 51.0422C113.354 51.2117 113.492 51.349 113.661 51.349Z" fill="white"/>
<path d="M31.9859 27.8868C32.2894 27.8868 32.5355 27.6408 32.5355 27.3373C32.5355 27.0338 32.2894 26.7877 31.9859 26.7877C31.6824 26.7877 31.4364 27.0338 31.4364 27.3373C31.4364 27.6408 31.6824 27.8868 31.9859 27.8868Z" fill="white"/>
<path d="M16.8824 64.519H16.3932V64.0298H16.1939V64.519H15.7047V64.7184H16.1939V65.2065H16.3932V64.7184H16.8824V64.519Z" fill="white"/>
<path d="M29.1661 64.3035H28.6769V63.8143H28.4776V64.3035H27.9884V64.5029H28.4776V64.991H28.6769V64.5029H29.1661V64.3035Z" fill="white"/>
<path d="M46.7295 74.2167H46.2403V73.7275H46.0409V74.2167H45.5518V74.416H46.0409V74.9041H46.2403V74.416H46.7295V74.2167Z" fill="white"/>
<path d="M71.1918 14.7915H70.969V14.5687H70.8786V14.7915H70.6558V14.8819H70.8786V15.1048H70.969V14.8819H71.1918V14.7915Z" fill="white"/>
<path d="M102.978 35.2643H102.756V35.0415H102.665V35.2643H102.442V35.3547H102.665V35.5775H102.756V35.3547H102.978V35.2643Z" fill="white"/>
<path d="M84.2298 48.6255H84.007V48.4026H83.9166V48.6255H83.6937V48.7159H83.9166V48.9387H84.007V48.7159H84.2298V48.6255Z" fill="white"/>
<path d="M7.94171 57.0301H7.71889V56.8073H7.62847V57.0301H7.40564V57.1205H7.62847V57.3433H7.71889V57.1205H7.94171V57.0301Z" fill="white"/>
<path d="M17.1005 75.3478H16.8777V75.125H16.7873V75.3478H16.5645V75.4382H16.7873V75.6611H16.8777V75.4382H17.1005V75.3478Z" fill="white"/>
<path d="M45.8702 17.4853H45.6474V17.2625H45.5569V17.4853H45.3341V17.5757H45.5569V17.7986H45.6474V17.5757H45.8702V17.4853Z" fill="white"/>
<path d="M32.2935 49.703H32.0707V49.4802H31.9803V49.703H31.7574V49.7934H31.9803V50.0162H32.0707V49.7934H32.2935V49.703Z" fill="white"/>
<path d="M35.2029 40.4364H34.9801V40.2135H34.8897V40.4364H34.6669V40.5268H34.8897V40.7496H34.9801V40.5268H35.2029V40.4364Z" fill="white"/>
<g opacity="0.7">
<path opacity="0.7" d="M81.0172 61.8209C81.7027 61.8209 82.2585 61.2652 82.2585 60.5796C82.2585 59.8941 81.7027 59.3383 81.0172 59.3383C80.3316 59.3383 79.7759 59.8941 79.7759 60.5796C79.7759 61.2652 80.3316 61.8209 81.0172 61.8209Z" fill="url(#paint1_linear)"/>
</g>
<path opacity="0.2" d="M81.0171 61.7293C81.6521 61.7293 82.1668 61.2146 82.1668 60.5796C82.1668 59.9447 81.6521 59.4299 81.0171 59.4299C80.3822 59.4299 79.8674 59.9447 79.8674 60.5796C79.8674 61.2146 80.3822 61.7293 81.0171 61.7293Z" fill="black"/>
<path opacity="0.2" d="M84.1129 69.9583C84.8228 69.9583 85.3983 69.3828 85.3983 68.6728C85.3983 67.9629 84.8228 67.3874 84.1129 67.3874C83.4029 67.3874 82.8274 67.9629 82.8274 68.6728C82.8274 69.3828 83.4029 69.9583 84.1129 69.9583Z" fill="black"/>
<g opacity="0.7">
<path opacity="0.7" d="M72.5931 33.7905C72.602 31.0899 71.9549 28.4276 70.7075 26.0324C70.1159 24.9074 69.5761 24.2092 69.1601 23.7793C69.0013 23.6115 68.7938 23.4977 68.5668 23.454C68.3399 23.4103 68.105 23.4389 67.8951 23.5358C67.7274 23.5953 67.5757 23.693 67.4523 23.8213C66.8909 24.4032 66.3834 25.1725 65.9438 25.9903C64.6322 28.4426 63.9519 31.183 63.9644 33.9639V35.6319H62.8944V16.2356C62.8944 12.1712 61.985 8.1618 60.2006 4.606C59.3558 2.92077 58.5843 1.87342 57.9928 1.23015C57.8492 1.06644 57.6723 0.93527 57.4739 0.845408C57.2756 0.755546 57.0603 0.709061 56.8425 0.709061C56.6248 0.709061 56.4095 0.755546 56.2112 0.845408C56.0128 0.93527 55.8359 1.06644 55.6923 1.23015C54.8906 2.10186 54.1665 3.2548 53.5373 4.47993C51.6635 8.11331 50.712 12.238 50.712 16.4209V35.6244H49.7875V33.8756C49.7993 31.0964 49.119 28.358 47.8081 25.9074C47.3653 25.0895 46.8578 24.3202 46.2996 23.7383C46.1375 23.5662 45.9244 23.4504 45.6917 23.4082C45.459 23.3659 45.2189 23.3993 45.0066 23.5034L45.0454 23.5239C44.9101 23.5841 44.7875 23.6697 44.6844 23.7761C44.2696 24.2071 43.7297 24.9042 43.1382 26.0291C41.8907 28.4243 41.2436 31.0867 41.2525 33.7872V62.7724H44.554L44.1898 65.1547V72.2803H46.8901V65.1547L46.5291 62.7713H49.7832V36.3722H50.7077V62.6571H53.3444L52.9662 65.1547V72.2803H55.6664V65.1547L55.2882 62.6538H58.844L58.4637 65.1547V72.2803H61.1639V65.1547L60.7857 62.6538H62.8912V36.3754H63.9611V62.8144H64.8285V62.7745H67.6969L67.337 65.1547V72.2803H70.0372V65.1547L69.6763 62.7713H72.5931V33.7905Z" fill="url(#paint2_linear)"/>
</g>
<path d="M47.4257 63.7691H44.8688L45.3256 60.6648H46.9688L47.4257 63.7691Z" fill="#535461"/>
<g opacity="0.1">
<path opacity="0.1" d="M45.1984 61.8974H47.0959L46.9687 61.03H45.3255L45.1984 61.8974Z" fill="black"/>
</g>
<path d="M69.3369 63.7691H66.781L67.2368 60.6648H68.8811L69.3369 63.7691Z" fill="#535461"/>
<g opacity="0.1">
<path opacity="0.1" d="M67.1097 61.8974H69.0083L68.8812 61.03H67.2369L67.1097 61.8974Z" fill="black"/>
</g>
<path d="M55.7334 63.7691H53.1775L53.6333 60.6648H55.2776L55.7334 63.7691Z" fill="#535461"/>
<g opacity="0.1">
<path opacity="0.1" d="M53.506 61.8974H55.4046L55.2774 61.03H53.6331L53.506 61.8974Z" fill="black"/>
</g>
<path d="M60.9377 63.7691H58.3818L58.8376 60.6648H60.4808L60.9377 63.7691Z" fill="#535461"/>
<g opacity="0.1">
<path opacity="0.1" d="M58.7104 61.8974H60.609L60.4808 61.03H58.8376L58.7104 61.8974Z" fill="black"/>
</g>
<path d="M65.6852 35.0102H47.4257V35.7408H65.6852V35.0102Z" fill="#535461"/>
<path d="M68.5072 23.4722C68.4107 23.3656 68.293 23.2805 68.1616 23.2222C68.0302 23.1639 67.8881 23.1338 67.7443 23.1338C67.6006 23.1338 67.4584 23.1639 67.327 23.2222C67.1956 23.2805 67.0779 23.3656 66.9814 23.4722C66.4502 24.039 65.9696 24.7878 65.5505 25.5841C64.3072 27.9804 63.6641 30.6427 63.6767 33.3422V61.4481H71.758V33.2237C71.7682 30.5988 71.1563 28.0089 69.9726 25.666C69.4112 24.5713 68.9005 23.886 68.5072 23.4722Z" fill="#E0E0E0"/>
<path d="M45.333 23.4722C45.4295 23.3656 45.5472 23.2805 45.6786 23.2222C45.81 23.1639 45.9522 23.1338 46.0959 23.1338C46.2397 23.1338 46.3818 23.1639 46.5132 23.2222C46.6446 23.2805 46.7623 23.3656 46.8588 23.4722C47.3911 24.039 47.8706 24.7878 48.2908 25.5841C49.5337 27.9806 50.1766 30.6427 50.1646 33.3422V61.4481H42.0833V33.2237C42.0731 30.5988 42.685 28.0089 43.8687 25.666C44.429 24.5713 44.9397 23.886 45.333 23.4722Z" fill="#E0E0E0"/>
<path d="M42.1296 33.8228L44.0476 33.8325V36.1966H42.1296V33.8228Z" fill="#535461"/>
<path d="M48.2467 33.8228L50.1647 33.8325V36.1966H48.2467V33.8228Z" fill="#535461"/>
<path d="M63.6766 33.8228L65.5935 33.8325V36.1966H63.6766V33.8228Z" fill="#535461"/>
<path d="M69.7938 33.8228L71.7107 33.8325V36.1966H69.7938V33.8228Z" fill="#535461"/>
<g opacity="0.1">
<path opacity="0.1" d="M48.2909 25.5475C47.8707 24.7512 47.3912 24.0023 46.8589 23.4356C46.7086 23.2689 46.5078 23.1562 46.2872 23.1147C46.0667 23.0733 45.8386 23.1054 45.6381 23.2061C45.7536 23.2637 45.8579 23.3414 45.9462 23.4356C46.4774 24.0023 46.958 24.7512 47.3772 25.5475C48.6206 27.9437 49.2636 30.606 49.251 33.3056V61.4093H50.1647V33.3067C50.1769 30.6068 49.534 27.9442 48.2909 25.5475Z" fill="black"/>
</g>
<g opacity="0.1">
<path opacity="0.1" d="M66.2809 25.6251C66.7001 24.8288 67.1807 24.0799 67.7119 23.5131C67.8112 23.4058 67.9315 23.32 68.0653 23.261C67.8678 23.1746 67.6482 23.1524 67.4374 23.1977C67.2266 23.2429 67.0354 23.3533 66.8908 23.5131C66.3585 24.0799 65.8779 24.8288 65.4588 25.6251C64.216 28.0215 63.573 30.6837 63.585 33.3832V61.4912H64.4071V33.3853C64.3942 30.685 65.0373 28.022 66.2809 25.6251Z" fill="black"/>
</g>
<path d="M46.1823 70.7082H46.1122C45.7824 70.7082 45.4662 70.5772 45.233 70.3441C44.9998 70.1109 44.8688 69.7946 44.8688 69.4648V63.7691H47.4257V69.4648C47.4257 69.7946 47.2947 70.1109 47.0615 70.3441C46.8283 70.5772 46.512 70.7082 46.1823 70.7082Z" fill="url(#paint3_linear)"/>
<path d="M68.0513 70.4153H67.9812C67.6515 70.4153 67.3352 70.2843 67.102 70.0511C66.8688 69.8179 66.7378 69.5017 66.7378 69.1719V63.4761H69.2947V69.1719C69.2947 69.5017 69.1637 69.8179 68.9305 70.0511C68.6973 70.2843 68.3811 70.4153 68.0513 70.4153Z" fill="url(#paint4_linear)"/>
<path d="M54.491 70.7082H54.4199C54.0903 70.708 53.7743 70.5768 53.5413 70.3437C53.3083 70.1105 53.1775 69.7944 53.1775 69.4648V63.7691H55.7334V69.4648C55.7334 69.7944 55.6025 70.1105 55.3695 70.3437C55.1366 70.5768 54.8206 70.708 54.491 70.7082Z" fill="url(#paint5_linear)"/>
<path d="M59.6942 70.7082H59.6221C59.2928 70.7074 58.9774 70.576 58.7449 70.3429C58.5124 70.1098 58.3818 69.794 58.3818 69.4648V63.7691H60.9377V69.4648C60.9377 69.7946 60.8067 70.1109 60.5735 70.3441C60.3403 70.5772 60.024 70.7082 59.6942 70.7082Z" fill="url(#paint6_linear)"/>
<path d="M68.0945 70.7082H68.0266C67.8631 70.7085 67.7012 70.6766 67.5501 70.6142C67.399 70.5519 67.2617 70.4603 67.146 70.3448C67.0303 70.2293 66.9385 70.0921 66.8759 69.9411C66.8132 69.7901 66.781 69.6283 66.781 69.4648V63.7691H69.3369V69.4648C69.3369 69.7944 69.206 70.1105 68.9731 70.3437C68.7401 70.5768 68.4241 70.708 68.0945 70.7082Z" fill="url(#paint7_linear)"/>
<g filter="url(#filter0_d)">
<path d="M57.9346 1.43487C57.8011 1.27602 57.6344 1.14831 57.4464 1.06069C57.2583 0.973075 57.0533 0.927673 56.8458 0.927673C56.6383 0.927673 56.4333 0.973075 56.2452 1.06069C56.0571 1.14831 55.8905 1.27602 55.7569 1.43487C55.0027 2.28395 54.3131 3.40565 53.7097 4.59953C51.9361 8.13809 51.0353 12.1551 51.0353 16.2281V61.3339H62.5647V16.047C62.5647 12.0893 61.7027 8.18119 60.0174 4.72237C59.2255 3.08131 58.496 2.06091 57.9346 1.43487Z" fill="#EEEEEE"/>
</g>
<path d="M58.5489 6.44533H54.9026C54.2479 6.44533 53.7173 6.97599 53.7173 7.63059V8.01742C53.7173 8.67202 54.2479 9.20269 54.9026 9.20269H58.5489C59.2035 9.20269 59.7341 8.67202 59.7341 8.01742V7.63059C59.7341 6.97599 59.2035 6.44533 58.5489 6.44533Z" fill="#535461"/>
<g opacity="0.1">
<path opacity="0.1" d="M62.5097 17.77H51.0978V18.2129H62.5097V17.77Z" fill="black"/>
</g>
<path d="M82.4061 34.2538C82.1068 33.8608 81.7325 33.5312 81.3048 33.2841C80.8135 33.0007 80.2635 32.8342 79.6975 32.7973C79.1315 32.7604 78.5646 32.8542 78.0406 33.0714C77.5166 33.2886 77.0496 33.6234 76.6756 34.0499C76.3017 34.4764 76.0308 34.9832 75.884 35.5311C75.7372 36.0789 75.7183 36.6532 75.8289 37.2096C75.9394 37.7659 76.1765 38.2894 76.5216 38.7395C76.8668 39.1896 77.3108 39.5543 77.8194 39.8054C78.328 40.0565 78.8875 40.1873 79.4548 40.1877C79.5334 40.1877 79.6121 40.1877 79.6886 40.1791C80.3552 40.137 80.998 39.9152 81.5487 39.5371C82.0994 39.159 82.5374 38.6389 82.8162 38.0319C83.095 37.4249 83.2042 36.7537 83.1322 36.0896C83.0601 35.4256 82.8096 34.7934 82.4071 34.2603L82.4061 34.2538Z" fill="url(#paint8_linear)"/>
<path opacity="0.2" d="M82.9502 36.4821C82.9501 37.3711 82.6113 38.2267 82.0028 38.8748C81.3943 39.5229 80.5618 39.9149 79.6746 39.9711C79.6024 39.9711 79.528 39.9786 79.4537 39.9786C78.917 39.979 78.3874 39.8558 77.906 39.6186C77.4246 39.3815 77.0042 39.0367 76.6773 38.611C76.3505 38.1853 76.126 37.6901 76.0213 37.1638C75.9165 36.6374 75.9343 36.094 76.0732 35.5756C76.2121 35.0572 76.4685 34.5778 76.8224 34.1743C77.1764 33.7709 77.6184 33.4544 78.1143 33.2492C78.6102 33.044 79.1467 32.9556 79.6822 32.991C80.2177 33.0264 80.7379 33.1845 81.2025 33.4532C81.6075 33.6882 81.9614 34.0018 82.2434 34.3756C82.7028 34.9816 82.9511 35.7215 82.9502 36.4821Z" fill="black"/>
<path opacity="0.1" d="M78.5928 34.2635C78.412 34.3413 78.2376 34.4332 78.0712 34.5383C77.9602 34.5989 77.8647 34.6845 77.7922 34.7883C77.7562 34.8405 77.7364 34.9022 77.7353 34.9656C77.7341 35.029 77.7517 35.0914 77.7857 35.1449C77.8708 35.2613 78.0346 35.2785 78.179 35.2871C78.3306 35.3065 78.4846 35.291 78.6294 35.2419C78.7271 35.1936 78.816 35.1291 78.8923 35.0512L79.1929 34.7786C79.3007 34.6837 79.4084 34.5534 79.3664 34.4198C79.3416 34.372 79.3052 34.3313 79.2606 34.3012C79.216 34.2711 79.1646 34.2526 79.111 34.2473C78.8519 34.1969 78.5832 34.2441 78.3568 34.3799" fill="black"/>
<g opacity="0.1">
<path opacity="0.1" d="M77.3373 38.0463C77.4389 38.0463 77.5214 37.9639 77.5214 37.8622C77.5214 37.7606 77.4389 37.6781 77.3373 37.6781C77.2356 37.6781 77.1532 37.7606 77.1532 37.8622C77.1532 37.9639 77.2356 38.0463 77.3373 38.0463Z" fill="black"/>
</g>
<g opacity="0.1">
<path opacity="0.1" d="M81.0784 37.3711C81.451 37.3711 81.753 37.0691 81.753 36.6965C81.753 36.324 81.451 36.022 81.0784 36.022C80.7059 36.022 80.4039 36.324 80.4039 36.6965C80.4039 37.0691 80.7059 37.3711 81.0784 37.3711Z" fill="black"/>
</g>
<g opacity="0.1">
<path opacity="0.1" d="M82.2496 34.3756C82.2477 34.5519 82.1951 34.724 82.0981 34.8713C82.0011 35.0186 81.8639 35.1349 81.7026 35.2065C81.5414 35.278 81.3631 35.3017 81.1888 35.2747C81.0145 35.2477 80.8516 35.1712 80.7196 35.0543C80.5875 34.9374 80.4918 34.7851 80.4439 34.6153C80.396 34.4456 80.3979 34.2657 80.4493 34.097C80.5007 33.9283 80.5996 33.7779 80.734 33.6638C80.8685 33.5497 81.0329 33.4766 81.2077 33.4532C81.6131 33.6881 81.9673 34.0017 82.2496 34.3756Z" fill="black"/>
</g>
<g opacity="0.1">
<path opacity="0.1" d="M82.3123 38.4949C82.0115 38.9231 81.6183 39.2781 81.1617 39.5336C80.705 39.7891 80.1968 39.9387 79.6746 39.9711C79.6746 39.9226 79.6681 39.8741 79.6681 39.8246C79.6684 39.5177 79.7539 39.217 79.915 38.9558C80.0762 38.6947 80.3067 38.4834 80.5808 38.3456C80.8549 38.2077 81.162 38.1487 81.4677 38.1751C81.7734 38.2014 82.0658 38.3122 82.3123 38.4949Z" fill="black"/>
</g>
<path d="M34.642 54.2147C34.4334 53.9389 34.1718 53.7074 33.8727 53.5338C33.5293 53.3323 33.1441 53.2129 32.747 53.1847C32.3499 53.1565 31.9517 53.2204 31.5833 53.3714C31.215 53.5224 30.8865 53.7563 30.6234 54.0551C30.3603 54.3538 30.1697 54.7093 30.0665 55.0938C29.9632 55.4782 29.9502 55.8813 30.0283 56.2717C30.1064 56.662 30.2736 57.0291 30.5168 57.3442C30.76 57.6594 31.0727 57.9141 31.4305 58.0886C31.7883 58.2631 32.1816 58.3526 32.5796 58.3502C32.6346 58.3502 32.6874 58.3502 32.7434 58.3449C33.2077 58.3136 33.6549 58.1577 34.038 57.8935C34.421 57.6293 34.7257 57.2666 34.9199 56.8438C35.114 56.4209 35.1905 55.9535 35.1412 55.4908C35.092 55.0281 34.9187 54.5872 34.6399 54.2147H34.642Z" fill="url(#paint9_linear)"/>
<path opacity="0.2" d="M35.0212 55.7696C35.0211 56.3898 34.7847 56.9867 34.3602 57.4389C33.9356 57.8911 33.3548 58.1645 32.7358 58.2037C32.6852 58.2037 32.6281 58.2037 32.5817 58.2037C32.2076 58.2036 31.8385 58.1175 31.503 57.952C31.1674 57.7864 30.8745 57.5459 30.6468 57.2491C30.419 56.9522 30.2626 56.607 30.1897 56.24C30.1167 55.8731 30.1291 55.4943 30.2259 55.1329C30.3228 54.7715 30.5014 54.4372 30.7481 54.1559C30.9947 53.8746 31.3028 53.6538 31.6484 53.5106C31.9941 53.3673 32.368 53.3055 32.7413 53.3299C33.1147 53.3543 33.4774 53.4642 33.8015 53.6512C34.0844 53.8159 34.3314 54.0357 34.5277 54.2977C34.8489 54.7211 35.0223 55.2382 35.0212 55.7696Z" fill="black"/>
<path opacity="0.1" d="M31.9806 54.2223C31.8546 54.2759 31.7331 54.3397 31.6174 54.413C31.5403 54.4561 31.4737 54.5157 31.4224 54.5876C31.3985 54.6247 31.3857 54.6679 31.3857 54.712C31.3857 54.7562 31.3985 54.7994 31.4224 54.8365C31.4582 54.8718 31.5012 54.8989 31.5484 54.916C31.5956 54.9331 31.646 54.9398 31.6961 54.9356C31.802 54.9493 31.9096 54.9386 32.0107 54.9044C32.0792 54.8705 32.1415 54.8254 32.195 54.7708L32.404 54.5811C32.4773 54.5143 32.557 54.4238 32.5247 54.3311C32.5082 54.2972 32.4831 54.2682 32.4519 54.247C32.4207 54.2259 32.3845 54.2132 32.3469 54.2104C32.1666 54.1751 31.9795 54.2082 31.8222 54.3031" fill="black"/>
<g opacity="0.1">
<path opacity="0.1" d="M31.1044 56.8598C31.1752 56.8598 31.2325 56.8025 31.2325 56.7317C31.2325 56.661 31.1752 56.6036 31.1044 56.6036C31.0337 56.6036 30.9763 56.661 30.9763 56.7317C30.9763 56.8025 31.0337 56.8598 31.1044 56.8598Z" fill="black"/>
</g>
<g opacity="0.1">
<path opacity="0.1" d="M33.7154 56.3903C33.9754 56.3903 34.1863 56.1794 34.1863 55.9194C34.1863 55.6593 33.9754 55.4485 33.7154 55.4485C33.4553 55.4485 33.2445 55.6593 33.2445 55.9194C33.2445 56.1794 33.4553 56.3903 33.7154 56.3903Z" fill="black"/>
</g>
<g opacity="0.1">
<path opacity="0.1" d="M34.5288 54.2999C34.5279 54.4241 34.4911 54.5454 34.423 54.6493C34.3549 54.7531 34.2584 54.8352 34.1449 54.8856C34.0314 54.9361 33.9058 54.9527 33.783 54.9336C33.6603 54.9146 33.5457 54.8605 33.4528 54.778C33.36 54.6955 33.2929 54.588 33.2596 54.4684C33.2262 54.3487 33.2281 54.222 33.2648 54.1034C33.3016 53.9847 33.3718 53.8792 33.467 53.7994C33.5621 53.7196 33.6783 53.6689 33.8015 53.6534C34.0849 53.8179 34.3322 54.0378 34.5288 54.2999Z" fill="black"/>
</g>
<g opacity="0.1">
<path opacity="0.1" d="M34.5762 57.1736C34.3664 57.4723 34.092 57.72 33.7734 57.8983C33.4548 58.0767 33.1002 58.181 32.7358 58.2037C32.7358 58.1703 32.7358 58.1358 32.7358 58.096C32.736 57.8819 32.7957 57.6721 32.9081 57.4899C33.0205 57.3077 33.1813 57.1603 33.3725 57.0641C33.5638 56.9679 33.778 56.9267 33.9913 56.9451C34.2046 56.9635 34.4086 57.0407 34.5805 57.1682L34.5762 57.1736Z" fill="black"/>
</g>
<path d="M103.295 47.0478C103.404 47.0478 103.493 46.9591 103.493 46.8497C103.493 46.7403 103.404 46.6517 103.295 46.6517C103.185 46.6517 103.096 46.7403 103.096 46.8497C103.096 46.9591 103.185 47.0478 103.295 47.0478Z" fill="white"/>
</g>
<defs>
<filter id="filter0_d" x="48.1822" y="0.927673" width="17.2356" height="66.1124" filterUnits="userSpaceOnUse" color-interpolation-filters="sRGB">
<feFlood flood-opacity="0" result="BackgroundImageFix"/>
<feColorMatrix in="SourceAlpha" type="matrix" values="0 0 0 0 0 0 0 0 0 0 0 0 0 0 0 0 0 0 127 0" result="hardAlpha"/>
<feOffset dy="2.85312"/>
<feGaussianBlur stdDeviation="1.42656"/>
<feColorMatrix type="matrix" values="0 0 0 0 0 0 0 0 0 0 0 0 0 0 0 0 0 0 0.25 0"/>
<feBlend mode="normal" in2="BackgroundImageFix" result="effect1_dropShadow"/>
<feBlend mode="normal" in="SourceGraphic" in2="effect1_dropShadow" result="shape"/>
</filter>
<linearGradient id="paint0_linear" x1="30.2996" y1="75.8222" x2="30.2996" y2="72.8493" gradientUnits="userSpaceOnUse">
<stop stop-color="#808080" stop-opacity="0.25"/>
<stop offset="0.54" stop-color="#808080" stop-opacity="0.12"/>
<stop offset="1" stop-color="#808080" stop-opacity="0.1"/>
</linearGradient>
<linearGradient id="paint1_linear" x1="1937.13" y1="1467.36" x2="1937.13" y2="1410.19" gradientUnits="userSpaceOnUse">
<stop stop-color="#808080" stop-opacity="0.25"/>
<stop offset="0.54" stop-color="#808080" stop-opacity="0.12"/>
<stop offset="1" stop-color="#808080" stop-opacity="0.1"/>
</linearGradient>
<linearGradient id="paint2_linear" x1="17495.9" y1="50613.1" x2="17495.9" y2="3070.4" gradientUnits="userSpaceOnUse">
<stop stop-color="#808080" stop-opacity="0.25"/>
<stop offset="0.54" stop-color="#808080" stop-opacity="0.12"/>
<stop offset="1" stop-color="#808080" stop-opacity="0.1"/>
</linearGradient>
<linearGradient id="paint3_linear" x1="46.1478" y1="63.7691" x2="46.1478" y2="70.7082" gradientUnits="userSpaceOnUse">
<stop stop-color="#E0E0E0"/>
<stop offset="0.31" stop-color="#FCCC63"/>
<stop offset="0.77" stop-color="#F55F44"/>
</linearGradient>
<linearGradient id="paint4_linear" x1="68.0168" y1="63.4761" x2="68.0168" y2="70.4153" gradientUnits="userSpaceOnUse">
<stop stop-color="#E0E0E0"/>
<stop offset="0.31" stop-color="#FCCC63"/>
<stop offset="0.77" stop-color="#F55F44"/>
</linearGradient>
<linearGradient id="paint5_linear" x1="1418.13" y1="4422.55" x2="1418.13" y2="4869.43" gradientUnits="userSpaceOnUse">
<stop stop-color="#E0E0E0"/>
<stop offset="0.31" stop-color="#FCCC63"/>
<stop offset="0.77" stop-color="#F55F44"/>
</linearGradient>
<linearGradient id="paint6_linear" x1="1546.79" y1="4422.55" x2="1546.79" y2="4869.43" gradientUnits="userSpaceOnUse">
<stop stop-color="#E0E0E0"/>
<stop offset="0.31" stop-color="#FCCC63"/>
<stop offset="0.77" stop-color="#F55F44"/>
</linearGradient>
<linearGradient id="paint7_linear" x1="1754.42" y1="4422.55" x2="1754.42" y2="4869.44" gradientUnits="userSpaceOnUse">
<stop stop-color="#E0E0E0"/>
<stop offset="0.31" stop-color="#FCCC63"/>
<stop offset="0.77" stop-color="#F55F44"/>
</linearGradient>
<linearGradient id="paint8_linear" x1="5741.31" y1="3060.36" x2="5741.31" y2="2552.4" gradientUnits="userSpaceOnUse">
<stop stop-color="#808080" stop-opacity="0.25"/>
<stop offset="0.54" stop-color="#808080" stop-opacity="0.12"/>
<stop offset="1" stop-color="#808080" stop-opacity="0.1"/>
</linearGradient>
<linearGradient id="paint9_linear" x1="1744.07" y1="3041.85" x2="1744.07" y2="2794.06" gradientUnits="userSpaceOnUse">
<stop stop-color="#808080" stop-opacity="0.25"/>
<stop offset="0.54" stop-color="#808080" stop-opacity="0.12"/>
<stop offset="1" stop-color="#808080" stop-opacity="0.1"/>
</linearGradient>
<clipPath id="clip0">
<rect width="122.317" height="87.7334" fill="white" transform="translate(0.402832 0.707565)"/>
</clipPath>
</defs>
</svg>
