<svg width="115" height="74" viewBox="0 0 115 74" fill="none" xmlns="http://www.w3.org/2000/svg">
<g clip-path="url(#clip0)">
<path d="M83.6374 68.9543L83.0444 61.5861L81.3501 69.3777C81.3501 69.3777 81.3724 71.3434 81.4286 73.4966H83.5992C83.6723 71.0352 83.6374 68.9543 83.6374 68.9543Z" fill="#F2F2F2"/>
<path d="M53.148 71.5747C52.9811 70.8856 52.8633 70.1857 52.7954 69.48L52.5583 66.9312C52.4585 66.2331 52.3561 65.6181 52.2531 65.0752C51.4978 61.2044 50.7181 61.0645 50.7181 61.0645C50.6846 61.0901 50.652 61.1185 50.6185 61.1478C50.5269 61.2311 50.4415 61.3212 50.3632 61.4171C49.1214 62.995 48.279 67.0876 47.8364 69.8025C47.592 71.3022 47.4702 72.3813 47.4702 72.3813C47.4702 72.3813 47.5809 72.8409 47.7318 73.4967H53.3985C53.377 72.8494 53.2931 72.2058 53.148 71.5747Z" fill="#F2F2F2"/>
<path d="M97.7067 0.0288086H18.0821C8.59455 0.0288086 0.832031 7.78924 0.832031 17.2742V56.2512C0.832031 65.7361 8.59455 73.4966 18.0821 73.4966H43.3187L42.9931 71.9638C42.9931 71.9638 42.1554 66.5599 42.9931 62.3467C43.2636 61.0248 43.4492 59.6869 43.5487 58.3414C43.6535 56.8223 43.9019 55.3165 44.2905 53.8442C44.3127 53.7592 44.3376 53.675 44.3607 53.5902C44.1564 53.5347 44.0625 53.4903 44.11 53.4623C44.2409 53.385 44.3128 53.1483 44.3487 52.848C44.5718 50.8599 44.9973 48.8997 45.6186 46.998C44.7722 47.5292 44.2102 47.5856 43.8423 47.3798C42.5495 47.0268 43.0862 44.1199 43.0862 44.1199C43.0862 44.1199 43.8896 37.8326 44.1565 35.5561C44.3099 34.2476 46.2759 33.5061 48.0162 33.1034C48.1996 32.7102 48.3317 32.314 48.2478 31.8983C48.2422 31.8703 48.234 31.8433 48.2266 31.8159C48.0053 31.3246 47.5555 30.9203 47.3867 30.4115C47.3119 30.2745 47.2592 30.1266 47.2306 29.9732C47.0811 29.1009 47.897 28.3473 48.1323 27.5082C47.8923 27.2765 47.7131 26.9893 47.6106 26.6719C47.2521 25.9368 47.4268 25.0544 48.5781 24.3732C48.8079 24.2372 49.0515 24.1172 49.2988 24.002C49.3894 23.9435 49.488 23.8983 49.5915 23.8679C50.4152 23.4954 51.2432 23.1349 51.7361 22.4097C51.8631 22.2229 51.9744 22.0063 52.1798 21.9081C52.2766 21.8667 52.3802 21.8435 52.4853 21.8397C54.0726 21.7179 55.5097 23.0786 57.0893 22.8836C57.5679 22.8245 58.0564 22.6234 58.5157 22.7682C58.8176 22.8633 59.0531 23.0951 59.2559 23.3347C59.808 23.9936 60.2078 24.7661 60.4267 25.5973C60.6457 26.4284 60.6784 27.2976 60.5225 28.1429C60.3222 29.1832 59.8352 30.2555 60.1862 31.2564C60.4441 31.9919 61.1345 32.5888 61.1394 33.3668C61.1434 34.007 60.6889 34.5178 60.2497 35.0159C60.3068 35.0743 60.3624 35.1343 60.4167 35.1958C61.4899 36.4183 61.2871 37.4616 61.1357 37.8794L61.1358 37.8796L60.5838 43.204L60.1185 46.7761C60.1185 46.7761 60.0034 48.242 58.9195 48.5636C58.6037 48.7096 58.1901 48.748 57.6465 48.5826C57.2936 48.4753 56.9964 48.368 56.744 48.2637C56.9825 49.0251 57.3929 50.5796 57.3263 52.0884C57.2332 54.195 57.5124 54.3782 57.5124 54.3782C57.4949 54.3998 57.4751 54.4194 57.4532 54.4367C58.5588 56.8787 58.569 59.3841 57.4194 61.8887C56.1163 64.7281 57.5124 71.3226 57.5124 71.3226C57.5124 71.3226 57.6118 72.3513 57.6565 73.4966H77.6451C77.3272 70.4651 76.9452 67.4302 76.7756 67.091C76.4959 66.5318 76.8511 57.3182 76.9836 54.1179C76.9247 54.103 76.8671 54.0878 76.8129 54.0723C76.7184 54.0452 76.6334 54.0169 76.555 53.988C76.551 54.1509 76.5682 54.3136 76.6062 54.472C76.7238 54.7465 76.4417 54.9482 75.9622 55.0858C76.2411 56.4464 76.5855 58.9782 75.4202 59.4688C74.2214 59.9734 74.1974 56.9081 74.2632 55.3104C74.112 55.316 73.9604 55.3189 73.8106 55.3189C72.3705 55.3189 74.2342 38.6347 74.1495 37.5337C74.0647 36.4328 74.8272 31.9441 74.8272 31.9441C74.8272 31.9441 75.0813 31.0125 75.8437 30.8431C76.6062 30.6737 80.2489 28.5565 80.2489 28.5565C80.4537 28.2687 80.7127 28.0236 81.0113 27.8349V27.7096C81.1063 27.6211 81.2073 27.5394 81.3136 27.4649C81.2692 26.7249 81.1691 25.7703 81.0961 25.1253C80.6866 24.7081 80.41 24.179 80.3012 23.6048C80.1452 23.483 79.997 23.3514 79.8577 23.2108C79.5078 22.8098 79.3072 22.3005 79.2895 21.7687C79.2739 21.2406 79.3504 20.7138 79.5154 20.2118C79.5585 20.0451 79.6246 19.8851 79.7117 19.7364C79.8315 19.5641 79.9818 19.4151 80.1552 19.2968C80.2066 19.2587 80.2597 19.223 80.3127 19.187C80.425 18.9689 80.5897 18.782 80.792 18.6431C81.2244 18.3593 81.7808 18.3825 82.2978 18.3954C82.3055 18.3956 82.3134 18.3955 82.3212 18.3956C82.4171 18.3801 82.5134 18.3674 82.61 18.3573C82.6665 18.3461 82.7185 18.3187 82.7596 18.2784C82.8007 18.2381 82.8292 18.1867 82.8416 18.1305C82.9116 18.1977 82.9816 18.2649 83.0516 18.3321C83.1566 18.3306 83.2616 18.3324 83.3664 18.3375C83.4129 18.2312 83.4674 18.1287 83.5297 18.0308C83.568 18.1402 83.6064 18.2496 83.6448 18.3591C83.7501 18.3703 83.8551 18.3844 83.9596 18.4025C84.0419 18.3371 84.1243 18.2717 84.2066 18.2063C84.2249 18.1918 84.2904 18.4061 84.3235 18.4797C84.3802 18.4942 84.4367 18.5097 84.4927 18.527C84.5802 18.523 84.6774 18.5067 84.7315 18.5075C85.0295 18.4975 85.3244 18.571 85.5828 18.7197C85.8085 18.8839 85.9936 19.0974 86.1239 19.3441C86.4567 19.8706 86.6634 20.4667 86.7279 21.0861C86.8896 21.3101 87.0037 21.5649 87.063 21.8347C87.2028 22.6849 86.3947 23.3954 86.2345 24.2419C86.1491 24.6936 86.2466 25.1938 86.0165 25.5917C85.9157 25.752 85.7838 25.8903 85.6284 25.9985C85.5366 26.067 85.4408 26.13 85.3416 26.1873C85.3469 26.6994 85.4057 27.2096 85.5169 27.7096L85.6259 28.1274C85.7954 28.2495 85.9782 28.3907 86.1789 28.5565C86.1789 28.5565 88.5508 29.5728 89.398 30.0809C90.1427 30.5276 90.9524 30.5822 91.1949 31.1641L91.2617 31.1819C91.2617 31.1819 92.1088 40.5826 92.1935 42.1918C92.2783 43.8009 93.2948 53.7098 93.1254 54.1332C93.0627 54.29 92.6632 54.4698 92.1808 54.6128C92.4623 55.899 92.9168 58.6963 91.6853 59.2147C90.4368 59.7403 90.4625 56.3936 90.5369 54.8655C90.3704 54.8505 90.2613 54.8069 90.2451 54.7261C90.2313 54.6573 90.1872 54.3463 90.1234 53.8722C90.0179 53.8886 89.9084 53.9055 89.7919 53.9232C89.7685 53.9267 89.7439 53.9304 89.7201 53.934C90.7941 57.3116 88.4154 66.2692 87.9578 68.0226C87.7188 68.9388 87.4609 71.2042 87.2285 73.4966H97.7066C107.194 73.4966 114.957 65.7361 114.957 56.2512V17.2742C114.957 7.78924 107.194 0.0288086 97.7067 0.0288086Z" fill="#F2F2F2"/>
<path d="M26.3823 31.1006C32.7659 31.1006 37.9408 26.3927 37.9408 20.5852C37.9408 14.7778 32.7659 10.0699 26.3823 10.0699C19.9988 10.0699 14.8239 14.7778 14.8239 20.5852C14.8239 26.3927 19.9988 31.1006 26.3823 31.1006Z" fill="#3F3D56"/>
<path d="M45.4233 54.9473C45.4233 54.9473 49.3167 52.2713 49.3167 51.0549C49.3167 49.8386 51.9934 41.9323 53.4534 45.4597C54.9135 48.9871 51.3851 53.9742 51.3851 53.9742C51.3851 53.9742 47.4917 61.029 45.18 62.2454C42.8683 63.4617 40.9216 62.7319 40.9216 62.7319V59.4478L43.1459 56.1567C43.3976 55.7842 43.7369 55.4792 44.134 55.2684C44.531 55.0575 44.9738 54.9473 45.4233 54.9473Z" fill="#FFB9B9"/>
<path d="M34.3569 36.3171C34.3569 36.3171 40.1917 38.1616 40.8 39.013C41.4084 39.8645 41.6517 38.4049 43.3551 44.0001C45.0584 49.5953 45.4843 55.0081 45.4843 55.0081C45.4843 55.0081 41.2867 56.4069 41.7734 61.8805C42.26 67.3541 41.0434 73.3142 41.0434 73.3142H39.5244L36.1766 62.9752L40.1917 47.2842C40.1917 47.2842 34.4839 37.6352 34.3569 36.3171Z" fill="#575A89"/>
<path d="M32.4049 31.2283C36.4367 31.2283 39.705 27.9609 39.705 23.9302C39.705 19.8996 36.4367 16.6321 32.4049 16.6321C28.3732 16.6321 25.1049 19.8996 25.1049 23.9302C25.1049 27.9609 28.3732 31.2283 32.4049 31.2283Z" fill="#FFB9B9"/>
<path d="M35.2033 29.4038C35.2033 29.4038 33.1349 36.2154 34.9599 37.1885C36.785 38.1615 38.8533 42.5404 38.8533 42.5404L35.69 46.0678H28.3899L25.1048 42.4188L23.7665 36.2154L25.5915 34.7557C25.5915 34.7557 27.5382 29.8903 27.5382 27.336C27.5382 24.7816 35.2033 29.4038 35.2033 29.4038Z" fill="#FFB9B9"/>
<path d="M35.8116 36.9452C35.8116 36.9452 34.3516 36.5803 35.2033 38.04C36.055 39.4996 36.9066 42.1756 33.8649 42.2972C30.8232 42.4188 27.7815 40.8376 26.8082 37.5534C25.8348 34.2693 25.4698 34.5125 25.1048 34.6342C24.7398 34.7558 20.8464 38.7698 20.8464 38.7698L22.1848 46.3112L22.6715 73.3142H40.435C40.435 73.3142 41.165 65.5295 39.9483 63.705C38.7316 61.8805 41.0433 57.2583 41.0433 57.2583C41.0433 57.2583 43.1117 54.0958 41.53 48.0141C39.9483 41.9323 36.42 36.9452 35.8116 36.9452Z" fill="#F2C034"/>
<path d="M25.9563 34.6341C25.9563 34.6341 24.1313 33.7827 22.5496 35.2423C20.968 36.7019 17.4396 37.9183 17.4396 38.6481C17.4396 39.3779 20.4813 60.1775 18.4129 63.8266C16.3446 67.4757 14.1545 73.3142 14.1545 73.3142H24.3033C24.3033 73.3142 25.9563 67.2324 27.6597 63.9482C29.363 60.6641 29.2414 51.4198 28.7547 48.6222C28.268 45.8246 25.9563 34.6341 25.9563 34.6341Z" fill="#575A89"/>
<path d="M15.2496 66.8675L15.8422 73.3142H22.418L21.8197 65.2863L15.2496 66.8675Z" fill="#FFB9B9"/>
<path d="M45.1801 63.4617L46.7617 73.3142H81.9238L84.9655 53.4876L45.1801 63.4617Z" fill="#3F3D56"/>
<path d="M86.3038 52.1496L86.6688 53.9742L41.1649 64.9213V63.3401L86.3038 52.1496Z" fill="#3F3D56"/>
<path d="M67.0803 55.4338L66.8369 57.5016L69.5136 57.1367L68.4186 55.0689L67.0803 55.4338Z" fill="#3F3D56"/>
<path d="M52.3584 34.5125C52.3584 34.5125 57.7118 34.1476 59.1718 38.2832C60.6318 42.4188 64.0385 49.8386 65.3769 50.9333C66.7152 52.028 68.1753 54.9473 67.9319 55.9203" stroke="#3F3D56" stroke-width="3.5664" stroke-miterlimit="10"/>
<path d="M53.1492 34.4517C53.1492 35.0227 52.5419 35.4856 51.5676 35.4856C50.5932 35.4856 50.1075 35.0227 50.1075 34.4517C50.1075 33.8807 50.5932 33.4178 51.5676 33.4178C52.5419 33.4178 53.1492 33.8807 53.1492 34.4517Z" fill="#F2C034"/>
<path d="M44.1458 53.4268C44.1458 53.4268 45.0583 49.5953 43.3549 44.0001C41.6516 38.4049 41.4082 39.8645 40.7999 39.013C40.1916 38.1616 34.3568 36.3171 34.3568 36.3171C34.3985 36.7502 35.0429 38.0829 35.8892 39.6771C35.7369 39.1025 35.506 38.5516 35.2032 38.04C34.3515 36.5803 35.8115 36.9452 35.8115 36.9452C36.4199 36.9452 39.9482 41.9323 41.5299 48.0141C43.1116 54.0958 41.0432 57.2583 41.0432 57.2583L44.1458 53.4268Z" fill="#575A89"/>
<path d="M34.4124 36.2762C34.4124 36.2762 35.1327 39.0079 35.7458 39.4057C36.359 39.8036 39.9957 43.5809 39.9957 43.5809L39.5224 40.5335L37.5757 37.6142L37.058 37.2386L34.4124 36.2762Z" fill="#575A89"/>
<path opacity="0.1" d="M18.2304 44.6691L18.4001 38.4048C18.4001 38.4048 14.3979 40.1077 14.0329 47.4059C13.6679 54.704 14.6412 68.4488 15.9796 68.5704C17.3179 68.692 23.6447 67.2324 23.6447 67.2324C23.6447 67.2324 24.618 49.5953 24.253 47.2842C23.888 44.9732 18.2304 44.6691 18.2304 44.6691Z" fill="black"/>
<path d="M18.5347 38.4048H17.5485C17.5485 38.4048 13.5463 40.1077 13.1813 47.4059C12.8163 54.704 13.7897 68.4488 15.128 68.5704C16.4664 68.692 22.7931 67.2324 22.7931 67.2324C22.7931 67.2324 23.7665 49.5953 23.4015 47.2842C23.0365 44.9732 18.5347 38.4048 18.5347 38.4048Z" fill="#575A89"/>
<path d="M23.7055 30.4377C27.8717 30.4377 31.249 26.6529 31.249 21.9841C31.249 17.3152 27.8717 13.5304 23.7055 13.5304C19.5394 13.5304 16.1621 17.3152 16.1621 21.9841C16.1621 26.6529 19.5394 30.4377 23.7055 30.4377Z" fill="#3F3D56"/>
<path d="M29.1199 28.8565C29.9598 28.8565 30.6407 27.849 30.6407 26.6062C30.6407 25.3634 29.9598 24.356 29.1199 24.356C28.2799 24.356 27.599 25.3634 27.599 26.6062C27.599 27.849 28.2799 28.8565 29.1199 28.8565Z" fill="#FFB9B9"/>
<path d="M16.1622 19.7338C19.5892 19.7338 22.3673 16.9564 22.3673 13.5304C22.3673 10.1044 19.5892 7.327 16.1622 7.327C12.7353 7.327 9.95715 10.1044 9.95715 13.5304C9.95715 16.9564 12.7353 19.7338 16.1622 19.7338Z" fill="#3F3D56"/>
<path d="M16.9642 18.5C16.0627 18.9586 15.0628 19.1899 14.0516 19.1737C13.0403 19.1576 12.0483 18.8946 11.1619 18.4076C10.2755 17.9205 9.52172 17.2243 8.96606 16.3794C8.41041 15.5345 8.06978 14.5666 7.97383 13.5601C7.84132 14.4289 7.89504 15.3161 8.13142 16.1626C8.36779 17.0092 8.78144 17.7959 9.34493 18.4705C9.90842 19.1452 10.6089 19.6924 11.3999 20.0759C12.191 20.4595 13.0545 20.6706 13.9334 20.6952C14.8122 20.7199 15.6862 20.5575 16.4975 20.2189C17.3088 19.8803 18.0389 19.3732 18.6393 18.7312C19.2398 18.0892 19.6969 17.327 19.9804 16.495C20.2639 15.663 20.3672 14.7803 20.2837 13.9053C20.136 14.88 19.7578 15.8054 19.1805 16.6046C18.6031 17.4037 17.8433 18.0535 16.9642 18.5Z" fill="#3F3D56"/>
<path d="M12.758 14.5557C12.1349 13.7593 11.716 12.8226 11.5378 11.8272C11.3596 10.8319 11.4275 9.80814 11.7355 8.84504C12.0436 7.88194 12.5825 7.00874 13.3053 6.30146C14.0281 5.59418 14.9129 5.07428 15.8826 4.78702C15.0043 4.82371 14.1437 5.04661 13.358 5.44095C12.5723 5.83529 11.8794 6.39207 11.3252 7.07438C10.771 7.7567 10.3682 8.54896 10.1434 9.39869C9.91867 10.2484 9.87712 11.1362 10.0215 12.0032C10.1659 12.8702 10.493 13.6966 10.981 14.4276C11.4691 15.1587 12.107 15.7777 12.8524 16.2437C13.5979 16.7096 14.4338 17.0119 15.305 17.1304C16.1761 17.249 17.0625 17.181 17.9054 16.9312C16.9202 16.9733 15.9392 16.7798 15.0439 16.3666C14.1486 15.9535 13.3649 15.3326 12.758 14.5557Z" fill="#3F3D56"/>
<path d="M32.8307 21.4367C35.2498 21.4367 37.2108 20.0208 37.2108 18.2742C37.2108 16.5276 35.2498 15.1116 32.8307 15.1116C30.4117 15.1116 28.4507 16.5276 28.4507 18.2742C28.4507 20.0208 30.4117 21.4367 32.8307 21.4367Z" fill="#3F3D56"/>
</g>
<defs>
<clipPath id="clip0">
<rect width="114.125" height="73.4678" fill="white" transform="translate(0.832031 0.0288086)"/>
</clipPath>
</defs>
</svg>
