<svg width="126" height="57" viewBox="0 0 126 57" fill="none" xmlns="http://www.w3.org/2000/svg">
<g opacity="0.3">
<circle cx="3.59762" cy="3.17282" r="2.99594" fill="#FCE96D"/>
<circle cx="3.59762" cy="15.7558" r="2.99594" fill="#FCE96D"/>
<circle cx="3.59762" cy="28.3387" r="2.99594" fill="#FCE96D"/>
<circle cx="3.59762" cy="40.9216" r="2.99594" fill="#FCE96D"/>
<circle cx="3.59762" cy="53.5046" r="2.99594" fill="#FCE96D"/>
<circle cx="16.7799" cy="3.17282" r="2.99594" fill="#FCE96D"/>
<circle cx="16.7799" cy="15.7558" r="2.99594" fill="#FCE96D"/>
<circle cx="16.7799" cy="28.3387" r="2.99594" fill="#FCE96D"/>
<circle cx="16.7799" cy="40.9216" r="2.99594" fill="#FCE96D"/>
<circle cx="16.7799" cy="53.5046" r="2.99594" fill="#FCE96D"/>
<circle cx="29.962" cy="3.17282" r="2.99594" fill="#FCE96D"/>
<circle cx="29.962" cy="15.7558" r="2.99594" fill="#FCE96D"/>
<circle cx="29.962" cy="28.3387" r="2.99594" fill="#FCE96D"/>
<circle cx="29.962" cy="40.9216" r="2.99594" fill="#FCE96D"/>
<circle cx="29.962" cy="53.5046" r="2.99594" fill="#FCE96D"/>
<circle cx="43.1439" cy="3.17282" r="2.99594" fill="#FCE96D"/>
<circle cx="43.1439" cy="15.7558" r="2.99594" fill="#FCE96D"/>
<circle cx="43.1439" cy="28.3387" r="2.99594" fill="#FCE96D"/>
<circle cx="43.1439" cy="40.9216" r="2.99594" fill="#FCE96D"/>
<circle cx="43.1439" cy="53.5046" r="2.99594" fill="#FCE96D"/>
<circle cx="56.326" cy="3.17282" r="2.99594" fill="#FCE96D"/>
<circle cx="56.326" cy="15.7558" r="2.99594" fill="#FCE96D"/>
<circle cx="56.326" cy="28.3387" r="2.99594" fill="#FCE96D"/>
<circle cx="56.326" cy="40.9216" r="2.99594" fill="#FCE96D"/>
<circle cx="56.326" cy="53.5046" r="2.99594" fill="#FCE96D"/>
<circle cx="69.5083" cy="3.17282" r="2.99594" fill="#FCE96D"/>
<circle cx="69.5083" cy="15.7558" r="2.99594" fill="#FCE96D"/>
<circle cx="69.5083" cy="28.3387" r="2.99594" fill="#FCE96D"/>
<circle cx="69.5083" cy="40.9216" r="2.99594" fill="#FCE96D"/>
<circle cx="69.5083" cy="53.5046" r="2.99594" fill="#FCE96D"/>
<circle cx="82.6903" cy="3.17282" r="2.99594" fill="#FCE96D"/>
<circle cx="82.6903" cy="15.7558" r="2.99594" fill="#FCE96D"/>
<circle cx="82.6903" cy="28.3387" r="2.99594" fill="#FCE96D"/>
<circle cx="82.6903" cy="40.9216" r="2.99594" fill="#FCE96D"/>
<circle cx="82.6903" cy="53.5046" r="2.99594" fill="#FCE96D"/>
<circle cx="95.8725" cy="3.17282" r="2.99594" fill="#FCE96D"/>
<circle cx="95.8725" cy="15.7558" r="2.99594" fill="#FCE96D"/>
<circle cx="95.8725" cy="28.3387" r="2.99594" fill="#FCE96D"/>
<circle cx="95.8725" cy="40.9216" r="2.99594" fill="#FCE96D"/>
<circle cx="95.8725" cy="53.5046" r="2.99594" fill="#FCE96D"/>
<circle cx="109.055" cy="3.17282" r="2.99594" fill="#FCE96D"/>
<circle cx="109.055" cy="15.7558" r="2.99594" fill="#FCE96D"/>
<circle cx="109.055" cy="28.3387" r="2.99594" fill="#FCE96D"/>
<circle cx="109.055" cy="40.9216" r="2.99594" fill="#FCE96D"/>
<circle cx="109.055" cy="53.5046" r="2.99594" fill="#FCE96D"/>
<circle cx="122.237" cy="3.17282" r="2.99594" fill="#FCE96D"/>
<circle cx="122.237" cy="15.7558" r="2.99594" fill="#FCE96D"/>
<circle cx="122.237" cy="28.3387" r="2.99594" fill="#FCE96D"/>
<circle cx="122.237" cy="40.9216" r="2.99594" fill="#FCE96D"/>
<circle cx="122.237" cy="53.5046" r="2.99594" fill="#FCE96D"/>
</g>
</svg>
